<?xml version="1.0" encoding="utf-8"?>
<!-- Generator: Adobe Illustrator 19.0.0, SVG Export Plug-In . SVG Version: 6.00 Build 0)  -->
<svg version="1.1" id="Layer_1" xmlns="http://www.w3.org/2000/svg" xmlns:xlink="http://www.w3.org/1999/xlink" x="0px" y="0px"
	 viewBox="0 0 2919.7 1755.3" style="enable-background:new 0 0 2919.7 1755.3;" xml:space="preserve">
<style type="text/css">
	.st0{opacity:0.1;fill:#9BC1F9;}
	.st1{fill:#3C8F7C;}
	.st2{fill:#96D9C9;}
	.st3{fill:#50BFA5;}
	.st4{fill:#0E2E35;}
	.st5{fill:#F7CC7F;}
	.st6{fill:#F47458;}
	.st7{fill:#3CB4C5;}
	.st8{fill:#F79C8D;}
	.st9{fill:#F48C7F;}
	.st10{fill:#F7A491;}
	.st11{fill:#13375B;}
	.st12{fill:#355389;}
	.st13{fill:#FAE0B2;}
	.st14{fill:#B75742;}
	.st15{opacity:0.5;fill:#3CB4C5;}
	.st16{fill:#E87B50;}
	.st17{fill:#FFFFFF;}
	.st18{fill:#F3FCFF;}
	.st19{opacity:0.3;fill:#DAEEF7;}
	.st20{opacity:0.2;fill:#3CB4C5;}
	.st21{fill:#9BC1F9;}
	.st22{fill:#E8BA70;}
	.st23{fill:#256653;}
	.st24{opacity:0.3;fill:#3C8F7C;}
	.st25{fill:#DD513A;}
	.st26{fill:#6DB1B5;}
	.st27{fill:#86B1F2;}
	.st28{fill:#184655;}
	.st29{fill:#F8A492;}
</style>
<g>
	<path class="st0" d="M893.7,3.2c447.2-25.9,916,109.2,847.1,305.1c-68.9,195.9,368.4-69.6,543,1c124.3,50.3,74.6,203.4,134.7,265.1
		c137.8,141.4,278.8-36.7,454.2,70.2c175.4,106.9-183.7,1104.3-367,1109.9l-2090.2-12.7l-150-13.5c0,0-414.9-226.9-118.1-436.2
		c200.7-141.5,56.3-244.3,34.5-309.1c-25.1-74.4-83.5-204.3,171.2-299.7c254.8-95.3,189-302.8,182.7-345.8
		C529.5,294.7,446.5,29.1,893.7,3.2L893.7,3.2z"/>
	<g>
		<g>
			<path class="st1" d="M385.7,1300.5c-48.1-71.7-59.7-159.9-61-221.3c-1.4-66.6,8.7-116.9,8.8-117.4l-3.3-1.1
				c-0.1,0.5-10.3,51.2-8.9,118.3c1.3,62,13.1,151.1,61.7,223.7L385.7,1300.5z"/>
		</g>
		<g>
			<path class="st1" d="M344.2,949.2c-0.6,15.1-6.6,28-15.6,36.1c-8.3-10.2-13.3-24.4-12.7-39.5c0.6-15.1,6.6-28,15.6-36.1
				C339.8,919.9,344.8,934.1,344.2,949.2z"/>
		</g>
		<g>
			<path class="st1" d="M314.7,985.1c8.2,12.8,11.1,27.5,9.1,40.5c-11.9-2.5-23.6-10.6-31.8-23.4c-8.2-12.8-11.1-27.5-9.1-40.5
				C294.8,964.3,306.6,972.4,314.7,985.1z"/>
		</g>
		<g>
			<path class="st1" d="M298.8,1026.7c12.3,7.6,20.8,19.7,24.4,32.7c-11.3,3.8-24.7,2.2-36.9-5.4c-12.3-7.6-20.8-19.7-24.4-32.7
				C273.1,1017.6,286.5,1019.1,298.8,1026.7z"/>
		</g>
		<g>
			<path class="st1" d="M306.2,1083.5c9.7,6,16,16.8,18,28.8c-9.7,4.7-20.9,4.6-30.6-1.5c-9.7-6-16-16.8-18-28.8
				C285.3,1077.3,296.5,1077.5,306.2,1083.5z"/>
		</g>
		<g>
			<path class="st1" d="M343,1014.6c10.4-6.3,22.4-7,32.7-3.1c-2.3,11.5-9.1,21.9-19.6,28.2c-10.4,6.3-22.4,7-32.7,3.1
				C325.7,1031.3,332.5,1020.8,343,1014.6z"/>
		</g>
		<g>
			<path class="st1" d="M343.2,1054c10.4-6.3,22.4-7,32.7-3.1c-2.3,11.5-9.1,21.9-19.6,28.2c-10.4,6.3-22.4,7-32.7,3.1
				C325.9,1070.7,332.7,1060.3,343.2,1054z"/>
		</g>
	</g>
	<g>
		<g>
			<path class="st2" d="M336.1,1652.6c-100.8-36.7-171.3-124.2-212.7-191.2c-44.9-72.7-66.2-137.5-66.4-138.2l-4.5,1.8
				c0.2,0.7,21.7,66,66.9,139.2c41.8,67.6,113,156.1,215.1,193.2L336.1,1652.6z"/>
		</g>
		<g>
			<path class="st2" d="M60.9,1299.6c9.2,17.3,10.8,36.9,5.9,54c-16-3.9-30.9-15.2-40.1-32.5c-9.2-17.3-10.8-36.9-5.9-54
				C36.9,1271,51.7,1282.3,60.9,1299.6z"/>
		</g>
		<g>
			<path class="st2" d="M51.1,1365.7c17.5,6.9,30.4,20.7,36.6,36.9c-15,7.9-33.5,9.3-51.1,2.4c-17.5-6.9-30.4-20.7-36.6-36.9
				C15,1360.3,33.5,1358.8,51.1,1365.7z"/>
		</g>
		<g>
			<path class="st2" d="M60.1,1426.1c18.8-2.5,36.3,3.3,48.8,14.5c-10.2,14.2-26.4,24.5-45.1,26.9C45,1470,27.5,1464.2,15,1453
				C25.2,1438.8,41.4,1428.5,60.1,1426.1z"/>
		</g>
		<g>
			<path class="st2" d="M95.7,1483.9c18.8-2.5,36.3,3.3,48.8,14.5c-10.2,14.2-26.4,24.5-45.1,26.9c-18.8,2.5-36.3-3.3-48.8-14.5
				C60.8,1496.6,76.9,1486.4,95.7,1483.9z"/>
		</g>
		<g>
			<path class="st2" d="M92.8,1393.8c1-18.3,8.6-34.7,19.8-46c10,10.9,15.7,27.1,14.7,45.4c-1,18.3-8.6,34.7-19.8,46
				C97.6,1428.3,91.8,1412.1,92.8,1393.8z"/>
		</g>
		<g>
			<path class="st2" d="M129.9,1453.7c0.8-18.3,8.1-34.9,19.2-46.3c10.1,10.7,16.2,26.8,15.4,45.1c-0.8,18.3-8.1,34.9-19.2,46.3
				C135.2,1488.1,129.2,1471.9,129.9,1453.7z"/>
		</g>
		<g>
			<path class="st2" d="M156.3,1543.7c7.2-3.8,15-3.9,21.7-1c-2,7.5-7,14.1-14.1,17.9c-7.2,3.8-15,3.9-21.7,1
				C144.1,1554.1,149.1,1547.4,156.3,1543.7z"/>
		</g>
	</g>
	<path class="st1" d="M577.8,1555.5c0,0,78.4-173,52.2-211.6c-36.2-53.3-81.2,110.4-83.4,96c-20.7-135.9-16.4-307.2-113.4-333.2
		c-55.1-14.8,3.6,128-3.2,164.8c-6.8,36.8-98.5-94.5-155-164c-56.5-69.5-91.1-31.1-58.3,53.1c31.7,81.5,146.3,177,120.7,185.2
		c-25.7,8.2-169.6-105.4-191.3-63.5c-26.6,51.3,195.1,141.9,172.9,152.1c-22.2,10.2-127.9-37.8-127.9,3.1s146,51.1,142.2,68.7
		c-6.1,28.6-97.8-44.6-105-4.9c-7.3,40.6,124.5,43.7,119.9,75.4c-2.6,18.3-35.8-0.9-41.8,24.2c-13.7,57.2,194,137.4,194,137.4
		L577.8,1555.5z"/>
	<path class="st2" d="M719.5,1593.6c31.5,14.8,23,51.4,23,51.4s85.5-66.7,117.4-27.8c32,39,15.2,115.3-22.3,127.7
		c-37.5,12.4-363.5,3.7-363.5,3.7S691.1,1580.3,719.5,1593.6z"/>
	<g>
		<g>
			<g>
				<path class="st3" d="M496.1,1687.7l3-2.6c-68.5-83.4-97.7-188-110.2-261.1c-13.5-79.3-10.8-139.5-10.8-140.1l-4.2-0.7
					c0,0.6-2.8,61.3,10.8,141C397.4,1497.8,426.9,1603.4,496.1,1687.7z"/>
			</g>
			<g>
				<path class="st3" d="M387.3,1270.7c2,18-2.6,33.6-11.6,43.6c-11.5-11.8-19.8-28.5-21.8-46.5c-2-18,2.6-33.6,11.6-43.6
					C377,1235.9,385.3,1252.6,387.3,1270.7z"/>
			</g>
			<g>
				<path class="st3" d="M360.6,1312.6c11.7,14.9,17.8,32.3,17.8,47.8c-14.2-2.5-29.3-11.7-41-26.5c-11.7-14.9-17.8-32.3-17.8-47.8
					C333.8,1288.5,348.8,1297.7,360.6,1312.6z"/>
			</g>
			<g>
				<path class="st3" d="M349.5,1362.7c15.5,8.6,27.6,22.7,34.1,37.9c-12.4,4.9-28.2,3.6-43.7-4.9c-15.5-8.6-27.6-22.6-34.1-37.9
					C318.2,1352.8,334,1354.1,349.5,1362.7z"/>
			</g>
			<g>
				<path class="st3" d="M377.3,1445.2c6.7,3.1,12.2,8.7,15.3,14.9c-5,2.5-11.6,2.5-18.3-0.6c-6.7-3.1-12.2-8.7-15.3-14.9
					C364,1442,370.6,1442.1,377.3,1445.2z"/>
			</g>
			<g>
				<path class="st3" d="M385.8,1475.9c6.7,3.1,12.2,8.7,15.3,14.9c-5,2.5-11.6,2.5-18.3-0.6c-6.7-3.1-12.2-8.7-15.3-14.9
					C372.5,1472.8,379.1,1472.8,385.8,1475.9z"/>
			</g>
			<g>
				<path class="st3" d="M398.5,1346.5c11-7.9,24.6-9.3,37.3-5.1c-0.6,13.7-6.6,26.5-17.6,34.3c-11,7.9-24.6,9.3-37.3,5.1
					C381.5,1367.1,387.5,1354.4,398.5,1346.5z"/>
			</g>
			<g>
				<path class="st3" d="M405.8,1393.4c11-7.9,24.6-9.3,37.3-5.1c-0.6,13.7-6.6,26.5-17.6,34.3c-11,7.9-24.6,9.3-37.3,5.1
					C388.8,1414,394.8,1401.3,405.8,1393.4z"/>
			</g>
			<g>
				<path class="st3" d="M410.6,1461.1c7.1-5.1,16-6,24.3-3.3c-0.4,8.9-4.3,17.2-11.4,22.4c-7.1,5.1-16,6-24.3,3.3
					C399.5,1474.5,403.4,1466.2,410.6,1461.1z"/>
			</g>
		</g>
	</g>
	<path class="st3" d="M547.7,1750.3c0,0-100.1-128.6-142-148.3c-44.6-21-5.9,51.7-5.9,51.7s-95.4-93.7-117.8-70.3
		c-22.4,23.4,1.5,45.3,1.5,45.3s-79.9-14.8-91.5,15.1c-17.9,46,113.4,68.8,113.4,68.8s-62.9-13.8-50.3,14.7
		C274.2,1770.3,547.7,1750.3,547.7,1750.3z"/>
	<path class="st2" d="M192.1,1643.9c11.6-29.9,91.5-15.1,91.5-15.1s-23.9-21.9-1.5-45.3c22.4-23.4,97,31.8,97,31.8
		s-11.6-50.8,44.5-10.8C463.7,1633,541,1739.5,541,1739.5L192.1,1643.9z"/>
	<g>
		<g>
			<path class="st3" d="M474.1,1748.4c0,0,159.5,11.3,190.6-17.3s0.2-80.3,0.2-80.3s54.7-43.3,53.9-71.5
				c-0.9-28.3-36.5-13.9-36.5-13.9s60.5-77.8,46.1-92.6c-26.7-27.6-96.6,53.3-96.6,53.3s20.7-38.5-1.1-44.6
				c-33-9.2-57.3,85.7-57.3,85.7s6.2-37.5-16.6-32.5C516,1543.5,474.1,1748.4,474.1,1748.4z"/>
		</g>
	</g>
	<polygon class="st4" points="606.6,1750.1 593.3,1750.1 643,1491.5 654.1,1493.7 	"/>
	<path class="st3" d="M2099.6,1308.5l12.9-31.2c10-23,35.6-33.9,57.1-24.5l0,0c54.3,23.8,77.9,90,52.7,147.9l-18.4,42.3
		c-8.1,18.5-5.3,38.9,5.6,53.3c9.9,13.1,11.5,31.2,4.6,47l-9.7,22.3c-10.5,24.2-31,42-55.2,49.4c-14.2,4.3-26.7,15-33.3,30.2
		l-13.7,31.6c-15.2,34.9-54.1,51.6-86.8,37.3l-18.7-8.2c-32.8-14.4-47-54.3-31.8-89.2l0,0c24.6-41.8,22.6-72.9,13.9-94.1
		c-12.8-31.1-12.7-66.9,1.2-98.7l1.9-4.5c14.6-33.6,42.8-58.7,76.5-69.4C2073.2,1345.3,2088.6,1333.7,2099.6,1308.5z"/>
	<path class="st2" d="M1865.5,1747.2c26.4-34.3,172.8-216.4,267-247c104-33.8,6,100.4,6,100.4s184.5-202.5,252.2-184.2
		c62.1,16.7,0,142.2,0,142.2s69.9-69.5,154.7-69.5c82.5,0-57.3,252.7-64.8,265.9L1865.5,1747.2z"/>
	<g>
		<g>
			<path class="st1" d="M2421.5,1357.5c-75.4,118.1-130.3,255.2-161.8,394.7l-7.5-0.1c31.3-136.5,88.2-274.7,163.4-392.7
				c17.5-27.4,36.4-60,69.1-70.7c0.6-0.2,0.9,0.8,0.3,1C2455.2,1301.1,2437.8,1331.9,2421.5,1357.5z"/>
		</g>
		<g>
			<path class="st1" d="M2276.8,1752.5c84.2-115,187.6-222.4,309.4-314.8c1.2-0.9,2.9,1.2,1.6,2.1
				c-115.5,89.1-217.3,193.8-303.3,312.7L2276.8,1752.5z"/>
		</g>
		<path class="st1" d="M2428.4,1284.3c1.9,2.9,9.4,10.3,11.6,20.1c2.9,9.3,0.6,21,0.4,20.6c-0.6,0.2,8.6-7.5,11.5-19.9
			c3.7-11.8,1.1-28.3-3.5-33.7c-8-12.3-21.9-13.6-24.6-7.6C2420.8,1269.7,2424.5,1277.8,2428.4,1284.3z"/>
		<path class="st1" d="M2446.4,1389.7c-2.8-2-10.1-9.6-19.8-12c-9.2-3.1-20.9-1-20.5-0.8c-0.2,0.6,7.7-8.5,20-11.1
			c11.9-3.5,28.2-0.6,33.5,4.2c12.1,8.2,13.1,22.2,7.1,24.8C2460.8,1397.6,2452.8,1393.8,2446.4,1389.7z"/>
		<path class="st1" d="M2419.2,1436c-2.8-2-10.1-9.6-19.8-12c-9.2-3.1-20.9-1-20.5-0.8c-0.2,0.6,7.7-8.5,20-11.1
			c11.9-3.5,28.2-0.6,33.5,4.2c12.1,8.2,13.1,22.2,7.1,24.8C2433.6,1443.8,2425.6,1440,2419.2,1436z"/>
		<path class="st1" d="M2516.3,1543.2c-2.8-2-10.1-9.6-19.8-12c-9.2-3.1-20.9-1-20.5-0.8c-0.2,0.6,7.7-8.5,20-11.1
			c11.9-3.5,28.2-0.6,33.5,4.2c12.1,8.2,13.1,22.2,7.1,24.8C2530.7,1551,2522.7,1547.2,2516.3,1543.2z"/>
		<path class="st1" d="M2565.9,1499.3c-2.8-2-10.1-9.6-19.8-12c-9.2-3.1-20.9-1-20.5-0.8c-0.2,0.6,7.7-8.5,20-11.1
			c11.9-3.5,28.2-0.6,33.5,4.2c12.1,8.2,13.1,22.2,7.1,24.8C2580.3,1507.2,2572.3,1503.4,2565.9,1499.3z"/>
		<path class="st1" d="M2390.3,1336.6c2.4,2.5,10.9,8.7,14.6,18.1c4.4,8.7,3.9,20.6,3.6,20.2c-0.5,0.3,7.3-8.8,8.2-21.5
			c1.8-12.3-3.3-28.1-8.8-32.8c-9.8-10.9-23.7-9.9-25.4-3.6C2380.5,1323.4,2385.4,1330.8,2390.3,1336.6z"/>
		<path class="st1" d="M2350.3,1389c3.4,1.8,15.1,5,21.1,13.9c6.7,7.9,7.5,21.3,7.1,21c-0.6,0.6,8.4-13,8-27.5
			c0.8-14.5-7.7-29.9-15.3-32.8c-14-7.9-31.9-0.9-33.4,6.9C2336.1,1378.5,2343.2,1384.6,2350.3,1389z"/>
		<path class="st1" d="M2308.1,1468.4c3.6,1.2,15.8,2.4,23.1,10.1c7.9,6.6,11,19.7,10.5,19.5c-0.5,0.7,6.1-14.2,3.3-28.4
			c-1.6-14.4-12.6-28.2-20.6-29.7c-15.1-5.5-31.6,4.5-31.7,12.5C2292.4,1460.4,2300.5,1465.2,2308.1,1468.4z"/>
		<path class="st1" d="M2432.8,1523.7c2.6,1.7,12,5,16.3,12.5c5,6.8,4.9,17.8,4.6,17.5c-0.5,0.4,7.6-10.1,8.1-21.9
			c1.5-11.7-4.6-24.8-10.6-27.5c-10.9-7.3-25.9-2.5-27.5,3.7C2421.8,1514.3,2427.3,1519.7,2432.8,1523.7z"/>
		<path class="st1" d="M2497.7,1302.9c-1.6-1.3-5.6-6.1-11.2-8c-5.3-2.3-12.3-1.5-12.1-1.4c-0.2,0.3,4.9-4.7,12.3-5.7
			c7.2-1.5,16.7,0.9,19.7,3.9c6.8,5.4,6.8,13.7,3.1,15C2505.8,1308.1,2501.3,1305.5,2497.7,1302.9z"/>
		<path class="st1" d="M2482.6,1269.1c0.1,2.1,1.4,8.2-0.6,13.8c-1.5,5.6-6.3,10.7-6.3,10.4c-0.4-0.1,6.7-1,12-6.3
			c5.6-4.8,9.5-13.8,8.9-18c-0.1-8.7-6.7-13.7-9.9-11.6C2483.4,1259.4,2482.7,1264.6,2482.6,1269.1z"/>
		<path class="st1" d="M2601.6,1454.7c-1.6-1.3-5.6-6.1-11.2-8c-5.3-2.3-12.3-1.5-12.1-1.4c-0.2,0.3,4.9-4.7,12.3-5.7
			c7.2-1.5,16.7,0.9,19.7,3.9c6.8,5.4,6.8,13.7,3.1,15C2609.8,1459.9,2605.2,1457.3,2601.6,1454.7z"/>
		<path class="st1" d="M2583.4,1420.6c0.2,2,2.1,8,0.6,13.8c-1,5.7-5.4,11.2-5.4,10.9c-0.4,0,6.6-1.6,11.5-7.3
			c5.2-5.2,8.3-14.6,7.4-18.7c-0.8-8.7-7.8-13.1-10.8-10.8C2583.4,1410.9,2583.1,1416.1,2583.4,1420.6z"/>
	</g>
	<path class="st1" d="M2501.3,1616.6c0.5,3.2,3.8,12.4,1.8,21.5c-1.2,9-7.7,17.8-7.8,17.4c-0.6,0,10.2-2.9,17.4-12.1
		c7.8-8.5,12.1-23.3,10.3-29.7c-1.8-13.5-13-20-17.6-16.1C2500.7,1601.4,2500.6,1609.6,2501.3,1616.6z"/>
	<path class="st1" d="M2433.5,1640.9c0.5,3.2,3.8,12.4,1.8,21.5c-1.2,9-7.7,17.8-7.8,17.4c-0.6,0,10.2-2.9,17.4-12.1
		c7.8-8.5,12.1-23.3,10.3-29.7c-1.8-13.5-13-20-17.6-16.1C2432.9,1625.7,2432.8,1633.9,2433.5,1640.9z"/>
	<path class="st1" d="M2364.6,1671.8c0.5,3.2,3.8,12.4,1.8,21.5c-1.2,9-7.7,17.8-7.8,17.4c-0.6,0,10.2-2.9,17.4-12.1
		c7.8-8.5,12.1-23.3,10.3-29.7c-1.8-13.5-13-20-17.6-16.1C2364,1656.6,2363.8,1664.8,2364.6,1671.8z"/>
	<path class="st1" d="M2521.5,1680.2c-1.4-2.6-4.1-11.2-10.6-16.8c-5.9-5.9-15.6-8.8-15.4-8.5c-0.4,0.3,9.1-3.5,19.6-0.8
		c10.4,1.9,21.8,10.4,24.1,16.1c6.1,10.9,1.6,22-4,21.7C2529.6,1691.7,2524.9,1685.7,2521.5,1680.2z"/>
	<path class="st1" d="M2451,1705.2c-1.4-2.6-4.1-11.2-10.6-16.8c-5.9-5.9-15.6-8.8-15.4-8.5c-0.4,0.3,9.1-3.5,19.6-0.8
		c10.4,1.9,21.8,10.4,24.1,16.1c6.1,10.9,1.6,22-4,21.7C2459,1716.7,2454.4,1710.8,2451,1705.2z"/>
	<path class="st1" d="M2575.3,1654.4c-1.2-1.5-4-6.5-8.9-9.1c-4.5-2.9-11-3.5-10.8-3.3c-0.2,0.3,5.3-3.4,12.2-3.1
		c6.8-0.2,15.1,3.6,17.3,6.9c5.3,6.1,3.9,13.6,0.3,14.2C2581.8,1660.5,2578.1,1657.4,2575.3,1654.4z"/>
	<path class="st1" d="M2567.1,1621.1c-0.3,1.9-0.1,7.7-2.8,12.5c-2.3,4.9-7.5,8.7-7.5,8.4c-0.3-0.1,6.3,0.2,12-3.8
		c5.9-3.4,10.9-11,11.1-14.9c1.4-7.9-3.8-13.6-7.1-12.2C2569.5,1612.4,2568,1617,2567.1,1621.1z"/>
	<path class="st5" d="M2207.9,735.3c4.1,0.5,7.7-4.1,6.6-8c-1.7-6.2-3.2-12.5-4.8-18.7c-3.5-13.8-4.1-14.2-3.1-15.4
		c2.3-2.8,7.9,0.5,9.8,1.8c4.3,3.1,7.9,7.2,12.8,9.4c9.6,4.2,19-1.2,17.5-12.2c-1.4-10-3.4-20-5.5-30c10,5.3,19.8,11,29.9,16.2
		c3.6,1.8,7.2-0.8,6.7-4.7c-1.1-8.8-4.2-34.8-5.3-43.4c-0.3-2.2-2.8-12.4-0.5-13.6c2-1,8.7,3.2,10.3,3.9c8.9,4.1,12,5.4,41.2,18.1
		c3.5,1.5,7.9-2.5,6.7-6.1c-12.3-35.8-7.8-37.4-14.1-43.7c-1.4-1.4-3.3-0.8-4.1,0.9c-2,4.2-2.2,5.4,1.6,21.8c1,4.2,2.1,8.5,3.2,12.7
		c-35.1-16.1-43.5-21-50.9-14.2c-5.1,4.7-3.9,6.7,2.2,56c-10.2-6.2-20.7-11.6-31.2-17.4c-4-2.2-8.3,0.9-7.6,5.4
		c5.3,35.8,6.9,36.5,6.5,39.8c0,0.1,1.8,1.1-1,0c-4.7-1.9-11.6-11.6-21.2-13.3c-8.5-1.5-18.3,2.9-19.1,12.4
		c-0.5,5.5,0.9,7.9,5.5,28.1c-10.2-1-20.4-0.7-31.3,0.8c-4.7,0.7-7.7,1.7-11.5,4.7c-3,2.5-1.9,8.3,2,9.2
		C2170.1,738.6,2177.3,731.6,2207.9,735.3z"/>
	<path class="st6" d="M2374.3,879.6c1.4-9.6,3.4-18.7,6.5-28.3c0.6-1.8,1.3-5.3,3.5-5.9c5.3-1.4,9.6,8.2,25.6,17
		c6.9,3.8,20.9,12.3,27.1,3.4c3.2-4.6,4-11.4,5.6-16.7c1.2-4,2.5-8,3.8-12c25.4,16.1,23.3,17.2,30.4,16.4c1.8-0.2,3.4-2.5,2.9-4.3
		c-1.9-6.8-1.7-4.9-33.5-25.5c-2.9-1.9-7.5-0.8-8.5,2.8c-1.6,5.4-7.5,30.5-8.7,33.5c-0.2-0.3-1.6-0.4-1.9-0.5
		c-11.5-3.8-19.9-10.9-29.2-18.4c-7.6-6.1-19.2-9.7-25.2,0.6c-3.2,5.5-6.3,18.1-8.2,27.8c-15.3-10.4-30.5-21-45.8-31.3
		c-3-2-8.5-1-9.4,3.1c-2.5,11.2-5.4,22.4-8.4,33.5c-9-6.2-16.9-13.8-23.6-22.5c-4.9-6.4-15.5,0-2,15.3c7.3,8.8,16,16.2,25.8,22.2
		c3.3,2,8.2,1,9.4-3.1c3.3-10.9,6.1-22,8.6-33.1c15.3,10.2,30.8,20.2,46.1,30.4C2369,886.4,2373.7,883.9,2374.3,879.6z"/>
	<path class="st7" d="M2366.8,1118.1c-0.9,3.4,0.6,6.2,3.6,7.7c14.7,7.4,29.6,13.4,46,15.4c8.5,1,9.2-11.9,1-13.4
		c-12.8-2.4-25.8-5.5-37.9-10.8c3.1-9.2,7-18.1,12-26.4c1.9-3.2,1-8.4-3.1-9.5c-10.1-2.7-48.6-11.8-49.1-11.5c0.1-0.1,0.2-0.3,0.3-1
		c0.5-4.3,7.5-17.1,9-23.4c1.7-7.1-6.8-12.4-12.3-14.7c-11.1-4.5-26.3,0-36.1-7.8c-9.5-7.5,7.6-20.7,2.9-36.5
		c-3.7-12.1-16-12.5-35.2-14.4c-4.7-0.5-9.3-0.9-12.8,2.8c-0.9,0.9-1.4,2.5-0.7,3.7c3.9,6.7,11.2,6.4,28.5,8.5
		c2.2,0.3,6.1,0.1,7.6,2.2c4.7,7-8.7,18.6-4.9,32.8c3,11.1,14,16.2,24.1,18c7.9,1.4,18.7-0.3,25.7,4.8c-2.4,6.5-5,13.1-6.9,19.8
		c-2.1,7.3,0.1,13.5,7.3,16.2c7.9,3.1,16.6,4.5,24.8,6.5c5.5,1.4,11,2.8,16.5,4.1C2372.9,1099.9,2369.4,1108.8,2366.8,1118.1z"/>
	<path class="st7" d="M2046.7,562.3c-32.7-48.4-64.3-23-56.2-4.6c3.5,7.9,12.8,11.2,19.7,5.5c3.2-2.6,1.5-9-2.9-8.9
		c-3.7,0.1-3.3-4,0.7-4.4c5.4-0.6,10.2,4.7,13.7,8.2c8.2,8,18.9,18.3,16.9,31c-2.9,18.9-27.1,32.6-51.3,13.9
		c-34.9-27-13.8-91,31.2-89.3c24.5,0.9,46.1,17.9,54.5,40.8c1.6,4.5,7.8,1.6,7.4-2.5c-2.9-31.1-35.2-52.3-64.9-50.9
		c-30.5,1.4-52.9,26.5-57.1,55.8c-4.5,30.8,13.5,62.8,45.2,68.8C2038.2,632.3,2069.6,596.2,2046.7,562.3z"/>
	<path class="st1" d="M2318,1210.7c-5.6-7-19.3-14.4-26.9-6.2c-3.5,3.8-3.9,9.7,0.7,13c4.6,3.2,10.1,1.9,12.7,7.7
		c2.2,5-1.6,10.2-5.7,12.9c-12.7,8.2-31.6-1.1-41-10.5c-14.9-15-10.4-41.4,12.4-47.8c7.1-2,14.4-0.8,21.6-0.3c4,0.2,7.6-5.2,4.2-8.3
		c-12.9-12.2-34.7-7.9-47.5,2.3c-13.5,10.8-18.9,30.2-14.2,46.7c5.2,18.4,22.7,32,40.5,37.1
		C2311.9,1267.7,2336.2,1233.5,2318,1210.7z"/>
	<g>
		<path class="st4" d="M616,891.9c1-23.8-2.5-47.3-13.1-69.5c-9.1-19.1-31.6-29.9-52.1-29.9c-65.2-0.1-73.5,86.7-115,120.2
			c-12.7,10.2-26.9,18.6-38.9,29.6c-44.3,40.7-24.3,116.1,16.3,151.9c28.2,24.8,72.6,38.9,107.4,19.5c18.2-10.1,32-26.9,41.8-45.3
			c13.9-26.1,22.9-56.3,32.8-84.2C605.9,954.5,614.7,923.6,616,891.9z"/>
		<path class="st8" d="M476.2,901.8c0,0-47.9-86.1-59.5-104.4c-11.6-18.3-42-91-43.1-93.9c-1.1-2.9,20.9-37.3,16-38.5
			c-4.9-1.2-10.3,18.1-15.6,15.8c-5.2-2.3-20.5-48.8-23.5-46.5c-5.6,4.3,8.2,28.9,5.3,30.4c-3,1.5-12-27-17.8-26.2
			c-5.8,0.8,11.1,26.2,9.5,28.4c-1.6,2.2-19.2-21.6-22.4-16.5c-1.7,2.8,16.2,20.8,12.7,22.5c-3.4,1.7-19.4-10-21.1-6.6
			c-1.7,3.4,14.7,8,19.7,17c4.9,9.1,13.3,13,16.8,29.8c3.5,16.8,8.7,77.6,26.5,107.9c17.8,30.3,56.9,97.4,56.9,97.4L476.2,901.8z"/>
		<path class="st9" d="M729.6,1218.7l-74.4-57c0,0-7.5-53.2-17.5-100.3c-12.6,3.6-23.9,13.4-36.5,16.9l18.9,105.6l97.6,50.5
			l27.6,35.5l6.3-36.5L729.6,1218.7z"/>
		<path class="st5" d="M626.7,1007.3c-20.4-62-43.1-59.3-43.1-59.3l17.6,130.3c12.6-3.4,28.9-11.1,41.5-14.7
			C638.5,1044,631.7,1022.5,626.7,1007.3z"/>
		<path class="st10" d="M412.3,1658.8c0,0-4.6,32-12.5,42.4c-2.7,3.5-7.5,7.9-10.7,14.1c-4.9,9.8-2.2,24.3,1.4,32.3
			c1.9,4.1-0.1,4.1,4.1,5.4c12.6,3.9,26.1-2.7,31.5-14.9c3-6.8,5.6-15.9,6.2-27.3c1.3-29.1,10.3-43.9,10.3-43.9L412.3,1658.8z"/>
		<path class="st10" d="M550.5,1673.4c0,0,2.8,36.1,0.5,47.9c-1.2,6.3-8.1,19.2-4.9,25.1c3.1,5.9,6.7,7.4,6.7,7.4l81.6,1.3
			c4.4,0.1,1.5-2.8-2.1-5.5c-5.9-4.3-10.6-7.2-29.3-16.3c-1.2-0.6-5.7-3.4-7.3-4.4c-4.1-2.5-8.2-6.4-11.7-10.4
			c-5.9-6.6-6.4-38.4-6.4-38.4L550.5,1673.4z"/>
		<path class="st11" d="M614.3,1193.2c0,0,10.3,58.7,3.5,97.1c-6.7,38.5-39.1,394.9-39.1,394.9l-36,2c0,0-7.5-148.9-6.2-169.6
			c1.3-20.7,12-55.4,12-55.4l-3.6-120.2l45.4-157.9L614.3,1193.2z"/>
		<path class="st12" d="M508.5,1180.9c0,0-28.3,42.9-35.1,78.4c-6.7,35.5,5,144.6-8,191.1c-7,25.2-33.7,64.1-37.7,96.6
			c-4,32.5-19.9,117.8-19.9,117.8l36,7.2l83.6-212.9l65.6-192.4l16.8-99.1L508.5,1180.9z"/>
		<path class="st13" d="M531.4,936.8c0,0-37.5-2.4-52.4,13.9c-14.8,16.3,32.9,145,35.6,165.7c2.7,20.7-13.8,75.8-13.8,75.8
			s88.1,17.8,113.3,1.1c0,0,2.7-148.9,0-163.7c-2.7-14.8-25.2-74.9-30.6-80.9C578.3,942.7,531.4,936.8,531.4,936.8z"/>
		<path class="st10" d="M543.9,886.4c0,0-0.2,1.1-0.5,3c-1.7,9.1-8.1,39.2-12.5,47.4c-5.3,10,18,41.9,40.4,38
			c6.7-1.2-5.6-29.3-5-32.3c1.1-5.7,2.7-13.5,4.2-21.5c0.9-4.5,1.8-9.1,2.6-13.4c2.4-12.2,4.3-22.2,4.3-22.2L543.9,886.4z"/>
		<path class="st6" d="M543.4,889.4c0.3-1.9,0.5-3,0.5-3l33.6-0.8c0,0-2,10-4.3,22.2c-0.8,4.3-1.7,8.8-2.6,13.3
			c-5.2-0.8-10.6-3.3-16-8.1c-5.9-5.2-9.8-11.5-12.1-18.1C542.8,892.7,543.1,890.8,543.4,889.4z"/>
		<path class="st10" d="M566.5,809.7c0,0-15.8-1.8-25.7,11.1c-9.9,12.9-20.6,52.8,4,74.4c24.6,21.7,49-2.9,52.6-28.9
			C601,840.3,602.4,808.8,566.5,809.7z"/>
		<path class="st10" d="M604.7,865.9c-2.9,5.7-7.9,8.9-11,7.1c-3.1-1.8-3.3-8-0.4-13.7c2.9-5.7,7.9-8.9,11-7.1
			C607.4,854.1,607.6,860.2,604.7,865.9z"/>
		<path class="st4" d="M568.3,805.4c0,0-21.1,37.9-36.2,39.7c-15.1,1.8-17.1,21.9-17.1,21.9s5.4-46.4,20.4-55.4
			C550.3,802.7,568.3,805.4,568.3,805.4z"/>
		<path class="st14" d="M428.6,1731.7c-19.6,3.6-32.6-7.9-39.4-16.6c-5,9.8-7.4,24.4-3.7,32.4c3.2,7.1,12.7,6.9,20.1,7.2
			c7.9,0.3,13.9-4.1,17.8-11C425.1,1740.5,427,1736.5,428.6,1731.7z"/>
		<path class="st14" d="M595.7,1728.9c-21.6,5.6-37.5,1.8-46.5-1.8c-2.3,6.6-5.4,14.8-3.7,19.5c2,5.8,4.8,7.1,7.3,7.2
			c19.7,0.5,72.2,1.2,87.2,1.4c2.1,0,3.3-2.4,1.9-4.1C638.2,1746.7,597.3,1729.9,595.7,1728.9z"/>
		<path class="st10" d="M536,854.6c1.2,6.7-1.2,12.9-5.5,13.8c-4.3,0.9-8.7-3.9-10-10.6s1.2-12.9,5.5-13.8
			C530.3,843.2,534.8,847.9,536,854.6z"/>
		<path class="st5" d="M463,873.9c0,0,53,57.3,60.8,80.4c7.9,23.1-7.7,56.1-29.2,57.5s-69.3-101.7-69.3-101.7L463,873.9z"/>
	</g>
	<g>
		<path class="st5" d="M1394,717.5h658.6c20.9,0,37.8,16.9,37.8,37.8v955.1c0,20.9-16.9,37.8-37.8,37.8H1394
			c-20.9,0-37.8-16.9-37.8-37.8V755.3C1356.2,734.4,1373.1,717.5,1394,717.5z"/>
		<rect x="1422.3" y="802.2" class="st7" width="608.9" height="157.2"/>
		<polygon class="st15" points="1438.5,824.9 2031.2,824.9 2031.2,802.2 1422.3,802.2 1422.3,959.5 1438.5,959.5 		"/>
		<path class="st6" d="M1594.1,1061h-168.9c-1.6,0-2.9-1.3-2.9-2.9v-50.8c0-1.6,1.3-2.9,2.9-2.9h168.9c1.6,0,2.9,1.3,2.9,2.9v50.8
			C1597,1059.7,1595.7,1061,1594.1,1061z"/>
		<path class="st6" d="M1811.2,1061h-168.9c-1.6,0-2.9-1.3-2.9-2.9v-50.8c0-1.6,1.3-2.9,2.9-2.9h168.9c1.6,0,2.9,1.3,2.9,2.9v50.8
			C1814.1,1059.7,1812.8,1061,1811.2,1061z"/>
		<path class="st6" d="M2028.3,1061h-168.9c-1.6,0-2.9-1.3-2.9-2.9v-50.8c0-1.6,1.3-2.9,2.9-2.9h168.9c1.6,0,2.9,1.3,2.9,2.9v50.8
			C2031.2,1059.7,2029.9,1061,2028.3,1061z"/>
		<path class="st6" d="M1551,1232.8h-122.2c-3.6,0-6.5-2.9-6.5-6.5v-114c0-3.6,2.9-6.5,6.5-6.5H1551c3.6,0,6.5,2.9,6.5,6.5v114
			C1557.5,1229.9,1554.6,1232.8,1551,1232.8z"/>
		<path class="st13" d="M1708.9,1232.8h-122.2c-3.6,0-6.5-2.9-6.5-6.5v-114c0-3.6,2.9-6.5,6.5-6.5h122.2c3.6,0,6.5,2.9,6.5,6.5v114
			C1715.4,1229.9,1712.5,1232.8,1708.9,1232.8z"/>
		<path class="st13" d="M1866.8,1232.8h-122.2c-3.6,0-6.5-2.9-6.5-6.5v-114c0-3.6,2.9-6.5,6.5-6.5h122.2c3.6,0,6.5,2.9,6.5,6.5v114
			C1873.3,1229.9,1870.4,1232.8,1866.8,1232.8z"/>
		<path class="st6" d="M1551,1389.3h-122.2c-3.6,0-6.5-2.9-6.5-6.5v-114c0-3.6,2.9-6.5,6.5-6.5H1551c3.6,0,6.5,2.9,6.5,6.5v114
			C1557.5,1386.4,1554.6,1389.3,1551,1389.3z"/>
		<path class="st13" d="M1708.9,1389.3h-122.2c-3.6,0-6.5-2.9-6.5-6.5v-114c0-3.6,2.9-6.5,6.5-6.5h122.2c3.6,0,6.5,2.9,6.5,6.5v114
			C1715.4,1386.4,1712.5,1389.3,1708.9,1389.3z"/>
		<path class="st13" d="M1866.8,1389.3h-122.2c-3.6,0-6.5-2.9-6.5-6.5v-114c0-3.6,2.9-6.5,6.5-6.5h122.2c3.6,0,6.5,2.9,6.5,6.5v114
			C1873.3,1386.4,1870.4,1389.3,1866.8,1389.3z"/>
		<path class="st13" d="M2003.7,1105.8h-80.1c-15.2,0-27.5,12.4-27.5,27.6v39.3v32.4v156.5c0,15.3,12.3,27.6,27.5,27.6h80.1
			c15.2,0,27.5-12.4,27.5-27.6v-156.5v-32.4v-39.3C2031.2,1118.2,2018.9,1105.8,2003.7,1105.8z"/>
		<path class="st6" d="M1551,1545.9h-122.2c-3.6,0-6.5-2.9-6.5-6.5v-114c0-3.6,2.9-6.5,6.5-6.5H1551c3.6,0,6.5,2.9,6.5,6.5v114
			C1557.5,1543,1554.6,1545.9,1551,1545.9z"/>
		<path class="st13" d="M1708.9,1545.9h-122.2c-3.6,0-6.5-2.9-6.5-6.5v-114c0-3.6,2.9-6.5,6.5-6.5h122.2c3.6,0,6.5,2.9,6.5,6.5v114
			C1715.4,1543,1712.5,1545.9,1708.9,1545.9z"/>
		<path class="st13" d="M1866.8,1545.9h-122.2c-3.6,0-6.5-2.9-6.5-6.5v-114c0-3.6,2.9-6.5,6.5-6.5h122.2c3.6,0,6.5,2.9,6.5,6.5v114
			C1873.3,1543,1870.4,1545.9,1866.8,1545.9z"/>
		<path class="st13" d="M2024.7,1545.9h-122.2c-3.6,0-6.5-2.9-6.5-6.5v-114c0-3.6,2.9-6.5,6.5-6.5h122.2c3.6,0,6.5,2.9,6.5,6.5v114
			C2031.2,1543,2028.3,1545.9,2024.7,1545.9z"/>
		<path class="st6" d="M1551,1702.4h-122.2c-3.6,0-6.5-2.9-6.5-6.5v-114c0-3.6,2.9-6.5,6.5-6.5H1551c3.6,0,6.5,2.9,6.5,6.5v114
			C1557.5,1699.5,1554.6,1702.4,1551,1702.4z"/>
		<path class="st13" d="M1708.9,1702.4h-122.2c-3.6,0-6.5-2.9-6.5-6.5v-114c0-3.6,2.9-6.5,6.5-6.5h122.2c3.6,0,6.5,2.9,6.5,6.5v114
			C1715.4,1699.5,1712.5,1702.4,1708.9,1702.4z"/>
		<path class="st13" d="M1866.8,1702.4h-122.2c-3.6,0-6.5-2.9-6.5-6.5v-114c0-3.6,2.9-6.5,6.5-6.5h122.2c3.6,0,6.5,2.9,6.5,6.5v114
			C1873.3,1699.5,1870.4,1702.4,1866.8,1702.4z"/>
		<path class="st16" d="M2024.7,1702.4h-122.2c-3.6,0-6.5-2.9-6.5-6.5v-114c0-3.6,2.9-6.5,6.5-6.5h122.2c3.6,0,6.5,2.9,6.5,6.5v114
			C2031.2,1699.5,2028.3,1702.4,2024.7,1702.4z"/>
		<g>
			<path class="st17" d="M1513.1,1449v6.4l-31.2,65.5h-10l31.1-63.6v-0.2h-35.1v-8.1H1513.1z"/>
		</g>
		<g>
			<path class="st17" d="M1624.1,1502.7c0-9.1,5.4-15.5,14.2-19.3l-0.1-0.3c-7.9-3.8-11.4-10-11.4-16.2c0-11.4,9.6-19.1,22.2-19.1
				c13.9,0,20.8,8.7,20.8,17.7c0,6.1-3,12.6-11.8,16.8v0.3c8.9,3.5,14.4,9.9,14.4,18.6c0,12.5-10.7,20.9-24.4,20.9
				C1633.2,1522.2,1624.1,1513.2,1624.1,1502.7z M1662.8,1502.3c0-8.7-6.1-12.9-15.8-15.7c-8.4,2.4-12.9,8-12.9,14.8
				c-0.3,7.3,5.2,13.7,14.3,13.7C1657.1,1515.1,1662.8,1509.7,1662.8,1502.3z M1636.1,1466.3c0,7.2,5.4,11.1,13.7,13.3
				c6.2-2.1,10.9-6.5,10.9-13.1c0-5.8-3.4-11.7-12.1-11.7C1640.5,1454.8,1636.1,1460.1,1636.1,1466.3z"/>
		</g>
		<g>
			<path class="st17" d="M1672.7,1638.8c0,24.5-9,38-24.9,38c-14,0-23.5-13.2-23.7-37c0-24.1,10.4-37.4,24.9-37.4
				C1664.1,1602.4,1672.7,1615.9,1672.7,1638.8z M1633.7,1639.9c0,18.7,5.7,29.3,14.6,29.3c9.9,0,14.7-11.6,14.7-30
				c0-17.7-4.5-29.3-14.6-29.3C1639.9,1610,1633.7,1620.4,1633.7,1639.9z"/>
		</g>
		<g>
			<path class="st17" d="M1790.8,1514.1c2.1,0.2,4.5,0,7.8-0.3c5.6-0.8,10.9-3.1,15-7c4.7-4.3,8.2-10.6,9.5-19.1h-0.3
				c-4,4.9-9.7,7.7-16.9,7.7c-12.9,0-21.2-9.7-21.2-22c0-13.6,9.8-25.6,24.5-25.6s23.7,12,23.7,30.3c0,15.8-5.3,26.9-12.4,33.8
				c-5.5,5.4-13.1,8.7-20.8,9.6c-3.5,0.6-6.6,0.7-8.9,0.6V1514.1z M1794.4,1472.7c0,9,5.4,15.3,13.8,15.3c6.5,0,11.6-3.2,14.1-7.5
				c0.6-0.9,0.9-2,0.9-3.5c0-12.3-4.5-21.7-14.7-21.7C1800.2,1455.2,1794.4,1462.5,1794.4,1472.7z"/>
		</g>
		<g>
			<path class="st17" d="M1496.5,1361.4v-19.6h-33.3v-6.4l32-45.9h10.5v44.7h10v7.6h-10v19.6H1496.5z M1496.5,1334.1v-24
				c0-3.8,0.1-7.5,0.3-11.3h-0.3c-2.2,4.2-4,7.3-6,10.6l-17.5,24.5v0.2H1496.5z"/>
		</g>
		<g>
			<path class="st17" d="M1667.8,1297.6h-27.4l-2.8,18.5c1.7-0.2,3.2-0.4,5.8-0.4c5.5,0,11,1.2,15.4,3.9c5.6,3.2,10.3,9.4,10.3,18.5
				c0,14.1-11.1,24.6-26.7,24.6c-7.8,0-14.4-2.2-17.9-4.4l2.4-7.4c3,1.8,8.8,4,15.3,4c9.2,0,17-6,17-15.6
				c-0.1-9.3-6.3-15.9-20.6-15.9c-4.1,0-7.3,0.4-9.9,0.8l4.6-34.5h34.3V1297.6z"/>
		</g>
		<g>
			<path class="st17" d="M1826.1,1296.3c-2-0.1-4.5,0-7.3,0.4c-15.2,2.5-23.3,13.7-24.9,25.6h0.3c3.4-4.5,9.4-8.3,17.3-8.3
				c12.7,0,21.6,9.2,21.6,23.2c0,13.2-8.9,25.3-23.8,25.3c-15.3,0-25.4-12-25.4-30.7c0-14.2,5.1-25.3,12.1-32.4
				c6-5.9,13.9-9.5,22.9-10.6c2.9-0.4,5.3-0.6,7.1-0.6V1296.3z M1823.4,1337.8c0-10.3-5.8-16.5-14.8-16.5c-5.8,0-11.3,3.7-13.9,8.9
				c-0.7,1.1-1.1,2.5-1.1,4.3c0.2,11.8,5.6,20.6,15.8,20.6C1817.7,1355,1823.4,1348.1,1823.4,1337.8z"/>
		</g>
		<g>
			<path class="st17" d="M1487.6,1145.5h-0.2l-12.5,6.8l-1.9-7.4l15.7-8.4h8.3v71.9h-9.4V1145.5z"/>
		</g>
		<g>
			<path class="st17" d="M1625,1208.4v-6l7.6-7.4c18.3-17.5,26.6-26.8,26.7-37.6c0-7.3-3.5-14.1-14.2-14.1c-6.5,0-11.9,3.3-15.2,6.1
				l-3.1-6.9c5-4.2,12-7.3,20.3-7.3c15.4,0,22,10.6,22,20.9c0,13.3-9.6,24-24.7,38.6l-5.7,5.3v0.2h32.2v8.1H1625z"/>
		</g>
		<g>
			<path class="st17" d="M1787.5,1197.2c2.8,1.8,9.2,4.5,15.9,4.5c12.5,0,16.3-8,16.2-13.9c-0.1-10.1-9.2-14.4-18.5-14.4h-5.4v-7.3
				h5.4c7.1,0,16-3.7,16-12.2c0-5.8-3.6-10.8-12.6-10.8c-5.7,0-11.3,2.5-14.3,4.8l-2.5-7.1c3.8-2.8,11-5.5,18.8-5.5
				c14.1,0,20.5,8.4,20.5,17.2c0,7.4-4.4,13.7-13.2,16.9v0.2c8.8,1.8,16,8.4,16,18.5c0,11.5-8.9,21.6-26.1,21.6
				c-8.1,0-15.1-2.5-18.6-4.9L1787.5,1197.2z"/>
		</g>
		<g>
			<ellipse class="st17" cx="1489.9" cy="1666.1" rx="8.6" ry="8.7"/>
		</g>
		<g>
			<polygon class="st17" points="2015,1252.1 1969.5,1252.1 1969.5,1206.5 1957.8,1206.5 1957.8,1252.1 1912.3,1252.1 
				1912.3,1263.9 1957.8,1263.9 1957.8,1309.6 1969.5,1309.6 1969.5,1263.9 2015,1263.9 			"/>
		</g>
		<g>
			<polygon class="st17" points="1836,1666 1811.9,1641.8 1836,1617.6 1829.8,1611.4 1805.7,1635.6 1781.6,1611.4 1775.4,1617.6 
				1799.5,1641.8 1775.4,1666 1781.6,1672.2 1805.7,1648 1829.8,1672.2 			"/>
		</g>
		<g>
			<rect x="1922.7" y="1479.9" class="st17" width="76.2" height="11.7"/>
		</g>
		<g>
			<rect x="1925.5" y="1615.3" class="st17" width="76.2" height="11.7"/>
		</g>
		<g>
			<rect x="1925.5" y="1644.7" class="st17" width="76.2" height="11.7"/>
		</g>
	</g>
	<path class="st6" d="M1522.1,148.4L1522.1,148.4c-0.1,0-0.1,0-0.2-0.1c-1.9-0.7-3.8-1.3-5.7-1.8c-0.7-0.2-1.3-0.4-2-0.6
		c-0.7-0.2-1.4-0.3-2.1-0.5c-0.7-0.2-1.4-0.3-2.1-0.5c-0.7-0.1-1.4-0.3-2-0.4c-0.8-0.1-1.5-0.3-2.3-0.4c-0.7-0.1-1.3-0.2-2-0.3
		c-0.8-0.1-1.7-0.2-2.5-0.3c-0.6-0.1-1.2-0.1-1.8-0.2c-1-0.1-1.9-0.2-2.9-0.2c-0.5,0-1-0.1-1.5-0.1c-1.5-0.1-3-0.1-4.5-0.1H798.7
		c-1.6,0-3.2,0-4.8,0.1c-3.2,0.2-6.3,0.5-9.4,1c-1.5,0.2-3.1,0.5-4.6,0.8c-39.5,8.1-69.8,41.2-74,82.1c-0.3,3.1-0.5,6.3-0.5,9.6
		v1154.9v263.5c0,40.5,25.6,75,61.5,88l0,0c0.2,0.1,0.3,0.1,0.5,0.2c1.8,0.6,3.6,1.2,5.4,1.7c0.7,0.2,1.3,0.4,2,0.6
		c0.7,0.2,1.4,0.3,2.1,0.5c0.7,0.2,1.4,0.3,2.1,0.5c0.7,0.1,1.4,0.3,2,0.4c0.8,0.1,1.5,0.3,2.3,0.4c0.7,0.1,1.3,0.2,2,0.3
		c0.8,0.1,1.7,0.2,2.5,0.3c0.6,0.1,1.2,0.1,1.8,0.2c1,0.1,1.9,0.2,2.9,0.2c0.5,0,1,0.1,1.5,0.1c1.5,0.1,3,0.1,4.5,0.1h691.6
		c3.2,0,6.4-0.2,9.5-0.5c43.9-4.5,78.8-39.5,83.2-83.5c0.3-3.1,0.5-6.3,0.5-9.6V499.9V236.4C1583.6,195.9,1558,161.4,1522.1,148.4z"
		/>
	<rect x="750.6" y="270.3" class="st18" width="787.8" height="1350.4"/>
	<path class="st17" d="M1312.8,227.9H977.5c-0.5,0-0.9-0.4-0.9-0.9v-15.2c0-0.5,0.4-0.9,0.9-0.9h335.4c0.5,0,0.9,0.4,0.9,0.9V227
		C1313.7,227.5,1313.3,227.9,1312.8,227.9z"/>
	<ellipse class="st19" cx="1144.1" cy="1685.8" rx="38.7" ry="38.8"/>
	<rect x="750.6" y="1564.1" class="st20" width="787.8" height="56.7"/>
	<rect x="750.6" y="270.3" class="st20" width="787.8" height="71.7"/>
	<g>
		<path class="st19" d="M909.4,303.4H225.3c-23.6,0-42.8,19.2-42.8,42.9v283.3c0,23.7,19.2,42.9,42.8,42.9h538.6
			c21.8,30.5,61.3,85.2,64.8,85.2c3.3,0-3-51.6-7.5-85.2h88.2c23.6,0,42.8-19.2,42.8-42.9V346.3
			C952.2,322.6,933.1,303.4,909.4,303.4z"/>
		<path class="st21" d="M881.2,229.9H197.1c-23.6,0-42.8,19.2-42.8,42.9v283.3c0,23.7,19.2,42.9,42.8,42.9h538.6
			c21.8,30.5,61.3,85.2,64.8,85.2c3.3,0-3-51.6-7.5-85.2h88.2c23.6,0,42.8-19.2,42.8-42.9V272.8C924,249.1,904.8,229.9,881.2,229.9z
			"/>
		<path class="st17" d="M561.4,340.4H226c-0.5,0-1-0.4-1-1v-16.8c0-0.5,0.4-1,1-1h335.4c0.5,0,1,0.4,1,1v16.8
			C562.3,340,561.9,340.4,561.4,340.4z"/>
		<path class="st17" d="M369.4,389.8H226c-0.5,0-1-0.4-1-1v-16.8c0-0.5,0.4-1,1-1h143.4c0.5,0,1,0.4,1,1v16.8
			C370.3,389.4,369.9,389.8,369.4,389.8z"/>
		<path class="st17" d="M838,389.8H387.7c-0.5,0-1-0.4-1-1v-16.8c0-0.5,0.4-1,1-1H838c0.5,0,1,0.4,1,1v16.8
			C838.9,389.4,838.5,389.8,838,389.8z"/>
		<path class="st17" d="M839.4,340.4H597.8c-0.5,0-1-0.4-1-1v-16.8c0-0.5,0.4-1,1-1h241.6c0.5,0,1,0.4,1,1v16.8
			C840.3,340,839.9,340.4,839.4,340.4z"/>
		<path class="st17" d="M839.4,486.5H226c-0.5,0-1-0.4-1-1v-16.8c0-0.5,0.4-1,1-1h613.4c0.5,0,1,0.4,1,1v16.8
			C840.3,486.1,839.9,486.5,839.4,486.5z"/>
		<path class="st17" d="M541.9,439.2H226c-0.5,0-1-0.4-1-1v-16.8c0-0.5,0.4-1,1-1h315.9c0.5,0,1,0.4,1,1v16.8
			C542.9,438.7,542.5,439.2,541.9,439.2z"/>
		<path class="st17" d="M839.4,439.2H562.3c-0.5,0-1-0.4-1-1v-16.8c0-0.5,0.4-1,1-1h277.1c0.5,0,1,0.4,1,1v16.8
			C840.3,438.7,839.9,439.2,839.4,439.2z"/>
	</g>
	<path class="st17" d="M1442.5,149.1H1651c0.5,0,0.9-0.4,0.9-0.9v-15c0-0.5-0.4-0.9-0.9-0.9h-208.6c-0.5,0-0.9,0.4-0.9,0.9v15
		C1441.6,148.7,1442,149.1,1442.5,149.1z"/>
	<path class="st19" d="M1379.8,85.4h611.2c21.1,0,38.2,17.2,38.2,38.4v253.1c0,21.2-17.1,38.4-38.2,38.4h-481.2
		c-19.5,27.3-54.8,76.1-57.9,76.1c-2.9,0,2.7-46.1,6.7-76.1h-78.8c-21.1,0-38.2-17.2-38.2-38.4V123.8
		C1341.6,102.6,1358.7,85.4,1379.8,85.4z"/>
	<path class="st21" d="M1405.1,19.7h611.2c21.1,0,38.2,17.2,38.2,38.4v253.1c0,21.2-17.1,38.4-38.2,38.4h-481.2
		c-19.5,27.3-54.8,76.1-57.9,76.1c-2.9,0,2.7-46.1,6.7-76.1h-78.8c-21.1,0-38.2-17.2-38.2-38.4V58.1
		C1366.9,36.9,1384,19.7,1405.1,19.7z"/>
	<path class="st17" d="M1790.1,118.5h185.1c0.5,0,0.9-0.4,0.9-0.9v-15c0-0.5-0.4-0.9-0.9-0.9h-185.1c-0.5,0-0.9,0.4-0.9,0.9v15
		C1789.2,118.1,1789.6,118.5,1790.1,118.5z"/>
	<path class="st17" d="M1850.7,173.1h124.5c0.5,0,0.9-0.4,0.9-0.9v-15c0-0.5-0.4-0.9-0.9-0.9l-124.5,0c-0.5,0-0.9,0.4-0.9,0.9v15
		C1849.8,172.7,1850.2,173.1,1850.7,173.1z"/>
	<path class="st17" d="M1680.1,173.1h153.6c0.5,0,0.9-0.4,0.9-0.9v-15c0-0.5-0.4-0.9-0.9-0.9l-153.6,0c-0.5,0-0.9,0.4-0.9,0.9v15
		C1679.3,172.7,1679.7,173.1,1680.1,173.1z"/>
	<path class="st17" d="M1443.4,173.1h215.4c0.5,0,0.9-0.4,0.9-0.9v-15c0-0.5-0.4-0.9-0.9-0.9l-215.4,0c-0.5,0-0.9,0.4-0.9,0.9v15
		C1442.5,172.7,1442.9,173.1,1443.4,173.1z"/>
	<path class="st17" d="M1442.5,118.5h311.7c0.5,0,0.9-0.4,0.9-0.9v-15c0-0.5-0.4-0.9-0.9-0.9h-311.7c-0.5,0-0.9,0.4-0.9,0.9v15
		C1441.6,118.1,1442,118.5,1442.5,118.5z"/>
	<path class="st17" d="M1442.5,280h532.7c0.5,0,0.9-0.4,0.9-0.9v-15c0-0.5-0.4-0.9-0.9-0.9h-532.7c-0.5,0-0.9,0.4-0.9,0.9v15
		C1441.6,279.6,1442,280,1442.5,280z"/>
	<path class="st17" d="M1700.8,227.2h274.4c0.5,0,0.9-0.4,0.9-0.9v-15c0-0.5-0.4-0.9-0.9-0.9h-274.4c-0.5,0-0.9,0.4-0.9,0.9v15
		C1700,226.8,1700.4,227.2,1700.8,227.2z"/>
	<path class="st17" d="M1442.5,227.2h242.9c0.5,0,0.9-0.4,0.9-0.9v-15c0-0.5-0.4-0.9-0.9-0.9h-242.9c-0.5,0-0.9,0.4-0.9,0.9v15
		C1441.6,226.8,1442,227.2,1442.5,227.2z"/>
	<g>
		<path class="st5" d="M947.7,782.3c0,0-152.7,22-129.4,169.4c21.8,137.4,152.7,109.5,186.3,102.6
			C1038.3,1047.4,947.7,782.3,947.7,782.3z"/>
		<path class="st22" d="M1004.7,1054.3c15.7-3.2,4.4-62.4-12.1-124.7c-56.2,11-118.8,23.3-172,33.8
			C847.7,1087.5,972,1061,1004.7,1054.3z"/>
		<path class="st2" d="M1035.5,1079.8c0,0,33.5,119.7,24.7,212.8c-8.2,86.8,4.1,101.2,36.4,98.5c32.3-2.8,110.5-22,111.9-53
			c1.4-31-13-190-67.3-275.4S1035.5,1079.8,1035.5,1079.8z"/>
		<path class="st3" d="M1087.7,1029.8c-21.5,14.4-52.1,49.9-52.1,49.9s33.5,119.7,24.7,212.8c-8.2,86.8,4.1,101.2,36.4,98.5
			c11.8-1,29.8-4.2,48-9.5C1157.5,1168.3,1102.5,1054,1087.7,1029.8z"/>
		<path class="st2" d="M1410.2,492.1c0,0-253.2,184.4-335.1,240.1l-47.9,71.3l34,207.6l81.8,40.3l399.9,79l-9.3-44.9L1461.2,884
			l-37.1-229.3l-10.8-141L1410.2,492.1z"/>
		<polygon class="st3" points="1461.2,884 1451.5,823.9 1046.8,922.5 1061.3,1011.1 1143.1,1051.4 1543,1130.4 1533.8,1085.5 		"/>
		<path class="st1" d="M1075.2,732.2c0,0-33.5,176.1,67.9,319.2c0,0,5.7,13.3-6.7,21.5l-75.5,19.3c0,0-35,12.4-64.5-37.9
			c-29.5-50.3-81.7-163.2-50.8-287.8c0,0,7.5-33.7,48.7-39.9l54.9-10.3C1049.3,716.2,1073.6,712.4,1075.2,732.2z"/>
		<path class="st23" d="M1410.2,492.1c0,0,65.9-48.5,104-47.5c38.1,1,76.2,51.6,100.9,93c24.7,41.3,89.6,203.5,95.7,313
			c6.2,109.5,5.1,265.4-48.4,284c-53.5,18.6-119.4-4.1-119.4-4.1s-86.5-74.4-136.9-305.7C1355.7,593.3,1410.2,492.1,1410.2,492.1z"
			/>
		<path class="st1" d="M1624.5,1140.7c0,0,61.6-80,30.2-296.2c-49.4-340.3-174-391.7-174-391.7s-92.2,70.3-4.1,399.1
			C1549.2,1122.9,1624.5,1140.7,1624.5,1140.7z"/>
		<path class="st5" d="M1447.1,713.5c6,40.1,15.4,85.9,29.5,138.4c7,26.3,14.1,50.1,21.1,71.8c38.3-13.3,100.2-46.6,73.8-131.2
			C1547,714.2,1483.2,709.4,1447.1,713.5z"/>
		<path class="st22" d="M1476.6,851.9c7,26.3,14.1,50.1,21.1,71.8c37.8-13.1,98.5-45.7,74.8-127.7l-104.1,24.1
			C1471,830.4,1473.7,841,1476.6,851.9z"/>
		<path class="st24" d="M1143.1,1051.4c-31.8-44.8-50.3-92.9-60.8-137.8l-133.8,25.3c12.9,49.8,33.2,90.4,47.9,115.4
			c29.5,50.3,64.5,37.9,64.5,37.9l75.5-19.3C1148.8,1064.6,1143.1,1051.4,1143.1,1051.4z"/>
	</g>
	<g>
		<g>
			<path class="st25" d="M2433.6,344.1l-0.6,66.3l42-39.6l132.5-90l-108.1,23.6c0,0-54,20.5-56.7,23.6
				C2440,331.2,2433.6,344.1,2433.6,344.1z"/>
			<polygon class="st6" points="2380.3,310.7 2607.5,280.9 2433.6,344.1 			"/>
			<polygon class="st6" points="2514.8,400.7 2449.3,360.1 2607.5,280.9 			"/>
		</g>
		<g>
			<g>
				<path class="st26" d="M2145.5,617.9c0-5.3,0.4-10.6,1-16c0.6-4.9,1.4-9.8,2.5-14.7l5.3,1.2c-1,4.7-1.8,9.5-2.4,14.2
					c-0.6,5.1-0.9,10.3-1,15.4c0,1.5,0,3,0,4.5l-5.4,0.1C2145.5,621,2145.5,619.4,2145.5,617.9z M2160.3,553.6
					c4.7-10.4,10.5-20.7,17.4-30.8l4.5,3.1c-6.7,9.8-12.4,19.9-16.9,30L2160.3,553.6z M2328.8,521.9c-0.3-0.2-0.7-0.3-1-0.5l2.4-4.8
					c0.3,0.1,0.6,0.3,0.8,0.4c0,0,0.2,0.1,0.6,0.1c3,0.4,10.7-0.6,14.6-3.7c3.3-2.6,5.9-6.3,7.5-10.9l5.1,1.8
					c-1.9,5.6-5.1,10.2-9.2,13.4c-5.5,4.3-14.8,5.2-18.6,4.8C2330.1,522.3,2329.4,522.2,2328.8,521.9z M2199.6,495.3
					c7.8-8.5,16.3-16.7,25.4-24.4l3.5,4.1c-8.9,7.5-17.3,15.6-24.9,23.9L2199.6,495.3z M2302.3,482.6c-0.6-5.2-0.6-10.5,0-16
					c0.4-2.9,0.9-6,1.6-9l5.2,1.3c-0.7,2.8-1.2,5.6-1.5,8.4c-0.6,5-0.6,10,0,14.7c0.4,3.3,1.2,6.7,2.3,9.9l-5.1,1.8
					C2303.6,490,2302.7,486.3,2302.3,482.6z M2324.6,452.1l-0.7-0.2l1.7-5.1l0.8,0.3c11.7,4,21.9,11.8,28,21.4l-4.5,2.9
					C2344.4,462.7,2335.2,455.7,2324.6,452.1z M2255.9,453.2c5.7-2.6,16.2-7,21.8-8c4.4-0.8,8.4-1.3,12.4-1.7l0.5,5.4
					c-3.8,0.4-7.7,0.9-12,1.6c-3.7,0.6-11.2,3.4-20.5,7.6L2255.9,453.2z M2318.5,425c6.5-9.9,14.5-18.8,23.7-26.5l3.4,4.2
					c-8.8,7.3-16.4,15.8-22.7,25.3L2318.5,425z"/>
			</g>
			<g>
				<path class="st26" d="M2374.7,385.2c5.4-2.3,11-4,16.5-5.3l-1.2-5.3c-5.8,1.3-11.7,3.2-17.4,5.6L2374.7,385.2z"/>
			</g>
		</g>
	</g>
	<g>
		<path class="st11" d="M1813.1,1038.6l-2.8,2.5c-1.4,1.3-3.6,1.2-4.8-0.1l-49-54.1c-1.2-1.3-1.1-3.5,0.4-4.7l2.8-2.5
			c1.4-1.3,3.6-1.2,4.8,0.1l49,54.1C1814.7,1035.2,1814.6,1037.3,1813.1,1038.6z"/>
		<path class="st10" d="M1979.3,994.7c-6.6-5.3-57.2,17-56.6,24.7c0.6,7.8-35.4,83.1-35.4,83.1l-62.2-49.8l0,0
			c-0.5-1.8-6.4-21.2-6.7-24.6c-0.3-3.6-10.8-10-15.7-9.1c-4.9,0.9,4.2,7.1,4.8,8.2c1.6,3.1-4.6,4.2-4.6,4.2s-18-9.9-18.4-15.7
			c-0.4-5.8-4.1-18-8-15.5c-2,1.3-2,10-1.4,14.1c-1.2-4.7-2.8-9.9-4.4-10.4c-2.9-1-4.4,2.8-3.8,4.6c0.5,1.8,5.2,21.6,6.6,23.8
			c1.4,2.2,30.4,25.6,34.6,30.7c0,0,80.5,92.3,86.2,94.7c5,2.1,23-29.7,39.9-50.8C1951.2,1085.9,1999.8,1011.4,1979.3,994.7z"/>
		<path class="st9" d="M2141.7,1673.4c0,0,11.1,10.8,11.3,14.8c0.3,4,1,46.5-3.5,50.5c-4.5,4-17.8,6.8-13.5,11.3
			c3.2,3.4,28,2.7,44.4,1.7c4.8-0.3,10.8-38.7,12.7-44.3c2.8-8.2,9.5-26.7,7-32.4c-1.2-2.8-7.1-8.5-15.3-13.8
			c-8.7-5.6-17-18.1-17-18.1L2141.7,1673.4z"/>
		<path class="st10" d="M2027.2,1698.6c0,0,9.9,28,9.9,28.1c0.7,4.4,3.6,15.4,3.6,19.5c0,15.2-68.2-12.9-52.9-19.6
			c1.4-0.6,5.7-5.5,6.2-10.6c0.7-8-5.7-17.9-5.7-17.9L2027.2,1698.6z"/>
		<g>
			<path class="st12" d="M1920.1,1176.3c0,0-5,50.3-5,51c0,81.3-16.1,240.2-13,255.5c7.5,37.3,87.7,227.6,87.7,227.6l43.4-5.2
				l-56.5-227.8l20.8-91.7l29.4-181.3L1920.1,1176.3z"/>
			<path class="st11" d="M2065.7,1220.7l8.2,47.7l22.3,196.1l84.8,191.7c0,0-11.9,27.9-29.5,31.8l-134.9-196.8l-83.8-251.8l2.9-56
				L2065.7,1220.7z"/>
		</g>
		<path class="st27" d="M1902.9,1056.5l60.1,6.2c0,0,2.8-49.5,2.8-73.1c0-28.6-2.4-65.5-5.9-64.7c-9.7,2.2-22.7,7.6-30.4,18.3
			C1902.6,980.2,1902.9,1056.5,1902.9,1056.5z"/>
		<path class="st21" d="M1932.4,984.6c-1.3,8.7-24.4,246-24.4,246c109.5,53.1,169.9,9.5,169.9,9.5s-3.6-166.6,0.7-189.3
			c2.8-15,6.4-114.7-3.3-117.5c-12.4-3.6-26.7-7.4-42.2-9c-13.3-1.4-64.8-2.2-74,0.9C1959.1,925.2,1937.7,947.9,1932.4,984.6z"/>
		<path class="st28" d="M2184.2,1660.9c0,0-25.5,72-35.5,75.5c-2.6,0.9-15.4,3.3-17.8,8.9c-0.7,1.7,0,7.4,0,7.4h53.1
			c0,0,6.7-31.7,9.4-45.7c0,0,14.1-34.1,12.5-37.1C2204.4,1666.7,2184.2,1660.9,2184.2,1660.9z"/>
		<path class="st28" d="M2044.6,1751.2l-7.8-24.8c0,0-16.4,7-24.6,5.8c-8.2-1.2-24.2-5.8-24.2-5.8c-32.7,10.8-59.6,16.1-54.7,24.8
			l0,0H2044.6z"/>
		<g>
			<path class="st10" d="M1894.4,1157.8c-0.2-0.1-1.1-0.8-1.7-1.2c1.9-23.2,1.6-45.8-5.7-53.4c0.2-0.4,1.8-3.8,3.4-7.3
				c8.4,6.5,12.4,23.9,10.9,52.1c-0.1,1.9-0.7,3.4-1.1,5.8C1897.8,1156.5,1895.6,1158.3,1894.4,1157.8z"/>
		</g>
		<path class="st29" d="M2186.4,1233.1c0.1-0.5,0.1-1,0-1.5c-1.6-16.4-15.2-154.4-17.5-160.3c-2.1-5.3-63.1-92.8-63.1-92.8l-30,41
			l58.6,78.5c1.3,5,22.5,98.1,22.5,98.1s4.3,17,6.3,27.1c-0.9,2.5-1.8,4.8-2.5,6.7c-1.9,4.1-4.2,7.4-6.3,10.2
			c-2.6,3.5-7,11.2-7.5,13.3c-0.6,2.4-1.7,7.4-2.4,10.4c-0.6,3-1.5,6.5-1.6,8.1c-0.1,1-1.1,3-1.9,4.4c-1.2,2.1,0.8,4.5,3.1,3.8
			c2.1-0.7,3.8-3.5,4.8-5.2c2.9-4.9,4.4-13.8,5.1-13.3s3.2,15.5,3.6,17.3c0.4,1.7,3.4,19.2,5.1,22.4c1.7,3.2,4,2.7,4.6,0.7
			c0.5-1.7-1.9-26.2-1.9-26.2s-0.3-3.1,1.1-2.1c1.4,1,3.6,23.2,4.5,26.5s3.1,5,4.9,2.4c2.2-3.2-1.6-26.8-1.6-26.8s-0.4-3,0.8-2.7
			s2.8,19.2,3.8,20.9c1,1.6,3.5,2.2,4.6-0.5c1.4-3.2-2.2-24.2-2.2-24.2s0.2-1.7,1-1.1c0.8,0.6,3.3,16.6,4.9,18.1
			c1.4,1.2,2.5,0,2.5,0c3-2-1.6-17.3-1.5-24.9c0-7.6-3.5-16.1-2.4-25.2C2186.1,1235.4,2186.3,1234,2186.4,1233.1z"/>
		<path class="st21" d="M2153.5,1033.9l-52.1,35.1c0,0-29.4-43.8-45.1-59.4c-19.7-19.6,7.2-79.4,19.9-76.1
			C2104.6,941.1,2153.5,1033.9,2153.5,1033.9z"/>
		<path class="st10" d="M2029.3,872.9l7.8,51.5c0,0-28.5,61.4-45.4,56c-14.3-4.5-5.5-58.8-5.5-58.8s7.8-29.2,5.4-43.7
			C1989.2,863.4,2029.3,872.9,2029.3,872.9z"/>
		<path class="st6" d="M1991.6,878c-2.3-14.6,37.7-5.1,37.7-5.1l0.6,4.3c-1.2,2.9-2.6,5.3-4.3,7.2c-8.9,9.7-22.9,15.5-35,15.9
			C1991.8,892.4,1992.5,884,1991.6,878z"/>
		<g>
			<path class="st10" d="M2035.8,800c1.1-0.4,9.1,58.7-6,75c-15.1,16.3-44.4,21.6-54.9,8.8c-11.6-14.2-11.1-77.7,12.4-94.4
				C2010.7,772.6,2035.8,800,2035.8,800z"/>
			<path class="st28" d="M1996.2,757.7c18.1,3.7,29.8,14.8,34.1,19.5c8.2,1,19.4,5.5,30.9,24.7c14.2,23.6,3.7,49.7-12.8,62.5
				c-16.5,12.8-16.3,27.6-16.3,27.6l-2.6-7.7c-1.9-5.8-2.7-11.9-2.1-18c0.4-3.6,1.2-7.6,2.7-10.8c4-8.6-8.5-14.2-12-21.4
				c-2.7-5.5-2.8-18-7.1-27.1l-5.1-6.9c0,0-11.7-9.1-23.2-6.6C1971.3,796.2,1973,753,1996.2,757.7z"/>
			<path class="st10" d="M2018.9,844.7c-0.1,7.2,3.1,13.1,7.3,13.2c4.1,0.1,7.6-5.7,7.7-12.9c0.1-7.2-3.1-13.1-7.3-13.2
				C2022.5,831.7,2019,837.5,2018.9,844.7z"/>
		</g>
		<path class="st17" d="M1994.4,861.4l-22.7-1.2c0,0,0.1,8.7,10,9.5C1993.9,870.6,1994.4,861.4,1994.4,861.4z"/>
	</g>
	<polygon class="st4" points="974.8,1749 985.9,1746.9 938,1491.5 926.8,1493.7 	"/>
	<polygon class="st4" points="851.1,1750.1 837.7,1750.1 887.5,1491.5 898.6,1493.7 	"/>
	<polygon class="st4" points="728.3,1750.1 739.1,1750.3 691.4,1492.7 680.3,1494.8 	"/>
	<path class="st13" d="M776.7,1143.3c-44,4.7-100.9,9.7-158,107c-62.4,106.3-29.6,265.1,19.7,309.2c49.3,44.1,210.2,98.6,345.5,17
		c0,0,81.7-49.4,39.8-131.5c-64.5-126.2-55.4-152.6-84.2-202C910.6,1193.5,870,1133.3,776.7,1143.3z"/>
	<path class="st5" d="M618.7,1250.3c39-66.4,77.9-89.8,112.6-99.4c-13.4,14-27.1,31.9-40.7,55.1c-62.4,106.3-29.6,265.1,19.7,309.2
		c43.7,39.1,175.2,86.4,298.7,39.7c-12.7,14.1-25.2,21.7-25.2,21.7c-135.3,81.6-296.2,27.1-345.5-17
		C589.2,1515.3,556.3,1356.5,618.7,1250.3z"/>
	<polygon class="st8" points="917.9,1304.9 929.2,1338.9 894.7,1325.3 	"/>
	<path class="st25" d="M882.4,1203.6c2.3,0.1,8.6,2.2,17.8,19.6c11.7,22.2,28.9,89.3,28.9,89.3l-51.3,19.1l-6.6-14l-10.8-107.8
		C860.4,1209.8,881.7,1203.6,882.4,1203.6z"/>
	<path class="st6" d="M814.6,1194c14.7,0,50.9,4.3,67.7,9.7c0,0,12.4,106.3-11.1,187c-5.3,18.1,4.4,74.9,4.4,74.9l-151.9-2
		c0,0,18-137.5,11.2-159.7c-6.8-22.2-6.9-99.6-6.9-99.6s1-0.2,34.1-5.9C777.5,1195.8,799,1193.9,814.6,1194z"/>
	<path class="st10" d="M796.9,1662.8c0,0,3.4,38.8,9.5,49.5c6.2,10.7-0.3,29-0.7,31.5c-0.3,2.5-13,6.1-33.2,3.9
		c-20.2-2.1-19.8-6.8-18.2-14.3c1.6-7.5,12.4-17.2,13-24.3c0.7-7.2-6.2-32.9-6.2-32.9L796.9,1662.8z"/>
	<path class="st23" d="M858.4,1433.6c0,0,104.8-5.8,128.2,8.4c23.4,14.2-4.2,43.3-4.2,43.3s-85.3,37.1-228.2,45.4
		c-33.8,2-36.8-88.2-30.4-95.7C730.1,1427.4,858.4,1433.6,858.4,1433.6z"/>
	<path class="st28" d="M770.1,1750.8c-20.8-2.2-18.2-12.4-16.5-20.1c1-4.8,7-10.6,10.6-16c1.9,1.5,4.9,4.1,13.9,6.8
		c9.4,2.8,22.2-2.7,30.4-6.1c2.9,10.8,3,24.7,2.8,26.8C810.9,1744.6,790.9,1753,770.1,1750.8z"/>
	<path class="st1" d="M781.6,1508.6c4.2,31.7,24.9,189.5,24.9,189.5l-48.1,6c0,0-59.2-205.9-56.1-237.4c3-31.5,25.2-34.1,25.2-34.1
		S770.5,1424.7,781.6,1508.6z"/>
	<path class="st10" d="M726.3,1216.2c14.2-5.3,21.1,122.6,23.1,175.3c25.1,2.4,69,0,79.9-0.8c5.1-0.4,17-4.7,22.1-5.4
		c5.2-0.7,10-1,12.5-0.6c0.9,0.2,27.2,10.9,29.4,13.2c2.8,2.9,10.3,10.3,9,13.4c-1.3,3.2-14.5-8.9-14.5-8.9l-6.4-3.6
		c8,7.8,23.3,18.2,21.1,21.9c-2.2,3.7-16-6.8-25.8-14c8.4,7.6,18.9,21.3,16.5,23.4c-2.2,1.9-14.1-13.9-26.8-18.4
		c-4.7-1.7-9.4,3-13.1,3.5c-2.7,0.4-6.9,1.3-9.6,0.5l-13.8-3.9c-4.7,0.4-4.8,3.2-9.6,4.2c-5.5,1.2-14.6,2.4-21.6,4.1
		c-40.4,9.9-53.9,14.5-66.3,14.5C695,1434.7,692.8,1228.8,726.3,1216.2z"/>
	<path class="st25" d="M699.4,1336.3c-2.7-53.9-2.3-120.4,28-131.8c11.9-4.5,33,22.4,29.2,132.9
		C740.4,1338.7,716.7,1339.8,699.4,1336.3z"/>
	<polygon class="st8" points="868.6,1313.1 865.5,1313.1 819.1,1427 822.3,1426.5 	"/>
	<path class="st10" d="M937.6,1696c0,0-4.2,13.5,3.3,22.4c7.5,8.9,38.8,17.6,42.9,22.5c4.1,4.8,3.8,8.9,3.8,8.9l-87.7-2.4l1-26.5
		l4-19L937.6,1696z"/>
	<path class="st28" d="M946.4,1722.8c0,0-22.5,9.1-33.4,3.7c-10.9-5.4-10.6-6.9-13.7-4.9c-3.1,2-4.3,26.8-4.3,26.8l98.6,2.9
		c6.9-0.2,10.3-5.2,4.8-9.5c-3.8-3-8.2-5-10.7-6.4C979.9,1731,946.4,1722.8,946.4,1722.8z"/>
	<path class="st1" d="M934.3,1458.4c6.8-14.3,22.2-32.8,49.3-21.6c25.9,10.7,32.8,36.9,24.6,63.7c-8.2,26.8-61.9,184.6-63.8,206.3
		l-42.9,0.3c0,0,7.8-124.9,9.7-155.1C913.2,1522.9,922.6,1483.1,934.3,1458.4z"/>
	<path d="M1003.9,1313.1H860.5c-3.8,0-7.2,2.3-8.7,5.8l-44.1,108h-79c-2.2,0-4,1.8-4,4l0,0c0,2.2,1.8,4,4,4h225
		c6.2,0,11.8-3.6,14.3-9.3l44.5-99.4C1015.2,1320.1,1010.7,1313.1,1003.9,1313.1z"/>
	<path class="st17" d="M926.7,1376c-1,4.9-5.2,8.1-9.4,7.2c-4.2-0.8-6.9-5.5-5.9-10.3c1-4.9,5.2-8.1,9.4-7.2
		C925.1,1366.5,927.7,1371.2,926.7,1376z"/>
	<g>
		<path class="st4" d="M848.7,1064.2c-4.3-1.5-8.6-3.1-12.7-5.1c-4.6-2.2-10.7-4.9-14.5-5.4c-8-1.2-21.7-0.4-29.3,7.8
			c-9.5,10.3-26.3,1.9-22.9,55.6c3.8,60.8,37.7,54.1,38.5,53.1c0.8-1,30.2-38.9,30.2-38.9s10.3,22.4,10.3,21.6
			C848.2,1152.1,900.6,1081.6,848.7,1064.2z"/>
		<path class="st10" d="M823,1174.7l2.9,21.7c0,0,6.5,31.3-1.9,37.3c-8.4,6-35.8-38.2-35.8-38.2l2.9-55.1L823,1174.7z"/>
		<path class="st6" d="M790.2,1158.3c6.9,18.8,23.5,30.3,35.3,34.8l-2.5-18.4l-31.8-34.2L790.2,1158.3z"/>
		<path class="st10" d="M821.3,1080.5c17.8-2.9,33.8,11.5,33.4,29.3c-0.2,7.8-0.8,17.4-2.4,27.9c-3.9,25.1-21,47.2-32.3,45.2
			c-11.3-2-39.8-23.6-34.8-59.3C788.2,1101.5,802.6,1083.5,821.3,1080.5z"/>
		<path class="st10" d="M793,1127.8c-1,5.5-5.4,9.4-9.9,8.6c-4.5-0.8-7.4-5.9-6.4-11.4c1-5.5,5.4-9.4,9.9-8.6
			C791.1,1117.2,793.9,1122.3,793,1127.8z"/>
		<path class="st4" d="M786.6,1116.4c0,0,13.7,3.4,18.8-5.4c5.1-8.8,23.2-27.8,46.3-19.9c23.1,7.9-20.3-19.1-22.2-19.1
			c-1.8,0-24-0.2-24-0.2s-17.1,14.1-17.7,15.6c-0.6,1.5-5.5,18.4-5.5,18.4L786.6,1116.4z"/>
	</g>
	<path class="st17" d="M811.6,1153.2l24.9,4.8c0,0-2.4,9.4-13.4,7.6C809.7,1163.3,811.6,1153.2,811.6,1153.2z"/>
	<path class="st17" d="M554.3,875.8l24.9,4.8c0,0-2.4,9.4-13.4,7.6C552.4,886,554.3,875.8,554.3,875.8z"/>
	<path class="st1" d="M2570.6,1639.9c-21.7,2-43.2,6-64.3,11.5c-38.5,10.1-75.5,25.1-111.9,40.9c-17.9,7.8-35.9,15.5-53.5,24.1
		c-8.2,4-16.5,8-24,13.1c-10.2,6.9-26.1,20.8-28,22.9l8.4,0.2c5.7-4.7,26.7-22.4,55.8-36.4c69-33.3,140.7-67.3,217.7-75.8
		C2571.1,1640.5,2571,1639.9,2570.6,1639.9z"/>
</g>
</svg>
