<?xml version="1.0" encoding="utf-8"?>
<!-- Generator: Adobe Illustrator 19.0.0, SVG Export Plug-In . SVG Version: 6.00 Build 0)  -->
<svg version="1.1" id="Layer_1" xmlns="http://www.w3.org/2000/svg" xmlns:xlink="http://www.w3.org/1999/xlink" x="0px" y="0px"
	 viewBox="0 0 1866.4 1363" style="enable-background:new 0 0 1866.4 1363;" xml:space="preserve">
<style type="text/css">
	.st0{fill:#F7CC7F;}
	.st1{fill:#FFFFFF;}
	.st2{fill:#FAE0B2;}
	.st3{fill:#9BC1F9;}
	.st4{fill:#F7A491;}
	.st5{fill:#355389;}
	.st6{fill:#466EB6;}
	.st7{fill:#3C8F7C;}
	.st8{fill:#184655;}
	.st9{fill:#F79C8D;}
	.st10{fill:#F48C7F;}
	.st11{fill:#F47458;}
	.st12{fill:#86B1F2;}
	.st13{fill:#B75742;}
	.st14{fill:#50BFA5;}
	.st15{fill:#96D9C9;}
	.st16{fill:#EFEFEF;}
	.st17{fill:#13375B;}
</style>
<g>
	<g>
		<path class="st0" d="M135.1,997.1c-17,27.3-53.1,35.7-80.4,18.7c-27.3-17-35.7-53.1-18.7-80.4c17-27.3,53.1-35.7,80.4-18.7
			C143.8,933.7,152.1,969.8,135.1,997.1z"/>
		<path class="st0" d="M133.8,996.3c-16.6,26.6-51.7,34.8-78.3,18.2c-26.6-16.6-34.8-51.7-18.2-78.3c16.6-26.6,51.7-34.8,78.3-18.2
			C142.2,934.5,150.4,969.7,133.8,996.3z"/>
		<circle class="st1" cx="85.8" cy="966.4" r="46.4"/>
		<path class="st1" d="M122.9,989.5c-12.8,20.6-40,26.9-60.6,14.1c-20.6-12.8-26.9-40-14.1-60.6c12.8-20.6,40-26.9,60.6-14.1
			C129.5,941.7,135.8,968.9,122.9,989.5z"/>
		<g>
			<path class="st0" d="M63.4,997.3l-4.2,6.7c-0.7,1.1-0.3,2.6,0.8,3.2c1.1,0.7,2.5,0.3,3.2-0.8l4.2-6.7c0.7-1.1,0.3-2.6-0.8-3.2
				C65.6,995.9,64.1,996.2,63.4,997.3z"/>
			<path class="st0" d="M115.9,985.2c-0.7,1.1-0.3,2.5,0.8,3.2l6.7,4.2c1.1,0.7,2.6,0.3,3.2-0.8c0.7-1.1,0.3-2.6-0.8-3.2l-6.7-4.2
				C118.1,983.7,116.6,984.1,115.9,985.2z"/>
			<path class="st0" d="M107.9,926l-4.2,6.7c-0.7,1.1-0.3,2.6,0.8,3.2c1.1,0.7,2.6,0.3,3.2-0.8l4.2-6.7c0.7-1.1,0.3-2.6-0.8-3.2
				C110,924.5,108.6,924.9,107.9,926z"/>
			<path class="st0" d="M44.6,940.7c-0.7,1.1-0.3,2.6,0.8,3.2l6.7,4.2c1.1,0.7,2.6,0.3,3.2-0.8c0.7-1.1,0.3-2.6-0.8-3.2l-6.7-4.2
				C46.7,939.3,45.2,939.6,44.6,940.7z"/>
		</g>
		<g>
			<path class="st0" d="M46.4,915.1l-4.8-7.9c-0.4-0.6-0.2-1.5,0.5-1.9l9.1-5.5c0.6-0.4,1.5-0.2,1.9,0.5l4.8,7.9
				c0.4,0.6,0.2,1.5-0.5,1.9l-9.1,5.5C47.7,916,46.8,915.8,46.4,915.1z"/>
		</g>
		<g>
			<path class="st0" d="M22.9,953.3l-9.2-0.8c-0.8-0.1-1.4,0.5-1.5,1.2l-1,10.6c-0.1,0.8,0.5,1.4,1.2,1.5l9.2,0.8
				c0.8,0.1,1.4-0.5,1.5-1.2l1-10.6C24.2,954,23.7,953.4,22.9,953.3z"/>
		</g>
		<g>
			<path class="st0" d="M23.4,934.4c-0.4,0.6-1.2,0.8-1.8,0.4l-5.6-3.5c-0.6-0.4-0.8-1.2-0.4-1.8l7.2-11.5c0.4-0.6,1.2-0.8,1.8-0.4
				l5.6,3.5c0.6,0.4,0.8,1.2,0.4,1.8L23.4,934.4z"/>
			<path class="st0" d="M27.4,934.3c-4.7,3.9-11.6,4.6-17.1,1.2c-6.9-4.3-8.9-13.3-4.7-20.1c4.3-6.9,13.3-8.9,20.1-4.7
				c5.5,3.4,7.9,9.9,6.5,15.8l3.1,1.9c2.4-7.7-0.6-16.2-7.7-20.7c-8.5-5.3-19.6-2.7-24.9,5.8c-5.3,8.5-2.7,19.6,5.8,24.9
				c7.1,4.4,16.1,3.3,22-2.2L27.4,934.3z"/>
			<path class="st0" d="M35,934.7c0.8-1.3,1.7-2.6,2.6-3.9l-8.1-5.1l-4,6.4l8,5C34,936.3,34.5,935.5,35,934.7z"/>
		</g>
		<g>
			<circle class="st2" cx="85.5" cy="966.2" r="4.3"/>
			<path class="st2" d="M69,935l17.9,30.5c0.4,0.8,0.2,1.8-0.6,2.2c-0.8,0.5-1.8,0.2-2.2-0.6C84,967,84.7,968.4,69,935z"/>
			<path class="st2" d="M120.8,962.5l-34.9,5.3c-0.9,0.1-1.7-0.5-1.8-1.3c-0.1-0.9,0.5-1.7,1.4-1.8C85.6,964.6,84,964.7,120.8,962.5
				z"/>
			<circle class="st2" cx="85.5" cy="966.2" r="1.7"/>
		</g>
	</g>
	<path class="st3" d="M1673.8,1160c1.2,0.9,2.8,1.1,4.2,0.5c6.7-3.1,20-2.5,26.7-1.3l12.7,32.9c-4.2,5.3-13.6,14.7-20.6,16.9
		c-1.4,0.5-2.5,1.7-2.7,3.2l-4.3,27.4c-0.2,1.5,0.4,3,1.6,3.9c6.1,4.3,12.1,16.1,14.5,22.4l-22.1,27.4c-6.7-1-19.5-4.4-25-9.4
		c-1.1-1-2.7-1.3-4.1-0.8l-25.8,10c-1.4,0.5-2.4,1.8-2.5,3.3c-0.7,7.4-7.9,18.5-12.2,23.8l-34.8-5.4c-2.5-6.3-6-19.1-4.4-26.3
		c0.3-1.5-0.2-3-1.4-4l-21.6-17.4c-1.2-0.9-2.8-1.1-4.2-0.5c-6.7,3.1-20,2.5-26.7,1.3l-12.7-32.9c4.2-5.3,13.6-14.7,20.6-16.9
		c1.4-0.5,2.5-1.7,2.7-3.2l4.3-27.4c0.2-1.5-0.4-3-1.6-3.9c-6.1-4.3-12.1-16.1-14.5-22.4l22.1-27.4c6.7,1,19.5,4.4,25,9.4
		c1.1,1,2.7,1.3,4.1,0.8l25.8-10c1.4-0.5,2.4-1.8,2.5-3.3c0.7-7.4,7.9-18.5,12.2-23.8l34.8,5.4c2.5,6.3,6,19.1,4.4,26.3
		c-0.3,1.5,0.2,3,1.4,4L1673.8,1160z M1600.4,1181.2c-17.9,6.9-26.8,27-19.9,44.9c6.9,17.9,27,26.8,44.9,19.9
		c17.9-6.9,26.8-27,19.9-44.9C1638.3,1183.2,1618.2,1174.3,1600.4,1181.2z M1592.4,1160.4c-29.3,11.3-43.9,44.3-32.6,73.6
		c11.3,29.3,44.3,43.9,73.6,32.6c29.3-11.3,43.9-44.3,32.6-73.6C1654.7,1163.7,1621.7,1149.1,1592.4,1160.4z"/>
	<path class="st4" d="M1841.2,1039.2c0.3,1.5,1.5,2.7,3,3c7.3,1.7,17.5,10.6,22.2,15.7l-10.5,34.3c-6.7,1.6-20.1,3.3-27.2,0.6
		c-1.4-0.5-3.1-0.2-4.2,0.8l-20.6,19.2c-1.1,1-1.6,2.6-1.1,4.1c2.2,7.2-0.4,20.5-2.5,27.1l-34.9,8.1c-4.8-5-12.9-15.8-14.1-23.2
		c-0.2-1.5-1.3-2.8-2.8-3.2l-27-8.2c-1.5-0.4-3.1,0-4.1,1.1c-5.2,5.5-17.9,9.9-24.7,11.4l-24.5-26.2c1.9-6.6,7.2-19.1,13.1-23.8
		c1.2-1,1.7-2.5,1.4-4l-6.3-27.5c-0.3-1.5-1.5-2.7-3-3c-7.3-1.7-17.5-10.6-22.2-15.7l10.5-34.3c6.7-1.6,20.1-3.3,27.2-0.6
		c1.4,0.5,3.1,0.2,4.2-0.8l20.6-19.2c1.1-1,1.6-2.6,1.1-4.1c-2.2-7.2,0.4-20.5,2.5-27.1l34.9-8.1c4.8,5,12.9,15.8,14.1,23.2
		c0.2,1.5,1.3,2.8,2.8,3.2l27,8.2c1.5,0.4,3.1,0,4.1-1.1c5.2-5.5,17.9-9.9,24.7-11.4l24.5,26.2c-1.9,6.6-7.2,19.1-13.1,23.8
		c-1.2,1-1.7,2.5-1.4,4L1841.2,1039.2z M1769.1,1010c-18.7-5.7-38.4,4.8-44.1,23.4c-5.7,18.7,4.8,38.4,23.4,44.1s38.4-4.8,44.1-23.4
		C1798.3,1035.4,1787.8,1015.7,1769.1,1010z M1775.8,988.3c-30.6-9.4-63,7.9-72.4,38.5c-9.4,30.6,7.9,63,38.5,72.4s63-7.9,72.4-38.5
		C1823.6,1030.1,1806.4,997.7,1775.8,988.3z"/>
	<path class="st0" d="M1506.1,779.6c2.9-0.1,5.5-1.9,6.6-4.5c5.8-12.9,25.6-28.6,36.7-35.4L1609,771c0.7,12.9-1,38.2-8.4,50.3
		c-1.5,2.5-1.5,5.6,0.1,8l28.2,44.7c1.5,2.4,4.3,3.8,7.2,3.5c14.1-1.5,37.6,7.9,49,14l2.7,67.2c-10.9,7-33.6,18.3-47.7,17.9
		c-2.9-0.1-5.6,1.5-6.9,4.1l-24.6,46.8c-1.3,2.6-1.1,5.7,0.6,8c8.3,11.4,12,36.5,12.3,49.5l-56.9,35.9c-11.5-5.9-32.6-20-39.4-32.4
		c-1.4-2.5-4.1-4.1-7-4l-52.8,2.1c-2.9,0.1-5.5,1.9-6.6,4.5c-5.8,12.9-25.6,28.6-36.7,35.4l-59.5-31.3c-0.7-12.9,1-38.2,8.4-50.3
		c1.5-2.5,1.5-5.6-0.1-8l-28.2-44.7c-1.5-2.4-4.3-3.8-7.2-3.5c-14.1,1.5-37.6-7.9-49-14.1l-2.7-67.2c10.9-7,33.6-18.3,47.7-17.9
		c2.9,0.1,5.6-1.5,6.9-4.1l24.6-46.8c1.3-2.6,1.1-5.7-0.6-8c-8.3-11.4-12-36.5-12.3-49.5l56.9-35.9c11.5,5.9,32.6,20,39.4,32.4
		c1.4,2.5,4.1,4.1,7,4L1506.1,779.6z M1427.1,902.3c-17,32.4-4.6,72.4,27.8,89.5c32.4,17,72.4,4.6,89.5-27.8
		c17-32.4,4.6-72.4-27.8-89.5C1484.2,857.5,1444.2,869.9,1427.1,902.3z M1389.5,882.6c-27.9,53.2-7.5,118.9,45.7,146.8
		c53.2,27.9,118.9,7.5,146.8-45.7s7.5-118.9-45.7-146.8C1483.2,809,1417.5,829.4,1389.5,882.6z"/>
	<g>
		<g>
			<path class="st4" d="M137.8,1288.1c0,0-2.3,24.8-8.3,29.3c-6,4.5-14,21.4-10,30.5c1.3,2.8,3.8,4.5,6.6,5.4
				c8.4,2.7,17.4-1.9,21-10.3c2-4.7,3.8-11,4.1-18.9c0.9-20.1,6.9-30.3,6.9-30.3L137.8,1288.1z"/>
			<path class="st4" d="M230.2,1298.3c0,0,1.9,25,0.4,33.1c-0.8,4.3-5.4,13.3-3.3,17.4c2.1,4.1,4.5,5.1,4.5,5.1l54.5,0.9
				c3,0,1-1.9-1.4-3.8c-3.9-3-7.1-5-19.6-11.3c-0.8-0.4-3.8-2.4-4.9-3.1c-2.7-1.7-5.4-4.4-7.8-7.2c-3.9-4.5-4.3-26.5-4.3-26.5
				L230.2,1298.3z"/>
			<path class="st5" d="M272.8,966.2c0,0,6.9,40.6,2.4,67.2c-4.5,26.6-26.1,273.1-26.1,273.1l-24,1.4c0,0-5-103-4.1-117.3
				c0.9-14.3,8-38.3,8-38.3l-2.4-83.1l30.3-109.2L272.8,966.2z"/>
			<path class="st6" d="M202.1,957.6c0,0-18.9,29.7-23.4,54.2c-4.5,24.5,3.3,100-5.4,132.2c-4.7,17.4-22.5,44.3-25.2,66.8
				c-2.7,22.5-13.3,81.5-13.3,81.5l24,5l55.8-147.2l43.8-133.1l11.2-68.5L202.1,957.6z"/>
			<path class="st7" d="M148.7,1338.6c-13.1,2.5-21.8-5.5-26.3-11.5c-3.3,6.8-5.4,15.2-2.9,20.8c2.2,4.9,8,6.2,13,6.4
				c5.2,0.2,10.2-2.7,12.8-7.4C146.4,1344.7,147.7,1341.9,148.7,1338.6z"/>
			<path class="st7" d="M260.4,1336.7c-14.4,3.9-25.1,1.2-31-1.3c-1.5,4.5-3.6,10.2-2.5,13.5c1.3,4,3.2,5.3,4.9,5.3
				c13.2,0.4,48.2,0.5,58.3,0.7c1.4,0,2.2-1.7,1.3-2.8C288.8,1349,261.4,1337.4,260.4,1336.7z"/>
		</g>
		<path class="st8" d="M275.1,744.4c-4.3-27.8-29.4-47.7-55.6-34.3c-5.9,3-13.9,9.2-18,14.4c-11.2,14.4-13.9,32.3-25.8,46.1
			c-10.3,11.9-37.6,9.7-50.4,18.9c-12.8,9.2-21.7,25.7-21.7,45.3c0,22,5,45.4,22,59.3c17.1,13.9,41.3,17.4,62.5,11.5
			c21.2-5.9,39.4-20.4,52.5-38.1c13.1-17.7,22.4-37.1,28.9-58.2C276.7,786,277.8,762.4,275.1,744.4z"/>
		<path class="st9" d="M178.9,782.1c0,0-32.3-57.6-40.1-69.8c-7.8-12.2-28.3-60.9-29-62.8c-0.7-1.9,14.1-24.9,10.8-25.7
			c-3.3-0.8-7,12.1-10.5,10.6c-3.5-1.5-13.8-32.6-15.8-31.1c-3.8,2.9,5.6,19.3,3.5,20.3c-2,1-8.1-18-12-17.5
			c-3.9,0.6,7.5,17.5,6.4,19c-1.1,1.5-13-14.5-15.1-11.1c-1.2,1.8,10.9,13.9,8.6,15.1c-2.3,1.1-13.1-6.7-14.2-4.4
			c-1.1,2.2,9.9,5.3,13.2,11.4c3.3,6.1,8.9,8.7,11.3,19.9c2.3,11.2,5.8,51.8,17.8,72.1c12,20.3,38.3,65.1,38.3,65.1L178.9,782.1z"/>
		<g>
			<path class="st10" d="M269.7,850.4l-25.9,14.9c0,0,49.1,64.6,51.9,67.5l20.6-18.3L269.7,850.4z"/>
			<path class="st11" d="M248.2,811.8c0,0,20.1,3.8,45.1,65.8L258.9,896l-24.5-38L248.2,811.8z"/>
			<path class="st10" d="M312.7,815.9c0,0-4.5-1.3-12,5.1c-9.2,8-9.8,69-7.3,90.4c2.4,21.4,2.4,21.4,2.4,21.4s18.8-6.6,23.3-29.6
				c4.4-22.9,6.1-82.6,6.1-82.6L312.7,815.9z"/>
		</g>
		<path class="st0" d="M216.1,805.5c0,0-25.3-1.6-35.3,9.3c-10,10.9,22.2,96.9,24,110.7c1.8,13.8-14.9,41.4-14.9,41.4
			s69.5,32.5,86.5,21.3c0,0-2.7-110.9-4.5-120.8c-1.8-9.9-17-50.1-20.6-54C247.7,809.5,216.1,805.5,216.1,805.5z"/>
		<path class="st4" d="M224.5,771.8c0,0-0.1,0.7-0.4,2c-1.1,6.1-5.5,26.2-8.4,31.7c-3.5,6.7,12.1,28,27.2,25.4
			c4.5-0.8-3.8-19.6-3.4-21.6c0.8-3.8,1.8-9,2.9-14.4c0.6-3,1.2-6.1,1.8-8.9c1.6-8.1,2.9-14.8,2.9-14.8L224.5,771.8z"/>
		<path class="st11" d="M224.2,773.8c0.2-1.3,0.4-2,0.4-2l22.6-0.6c0,0-1.3,6.7-2.9,14.8c-0.6,2.9-1.2,5.9-1.8,8.9
			c-3.5-0.5-7.1-2.2-10.8-5.4c-4-3.5-6.6-7.7-8.2-12.1C223.8,776,224,774.8,224.2,773.8z"/>
		<path class="st4" d="M239.7,720.5c0,0-10.7-1.2-17.3,7.4c-6.7,8.6-13.9,35.3,2.7,49.8c16.6,14.5,33-1.9,35.4-19.3
			C263,741,263.9,719.9,239.7,720.5z"/>
		<path class="st4" d="M265.4,758.1c-2,3.8-5.3,6-7.4,4.8c-2.1-1.2-2.2-5.3-0.3-9.2c2-3.8,5.3-6,7.4-4.8
			C267.3,750.2,267.4,754.3,265.4,758.1z"/>
		<path class="st8" d="M240.9,717.7c0,0-14.2,25.3-24.4,26.5c-10.2,1.2-11.5,14.6-11.5,14.6s3.6-31,13.7-37
			C228.8,715.9,240.9,717.7,240.9,717.7z"/>
		<path class="st4" d="M219.2,750.6c0.8,4.5-0.8,8.6-3.7,9.2c-2.9,0.6-5.9-2.6-6.7-7.1c-0.8-4.5,0.8-8.6,3.7-9.2
			C215.4,742.9,218.4,746.1,219.2,750.6z"/>
		<path class="st2" d="M170,763.4c0,0,35.7,38.3,41,53.7c5.3,15.4-5.2,37.5-19.6,38.5c-14.5,1-46.7-67.9-46.7-67.9L170,763.4z"/>
		<g>
			<path class="st6" d="M345.9,821.1h-24.7c-13.8,0-25,11.7-25,26.2V1218h74.7V847.2C370.9,832.8,359.7,821.1,345.9,821.1z"/>
			<rect x="319" y="821.1" class="st12" width="29" height="396.9"/>
			<path class="st13" d="M332.6,1355.9L332.6,1355.9c5,0,9.4-3.7,10.5-8.8l8.4-39.3l-37.3,0l7.9,39.1
				C323.1,1352.1,327.5,1355.9,332.6,1355.9z"/>
			<polygon class="st2" points="314.2,1307.8 351.6,1307.8 370.9,1218 296.2,1218 			"/>
			<path class="st11" d="M356.3,821.1h-45.5c-8.1,0-14.6,6.8-14.6,15.3v54.3h74.7v-54.3C370.9,827.9,364.4,821.1,356.3,821.1z"/>
			<path class="st12" d="M292.3,907h82.4c0.4,0,0.7-0.3,0.7-0.7v-15c0-0.4-0.3-0.7-0.7-0.7h-82.4c-0.4,0-0.7,0.3-0.7,0.7v15
				C291.7,906.7,292,907,292.3,907z"/>
		</g>
	</g>
	<polygon class="st14" points="820.8,225 808.9,227.8 801,213.2 782.9,215.8 774.7,205.6 768.2,208.9 779.2,222.5 796.3,220.1 
		804.6,235.3 822.5,230.9 	"/>
	<polygon class="st14" points="1599.9,501.5 1580,505 1569.1,488 1573.2,485.4 1582.3,499.6 1602.9,496 1612.2,517.5 1625.5,513.4 
		1626.6,518.2 1609.4,523.4 	"/>
	<polygon class="st14" points="74.4,1098.2 70.6,1078.3 87.4,1067.1 90.1,1071.2 76,1080.5 79.9,1101 58.5,1110.6 62.8,1123.9 
		58,1125 52.5,1108 	"/>
	<path class="st0" d="M972.1,226.6l-7.3-17.4l-18.5-3.8c-2.1-0.4-2.8-3.1-1.2-4.5l14.2-12.3l-2.1-18.7c-0.2-2.1,2.1-3.6,3.9-2.5
		l16.1,9.7l17.2-7.8c2-0.9,4.1,0.9,3.6,2.9l-4.3,18.3l12.7,13.9c1.4,1.6,0.4,4.1-1.7,4.3l-18.8,1.6l-9.3,16.4
		C975.6,228.8,972.9,228.6,972.1,226.6z"/>
	<polygon class="st10" points="1496,167.5 1510.9,167 1517.6,149.6 1538.5,152.4 1541.5,140.4 1544.6,141.4 1541,156 1519.7,153.2 
		1513.2,170.2 1496,170.7 	"/>
	<g>
		<polygon class="st14" points="285.7,559.6 282.2,575.2 264.1,569.5 265.7,564.6 278.4,568.6 280.7,558.5 		"/>
	</g>
	<g>
		<path class="st8" d="M1766.9,1349.3H60.7c-3.5,0-6.5,2.6-6.8,6.1c-0.2,3.8,2.8,7,6.5,7h1706.5c3.6,0,6.6-2.9,6.6-6.6l0,0
			C1773.5,1352.2,1770.5,1349.3,1766.9,1349.3z"/>
	</g>
	<polygon class="st0" points="1295.5,172.9 1279.8,177 1272.1,157.2 1256.2,163.8 1249.4,143.9 1234.8,144.5 1228.6,129.6 
		1219.4,132.3 1218.5,127.6 1230.7,124 1237.2,139.6 1252,139 1258.4,157.8 1274.1,151.2 1282,171.5 1297.2,167.6 1306.1,183.3 
		1302.8,186 	"/>
	<polygon class="st11" points="23.7,734.2 32.4,736.4 32.3,746.6 41.8,751.2 40.8,763.1 52.5,764.9 52,778 62.7,781 64.1,792.1 
		61.3,792.4 60.1,783.2 49.1,780.1 49.6,767.3 37.8,765.5 38.8,752.9 29.4,748.4 29.6,738.6 23,736.9 	"/>
	<g>
		<path class="st6" d="M1429.4,1363H489.1c-45.1,0-81.6-36.5-81.6-81.6v-679c0-45.1,36.5-81.6,81.6-81.6h940.3
			c45.1,0,81.6,36.5,81.6,81.6v679C1510.9,1326.5,1474.4,1363,1429.4,1363z"/>
		<path class="st8" d="M1450.1,1337.6H474.7c-23.7,0-43-19.3-43-43v-711c0-23.7,19.3-43,43-43h975.5c23.7,0,43,19.3,43,43v711
			C1493.1,1318.4,1473.9,1337.6,1450.1,1337.6z"/>
		<path class="st5" d="M407.5,1312.3v28.6c0,12.2,26.3,22.2,58.7,22.2h1127.7c32.4,0,58.7-9.9,58.7-22.2v-28.6H407.5z"/>
		<rect x="504.9" y="568.2" class="st15" width="917.8" height="683.9"/>
		<rect x="536.2" y="622.4" class="st11" width="838.5" height="597.3"/>
		<rect x="534" y="577.3" class="st12" width="787" height="642.4"/>
		<rect x="549.5" y="606.3" class="st3" width="746.4" height="52.3"/>
		<rect x="536.2" y="155" class="st2" width="652.7" height="1006.5"/>
		<rect x="553.5" y="592.9" class="st10" width="602.3" height="52.8"/>
		<g>
			<rect x="584.3" y="694.8" class="st15" width="257" height="11.3"/>
			<rect x="897.1" y="694.8" class="st15" width="239.2" height="11.3"/>
			<rect x="584.3" y="723.2" class="st15" width="257" height="11.3"/>
			<rect x="897.1" y="723.2" class="st15" width="239.2" height="11.3"/>
			<rect x="584.3" y="751.7" class="st15" width="257" height="11.3"/>
			<rect x="897.1" y="751.7" class="st15" width="239.2" height="11.3"/>
			<rect x="584.3" y="780.1" class="st15" width="257" height="11.3"/>
			<rect x="897.1" y="780.1" class="st15" width="239.2" height="11.3"/>
			<rect x="897.1" y="808.6" class="st15" width="239.2" height="11.3"/>
			<rect x="584.3" y="808.6" class="st15" width="257" height="11.3"/>
			<rect x="584.3" y="837" class="st15" width="257" height="11.3"/>
			<rect x="897.1" y="837" class="st15" width="239.2" height="11.3"/>
			<rect x="584.3" y="865.5" class="st15" width="257" height="11.3"/>
			<rect x="897.1" y="865.5" class="st15" width="239.2" height="11.3"/>
			<rect x="584.3" y="894" class="st15" width="257" height="11.3"/>
			<rect x="897.1" y="894" class="st15" width="239.2" height="11.3"/>
			<rect x="584.3" y="922.4" class="st15" width="257" height="11.3"/>
			<rect x="897.1" y="922.4" class="st15" width="239.2" height="11.3"/>
			<rect x="584.3" y="950.9" class="st15" width="257" height="11.3"/>
			<rect x="897.1" y="950.9" class="st15" width="239.2" height="11.3"/>
			<rect x="897.1" y="979.3" class="st15" width="239.2" height="11.3"/>
			<rect x="584.3" y="979.3" class="st15" width="257" height="11.3"/>
			<rect x="584.3" y="1007.8" class="st15" width="257" height="11.3"/>
			<rect x="897.1" y="1007.8" class="st15" width="239.2" height="11.3"/>
			<rect x="897.1" y="1036.2" class="st15" width="239.2" height="11.3"/>
			<rect x="584.3" y="1036.2" class="st15" width="257" height="11.3"/>
		</g>
		<g>
			<rect x="927.8" y="210.8" class="st15" width="202.8" height="11.3"/>
			<rect x="927.8" y="239.2" class="st15" width="202.8" height="11.3"/>
			<rect x="927.8" y="267.7" class="st15" width="202.8" height="11.3"/>
			<rect x="927.8" y="296.1" class="st15" width="202.8" height="11.3"/>
			<rect x="927.8" y="324.6" class="st15" width="202.8" height="11.3"/>
		</g>
		<g>
			<rect x="928.7" y="373.2" class="st15" width="202.8" height="11.3"/>
			<rect x="928.7" y="401.6" class="st15" width="202.8" height="11.3"/>
			<rect x="928.7" y="430.1" class="st15" width="202.8" height="11.3"/>
			<rect x="928.7" y="458.5" class="st15" width="202.8" height="11.3"/>
			<rect x="928.7" y="487" class="st15" width="202.8" height="11.3"/>
		</g>
		<rect x="597" y="213.5" class="st15" width="277.1" height="343.4"/>
	</g>
	<g>
		<path class="st0" d="M285.1,274.5c-80.1,32.3-80.4,146.9-0.4,180.2c14.4,6,25.9,17.2,32.9,31.2l23.9,47.9
			c6.6,13.2,22.2,19.1,35.9,13.6l30.3-12.2c13.7-5.5,20.9-20.6,16.4-34.7c-16.1-51.4-25.7-69.2-13.9-96.4
			C444.8,324.6,365.1,242.2,285.1,274.5z"/>
		<g>
			<path class="st2" d="M343.1,494.4c-15.4-43.7-33.6-89.4-39.2-102.2c-47.1,13.3-40.2-41-13.6-25.5c7.6,4.4,12.3,11.7,16.2,19.9
				c15.5-5,30-12.9,42.4-23.4c-3.2-10.9-6.2-19-4.7-26.8c2.3-11.7,15.2-17.7,23-8.5c2.9,3.5,4.4,8.4,3.9,12.9
				c-1.2,9.6-9.5,17.6-16.9,24c10.5,35.1,22,70.3,34.3,104.7l-4.4,1.6c-12.1-33.9-23.4-68.5-33.8-103c-12.4,10.1-26.7,17.9-42,22.8
				c7.1,16.5,24.6,61,39.1,102L343.1,494.4z M278.9,386.6c5.3,3.6,12.8,4,23,1.2c-3.5-7.2-7.7-13.5-14-17.2
				C273.6,362.3,270.1,380.6,278.9,386.6z M348.7,337.2c-1.3,6.5,1.4,13.9,4,22.6c5.9-5.4,12.8-12,13.7-19.7
				c0.7-5.4-2.9-12-8.3-12.1C357.6,328,349.6,332.6,348.7,337.2z"/>
		</g>
		<path class="st15" d="M316.9,484.7c0.2,0.4,0.4,0.8,0.6,1.2l23.9,47.9c6.6,13.2,22.2,19.1,35.9,13.6l30.3-12.2
			c13.7-5.5,20.9-20.6,16.4-34.7c-7.2-22.9-13-39.1-16.3-52.4L316.9,484.7z"/>
		<g>
			<path class="st2" d="M215,250.4l-35-39.8c-3.4-3.9-3-9.7,0.8-13.1c3.9-3.4,9.7-3,13.1,0.8l35,39.8c3.4,3.9,3,9.7-0.8,13.1
				C224.2,254.6,218.3,254.2,215,250.4z"/>
		</g>
		<g>
			<path class="st2" d="M185.2,372.3l-55.2,7.4c-5.1,0.7-9.8-2.9-10.4-8c-0.7-5.1,2.9-9.8,8-10.4l55.2-7.4c5.1-0.7,9.8,2.9,10.4,8
				C193.8,366.9,190.3,371.6,185.2,372.3z"/>
		</g>
		<g>
			<path class="st2" d="M168.6,550.4c-4.3-2.8-5.6-8.5-2.8-12.8c10.4-16.1,22.4-31.4,35.6-45.2c3.5-3.7,9.4-3.9,13.1-0.3
				c3.7,3.5,3.9,9.4,0.3,13.1c-12.4,13-23.7,27.3-33.4,42.5C178.7,551.9,172.9,553.2,168.6,550.4z"/>
		</g>
		<g>
			<path class="st2" d="M348.3,218c-5.1-0.2-9.1-4.5-8.9-9.7c1-24.3-0.5-48.9-4.6-72.9c-0.8-5.1,2.6-9.9,7.6-10.7
				c5.1-0.8,9.8,2.6,10.7,7.6c4.2,25.3,5.9,51.1,4.8,76.7C357.7,214.3,353.4,218.2,348.3,218z"/>
		</g>
		<g>
			<path class="st2" d="M419.6,275.2c-2.5-4.5-0.9-10.1,3.5-12.7l52.5-29.6c4.5-2.5,10.1-0.9,12.7,3.5c2.5,4.5,0.9,10.1-3.5,12.7
				l-52.5,29.6C427.8,281.2,422.2,279.7,419.6,275.2z"/>
		</g>
		<g>
			<path class="st2" d="M545.7,404.4c-0.8,0.2-1.7,0.3-2.5,0.2c-20.7-1.1-41.4-4.5-61.5-10c-4.9-1.4-7.9-6.5-6.5-11.4
				c1.4-4.9,6.5-7.9,11.4-6.5c18.8,5.2,38.1,8.3,57.5,9.4c5.1,0.3,9.1,4.7,8.8,9.8C552.7,400,549.6,403.5,545.7,404.4z"/>
		</g>
	</g>
	<g>
		<path class="st3" d="M1123.3,125.3H550.6c-4.5,0-8.2-3.7-8.2-8.2V69.6c0-4.5,3.7-8.2,8.2-8.2h572.7c4.5,0,8.2,3.7,8.2,8.2v47.5
			C1131.5,121.7,1127.8,125.3,1123.3,125.3z"/>
		<g>
			<path class="st6" d="M993.3,116.9H580.1c-7.6,0-13.7-6.2-13.7-13.7V83.4c0-7.6,6.2-13.7,13.7-13.7h413.1
				c7.6,0,13.7,6.2,13.7,13.7v19.7C1007,110.7,1000.8,116.9,993.3,116.9z M580.1,73.5c-5.5,0-9.9,4.5-9.9,9.9v19.7
				c0,5.5,4.5,9.9,9.9,9.9h413.1c5.5,0,9.9-4.5,9.9-9.9V83.4c0-5.5-4.5-9.9-9.9-9.9H580.1z"/>
		</g>
		<g>
			<path class="st6" d="M1065.6,99.7c-9.1,0-16.5-7.4-16.5-16.5c0-9.1,7.4-16.5,16.5-16.5c9.1,0,16.5,7.4,16.5,16.5
				C1082.1,92.3,1074.7,99.7,1065.6,99.7z M1065.6,70.4c-7,0-12.7,5.7-12.7,12.7c0,7,5.7,12.7,12.7,12.7c7,0,12.7-5.7,12.7-12.7
				C1078.3,76.1,1072.6,70.4,1065.6,70.4z"/>
		</g>
		<g>
			<path class="st6" d="M1087.3,116.1l-14.8-19.8c-0.6-0.8-0.5-2,0.4-2.7c0.8-0.6,1.9-0.5,2.5,0.2l0.1,0.1l16.6,18.5
				c1.1,1.3,1,3.2-0.2,4.3c-1.3,1.1-3.2,1-4.3-0.2c-0.1-0.1-0.1-0.1-0.2-0.2L1087.3,116.1z"/>
		</g>
	</g>
	<g>
		<path class="st0" d="M1435.2,133.8c6.1,13.6-0.2,29.6-14,35.4c-13,5.4-28.2-0.4-34.3-13.1c-6.4-13.6-0.4-29.7,13.2-35.7
			C1413.5,114.3,1429.2,120.3,1435.2,133.8z"/>
		<path class="st16" d="M1399.6,154.2c3.2,7.2,11.6,10.4,18.8,7.2c7.2-3.2,10.4-11.6,7.2-18.8L1399.6,154.2z"/>
	</g>
	<g>
		<path class="st10" d="M1144.7,977.9c9.6-2.7,9.9-1,11.1-1.4c1.4-0.5,13.1-15.9,13.1-15.9s34.7-45.3,36.5-47.9l11-58.7l32.9-0.3
			c0,0-13.7,63.4-15.1,66.5c-1.3,3.1-56.4,58.5-61,63.6c0,0-3,8.2-5.1,13.3c-2.1,5.1-6.5,8.8-7.3,10.1c-0.1,0.2-3.2,4.4-8.5,8.5
			c-4.6,3.5-2.2-2-2.2-2s7.1-8.1,6.2-8.6c-0.6-0.4-4.2,4.3-9.2,8.3c-1.3,1-2.6,2-3.7,2.9c-3.1,2.4-5.7,1.1-3-1.9
			c1-1.1,2.7-2.8,4-3.9c1.5-1.1,2.5-2.7,3.5-3.9c2.2-2.3,3.8-4,3.6-4c-0.2-0.1-0.1-0.8-1.6,0.2c-1.7,1.2-4.6,4.7-7.2,6.4
			c-1.5,0.9-4.5,3.1-4.5,3.1s-5.3,2.4-5.5,2.1c-1.5-1.4,1.5-4,3.7-5c1-1.4,4.2-3.5,4.2-3.5s5.4-5.9,4.4-6.7
			c-0.4-0.3-4.2,2.8-8.5,5.3c-4,2.3-8.5,4-9.1,3.3c-1.2-1.2,2.9-4.3,2.9-4.3s3-2,3.9-2.7c1.1-0.9,4.1-3.7,4.1-3.7s10-10.4,9.1-11.1
			c-1-0.7-4.1-1.7-4.9-1.2c-0.9,0.4-2,2-2.9,2.5c-0.9,0.4-2.5,0.2-3.2-0.8c-0.7-1,2.5-4.7,2.5-4.7S1141.9,978.7,1144.7,977.9z"/>
		<path class="st4" d="M1198.4,1274.2c0,0-0.3,20.2-0.3,20.3c0.4,2.6,3.6,8.9,3.6,11.3c0,8.8-39.9-7.5-30.9-11.3c0.8-0.4,5-3,5.3-6
			c0.4-4.6,1.5-13.9,1.5-13.9L1198.4,1274.2z"/>
		<path class="st13" d="M1170.9,1294.4c0,0,9.4,2.7,14.2,3.4c4.8,0.7,11.1-5,14.5-3.5c3.7,1.7,3.4,18.2,3.4,18.2s-47.9,0.7-64.1-0.2
			C1132.9,1311.9,1151.7,1300.6,1170.9,1294.4z"/>
		<path class="st4" d="M1287.2,1274.2c0,0,1.2,20.2,1.2,20.3c0.4,2.6,2.1,8.9,2.1,11.3c0,8.8-39.9-7.5-30.9-11.3
			c0.8-0.4,6.3-5,6.6-8c0.4-4.6,0.2-11.9,0.2-11.9L1287.2,1274.2z"/>
		<path class="st13" d="M1259.7,1294.4c0,0,9.4,2.7,14.2,3.4c4.8,0.7,11.1-5,14.5-3.5c3.7,1.7,3.6,18,3.6,18s-53.5,0.6-66.5,0
			C1219.6,1312,1240.5,1300.6,1259.7,1294.4z"/>
		<path class="st5" d="M1224,982l-16.9,7.1l-35.5,165.9l1.4,124.4l28.4,0.6c0,0,13.2-108.8,13.2-117.2s61.3-147.5,61.3-147.5
			L1224,982z"/>
		<path class="st6" d="M1237,991.1c0,0,12.4,127.8,12.4,149.3c0,21.5,10.1,142.1,10.1,142.1l28.5-0.2c0,0,2.1-36.8,5.1-90.8
			c0.5-8.5-0.6-25.6,0-34.3c4.4-63,13.2-122.4,9-145.9c-0.7-3.8-1.9-13.7-4.4-16.2C1279.1,976.3,1237,991.1,1237,991.1z"/>
		<path class="st11" d="M1202.2,890.3l34.5-2.3c0,0,1.7-30.2,1.7-44.6c0-17.5,5.4-43.2,3.3-42.7c-6,1.4-16.3,6.7-21.1,13.3
			C1204.1,836.5,1202.2,890.3,1202.2,890.3z"/>
		<path class="st0" d="M1284,800c0,0,19.7,2.7,24.8,6.4c5.8,4.2,12.3,13.6,12.3,13.6s-24.1,111.8-24.2,130.6
			c0,14.6,5.2,50.3,5.2,50.3s-73,4.5-100.6-6.2c0,0,8.7-42.5,8.7-53.7c0-11.2,10.4-112.6,12.8-119.7c2.2-6.4,6.1-18,19.4-20.8
			C1255.8,797.6,1284,800,1284,800z"/>
		<path class="st4" d="M1278.6,769.9l4.9,31.2c0,0-17.8,37.2-28.4,33.9c-8.9-2.7-3.4-35.6-3.4-35.6s4.9-17.7,3.4-26.5
			C1253.6,764.1,1278.6,769.9,1278.6,769.9z"/>
		<path class="st11" d="M1255,773c-1.5-8.8,23.6-3.1,23.6-3.1l0.4,2.6c-0.7,1.7-1.6,3.2-2.7,4.3c-5.6,5.8-14.3,9.4-21.9,9.6
			C1255.2,781.7,1255.6,776.6,1255,773z"/>
		<g>
			<path class="st4" d="M1282.7,725.7c0.7-0.3,5.7,35.5-3.7,45.4c-9.4,9.8-27.7,13.1-34.3,5.3c-7.3-8.6-6.9-47.1,7.7-57.2
				C1267,709.1,1282.7,725.7,1282.7,725.7z"/>
			<path class="st17" d="M1257.9,700.1c11.3,2.2,18.6,9,21.3,11.8c5.1,0.6,12.1,3.3,19.3,15c8.9,14.3,2.3,30.1-8,37.8
				c-10.3,7.8-10.2,16.7-10.2,16.7l-1.6-4.6c-1.2-3.5-1.7-7.2-1.3-10.9c0.2-2.2,0.7-4.6,1.7-6.6c2.5-5.2-5.3-8.6-7.5-12.9
				c-1.7-3.3-1.8-10.9-4.4-16.4l-3.2-4.2c0,0-7.3-5.5-14.5-4C1242.4,723.4,1243.4,697.2,1257.9,700.1z"/>
			
				<ellipse transform="matrix(-0.9999 -1.663490e-002 1.663490e-002 -0.9999 2540.8772 1526.8773)" class="st4" cx="1276.8" cy="752.9" rx="4.7" ry="7.9"/>
		</g>
		<path class="st17" d="M1233.8,913.7l-0.5,2.7c-0.2,1.4-1.6,2.3-3,2.1l-56.4-9.6c-1.4-0.2-2.3-1.5-2.1-2.9l0.5-2.7
			c0.2-1.4,1.6-2.3,3-2.1l56.4,9.6C1233.1,911,1234,912.3,1233.8,913.7z"/>
		<path class="st4" d="M1313.8,814.4c-6.6-0.2-12.5,42.6-8.3,46.8c4.2,4.2,5,56.9,5,56.9l-62.4-1.5l0,0c-1.2-0.8-14.3-9.4-16.2-11.3
			c-2-2-11.5-1-14,1.7c-2.5,2.7,5.6,0.5,7.8,2c2.2,1.5-1.7,5.2-1.7,5.2s-15.8,2.2-18.9-1c-3.1-3.2-11.3-8.6-12.4-5.4
			c-0.6,1.7,3.7,6.7,6.1,8.8c-3-2.2-6.6-4.5-7.8-4.1c-2.2,0.7-1.3,3.5-0.1,4.4c1.2,0.8,13.8,10.2,15.7,10.9
			c1.9,0.6,31.1,1.3,36.2,2.4c0,0,82.3,18.4,87,17.2c4.1-1,8.2-26.8,8.2-46.6C1338,880.9,1334.4,815,1313.8,814.4z"/>
		<path class="st0" d="M1305.2,804.6c0,0,11.5,2.6,23.4,15.7c10.8,11.9,17.6,78.6,17.6,78.6l-37.4,5.9l-3-32.2l-10-14.8
			L1305.2,804.6z"/>
	</g>
	<g>
		<path class="st13" d="M692.5,436.5l-23.7,71.6h-30.4l77.4-227.8h35.5l77.7,227.8h-31.4l-24.3-71.6H692.5z M767.2,413.5L744.9,348
			c-5.1-14.9-8.4-28.4-11.8-41.6h-0.7c-3.4,13.5-7.1,27.4-11.5,41.2l-22.3,65.9H767.2z"/>
	</g>
	<path class="st9" d="M1680.9,774l-10.3-9l-13.2,3.4c-1.5,0.4-2.8-1.1-2.2-2.6l5.4-12.6l-7.3-11.6c-0.8-1.3,0.2-3,1.8-2.9l13.6,1.2
		l8.7-10.5c1-1.2,2.9-0.7,3.3,0.8l3,13.3l12.7,5.1c1.4,0.6,1.6,2.6,0.3,3.4l-11.7,7l-0.9,13.6C1683.9,774.3,1682.1,775,1680.9,774z"
		/>
	<path class="st15" d="M205.6,106.6l-10.3-9l-13.2,3.4c-1.5,0.4-2.8-1.1-2.2-2.6l5.4-12.6L178,74.3c-0.8-1.3,0.2-3,1.8-2.9l13.6,1.2
		l8.7-10.5c1-1.2,2.9-0.7,3.3,0.8l3,13.3l12.7,5.1c1.4,0.6,1.6,2.6,0.3,3.4l-11.7,7l-0.9,13.6C208.6,106.9,206.8,107.6,205.6,106.6z
		"/>
	<path class="st11" d="M480.5,117.5l-10.3-9l-13.2,3.4c-1.5,0.4-2.8-1.1-2.2-2.6l5.4-12.6l-7.3-11.6c-0.8-1.3,0.2-3,1.8-2.9
		l13.6,1.2L477,73c1-1.2,2.9-0.7,3.3,0.8l3,13.3l12.7,5.1c1.4,0.6,1.6,2.6,0.3,3.4l-11.7,7l-0.9,13.6
		C483.5,117.8,481.7,118.5,480.5,117.5z"/>
	<g>
		<g>
			<path class="st17" d="M1354.3,407c37.4,15.4,49.5-18.2,48.5-17.4c0.7-0.8,6.3-3.2,9.9-5c15-7.4,14.5-33.3,14.2-50.5
				c21.5-13.1,26.9-38.2,12.2-53.5c4.5-17,5.5-27.8-9.7-36.4c-11.5-20.1-43.8-13.3-59.5,2.5c-7.9,8-12.5,19.7-12.4,31.4
				c-18.4,7.6-28.1,28-23.9,48.5C1308.7,347,1316.1,391.3,1354.3,407z"/>
			<path class="st10" d="M1492.2,465c-3-3-8.3-5.6-8-6c1.3-1.8,14.3,11.8,13.5,7.9c-0.5-2.1-9.8-13.2-13.2-13.6
				c-3.2-0.4-24.1-3.7-24.1-3.7l-48.2-32c0,0-2.4-37.9,7.8-63.4c-11.2-3.4-13.4-4.1-24.8-3.3c-6.6,25.9-13.6,69.5-5.1,82.2
				c3.6,5.3,66.2,26,66.2,26s13.5,5.1,16.1,5.3c1.9,0.1,7.2-0.3,9.8,0.1c5.9,0.9,13.1,9.6,13.6,8.6
				C1496.2,472.4,1495.3,468,1492.2,465z"/>
			<path class="st0" d="M1426,351.2c-4.5-8.4-9.2-15-9.2-15c-4.7-8.4-16.8-12.6-16.8-12.6s-4.1,0.1-8.7,0.3
				c-0.3,0.8-0.6,1.3-0.9,1.6c-1.8,1.3-11.8-0.4-18.3,4c-21.7,18.7-15.7,109.2-14,137.8l54.2,0.2c0,0,3.6-61.1,17-76.9
				C1438.7,379.6,1432.7,363.6,1426,351.2z"/>
			<path class="st10" d="M1440.9,669.6c0.6-1.1,8.1-19.2,14.3-27.3c8.9-11.8,86.2-118.1,83-144c-1.4-11.3-34.9-20.9-38.8-21.6
				c-21.3,2.9,1.1,21.2-14.9,36.3c10.4,3.6,16.5,8,14.3,10.9c-9,11.7-56.8,106.1-58.9,107.3c-9.3,5.4-12.9,2.9-12.9,2.9
				s2.1,53.1,6.5,51.4C1437.8,683.9,1434.3,681.7,1440.9,669.6z"/>
			<path class="st5" d="M1423,634.4l8.9,53.5c2,6.9,5.4,6.8,6.3,5.9c1.8-1.9,2.6-16.2,2.8-24.3c-4-12.4-3.6-35.7-1.2-38.3
				C1433.7,631.3,1423,633.3,1423,634.4z"/>
			<path class="st4" d="M1454.9,503.4c12-19.9,11.3-17.4,32.2-26.3c8.4,3.4,36.3,20.9,39.9,24.1l-44.5,32.3
				C1484,529.8,1468.5,511.9,1454.9,503.4z"/>
			<path class="st4" d="M1396.2,293c0,0-2.8,26.5-6.2,32.4c-1.2,2.1,14,19.9,27.7,24s-4.2-14-3.6-20.7c0.6-6.8,3.1-38.8,3.1-38.8
				L1396.2,293z"/>
			<path class="st11" d="M1416.5,299c0.4-5.3,0.7-9.2,0.7-9.2l-20.9,3.2c0,0-0.5,3.1-1.1,7.4C1403.6,305.3,1411.2,303.8,1416.5,299z
				"/>
			<path class="st4" d="M1402.8,245.4c0,0-8.3,1.9-13.4,9.7c-5.1,7.8-8.6,30.8,8.2,41.5c16.8,10.7,29.8-4.4,30.1-19.2
				C1427.9,262.6,1424.7,242.8,1402.8,245.4z"/>
			<path class="st4" d="M1431.5,272.7c-1.4,3.6-4.3,5.8-6.3,4.9c-2.1-0.8-2.6-4.4-1.2-8c1.4-3.6,4.3-5.8,6.3-4.9
				C1432.4,265.6,1433,269.2,1431.5,272.7z"/>
			<path class="st4" d="M1389.2,275.7c1.2,3.8,0.1,7.6-2.5,8.5c-2.6,0.8-5.7-1.6-6.9-5.5c-1.2-3.8-0.1-7.6,2.5-8.5
				C1384.9,269.4,1387.9,271.8,1389.2,275.7z"/>
			<path class="st8" d="M1452.5,469c-9.3-0.9-40-4-40-4l-54.4-7.3c0,0-9.6,23-10,37.4c-0.7,25.2,18.4,34.7,38.2,33.5
				c11.8-0.7,81.4-2.7,96,4.7c2.7-20.5,5.8-42.8,19.6-57.6C1479.7,472.7,1465,470.2,1452.5,469z"/>
			<path class="st4" d="M1453.2,659.2c1.5-1.5,13.4-83.2,20.6-117.5c1.7-8.3,7-15.3,14.4-19.4l38.8-21.2
				c13.5,12.3-49.3,150.4-55.1,164.9c-4,10-6.4,30.6-6.7,31.8c-3.2,14.1,1,15.3-3,18.3c-4,3-22-48.6-22-48.6
				S1445.3,667.4,1453.2,659.2z"/>
			<path class="st5" d="M1441.5,472.6L1441.5,472.6c0,2.1,1.9,3.7,4.2,3.7l65.9,0.2c2.3,0,4.7-2,5.4-4.5l-1.2,0.8
				c0-2.1-1.9-3.7-4.2-3.7l-65.9-0.2C1443.4,468.8,1441.5,470.5,1441.5,472.6z"/>
			<g>
				<path class="st5" d="M1511,475.1c-0.4,0-0.8,0-1.2-0.1c-3.4-0.4-5.7-2.6-5-4.9l25.2-87.1c0.7-2.3,3.9-3.7,7.4-3.3
					c3.4,0.4,5.7,2.6,5,4.9l-25.2,87.1C1516.6,473.7,1513.9,475.1,1511,475.1z"/>
			</g>
			<path class="st4" d="M1491.5,463.3c-3.8-1.9-9.6-2.7-9.5-3.3c0.6-2.1,17.4,8.6,15.4,5.3c-1.1-1.9-13.6-11.4-16.9-10.7
				c-3.2,0.6-24,3.9-24,3.9l-53.6-19.4c0,0-10.2-33.4-8.4-60.8c-11.7,0.2-19.8,2.2-30.5,6.6c1.8,26.6,8.6,70.3,20.6,79.7
				c5.1,4,71,4.2,71,4.2s14.5,0.7,16.9,0c1.9-0.5,6.7-2.5,9.3-2.9c5.8-0.9,15.4,5.1,15.6,4C1497.6,469.1,1495.4,465.2,1491.5,463.3z
				"/>
			<path class="st2" d="M1398.3,349.3c-0.7-8.4-1.8-16.9-10.4-20.6c-5.3-2.3-11.7-2.3-16.5,0.8c-5.7,3.7-8,11.3-8.7,17.8
				c-1.7,14.8-2.4,30.3-1.4,45.2c10.6-4.4,25.1-2.1,36.8-2.3C1400.6,377.2,1399.3,360.3,1398.3,349.3z"/>
		</g>
		<path class="st4" d="M1483.6,455.4c9.2,2.3,8.7,2.2,9,2.4c6.5,4.1,6,5.8-4,1.6c-0.3-0.1-0.5-0.2-0.8-0.2l-4.7,0.1
			c-1.8,0-2.7-2.2-1.3-3.5l0,0C1482.3,455.4,1482.9,455.2,1483.6,455.4z"/>
		<path class="st6" d="M1465.6,694.9c0,0,0.9,6.1,1.8,11.7c0.9,5.5-0.5,14.5-2.5,17.2c-2,2.7-25.7-52.9-25.7-52.9
			c-0.8-1.7-0.3-3.7,1.1-4.9c2.2-2,6.3-4.7,12.8-6.7C1453.1,659.3,1452.1,687.9,1465.6,694.9z"/>
	</g>
	<path class="st10" d="M1280,68.1l-11,6.7l11.4,51.3c1,4.4,6,6.6,9.9,4.2l0,0c2.4-1.5,3.7-4.4,3-7.2l-2.8-12l11.6-7l9.6,8
		c2.2,1.8,5.3,2.1,7.7,0.6l0.2-0.1c3.9-2.4,4.3-7.8,0.8-10.8L1280,68.1z M1287.5,99l-2.1-9.4l7.4,6.2L1287.5,99z"/>
	<path class="st15" d="M1477.6,0c5.3,0.4,15.6,2.6,25,5.3c11.6,3.3,18.3,6.5,23.4,11.8c5,4.8,7.6,11.7,5.4,19.3
		c-2.1,7.5-8.5,13.2-18.9,14l-0.1,0.2c8.8,5.4,13.9,14.6,10.8,25.4c-2.2,7.6-7.4,12.6-13.8,15.3c-7.5,3.1-18.5,2.9-35.1-1.8
		c-9.3-2.7-16.1-5.3-20.2-7.1L1477.6,0z M1487.2,37.5l6.2,1.8c10,2.8,16.5,0.3,18.3-6c1.8-6.3-2.1-11.1-10.7-13.5
		c-4.1-1.2-6.5-1.6-8.2-1.8L1487.2,37.5z M1476.6,74.7c1.8,0.8,4,1.4,7.3,2.3c8.6,2.5,17.1,1.4,19.6-7.4c2.4-8.5-4.2-14-13.7-16.7
		l-6.5-1.8L1476.6,74.7z"/>
	<path class="st0" d="M1627,283.9c1,4.2-1.6,8.4-5.8,9.4c-3.9,0.9-8.8,1.7-14.5,1.9c-29.6,1-45.5-16.9-46.3-41.3
		c-1-29.3,19.3-46.2,45.3-47.1c5.1-0.2,9.7,0.2,13.3,0.8c4.4,0.8,7.3,5.1,6.3,9.4l-0.1,0.3c-0.9,4.1-4.9,6.8-9,6.1
		c-2.7-0.5-5.8-0.8-9.2-0.6c-15.4,0.5-27,10.2-26.4,29.3c0.6,17.2,11.1,27.6,28.4,27.1c2.9-0.1,5.9-0.5,8.7-1.1
		C1622,277,1626.1,279.7,1627,283.9L1627,283.9z"/>
</g>
</svg>
