<?xml version="1.0" encoding="utf-8"?>
<!-- Generator: Adobe Illustrator 16.0.0, SVG Export Plug-In . SVG Version: 6.00 Build 0)  -->
<!DOCTYPE svg PUBLIC "-//W3C//DTD SVG 1.1//EN" "http://www.w3.org/Graphics/SVG/1.1/DTD/svg11.dtd">
<svg version="1.1" xmlns="http://www.w3.org/2000/svg" xmlns:xlink="http://www.w3.org/1999/xlink" x="0px" y="0px"
	 width="619.392px" height="492.916px" viewBox="0 0 619.392 492.916" enable-background="new 0 0 619.392 492.916"
	 xml:space="preserve">
<g id="BACKGROUND">
	<g>
		<g>
			<path fill="#0087FE" d="M615.94,344.139c-3.151-10.007-8.494-19.188-16.181-26.567c-13.065-12.549-31.838-19.623-40.66-35.447
				c-11.011-19.745-2.107-43.98,1.386-66.315c5.032-32.174-5.775-70.441-35.642-83.421c-26.021-11.309-58.495-0.297-83.104-14.419
				c-28.68-16.458-31.382-57.114-52.784-82.32c-17.015-20.041-44.497-28.193-69.899-30.012c-33.705-2.413-70.956,6.307-91.3,33.288
				c-18.904,25.07-21.82,63.376-49.371,78.438c-19.218,10.507-43.032,5.028-64.518,9.284c-43.535,8.623-63.813,51.158-53.673,91.675
				c4.352,17.387,10.1,35.81,4.329,52.78c-8.235,24.219-36.089,35.345-51.539,55.732c-18.651,24.609-16.178,61.097,0.833,86.868
				c17.009,25.768,45.967,41.746,75.899,49.333c29.932,7.586,61.18,7.687,92.057,7.744c84.016,0.153,168.029,0.307,252.044,0.462
				c32.602,0.059,65.653,0.063,97.14-8.395c31.484-8.457,61.758-26.535,77.834-54.896
				C619.613,388.857,622.429,364.746,615.94,344.139z"/>
		</g>
		<g>
			<g>
				<circle fill="#0087FE" cx="28.413" cy="215.733" r="11.226"/>
				<circle fill="#0087FE" cx="39.05" cy="185.983" r="5.145"/>
				<circle fill="#0087FE" cx="28.413" cy="161.563" r="5.145"/>
			</g>
			<g>
				<circle fill="#0087FE" cx="594.028" cy="212.077" r="11.225"/>
				<circle fill="#0087FE" cx="576.943" cy="185.983" r="5.146"/>
				<circle fill="#0087FE" cx="599.173" cy="163.108" r="5.146"/>
			</g>
			<g>
				<circle fill="#0087FE" cx="413.167" cy="17.266" r="11.225"/>
				<circle fill="#0087FE" cx="382.958" cy="5.146" r="5.146"/>
				<circle fill="#0087FE" cx="414.882" cy="43.809" r="5.145"/>
			</g>
			<g>
				<circle fill="#0087FE" cx="204.133" cy="17.266" r="11.225"/>
				<circle fill="#0087FE" cx="233.311" cy="5.146" r="5.145"/>
				<circle fill="#0087FE" cx="194.333" cy="54.101" r="5.145"/>
			</g>
		</g>
	</g>
</g>
<g id="OBJECTS">
	<g>
		<ellipse fill="#E6E6E6" cx="309.695" cy="481.232" rx="245.767" ry="11.684"/>
		<g>
			<g>
				<g>
					<g>
						<g>
							<path opacity="0.5" fill="#EC3434" d="M403.476,454.809c0.89-1.952,1.787-3.884,2.697-5.805
								c-0.002,0.005,0.002,0.008,0.002,0.008C405.268,450.932,404.366,452.864,403.476,454.809z"/>
							<path opacity="0.5" fill="#EC3434" d="M527.259,325.479c0.993-0.314,1.995-0.61,3.001-0.905
								C529.254,324.868,528.253,325.17,527.259,325.479z"/>
							<path opacity="0.5" fill="#EC3434" d="M409.188,442.74c0.335-0.684,0.672-1.361,1.012-2.037
								c-0.337,0.679-0.673,1.356-1.008,2.04L409.188,442.74z"/>
							<path opacity="0.5" fill="#EC3434" d="M418.991,423.98"/>
							<path fill="#EC3434" d="M417.468,426.746c-0.355,0.65-0.707,1.302-1.059,1.957c-0.355,0.653-0.707,1.309-1.06,1.97
								c-0.348,0.658-0.698,1.319-1.046,1.982c-0.345,0.661-0.692,1.327-1.039,1.995c-0.347,0.666-0.688,1.334-1.028,2.003
								c-0.688,1.339-1.366,2.688-2.037,4.05c-0.34,0.676-0.677,1.354-1.012,2.037c-4.167-6.484-6.813-13.984-8.485-20.598
								c-0.611-2.408-4.244-1.615-3.773,0.827c2.027,10.507,6.895,21.246,9.244,26.034c-0.91,1.921-1.808,3.853-2.697,5.805
								c-0.449,0.97-0.89,1.95-1.328,2.927c-0.443,0.978-0.881,1.963-1.317,2.95c-2.465-3.402-4.521-7.186-6.241-11.113
								c-10.658-24.298-7.296-52.128,7.57-73.758C403.5,404.839,415.773,424.2,417.468,426.746z"/>
						</g>
					</g>
					<path fill="#EC3434" d="M417.468,426.746c-0.355,0.65-0.707,1.302-1.059,1.957c-0.355,0.653-0.707,1.309-1.06,1.97
						c-0.348,0.658-0.698,1.319-1.046,1.982c-0.345,0.661-0.692,1.327-1.039,1.995c-0.347,0.666-0.688,1.334-1.028,2.003
						c-0.688,1.339-1.366,2.688-2.037,4.05c-0.34,0.676-0.677,1.354-1.012,2.037c-4.114-6.401-6.836-13.587-8.62-19.891
						c-0.723-2.551-4.567-1.616-4.008,0.977c2.188,10.134,7.264,20.39,9.613,25.178c-0.91,1.921-1.808,3.853-2.697,5.805
						c-0.449,0.97-0.89,1.95-1.328,2.927c-0.443,0.978-0.881,1.963-1.317,2.95c-2.465-3.402-4.521-7.186-6.241-11.113
						c-10.658-24.298-7.296-52.128,7.57-73.758C403.5,404.839,415.773,424.2,417.468,426.746z"/>
				</g>
			</g>
			<g>
				<g>
					<g>
						<g>
							<path fill="#EC3434" d="M119.602,333.295l-0.005,0.002c0.329,0.276,0.66,0.559,0.995,0.837
								C120.261,333.853,119.93,333.571,119.602,333.295z"/>
							<path fill="#EC3434" d="M192.49,422.269l-0.005,0.003c0.126,0.219,0.248,0.446,0.374,0.676
								C192.733,422.718,192.615,422.495,192.49,422.269z"/>
							<path opacity="0.5" fill="#EC3434" d="M215.432,452.911c-1.11-2.438-2.232-4.851-3.369-7.249
								c0.003,0.003-0.002,0.005-0.002,0.005C213.193,448.069,214.32,450.481,215.432,452.911z"/>
							<path opacity="0.5" fill="#EC3434" d="M120.93,322.651c0.493,0.375,0.981,0.754,1.474,1.137
								c-0.488-0.388-0.979-0.77-1.473-1.145L120.93,322.651z"/>
							<path opacity="0.5" fill="#EC3434" d="M168.374,371.412c1.217,1.618,2.421,3.257,3.612,4.904
								C170.797,374.661,169.592,373.023,168.374,371.412z"/>
							<path opacity="0.5" fill="#EC3434" d="M60.785,291.333c-1.24-0.392-2.493-0.763-3.749-1.131
								C58.292,290.57,59.543,290.948,60.785,291.333z"/>
							<path opacity="0.5" fill="#EC3434" d="M83.46,300.015c2.479,1.132,4.922,2.316,7.334,3.549
								c-2.408-1.235-4.854-2.424-7.332-3.556L83.46,300.015z"/>
							<path opacity="0.5" fill="#EC3434" d="M155.953,355.971c-2.057-2.387-4.146-4.727-6.271-7.01
								C151.804,351.247,153.893,353.586,155.953,355.971z"/>
							<path opacity="0.5" fill="#EC3434" d="M158.407,358.857c0,0,0.005-0.003,0.001-0.008c-0.813-0.969-1.63-1.93-2.455-2.879
								C156.778,356.928,157.594,357.888,158.407,358.857z"/>
							<path opacity="0.5" fill="#EC3434" d="M184.861,395.473c1.676,2.674,3.327,5.377,4.966,8.118
								c-1.626-2.743-3.282-5.452-4.964-8.125C184.865,395.471,184.861,395.473,184.861,395.473z"/>
							<path opacity="0.5" fill="#EC3434" d="M180.191,388.214l0.001-0.008c-2.672-4.055-5.406-8.022-8.206-11.89
								C174.781,380.194,177.515,384.164,180.191,388.214z"/>
							<path opacity="0.5" fill="#EC3434" d="M208.296,437.834c-0.418-0.854-0.838-1.701-1.262-2.543
								c0.419,0.847,0.84,1.693,1.258,2.545L208.296,437.834z"/>
							<path opacity="0.5" fill="#EC3434" d="M196.049,414.395c-2.03-3.646-4.099-7.239-6.208-10.776
								C191.946,407.158,194.015,410.752,196.049,414.395z"/>
							<path fill="#EC3434" d="M197.952,417.852c0.443,0.814,0.884,1.625,1.323,2.444c0.444,0.817,0.884,1.637,1.322,2.463
								c0.435,0.821,0.873,1.647,1.308,2.477c0.431,0.827,0.865,1.656,1.298,2.493c0.435,0.829,0.859,1.665,1.285,2.502
								c0.858,1.671,1.706,3.359,2.546,5.061c0.424,0.842,0.844,1.688,1.262,2.543c5.206-8.098,8.513-17.47,10.603-25.731
								c0.762-3.013,5.302-2.02,4.715,1.03c-2.533,13.128-8.614,26.545-11.551,32.529c1.137,2.398,2.259,4.812,3.369,7.249
								c0.563,1.214,1.112,2.436,1.661,3.659c0.554,1.218,1.102,2.449,1.646,3.683c3.08-4.248,5.649-8.977,7.799-13.882
								c13.314-30.358,9.112-65.127-9.46-92.149C215.402,390.482,200.07,414.671,197.952,417.852z"/>
						</g>
					</g>
					<path fill="#EC3434" d="M197.952,417.852c0.443,0.814,0.884,1.625,1.323,2.444c0.444,0.817,0.884,1.637,1.322,2.463
						c0.435,0.821,0.873,1.647,1.308,2.477c0.431,0.827,0.865,1.656,1.298,2.493c0.435,0.829,0.859,1.665,1.285,2.502
						c0.858,1.671,1.706,3.359,2.546,5.061c0.424,0.842,0.844,1.688,1.262,2.543c5.142-7.998,8.542-16.976,10.771-24.85
						c0.9-3.188,5.705-2.02,5.007,1.219c-2.734,12.66-9.075,25.475-12.012,31.459c1.137,2.398,2.259,4.812,3.369,7.249
						c0.563,1.214,1.112,2.436,1.661,3.659c0.554,1.218,1.102,2.449,1.646,3.683c3.08-4.248,5.649-8.977,7.799-13.882
						c13.314-30.358,9.112-65.127-9.46-92.149C215.402,390.482,200.07,414.671,197.952,417.852z"/>
				</g>
			</g>
		</g>
		<g>
			<rect x="369.953" y="287.181" fill="#DBDBDB" width="197.56" height="128.598"/>
			<polygon fill="#C1C1C1" points="369.953,415.778 567.513,415.778 468.733,351.48 			"/>
			<polygon fill="#EDEDED" points="567.514,287.182 369.953,287.182 468.733,388.44 			"/>
		</g>
		<g>
			<g>
				<path fill="#303030" d="M418.864,127.595v325.336c0,9.449-7.664,17.125-17.127,17.125H217.654
					c-9.464,0-17.127-7.676-17.127-17.125V127.595c0-9.462,7.663-17.138,17.127-17.138h184.083
					C411.2,110.457,418.864,118.133,418.864,127.595z"/>
				<linearGradient id="SVGID_1_" gradientUnits="userSpaceOnUse" x1="214.9844" y1="280.2002" x2="404.4072" y2="280.2002">
					<stop  offset="0.002" style="stop-color:#D6E1F4"/>
					<stop  offset="0.6038" style="stop-color:#E7EDF8"/>
					<stop  offset="1" style="stop-color:#F4F7FC"/>
				</linearGradient>
				<rect x="214.984" y="127.212" fill="url(#SVGID_1_)" width="189.423" height="305.975"/>
				<rect x="214.984" y="127.212" fill="#FFFFFF" width="189.423" height="305.975"/>
				<g>
					<g>
						<circle fill="#FF5E5C" cx="252.643" cy="405.184" r="16.035"/>
						<g>
							<g>
								<path fill="#FFFFFF" d="M264.161,406.922v0.955h-5.164v-0.068c0-1.115-0.795-2.072-1.893-2.278
									c-3.884-0.731-5.072-0.706-8.951,0.07c-1.085,0.219-1.867,1.169-1.867,2.276l0,0h-5.164v-0.955
									c0-1.814,1.197-3.411,2.94-3.922c7.114-2.216,10.992-2.347,17.161,0C263.092,403.89,264.161,405.107,264.161,406.922z"/>
								<path fill="#FFFFFF" d="M240.925,409.081h5.621c0.173,0,0.312-0.142,0.312-0.314v-0.698c0-0.174-0.139-0.314-0.312-0.314
									h-5.621c-0.174,0-0.313,0.141-0.313,0.314v0.698C240.612,408.939,240.751,409.081,240.925,409.081z"/>
							</g>
							<path fill="#FFFFFF" d="M264.359,409.081h-5.621c-0.173,0-0.313-0.142-0.313-0.314v-0.698c0-0.174,0.141-0.314,0.313-0.314
								h5.621c0.173,0,0.313,0.141,0.313,0.314v0.698C264.672,408.939,264.532,409.081,264.359,409.081z"/>
						</g>
					</g>
					<g>
						<circle fill="#1BC416" cx="309.695" cy="404.43" r="18.658"/>
						<g>
							<g>
								<path fill="#FFFFFF" d="M301.231,396.563l0.674-0.674l3.651,3.651l-0.047,0.047c-0.79,0.789-0.903,2.03-0.273,2.952
									c2.23,3.262,3.087,4.086,6.38,6.278c0.921,0.614,2.147,0.493,2.93-0.288l0,0l3.65,3.65l-0.673,0.674
									c-1.284,1.283-3.261,1.567-4.853,0.695c-6.597-3.462-9.434-6.113-12.136-12.136
									C299.843,399.465,299.948,397.847,301.231,396.563z"/>
								<path fill="#FFFFFF" d="M319.187,411.47l-3.974-3.975c-0.122-0.123-0.32-0.123-0.443,0l-0.494,0.492
									c-0.122,0.123-0.122,0.321,0,0.445l3.975,3.975c0.122,0.12,0.321,0.12,0.444,0l0.492-0.495
									C319.31,411.789,319.31,411.59,319.187,411.47z"/>
							</g>
							<path fill="#FFFFFF" d="M302.616,394.899l3.975,3.973c0.122,0.123,0.122,0.321,0,0.444l-0.493,0.493
								c-0.122,0.122-0.32,0.122-0.444,0l-3.973-3.973c-0.123-0.123-0.123-0.321,0-0.445l0.493-0.492
								C302.297,394.776,302.494,394.776,302.616,394.899z"/>
						</g>
					</g>
					<g>
						<circle fill="#0087FE" cx="366.749" cy="405.184" r="16.035"/>
						<g>
							<linearGradient id="SVGID_2_" gradientUnits="userSpaceOnUse" x1="366.749" y1="386.9766" x2="366.749" y2="417.6444">
								<stop  offset="0.002" style="stop-color:#D6E1F4"/>
								<stop  offset="0.6038" style="stop-color:#E7EDF8"/>
								<stop  offset="1" style="stop-color:#F4F7FC"/>
							</linearGradient>
							<rect x="358.292" y="399.679" fill="url(#SVGID_2_)" width="16.914" height="11.01"/>
							<linearGradient id="SVGID_3_" gradientUnits="userSpaceOnUse" x1="366.749" y1="405.3008" x2="366.749" y2="382.9256">
								<stop  offset="0.002" style="stop-color:#D6E1F4"/>
								<stop  offset="0.6038" style="stop-color:#E7EDF8"/>
								<stop  offset="1" style="stop-color:#F4F7FC"/>
							</linearGradient>
							<polygon fill="url(#SVGID_3_)" points="358.292,410.688 375.206,410.688 366.748,405.184 							"/>
							<polygon fill="#FFFFFF" points="375.206,399.679 358.292,399.679 366.748,409.949 							"/>
						</g>
					</g>
				</g>
				<g>
					<path fill="#0087FE" d="M361.964,221.567c0,13.846-5.384,26.435-14.18,35.77c-1.867,1.991-3.906,3.836-6.07,5.52
						c-8.843,6.884-19.964,10.973-32.024,10.973c-12.083,0-23.216-4.101-32.069-11.007c-0.023-0.012-0.046-0.022-0.068-0.046
						c-12.244-9.564-20.125-24.465-20.125-41.209c0-28.875,23.4-52.273,52.263-52.273S361.964,192.692,361.964,221.567z"/>
				</g>
				<linearGradient id="SVGID_4_" gradientUnits="userSpaceOnUse" x1="297.8848" y1="449.8027" x2="321.5059" y2="449.8027">
					<stop  offset="0.002" style="stop-color:#D6E1F4"/>
					<stop  offset="0.6038" style="stop-color:#E7EDF8"/>
					<stop  offset="1" style="stop-color:#F4F7FC"/>
				</linearGradient>
				<circle fill="url(#SVGID_4_)" cx="309.695" cy="449.804" r="11.811"/>
			</g>
			<g>
				<path fill="#303030" d="M255.878,311.548h109.893c3.862,0,6.994-4.067,6.994-9.085l0,0c0-5.018-3.132-9.085-6.994-9.085H255.878
					c-3.861,0-6.991,4.067-6.991,9.085l0,0C248.887,307.48,252.017,311.548,255.878,311.548z"/>
			</g>
		</g>
		<path fill="#E6E6E6" d="M229.519,334.541V460.16c0,3.572-0.883,6.939-2.463,9.896h-9.401c-9.464,0-17.127-7.676-17.127-17.125
			v-139.55h7.82c2.317,0,4.55,0.375,6.639,1.063C223.423,317.233,229.519,325.175,229.519,334.541z"/>
		<g>
			<path fill="#00E2D6" d="M200.239,479.566H97.437c-2.517,0-4.557-2.04-4.557-4.558V316.173c0-2.518,2.04-4.56,4.557-4.56h102.803
				c11.691,0,21.167,9.478,21.167,21.167v125.621C221.406,470.093,211.931,479.566,200.239,479.566z"/>
			<path fill="#FFFFFF" d="M209.242,367.099l-2.362-2.382c-0.585-0.593-1.538-0.596-2.131-0.01l-0.674,0.668l-2.814-2.842
				c-6.14-6.196-13.913-6.738-23.306-3.454c-29.006,12.856-41.809,26.429-58.606,58.067c-4.223,7.632-2.903,17.145,3.237,23.34
				l2.813,2.843l-0.671,0.665c-0.592,0.586-0.598,1.541-0.01,2.131l2.359,2.382c0.586,0.593,1.541,0.596,2.131,0.011l19.193-19.016
				c0.591-0.585,0.596-1.539,0.009-2.131l-2.36-2.384c-0.585-0.591-1.54-0.596-2.131-0.01l-0.867,0.859
				c-3.379-3.784-3.792-9.405-0.932-13.656c10.612-15.776,14.589-19.876,30.325-30.529c4.37-2.96,10.202-2.442,13.987,1.203
				l-0.876,0.867c-0.592,0.585-0.596,1.54-0.01,2.13l2.361,2.385c0.586,0.59,1.539,0.596,2.131,0.011l19.192-19.018
				C209.823,368.644,209.827,367.689,209.242,367.099z"/>
			<g>
				<path fill="#321499" d="M97.818,468.373h-9.862c-1.369,0-2.479-1.11-2.479-2.477l0,0c0-1.369,1.109-2.479,2.479-2.479h9.862
					c1.369,0,2.479,1.11,2.479,2.479l0,0C100.298,467.263,99.188,468.373,97.818,468.373z"/>
				<path fill="#321499" d="M97.818,450.887h-9.862c-1.369,0-2.479-1.111-2.479-2.478l0,0c0-1.369,1.109-2.479,2.479-2.479h9.862
					c1.369,0,2.479,1.11,2.479,2.479l0,0C100.298,449.775,99.188,450.887,97.818,450.887z"/>
				<path fill="#321499" d="M97.818,433.399h-9.862c-1.369,0-2.479-1.11-2.479-2.478l0,0c0-1.37,1.109-2.48,2.479-2.48h9.862
					c1.369,0,2.479,1.11,2.479,2.48l0,0C100.298,432.289,99.188,433.399,97.818,433.399z"/>
				<path fill="#321499" d="M97.818,415.912h-9.862c-1.369,0-2.479-1.11-2.479-2.478l0,0c0-1.369,1.109-2.48,2.479-2.48h9.862
					c1.369,0,2.479,1.111,2.479,2.48l0,0C100.298,414.802,99.188,415.912,97.818,415.912z"/>
				<path fill="#321499" d="M97.818,398.425h-9.862c-1.369,0-2.479-1.11-2.479-2.478l0,0c0-1.369,1.109-2.48,2.479-2.48h9.862
					c1.369,0,2.479,1.111,2.479,2.48l0,0C100.298,397.314,99.188,398.425,97.818,398.425z"/>
				<path fill="#321499" d="M97.818,380.938h-9.862c-1.369,0-2.479-1.11-2.479-2.478l0,0c0-1.369,1.109-2.479,2.479-2.479h9.862
					c1.369,0,2.479,1.11,2.479,2.479l0,0C100.298,379.827,99.188,380.938,97.818,380.938z"/>
				<path fill="#321499" d="M97.818,363.451h-9.862c-1.369,0-2.479-1.111-2.479-2.479l0,0c0-1.369,1.109-2.479,2.479-2.479h9.862
					c1.369,0,2.479,1.11,2.479,2.479l0,0C100.298,362.34,99.188,363.451,97.818,363.451z"/>
				<path fill="#321499" d="M97.818,345.963h-9.862c-1.369,0-2.479-1.108-2.479-2.478l0,0c0-1.369,1.109-2.479,2.479-2.479h9.862
					c1.369,0,2.479,1.11,2.479,2.479l0,0C100.298,344.854,99.188,345.963,97.818,345.963z"/>
				<path fill="#321499" d="M97.818,328.476h-9.862c-1.369,0-2.479-1.11-2.479-2.477l0,0c0-1.369,1.109-2.48,2.479-2.48h9.862
					c1.369,0,2.479,1.111,2.479,2.48l0,0C100.298,327.365,99.188,328.476,97.818,328.476z"/>
			</g>
		</g>
		<g>
			<g>
				<path fill="#FAB6B0" d="M202,217.673c-1.043,2.222-4.64,9.025-8.292,10.217l-11.489,27.121
					c-1.751,4.135-7.409,4.971-10.067,1.34c-0.092-0.114-0.183-0.251-0.264-0.378l-2.852-5.99l-5.383-11.338l-1.363-2.863
					l-1.947-4.101l0.813-3.803l1.958-9.185l0.757,0.286c0.606,0.229,1.19,0.504,1.752,0.802c2.485,1.352,4.559,3.379,5.854,5.91
					c0.092,0.16,0.159,0.309,0.239,0.469l0.401,1.214l2.187,6.563l2.932,8.831l0.104,0.298l1.328-1.982l10.572-15.668
					c-0.699-1.409-1.317-4.318-0.206-8.899l0.252-1.042c0.103-0.412,0.607-0.584,0.938-0.321c0.437,0.367,0.733,1.18,0.481,3.562
					l3.757-8.097c0.183-0.39,0.493-0.71,0.883-0.859c0.434-0.148,0.858-0.057,0.663,1.146l-2.463,7.456l4.089-7.376
					c0.218-0.4,0.597-0.722,1.044-0.825c0.492-0.114,1.007,0.046,0.847,1.237l-3.826,8.143l4.296-5.921
					c0.228-0.333,0.606-0.538,1.007-0.527c0.437,0.023,0.826,0.298,0.379,1.443l-3.355,6.173c0.354-0.561,1.899-2.955,3.08-3.792
					C201.61,216.551,202.262,217.112,202,217.673z"/>
			</g>
			<path fill="#FFFFFF" d="M177.235,242.767c-2.554,2.887-5.29,5.281-8.199,7.215l-5.383-11.338l-1.363-2.863l-1.947-4.101
				l0.813-3.803l1.958-9.185l0.757,0.286c0.606,0.229,1.19,0.504,1.752,0.802c2.485,1.352,4.559,3.379,5.854,5.91
				c0.092,0.16,0.159,0.309,0.239,0.469l0.401,1.214l2.187,6.563L177.235,242.767z"/>
			<path fill="#FAB6B0" d="M136.245,230.947l-2.107,23.64l-0.802,9.071c-0.39,4.421-1.329,8.763-2.795,12.942l-11.236,32.069
				c-0.629,1.798-2.29,3.024-4.19,3.127l-4.468-0.515c-2.062-0.241-4.146-0.149-6.184,0.263c-0.986,0.711-5.614-0.526-3.392-2.68
				c1.604-1.547,3.219-3.058,5.441-3.265l5.748-0.516l10.103-37.075l0.895-16.813l1.099-20.548c0.184-3.596,2.039-6.895,5.017-8.922
				l3.379-2.302L136.245,230.947z"/>
			<path fill="#FFFFFF" d="M132.752,219.426l3.493,11.521l-2.107,23.64c-3.517-0.824-7.147-1.958-10.88-3.39l1.099-20.548
				c0.184-3.596,2.039-6.895,5.017-8.922L132.752,219.426z"/>
			<path fill="#FB8688" d="M164.631,232.197c-0.32,0.833-1.57,1.571-3.397,2.163c-7.483,2.516-24.548,2.933-26.103-0.384
				l4.294-12.851c0.017-0.095,0.049-0.176,0.081-0.271l0.721-2.131l1.604-0.192c0.735-0.161,1.329-0.369,1.794-0.657
				c0.882-0.529,1.378-1.314,1.667-2.627c0-0.017,0-0.017,0-0.017c0.063-0.416,0.096-0.817,0.111-1.186
				c0.064-1.41-0.145-2.563-0.641-3.477l9.005-2.164l0.336,3.669c0.065,0.673,0.112,1.362,0.146,2.051
				c0.047,0.625,0.079,1.266,0.096,1.907c0.017,0.961,0.721,1.763,1.682,1.859l1.971,0.256l4.583,9.709L164.631,232.197z"/>
			<path fill="#FFFFFF" d="M136.56,260.258c0.181,3.398-0.295,6.766-1.166,10.051c0-0.017,0.017-0.051,0.033-0.066l26.634-0.526
				c-0.296-2.232-0.329-4.498-0.066-6.748c0.756-6.65,5.304-11.594,6.453-18.079c1.116-6.321-4.696-26.568-4.696-26.568
				s-5.402-0.213-7.732-0.427c0.163,0.443,0.264,0.925,0.31,1.436c0.718,7.883-10.642,10.266-13.622,2.932
				c-0.527-1.297-0.869-2.567-0.908-3.727c-0.673,0.164-9.047,0.887-9.047,0.887c0.214,4.088,1.018,8.521,0.262,12.578
				c-0.443,2.43-1.182,4.794-1.56,7.241c-0.509,3.251-0.017,6.355,1.231,9.393C134.212,252.393,136.346,256.12,136.56,260.258z"/>
			<g>
				<path fill="#B62985" d="M168.866,219.48c1.152-6.129-1.319-11.936-6.36-13.565c-2.617-0.845-5.573,0.07-7.413,3
					c-1.007,1.603-1.306,3.308-1.124,4.899c-0.044,2.888,1.72,4.652,3.018,6.729c1.46,2.338,1.646,6.055-0.325,8.93
					c-1.842,2.688-4.607,4.484-7.22,5.615c-2.068,0.896-4.665,2.817-6.771,2.16c0.673,0.373,1.749,0.289,2.533,0.37
					c1.387,0.144,2.778,0.34,4.194,0.347c2.961,0.015,6.206-0.936,8.8-3.142c2.323-1.976,4.384-3.599,6.194-6.233
					C166.263,225.869,168.259,222.704,168.866,219.48z"/>
			</g>
			<path fill="#FAB6B0" d="M165.509,191.792c-0.607-0.053-1.3,0.172-1.978,0.574c-0.898-4.095-3.054-8.454-5.711-11.452
				c-1.117-1.49-2.396-2.459-3.793-3.042c-0.755-0.368-1.518-0.616-2.282-0.682c-0.524-0.045-1.043-0.063-1.555-0.057
				c-0.512-0.007-1.03,0.012-1.555,0.057c-0.765,0.066-1.528,0.314-2.282,0.682c-1.396,0.583-2.677,1.553-3.793,3.042
				c-2.656,2.999-4.813,7.358-5.708,11.453c-0.68-0.402-1.372-0.626-1.981-0.574c-2.039,0.177-2.705,3.409-2.145,5.859
				c0.713,3.107,3.058,4.08,5.232,4.699c0.996,2.055,2.406,4.069,4.032,5.752c1.703,2.006,3.899,3.494,6.406,4.102
				c0.072,0.019,0.146,0.035,0.222,0.052c0.146,0.032,0.287,0.077,0.435,0.103c0.099,0.018,0.201,0.017,0.302,0.03
				c0.084,0.01,0.168,0.017,0.252,0.024c0.193,0.017,0.388,0.029,0.583,0.028c0.196,0.001,0.39-0.011,0.583-0.028
				c0.085-0.008,0.169-0.014,0.254-0.024c0.099-0.013,0.201-0.012,0.301-0.03c0.147-0.026,0.289-0.071,0.436-0.103
				c0.072-0.017,0.146-0.033,0.22-0.052c2.507-0.608,4.705-2.096,6.407-4.104c1.628-1.683,3.035-3.695,4.032-5.75
				c2.174-0.619,4.52-1.592,5.231-4.699C168.215,195.201,167.549,191.969,165.509,191.792z"/>
			<g>
				<path fill="#B62985" d="M159.269,181.346c0.146-0.429,0.332-1,0.377-1.553c0.255-3.217-3.182-5.355-5.357-6.215
					c-4.049-1.6-8.181-0.391-12.076,1.279c-3.267,1.4-4.823,4.806-6.563,8.27c-14.236,28.334,9.897,35.313,9.897,35.313
					s-0.839-1.885-1.133-2.372c-0.69-1.141-1.296-2.306-1.834-3.552c-1.154-2.67-1.926-5.877-1.927-8.873
					c-0.002-4.132,0.825-9.806,3.524-12.803c1.155-1.283,2.862-2.003,4.36-2.462c1.519-0.465,2.816-1.323,4.231-1.895
					c0.085,0.961-0.435,1.964-0.708,2.851c1.351-1.051,2.673-2.054,3.876-3.334c0.396,1.119,1.494,2.061,2.104,2.89
					c1.038,1.415,2.303,2.625,3.154,4.212c1.553,2.898,1.51,6.105,1.013,9.278c0.205-0.701,0.61-1.433,0.784-2.062
					c0.329-1.179,0.61-2.364,0.903-3.554c0.559-2.271,1.337-4.565,1.201-6.988c-0.216-3.81-2.635-7.086-5.662-8.301"/>
			</g>
			<g>
				<g>
					<path fill="#0C2C68" d="M148.937,205.659c-1.432-0.448-2.995-1.495-3.655-3.872c-0.055-0.195,0.06-0.398,0.256-0.453
						c0.192-0.055,0.397,0.059,0.452,0.256c1.182,4.245,5.549,3.642,5.736,3.616c0.201-0.032,0.387,0.108,0.419,0.309
						c0.029,0.201-0.108,0.387-0.31,0.418C151.81,205.937,150.444,206.129,148.937,205.659z"/>
				</g>
				<g>
					
						<ellipse transform="matrix(-0.9977 0.0674 -0.0674 -0.9977 303.7886 383.2083)" fill="#0C2C68" cx="145.432" cy="196.727" rx="1.246" ry="1.254"/>
				</g>
				<g>
					
						<ellipse transform="matrix(-0.9977 0.0674 -0.0674 -0.9977 323.9708 382.5276)" fill="#0C2C68" cx="155.535" cy="196.727" rx="1.246" ry="1.254"/>
				</g>
				<g>
					<path fill="#0C2C68" d="M142.669,193.669c-0.014-0.004-0.025-0.009-0.038-0.015c-0.188-0.081-0.272-0.297-0.191-0.483
						c0.97-2.222,2.978-2.142,3.913-1.8c0.189,0.071,0.285,0.282,0.215,0.471c-0.07,0.191-0.262,0.292-0.473,0.218
						c-0.065-0.024-2.049-0.726-2.979,1.405C143.039,193.638,142.846,193.724,142.669,193.669z"/>
				</g>
				<g>
					<path fill="#0C2C68" d="M153.761,192.244c-0.008-0.011-0.015-0.023-0.021-0.035c-0.093-0.181-0.021-0.403,0.16-0.495
						c2.157-1.102,3.66,0.234,4.166,1.092c0.101,0.174,0.04,0.398-0.134,0.5c-0.176,0.103-0.388,0.06-0.504-0.131
						c-0.034-0.061-1.121-1.862-3.193-0.806C154.067,192.457,153.862,192.399,153.761,192.244z"/>
				</g>
				<g>
					<path fill="#0C2C68" d="M151.517,201.95c-0.197,0-0.355-0.158-0.356-0.355c0-0.196,0.157-0.357,0.354-0.359
						c0.007,0,0.687-0.018,0.861-0.384c0.08-0.169,0.157-0.694-0.831-1.928c-0.123-0.153-0.098-0.377,0.056-0.501
						c0.153-0.122,0.378-0.097,0.503,0.056c0.926,1.156,1.228,2.033,0.915,2.682C152.646,201.938,151.564,201.95,151.517,201.95
						L151.517,201.95z"/>
				</g>
			</g>
			<path fill="#FAB6B0" d="M206.489,341.657l-5.615,2.799c-3.538-1.81-8.813-9.058-12.568-12.628
				c-14.509-13.79-27.319-32.316-27.319-32.316l-10.214,8.544c-0.278,0.242-0.573,0.471-0.87,0.679
				c-3.759,2.888-8.265,4.732-13.016,4.94c-6.524,0.297-9.76-2.748-11.292-6.437c-2.419-5.777,0.018-12.459,5.272-15.869
				c12.162-7.882,20.341-11.014,25.281-12.232c3.689-0.922,7.552,0.192,10.249,2.889c14.912,14.964,38.229,56.757,38.229,56.757
				C204.765,339.008,206.35,341.448,206.489,341.657z"/>
			<path fill="#FB8688" d="M159.089,358.707l-2.539,12.979l0.122,1.218h-6.996l0.227-1.218v-68.537c0-0.331,0.018-0.645,0.07-0.958
				c0.104-0.782,0.382-2.313,1.009-3.949c2.122-5.55,9.553-6.09,12.58-0.976c2.104,3.551,3.166,7.849,3.497,12.702v0.019
				C167.981,323.594,163.109,341.463,159.089,358.707z"/>
			<path fill="#191919" d="M150.144,390.982L150.144,390.982c-1.067-1.992-1.542-4.251-1.366-6.505l0.898-11.573h6.996l0.672,11.551
				c0.128,2.184-0.353,4.359-1.388,6.287l-0.132,0.243C154.608,393.252,151.358,393.249,150.144,390.982z"/>
			<path fill="#01112D" d="M134.77,313.837c8.474,0.724,15.42-3.546,15.42-3.546c-0.46-0.46-0.888-0.919-1.298-1.379
				c-1.57-1.764-2.765-3.506-3.655-5.204c-5.894-11.251,2.75-24.017,15.449-24.21c4.119-0.061,8.331,5.707,9.485,6.659
				c-1.526-3.332-7.667-12.812-8.11-16.441l-26.634,0.526c-0.017,0.016-0.033,0.05-0.033,0.066
				c-6.256,10.919-10.87,21.279-11.625,30.343C123.209,307.302,128.12,313.279,134.77,313.837z"/>
			<path fill="#191919" d="M199.436,343.883c0.901,10.053,8.422,6.754,24.983-1.337c2.291-1.147,2.724-4.352-1.785-3.665
				l-17.32,1.518C203.162,341.592,199.436,343.883,199.436,343.883z"/>
			<g>
				<path fill="#112E6C" d="M163.897,201.161h2.431c0.83,0,1.504-0.673,1.504-1.503v-8.732c0-0.83-0.674-1.503-1.504-1.503h-2.431
					c-0.83,0-1.503,0.673-1.503,1.503v8.732C162.395,200.487,163.067,201.161,163.897,201.161z"/>
				<g>
					<g>
						<path fill="#112E6C" d="M157.036,206.601c8.946-0.082,9.05-6.182,9.05-6.244h-1.893h0.946l-0.946-0.009
							c-0.004,0.176-0.167,4.296-7.177,4.36L157.036,206.601z"/>
					</g>
					<path fill="#112E6C" d="M153.678,206.947h3.518c0.452,0,0.817-0.365,0.817-0.817v-1.771c0-0.452-0.365-0.817-0.817-0.817
						h-3.518c-0.452,0-0.818,0.366-0.818,0.817v1.771C152.859,206.582,153.226,206.947,153.678,206.947z"/>
				</g>
				<path fill="#112E6C" d="M134.135,201.161h2.432c0.83,0,1.504-0.673,1.504-1.503v-8.732c0-0.83-0.674-1.503-1.504-1.503h-2.432
					c-0.829,0-1.503,0.673-1.503,1.503v8.732C132.632,200.487,133.306,201.161,134.135,201.161z"/>
				<g>
					<path fill="#112E6C" d="M134.405,190.933l1.893-0.046c-0.2-8.164,1.899-12.399,7.247-14.622
						c3.722-1.546,7.893-1.749,11.743-0.572c6.305,1.926,9.21,6.778,8.88,14.833l1.893,0.078c0.364-8.913-3.073-14.54-10.217-16.721
						c-4.275-1.305-8.896-1.081-13.023,0.634C135.128,177.713,134.249,184.609,134.405,190.933z"/>
				</g>
			</g>
			<g>
				<g>
					<path fill="#DA73B6" d="M162.767,200.83c-0.077,0.227-0.13,0.451-0.126,0.664C162.688,201.273,162.727,201.052,162.767,200.83z
						"/>
				</g>
			</g>
		</g>
		<g>
			<polygon fill="#000814" points="506.863,274.919 521.934,274.919 497.761,296.009 474.474,297.692 443.224,274.14 
				461.104,273.581 			"/>
			<path fill="#FFFFFF" d="M463.97,247.117c2.222,8.489-2.346,18.686-6.22,26.57c0,0,21.763,15.556,49.113,1.231l-2.237-5.962
				c-2.672-6.462-3.45-13.556-2.211-20.443l4.628-25.728c1.082-6.001-2.464-11.868-8.271-13.727l-6.195-1.968l-1.934-0.612
				c-2.302-0.729-4.699-1.101-7.114-1.101h-2.526c-3.776,0-7.497,0.908-10.851,2.648l0,0l-5.854,3.037
				c-5.042,2.612-7.593,8.369-6.147,13.86L463.97,247.117z"/>
			<path fill="#FB8688" d="M482.247,211.685L482.247,211.685c2.642,0,4.782-2.142,4.782-4.782v-9.658
				c0-0.726-0.588-1.314-1.314-1.314h-6.936c-0.726,0-1.314,0.588-1.314,1.314v9.658
				C477.465,209.543,479.606,211.685,482.247,211.685z"/>
			<path fill="#FAB6B0" d="M500.033,190.606c-0.714,3.097-3.054,4.072-5.236,4.697c-0.988,2.051-2.399,4.057-4.027,5.745
				c-1.701,2.006-3.896,3.489-6.399,4.1l-0.218,0.044c-0.146,0.029-0.29,0.073-0.436,0.102c-0.102,0.015-0.203,0.015-0.306,0.028
				c-0.088,0.015-0.16,0.015-0.247,0.029c-0.189,0.015-0.394,0.029-0.582,0.029c-0.203,0-0.394-0.015-0.582-0.029
				c-0.088-0.015-0.174-0.015-0.261-0.029c-0.104-0.014-0.205-0.014-0.292-0.028c-0.16-0.029-0.29-0.073-0.436-0.102
				c-0.072-0.015-0.145-0.029-0.231-0.044c-2.501-0.611-4.698-2.094-6.399-4.1c-1.396-1.455-2.633-3.142-3.577-4.887
				c-0.161-0.291-0.305-0.567-0.451-0.858c-0.654-0.175-1.31-0.393-1.935-0.712c-1.482-0.683-2.792-1.803-3.286-3.985
				c-0.392-1.73-0.188-3.839,0.698-5.002c0.363-0.494,0.843-0.814,1.44-0.857c0.61-0.058,1.308,0.174,1.977,0.566
				c0.901-4.085,3.054-8.449,5.701-11.444c1.119-1.483,2.399-2.442,3.796-3.039c0.755-0.364,1.512-0.61,2.282-0.668
				c0.523-0.059,1.048-0.073,1.556-0.059c0.51-0.015,1.033,0,1.556,0.059c0.756,0.058,1.527,0.305,2.269,0.668
				c1.396,0.597,2.676,1.556,3.796,3.039c2.661,2.996,4.813,7.359,5.7,11.444c0.292-0.174,0.598-0.305,0.888-0.407
				c0.378-0.131,0.756-0.189,1.09-0.16C499.931,184.92,500.585,188.148,500.033,190.606z"/>
			<g>
				<g>
					<g>
						<path fill="#123472" d="M474.979,186.973c0.157,0.008,0.314-0.073,0.392-0.222c1.233-2.341,3.39-1.382,3.481-1.34
							c0.208,0.096,0.455,0.005,0.553-0.203c0.095-0.209,0.005-0.457-0.204-0.553c-1.021-0.471-3.291-0.717-4.567,1.708
							c-0.106,0.203-0.029,0.455,0.176,0.562C474.864,186.955,474.922,186.971,474.979,186.973z"/>
					</g>
				</g>
				<g>
					<g>
						<path fill="#123472" d="M487.137,185.919c0.096,0.091,0.238,0.125,0.37,0.074c2.069-0.811,2.912,0.984,2.947,1.06
							c0.08,0.175,0.286,0.252,0.464,0.174c0.174-0.08,0.252-0.287,0.172-0.463c-0.389-0.859-1.695-2.262-3.838-1.422
							c-0.18,0.07-0.269,0.273-0.197,0.454C487.072,185.844,487.101,185.885,487.137,185.919z"/>
					</g>
				</g>
				<g>
					<g>
						<path fill="#123472" d="M482.108,198.282c-0.047-0.149-0.178-0.267-0.344-0.287c-2.617-0.331-2.475-2.68-2.468-2.78
							c0.015-0.229-0.155-0.426-0.384-0.445c-0.229-0.016-0.429,0.155-0.443,0.384c-0.084,1.117,0.48,3.321,3.19,3.666
							c0.228,0.028,0.435-0.133,0.464-0.362C482.132,198.397,482.126,198.338,482.108,198.282z"/>
					</g>
				</g>
				<g>
					<path fill="#123472" d="M484.19,196.973c0.31,0,0.604-0.084,0.86-0.251c0.817-0.533,1.022-1.751,0.552-3.26l-1.066-5.024
						c-0.041-0.193-0.226-0.318-0.425-0.277c-0.195,0.041-0.319,0.232-0.276,0.426l1.074,5.057c0.443,1.427,0.159,2.209-0.25,2.477
						c-0.423,0.274-1.064,0.118-1.646-0.391c-0.146-0.129-0.387-0.133-0.521,0.012c-0.13,0.146-0.141,0.352,0.002,0.487
						C483.059,196.722,483.652,196.973,484.19,196.973z"/>
				</g>
				
					<ellipse transform="matrix(0.9968 0.0796 -0.0796 0.9968 16.6439 -38.3058)" fill="#123472" cx="488.533" cy="189.499" rx="1.223" ry="1.346"/>
				
					<ellipse transform="matrix(0.9969 0.0792 -0.0792 0.9969 16.5049 -37.2319)" fill="#123472" cx="477.718" cy="189.498" rx="1.224" ry="1.346"/>
			</g>
			<path fill="#FFFFFF" d="M501.985,210.475c0,0,2.648,0.569,5.254,3.223c2.387,2.431,23.723,40.108,23.723,40.108
				c0.763,4.522-14.922,7.07-14.922,7.07l-14.131-23.611L501.985,210.475z"/>
			<path fill="#FAB6B0" d="M487.297,272.675l-1.218-6.284c-0.236-1.265,0.414-2.527,1.587-3.067l1.341-0.613
				c1.484-0.671,3.215-0.473,4.5,0.532l4.731,3.687c0.735,0.584,1.76,0.655,2.572,0.178l0.264-0.154l3.747-2.18
				c0,0,20.277-17.03,26.141-10.967c2.785,4.195,0.596,9.879-4.263,11.143l-18.644,4.832l-5.008,1.301l-3.296,0.861
				c-0.671,0.164-1.379,0.15-2.036-0.051l-6.784-2.114c-0.457-0.143-0.933,0.147-1.014,0.622l-0.773,2.389
				C488.845,273.725,487.484,273.643,487.297,272.675z"/>
			<path fill="#FFFFFF" d="M465.325,210.475c0,0-2.648,0.569-5.254,3.223c-2.387,2.431-23.722,40.108-23.722,40.108
				c-0.764,4.522,14.921,7.07,14.921,7.07l14.132-23.611L465.325,210.475z"/>
			<path fill="#FAB6B0" d="M480.014,272.675l1.218-6.284c0.236-1.265-0.414-2.527-1.587-3.067l-1.341-0.613
				c-1.484-0.671-3.215-0.473-4.5,0.532l-4.731,3.687c-0.736,0.584-1.76,0.655-2.572,0.178l-0.264-0.154l-3.747-2.18
				c0,0-20.277-17.03-26.14-10.967c-2.785,4.195-0.597,9.879,4.263,11.143l18.643,4.832l5.008,1.301l3.297,0.861
				c0.67,0.164,1.379,0.15,2.035-0.051l6.784-2.114c0.457-0.143,0.933,0.147,1.014,0.622l0.774,2.389
				C478.466,273.725,479.827,273.643,480.014,272.675z"/>
			<g>
				<g>
					<rect x="454.168" y="243.941" fill="#5987CF" width="56.821" height="36.587"/>
					<path fill="#2C60C4" d="M511.903,280.528h-58.649c-0.786,0-1.421,0.636-1.421,1.422l0,0c0,0.784,0.635,1.421,1.421,1.421
						h58.649c0.785,0,1.421-0.637,1.421-1.421l0,0C513.324,281.164,512.688,280.528,511.903,280.528z"/>
				</g>
				<circle fill="#2C60C4" cx="482.921" cy="264.838" r="4.95"/>
			</g>
			<g>
				<path fill="#01112D" d="M432.932,287.179c0.951,4.196,4.267,7.239,8.213,8.084c0.346,0.069,0.701,0.131,1.058,0.165
					c13.682,3.757,28.751,6.42,44.977,8.166c4.42,0.487,8.937,0.892,13.523,1.236l7.93,7.369c0.069,0.059,0.141,0.131,0.226,0.189
					c3.565,2.806,8.699-0.439,7.927-4.908l-0.463-2.638c0-0.025-0.012-0.037-0.012-0.048c-0.951-2.592-3.27-4.434-5.979-4.923
					l-8.2-1.497c-3.958-1.246-7.856-2.507-11.647-3.779c-16.509-5.538-31.213-11.434-42.563-19.432
					c-2.092-0.987-4.506-1.32-6.931-0.772C435.238,275.698,431.625,281.428,432.932,287.179z"/>
				<path fill="#542600" d="M487.179,303.594c4.42,0.487,8.937,0.892,13.523,1.236l7.93,7.369c0.069,0.059,0.141,0.131,0.226,0.189
					c3.565,2.806,8.699-0.439,7.927-4.908l-0.463-2.638c0-0.025-0.012-0.037-0.012-0.048c-0.951-2.592-3.27-4.434-5.979-4.923
					l-8.2-1.497c-3.958-1.246-7.856-2.507-11.647-3.779L487.179,303.594z"/>
				<path fill="#01112D" d="M458.474,311.724c0.084-0.072,0.154-0.13,0.226-0.19l8.035-7.476c4.101-0.429,8.153-0.869,12.123-1.331
					c17.686-2.044,33.802-4.481,45.677-7.999c0.355-0.036,0.7-0.096,1.057-0.166c3.947-0.831,7.251-3.874,8.202-8.083
					c1.307-5.753-2.294-11.47-8.047-12.776c-2.424-0.548-4.838-0.227-6.929,0.771c-12.171,7.869-26.601,14.229-42.527,19.552
					c-4.006,1.355-8.105,2.628-12.289,3.853l0.012,0.046l-7.023,1.284c-2.699,0.487-5.017,2.33-5.968,4.908
					c0,0.025-0.012,0.035-0.012,0.061l-0.464,2.638C449.774,311.285,454.908,314.516,458.474,311.724z"/>
				<path fill="#542600" d="M458.474,311.724c0.084-0.072,0.154-0.13,0.226-0.19l8.035-7.476c4.101-0.429,8.153-0.869,12.123-1.331
					c-0.642-2.199-1.699-5.753-2.567-8.701c-4.006,1.355-8.105,2.628-12.289,3.853l0.012,0.046l-7.023,1.284
					c-2.699,0.487-5.017,2.33-5.968,4.908c0,0.025-0.012,0.035-0.012,0.061l-0.464,2.638
					C449.774,311.285,454.908,314.516,458.474,311.724z"/>
			</g>
			<g>
				<path fill="#790250" d="M496.79,184.906c-0.116,1.236-0.335,2.444-0.654,3.592c-0.48,1.687-1.222,3.287-1.774,4.945
					c-0.523,1.527-0.843,3.112-1.396,4.624c0.276-3.578-0.451-6.777-1.004-10.223c-0.566-3.461-2.036-6.501-3.112-9.729
					c-0.625,1.774-0.393,4.581,0.188,6.297c-2.676-0.407-3.678-3.825-4.929-6.064c-0.713,2.53,0.378,5.002,0.058,7.416
					c-2.123-0.974-3.955-4.101-4.654-6.559c-0.173,1.338,0.016,2.763-0.188,4.13c-0.174,1.236-0.406,2.399-0.537,3.665
					c-0.786-0.044-1.964-2.167-2.283-3.069c-0.393-1.075-0.494-2.326-0.757-3.46c0.102,0.945-1.047,2.545-1.541,3.49
					c-0.814,1.556-1.629,3.113-2.211,4.828c-0.813,2.327-1.031,4.872-1.191,7.373c-0.161-0.291-0.305-0.567-0.451-0.858
					c-0.654-0.175-1.31-0.393-1.935-0.712c-0.553-1.28-1.119-2.56-1.6-3.854c-0.653-1.817-0.943-3.548-0.988-5.134
					c-0.13-3.999,1.177-6.951,1.222-7.271c0.537,1.338,1.032,3.403,2.036,4.362c0.203-2.064,0.014-4.319,0.624-6.296
					c0.597-1.919,1.454-3.679,2.342-5.381c-0.014,1.542-0.044,3.272,1.076,4.392c-0.146-1.483,1.498-4.028,2.298-5.089
					c1.119-1.527,2.429-3.257,4.028-3.97c-0.233,0.552-0.35,1.076-0.363,1.687c1.919-1.614,5.381-1.877,7.634-1.601
					c2.371,0.291,5.671,2.196,7.313,4.218c1.688,2.094,2.139,5.526,2.59,8.246C496.95,180.82,497.008,182.899,496.79,184.906z"/>
			</g>
			<g>
				<path fill="#112E6C" d="M468.725,194.458h-2.431c-0.831,0-1.503-0.673-1.503-1.504v-8.731c0-0.831,0.672-1.503,1.503-1.503
					h2.431c0.83,0,1.504,0.673,1.504,1.503v8.731C470.229,193.785,469.555,194.458,468.725,194.458z"/>
				<path fill="#112E6C" d="M498.486,194.458h-2.43c-0.831,0-1.503-0.673-1.503-1.504v-8.731c0-0.831,0.672-1.503,1.503-1.503h2.43
					c0.83,0,1.504,0.673,1.504,1.503v8.731C499.99,193.785,499.316,194.458,498.486,194.458z"/>
				<g>
					<path fill="#112E6C" d="M498.218,184.23l-1.893-0.046c0.199-8.164-1.9-12.4-7.249-14.622
						c-3.722-1.546-7.891-1.749-11.741-0.572c-6.307,1.925-9.211,6.777-8.879,14.833l-1.894,0.077
						c-0.364-8.913,3.073-14.54,10.218-16.72c4.273-1.306,8.896-1.082,13.021,0.633C497.493,171.01,498.374,177.906,498.218,184.23z
						"/>
				</g>
				<g>
					<g>
						<path fill="#112E6C" d="M475.607,200.155c-8.947-0.082-9.052-6.182-9.052-6.244h1.894h-0.945l0.945-0.009
							c0.004,0.176,0.167,4.296,7.177,4.36L475.607,200.155z"/>
					</g>
					<path fill="#112E6C" d="M478.966,200.501h-3.518c-0.452,0-0.818-0.366-0.818-0.817v-1.772c0-0.451,0.366-0.817,0.818-0.817
						h3.518c0.45,0,0.817,0.366,0.817,0.817v1.772C479.783,200.136,479.416,200.501,478.966,200.501z"/>
				</g>
			</g>
		</g>
	</g>
	<g>
		<path fill="#FFFFFF" d="M264.306,304.742c0.456,0.262,1.138,0.488,1.855,0.488c0.899,0,1.4-0.421,1.4-1.046
			c0-0.582-0.387-0.924-1.365-1.276c-1.265-0.455-2.073-1.127-2.073-2.231c0-1.253,1.048-2.209,2.71-2.209
			c0.832,0,1.446,0.183,1.845,0.387l-0.343,1.128c-0.272-0.147-0.808-0.365-1.524-0.365c-0.888,0-1.275,0.479-1.275,0.924
			c0,0.592,0.443,0.864,1.469,1.262c1.331,0.502,1.98,1.175,1.98,2.278c0,1.23-0.933,2.301-2.914,2.301
			c-0.808,0-1.65-0.229-2.071-0.479L264.306,304.742z"/>
		<path fill="#FFFFFF" d="M270.59,302.374c0-0.639-0.011-1.174-0.044-1.651h1.207l0.057,0.819h0.034
			c0.273-0.432,0.772-0.945,1.706-0.945c0.729,0,1.298,0.41,1.537,1.025h0.023c0.193-0.307,0.421-0.534,0.684-0.694
			c0.307-0.217,0.66-0.331,1.115-0.331c0.923,0,1.856,0.627,1.856,2.403v3.267h-1.367v-3.063c0-0.922-0.318-1.469-0.99-1.469
			c-0.479,0-0.832,0.342-0.979,0.74c-0.034,0.138-0.068,0.308-0.068,0.468v3.323h-1.366v-3.21c0-0.774-0.308-1.321-0.956-1.321
			c-0.524,0-0.877,0.41-1.003,0.797c-0.057,0.137-0.079,0.296-0.079,0.456v3.278h-1.367V302.374z"/>
		<path fill="#FFFFFF" d="M282.134,299.175c0,0.42-0.306,0.751-0.796,0.751c-0.468,0-0.774-0.331-0.774-0.751
			c0-0.433,0.318-0.763,0.786-0.763C281.828,298.412,282.122,298.742,282.134,299.175z M280.644,306.267v-5.544h1.411v5.544H280.644
			z"/>
		<path fill="#FFFFFF" d="M283.956,298.184h1.411v8.083h-1.411V298.184z"/>
		<path fill="#FFFFFF" d="M288.271,303.888c0.035,1.001,0.819,1.435,1.708,1.435c0.648,0,1.116-0.092,1.536-0.251l0.205,0.969
			c-0.478,0.193-1.139,0.342-1.935,0.342c-1.8,0-2.857-1.104-2.857-2.802c0-1.536,0.933-2.983,2.709-2.983
			c1.799,0,2.39,1.48,2.39,2.699c0,0.261-0.021,0.466-0.044,0.592H288.271z M290.707,302.908c0.012-0.512-0.216-1.354-1.149-1.354
			c-0.865,0-1.23,0.785-1.287,1.354H290.707z"/>
		<path fill="#FFFFFF" d="M297.765,298.594v7.673h-1.4v-7.673H297.765z"/>
		<path fill="#FFFFFF" d="M301.237,299.766h-2.186v-1.172h5.794v1.172h-2.208v6.501h-1.4V299.766z"/>
		<path fill="#FFFFFF" d="M308.865,304.742c0.456,0.262,1.138,0.488,1.855,0.488c0.899,0,1.4-0.421,1.4-1.046
			c0-0.582-0.387-0.924-1.365-1.276c-1.264-0.455-2.072-1.127-2.072-2.231c0-1.253,1.047-2.209,2.709-2.209
			c0.831,0,1.446,0.183,1.844,0.387l-0.341,1.128c-0.273-0.147-0.808-0.365-1.525-0.365c-0.889,0-1.275,0.479-1.275,0.924
			c0,0.592,0.444,0.864,1.469,1.262c1.332,0.502,1.981,1.175,1.981,2.278c0,1.23-0.934,2.301-2.914,2.301
			c-0.809,0-1.652-0.229-2.072-0.479L308.865,304.742z"/>
		<path fill="#FFFFFF" d="M320.489,303.444c0,2.038-1.435,2.948-2.847,2.948c-1.57,0-2.777-1.081-2.777-2.857
			c0-1.822,1.195-2.938,2.869-2.938C319.385,300.597,320.489,301.759,320.489,303.444z M316.311,303.501
			c0,1.07,0.524,1.878,1.378,1.878c0.797,0,1.355-0.785,1.355-1.901c0-0.864-0.388-1.855-1.344-1.855
			C316.709,301.622,316.311,302.579,316.311,303.501z"/>
		<path fill="#FFFFFF" d="M322.037,298.184h1.412v8.083h-1.412V298.184z"/>
		<path fill="#FFFFFF" d="M330.325,304.604c0,0.661,0.022,1.206,0.046,1.662h-1.229l-0.068-0.843h-0.023
			c-0.239,0.399-0.785,0.969-1.775,0.969c-1.014,0-1.936-0.604-1.936-2.414v-3.256h1.4v3.018c0,0.922,0.295,1.513,1.034,1.513
			c0.559,0,0.923-0.398,1.071-0.751c0.045-0.124,0.08-0.272,0.08-0.432v-3.348h1.4V304.604z"/>
		<path fill="#FFFFFF" d="M333.844,299.14v1.583h1.331v1.047h-1.331v2.448c0,0.671,0.182,1.024,0.717,1.024
			c0.239,0,0.421-0.034,0.546-0.068l0.023,1.07c-0.205,0.08-0.569,0.138-1.014,0.138c-0.512,0-0.945-0.171-1.206-0.456
			c-0.297-0.319-0.434-0.819-0.434-1.548v-2.608h-0.797v-1.047h0.797v-1.252L333.844,299.14z"/>
		<path fill="#FFFFFF" d="M338.124,299.175c0,0.42-0.307,0.751-0.797,0.751c-0.468,0-0.773-0.331-0.773-0.751
			c0-0.433,0.317-0.763,0.784-0.763C337.817,298.412,338.112,298.742,338.124,299.175z M336.633,306.267v-5.544h1.411v5.544H336.633
			z"/>
		<path fill="#FFFFFF" d="M345.217,303.444c0,2.038-1.436,2.948-2.847,2.948c-1.57,0-2.777-1.081-2.777-2.857
			c0-1.822,1.195-2.938,2.869-2.938C344.112,300.597,345.217,301.759,345.217,303.444z M341.038,303.501
			c0,1.07,0.523,1.878,1.378,1.878c0.797,0,1.354-0.785,1.354-1.901c0-0.864-0.387-1.855-1.343-1.855
			C341.437,301.622,341.038,302.579,341.038,303.501z"/>
		<path fill="#FFFFFF" d="M346.764,302.374c0-0.639-0.012-1.174-0.045-1.651h1.229l0.068,0.831h0.033
			c0.239-0.432,0.844-0.957,1.766-0.957c0.968,0,1.97,0.627,1.97,2.381v3.289h-1.4v-3.13c0-0.798-0.297-1.401-1.059-1.401
			c-0.558,0-0.945,0.398-1.094,0.82c-0.045,0.125-0.057,0.296-0.057,0.455v3.256h-1.412V302.374z"/>
		<path fill="#FFFFFF" d="M353.606,304.98c0.318,0.193,0.922,0.398,1.424,0.398c0.614,0,0.887-0.25,0.887-0.614
			c0-0.376-0.228-0.568-0.911-0.81c-1.081-0.375-1.536-0.967-1.524-1.616c0-0.979,0.808-1.742,2.095-1.742
			c0.614,0,1.15,0.161,1.469,0.331l-0.273,0.99c-0.238-0.137-0.683-0.318-1.172-0.318c-0.502,0-0.775,0.239-0.775,0.58
			c0,0.353,0.262,0.523,0.969,0.774c1.001,0.364,1.469,0.878,1.479,1.696c0,1.003-0.785,1.731-2.255,1.731
			c-0.671,0-1.273-0.159-1.685-0.388L353.606,304.98z"/>
	</g>
	<g>
		<path fill="#FFFFFF" d="M298.62,254.184c-3.662-1.564-6.559-3.818-8.686-6.762c-2.13-2.942-3.227-6.417-3.287-10.424h14.086
			c0.188,2.692,1.142,4.822,2.864,6.386c1.721,1.565,4.085,2.348,7.09,2.348c3.067,0,5.478-0.735,7.231-2.207
			c1.751-1.47,2.629-3.396,2.629-5.775c0-1.94-0.595-3.537-1.783-4.79c-1.19-1.252-2.677-2.237-4.461-2.958
			c-1.784-0.719-4.242-1.518-7.373-2.395c-4.258-1.251-7.716-2.489-10.375-3.709c-2.663-1.221-4.948-3.066-6.855-5.541
			c-1.912-2.472-2.864-5.775-2.864-9.907c0-3.881,0.969-7.261,2.91-10.142c1.939-2.879,4.663-5.086,8.171-6.621
			c3.505-1.533,7.513-2.3,12.02-2.3c6.762,0,12.255,1.643,16.481,4.93c4.226,3.287,6.557,7.874,6.995,13.757h-14.461
			c-0.126-2.253-1.081-4.115-2.864-5.587c-1.784-1.47-4.149-2.207-7.091-2.207c-2.568,0-4.617,0.657-6.15,1.972
			c-1.536,1.314-2.301,3.225-2.301,5.729c0,1.753,0.578,3.209,1.738,4.366c1.156,1.159,2.597,2.098,4.318,2.818
			c1.721,0.72,4.146,1.549,7.277,2.488c4.258,1.253,7.732,2.504,10.425,3.756c2.69,1.253,5.008,3.131,6.95,5.634
			c1.939,2.505,2.91,5.792,2.91,9.86c0,3.507-0.908,6.761-2.724,9.766c-1.817,3.006-4.478,5.4-7.982,7.185
			c-3.506,1.784-7.669,2.676-12.489,2.676C306.398,256.53,302.284,255.748,298.62,254.184z"/>
	</g>
</g>
<g id="DESIGNED_BY_FREEPIK">
</g>
</svg>
