<?xml version="1.0" encoding="utf-8"?>
<!-- Generator: Adobe Illustrator 19.0.0, SVG Export Plug-In . SVG Version: 6.00 Build 0)  -->
<svg version="1.1" id="Layer_1" xmlns="http://www.w3.org/2000/svg" xmlns:xlink="http://www.w3.org/1999/xlink" x="0px" y="0px"
	 viewBox="0 0 1614.7 1643.6" style="enable-background:new 0 0 1614.7 1643.6;" xml:space="preserve">
<style type="text/css">
	.st0{fill:#F4A640;}
	.st1{fill:#ADCFD8;}
	.st2{fill:#55769F;}
	.st3{fill:#DAEEF7;}
	.st4{fill:#FEB546;}
	.st5{fill:#FF5B7E;}
	.st6{fill:#E03268;}
	.st7{fill:#07085B;}
	.st8{fill:#02CCC0;}
	.st9{fill:#06BFAD;}
	.st10{opacity:0.5;fill:#55769F;}
	.st11{fill:#C4DFE8;}
	.st12{fill:#FFC0BB;}
	.st13{opacity:0.6;fill:#FC8D84;}
	.st14{fill:#050645;}
	.st15{fill:#FFFFFF;}
	.st16{fill:#F99893;}
	.st17{fill:#333333;}
	.st18{fill:#6F747A;}
	.st19{fill:#CDD6E0;}
	.st20{fill:#D9D9D9;}
</style>
<g>
	<g>
		<g>
			<path class="st0" d="M826.9,1327.7l206.3,82.8l255.3-635.7l-174.3-70c-17.6-7.1-37.6,1.5-44.7,19.1L826.9,1327.7z"/>
			<g>
				
					<rect x="848.8" y="779.5" transform="matrix(-0.9846 -0.1746 0.1746 -0.9846 1897.2245 2289.7881)" class="st1" width="401.1" height="563.9"/>
				
					<rect x="999.1" y="839" transform="matrix(-0.9846 -0.1746 0.1746 -0.9846 2013.7815 1859.0413)" class="st2" width="179.1" height="4"/>
				
					<rect x="963.2" y="828.9" transform="matrix(-0.9846 -0.1746 0.1746 -0.9846 2019.0658 1839.4269)" class="st2" width="254.4" height="4"/>
				
					<rect x="927" y="880.5" transform="matrix(-0.9846 -0.1746 0.1746 -0.9846 1991.8984 1940.2614)" class="st2" width="308.6" height="4"/>
				
					<rect x="923.6" y="899.6" transform="matrix(-0.9846 -0.1746 0.1746 -0.9846 1981.8744 1977.4657)" class="st2" width="308.6" height="4"/>
				
					<rect x="916.9" y="937.7" transform="matrix(-0.9846 -0.1746 0.1746 -0.9846 1961.8273 2051.8706)" class="st2" width="308.6" height="4"/>
				
					<rect x="913.5" y="956.7" transform="matrix(-0.9846 -0.1746 0.1746 -0.9846 1951.8031 2089.0747)" class="st2" width="308.6" height="4"/>
				
					<rect x="910.1" y="975.7" transform="matrix(-0.9846 -0.1746 0.1746 -0.9846 1941.78 2126.2771)" class="st2" width="308.6" height="4"/>
				
					<rect x="895.3" y="1059.5" transform="matrix(-0.9846 -0.1746 0.1746 -0.9846 1897.6926 2289.9114)" class="st2" width="308.6" height="4"/>
				
					<rect x="891.8" y="1079.2" transform="matrix(-0.9846 -0.1746 0.1746 -0.9846 1887.298 2328.4897)" class="st2" width="308.6" height="4"/>
				
					<rect x="888.3" y="1099" transform="matrix(-0.9846 -0.1746 0.1746 -0.9846 1876.9077 2367.0645)" class="st2" width="308.6" height="4"/>
				
					<rect x="884.8" y="1118.7" transform="matrix(-0.9846 -0.1746 0.1746 -0.9846 1866.5096 2405.6453)" class="st2" width="308.6" height="4"/>
				
					<rect x="881.2" y="1138.5" transform="matrix(-0.9846 -0.1746 0.1746 -0.9846 1856.1147 2444.2222)" class="st2" width="308.6" height="4"/>
				
					<rect x="877.8" y="1158.2" transform="matrix(-0.9846 -0.1746 0.1746 -0.9846 1845.7178 2482.8025)" class="st2" width="308.6" height="4"/>
				
					<rect x="874.2" y="1178" transform="matrix(-0.9846 -0.1746 0.1746 -0.9846 1835.3232 2521.3794)" class="st2" width="308.6" height="4"/>
			</g>
			<g>
				
					<rect x="879.6" y="776.7" transform="matrix(-0.9671 -0.2545 0.2545 -0.9671 1855.3066 2357.3894)" class="st3" width="401.1" height="563.9"/>
				
					<rect x="1047.8" y="840.1" transform="matrix(-0.9671 -0.2545 0.2545 -0.9671 2023.0083 1946.0043)" class="st2" width="179.1" height="4"/>
				
					<rect x="1012.8" y="830.3" transform="matrix(-0.9671 -0.2545 0.2545 -0.9671 2030.6213 1927.2694)" class="st2" width="254.4" height="4"/>
				
					<rect x="972.4" y="880.9" transform="matrix(-0.9671 -0.2545 0.2545 -0.9671 1991.478 2023.5874)" class="st2" width="308.6" height="4"/>
				
					<rect x="967.4" y="899.7" transform="matrix(-0.9671 -0.2545 0.2545 -0.9671 1977.0365 2059.124)" class="st2" width="308.6" height="4"/>
				
					<rect x="957.6" y="937.1" transform="matrix(-0.9671 -0.2545 0.2545 -0.9671 1948.156 2130.1938)" class="st2" width="308.6" height="4"/>
				
					<rect x="952.7" y="955.8" transform="matrix(-0.9671 -0.2545 0.2545 -0.9671 1933.7134 2165.7322)" class="st2" width="308.6" height="4"/>
				
					<rect x="947.7" y="974.5" transform="matrix(-0.9671 -0.2545 0.2545 -0.9671 1919.2719 2201.2673)" class="st2" width="308.6" height="4"/>
				
					<rect x="926.1" y="1056.7" transform="matrix(-0.9671 -0.2545 0.2545 -0.9671 1855.7487 2357.5706)" class="st2" width="308.6" height="4"/>
				
					<rect x="921" y="1076.1" transform="matrix(-0.9671 -0.2545 0.2545 -0.9671 1840.7723 2394.4207)" class="st2" width="308.6" height="4"/>
				
					<rect x="915.9" y="1095.5" transform="matrix(-0.9671 -0.2545 0.2545 -0.9671 1825.8018 2431.2678)" class="st2" width="308.6" height="4"/>
				
					<rect x="910.8" y="1114.9" transform="matrix(-0.9671 -0.2545 0.2545 -0.9671 1810.826 2468.1182)" class="st2" width="308.6" height="4"/>
				
					<rect x="905.7" y="1134.3" transform="matrix(-0.9671 -0.2545 0.2545 -0.9671 1795.8492 2504.9683)" class="st2" width="308.6" height="4"/>
				
					<rect x="900.6" y="1153.7" transform="matrix(-0.9671 -0.2545 0.2545 -0.9671 1780.8668 2541.8215)" class="st2" width="308.6" height="4"/>
				
					<rect x="895.5" y="1173.1" transform="matrix(-0.9671 -0.2545 0.2545 -0.9671 1765.9003 2578.6665)" class="st2" width="308.6" height="4"/>
			</g>
			<path class="st4" d="M905.2,1359.2l415.2,166.8l242.2-603l-348.9-215.2c-19.6-12.1-45.4-3.6-54,17.8L905.2,1359.2z"/>
		</g>
		<g>
			<path class="st5" d="M1404.9,1295.9l75.2-22c13.2-54.7,21.2-101.4,21.2-101.4c-90.8,3.7-160.6,31.4-214.4,70.9l-11.1,89.4l-24-60
				c-126.9,121-141.7,307.7-141.7,307.7s255.3-99.9,304-141.1c18.8-15.9,36.1-59.3,50.2-106.7
				C1439,1319.2,1404.9,1295.9,1404.9,1295.9z"/>
			<path class="st6" d="M1501.4,1172.5c0,0-298.8,234.4-391.2,408.1c0,0,255.3-99.9,304-141.1c18.8-15.9,36.1-59.3,50.2-106.7
				c-25.4-13.7-59.4-37-59.4-37l75.2-22C1493.4,1219.1,1501.4,1172.5,1501.4,1172.5z"/>
			<path class="st5" d="M1552.7,1402.5c-53-15.3-102.9-17.5-148.9-11.3c-8.6,19.7-19.4,43.1-19.4,43.1l-12.1-37.5
				c-172.4,38.8-282.3,191.5-282.3,191.5c115.6,35.2,204.5,29.3,271.9,5c0.5-14.4,0.8-35.8,0.8-35.8l20.5,27.1
				c31.6-14.2,58-32.5,79.7-52c-10.8-14-22.5-30.2-22.5-30.2l42.4,10.8C1534,1458.9,1552.7,1402.5,1552.7,1402.5z"/>
			<path class="st6" d="M1361.8,1593.3c0.5-14.4,0.8-35.8,0.8-35.8l20.5,27.1c31.6-14.2,58-32.5,79.7-52
				c-10.8-14-22.5-30.2-22.5-30.2l42.4,10.8c51.2-54.4,69.9-110.8,69.9-110.8c-204.7,31.3-462.7,185.8-462.7,185.8
				C1205.6,1623.5,1294.4,1617.7,1361.8,1593.3z"/>
		</g>
		<g>
			<path class="st6" d="M248.2,945.2h-28.4c4.6-3.2,10.5-5.1,16.8-5.1h711.4c37.2,0,67.4,26.7,67.4,59.7v37.9
				c0,33-30.2,59.7-67.4,59.7l-703.4-0.2L248.2,945.2z"/>
			<path class="st4" d="M955.6,1037.8v-37.9c0-33-30.2-59.7-67.4-59.7h15.3c37.2,0,67.4,26.7,67.4,59.7v37.9
				c0,33-30.2,59.7-67.4,59.7l-15.1,0C925.6,1097.4,955.6,1070.7,955.6,1037.8z"/>
			<path class="st4" d="M789,1037.8v-37.9c0-33-30.2-59.7-67.4-59.7h15.3c37.2,0,67.4,26.7,67.4,59.7v37.9c0,33-30.2,59.7-67.4,59.7
				l-15.1,0C759,1097.4,789,1070.7,789,1037.8z"/>
			<path class="st5" d="M652,940.2c35.6,0,64.4,25.6,64.4,57.1v42.9c0,31.5-28.9,57.1-64.4,57.1H209.2v-9.6h1.8l112.6-9.5l22.8-79.1
				c0,0-43.9-43.7-46.8-44.9c-2.9-1.1-88.6-4.5-88.6-4.5l-1.8,0v-9.5H652z"/>
			<path class="st3" d="M237.9,1018.5c0-46.3-27-68.7-27-68.7h432c32.7,0,59.2,23.5,59.2,52.5v33c0,29-26.5,52.5-59.2,52.5h-432
				C210.9,1087.8,237.9,1076.8,237.9,1018.5z"/>
			<path class="st3" d="M702.1,1002.3v33c0,4.3-0.6,8.6-1.7,12.6c-14.6-31.6-42.5-62-95.7-71.8c-124.1-22.9-393.8-26.2-393.8-26.2
				h432C675.6,949.8,702.1,973.3,702.1,1002.3z"/>
		</g>
		<g>
			<path class="st7" d="M259.9,1259.8h-32.1c5.3-4,11.8-6.4,19-6.4h805.1c42.1,0,76.3,33.5,76.3,74.8v47.5
				c0,41.3-34.1,74.8-76.3,74.8l-796.1-0.3L259.9,1259.8z"/>
			<path class="st2" d="M717,1253.6c40.3,0,72.9,32,72.9,71.5v53.7c0,39.5-32.7,71.5-72.9,71.5H215.7v-12h2.1l127.4-11.8l25.8-99
				c0,0-49.7-54.7-52.9-56.1c-3.2-1.4-100.2-5.7-100.2-5.7l-2.1,0v-11.9H717z"/>
			<path class="st3" d="M248.3,1351.6c0-57.9-30.5-86-30.5-86h489c37,0,67,29.4,67,65.7v41.3c0,36.3-30,65.7-67,65.7h-489
				C217.7,1438.3,248.3,1424.5,248.3,1351.6z"/>
			<path class="st3" d="M773.7,1331.3v41.3c0,5.4-0.7,10.7-2,15.8c-16.5-39.6-48.1-77.7-108.3-89.9
				c-140.5-28.6-445.7-32.8-445.7-32.8h489C743.7,1265.6,773.7,1295,773.7,1331.3z"/>
		</g>
		<g>
			<path class="st8" d="M1154.6,1102.1h32.2c-5.3-3.2-11.8-5-19-5H362.4c-42.1,0-76.3,26.6-76.3,59.3v37.7
				c0,32.8,34.2,59.3,76.3,59.3l796.4-0.2L1154.6,1102.1z"/>
			<path class="st9" d="M697.4,1097.2c-40.3,0-73,25.4-73,56.7v42.6c0,31.3,32.7,56.7,73,56.7h501.4v-9.5h-2.1l-127.5-9.4
				l-25.8-78.6c0,0,49.7-43.4,53-44.5c3.2-1.1,100.3-4.5,100.3-4.5l2.1,0v-9.5H697.4z"/>
			<path class="st3" d="M1166.3,1175c0-46,30.5-68.2,30.5-68.2H707.7c-37,0-67,23.3-67,52.1v32.8c0,28.8,30,52.1,67,52.1h489.1
				C1196.8,1243.8,1166.3,1232.8,1166.3,1175z"/>
			<path class="st3" d="M640.6,1158.9v32.8c0,4.3,0.7,8.5,2,12.5c16.5-31.4,48.1-61.6,108.3-71.3c140.5-22.7,445.9-26.1,445.9-26.1
				H707.7C670.6,1106.8,640.6,1130.1,640.6,1158.9z"/>
			<path class="st10" d="M433.6,1194.1v-37.7c0-32.8,34.2-59.3,76.3-59.3h-76.5c-42.1,0-76.3,26.6-76.3,59.3v37.7
				c0,32.8,34.2,59.3,76.3,59.3l75.5,0C467.2,1253,433.6,1226.6,433.6,1194.1z"/>
		</g>
		<path class="st4" d="M1207.7,1456.5h40.3c-6.6-3.5-14.8-5.6-23.8-5.6H214.4c-52.8,0-95.7,29.7-95.7,66.3v42.1
			c0,36.6,42.8,66.3,95.7,66.3l998.4-0.2L1207.7,1456.5z"/>
		<path class="st0" d="M634.4,1451c-50.5,0-91.5,28.4-91.5,63.4v47.6c0,35,41,63.4,91.5,63.4H1263v-10.6h-2.6l-159.8-10.5
			l-32.3-87.8c0,0,62.3-48.5,66.4-49.8c4.1-1.3,125.7-5,125.7-5l2.6,0V1451H634.4z"/>
		<path class="st3" d="M1222.3,1537.9c0-51.3,38.3-76.2,38.3-76.2H647.3c-46.4,0-84,26.1-84,58.2v36.6c0,32.2,37.6,58.2,84,58.2
			h613.2C1260.5,1614.8,1222.3,1602.5,1222.3,1537.9z"/>
		<path class="st3" d="M563.3,1519.9v36.6c0,4.8,0.9,9.5,2.5,14c20.7-35.1,60.3-68.8,135.8-79.7c176.2-25.4,559-29.1,559-29.1H647.3
			C600.9,1461.7,563.3,1487.7,563.3,1519.9z"/>
		<path class="st11" d="M7.8,1643.6h1464.4c4.3,0,7.8-3.5,7.8-7.8v-3.6c0-4.3-3.5-7.8-7.8-7.8H7.8c-4.3,0-7.8,3.5-7.8,7.8v3.6
			C0,1640.1,3.5,1643.6,7.8,1643.6z"/>
		<polygon class="st0" points="1489,989.5 1206.3,827.8 1168.1,903.5 1457.4,1056.5 		"/>
		<path class="st8" d="M1256.7,405c0,0,2.2,22,19.6,23.5c-17.4,1.5-19.6,23.5-19.6,23.5s-2.2-22-19.6-23.5
			C1254.5,427,1256.7,405,1256.7,405z"/>
		<path class="st5" d="M1562.6,1046c0,0,3.3,33,29.4,35.3c-26,2.3-29.4,35.3-29.4,35.3s-3.3-33-29.4-35.3
			C1559.2,1079,1562.6,1046,1562.6,1046z"/>
		<path class="st4" d="M1481,225.2c0,0,3,29.3,26.1,31.3c-23.1,2-26.1,31.3-26.1,31.3s-3-29.3-26.1-31.3
			C1478,254.5,1481,225.2,1481,225.2z"/>
		<path class="st4" d="M105.4,1175.8c0,0,2,19.7,17.6,21.1c-15.6,1.4-17.6,21.1-17.6,21.1s-2-19.7-17.6-21.1
			C103.4,1195.6,105.4,1175.8,105.4,1175.8z"/>
		<path class="st5" d="M1377.1,621.9c0,0,2,19.7,17.5,21c-15.5,1.4-17.5,21-17.5,21s-2-19.7-17.5-21
			C1375.1,641.6,1377.1,621.9,1377.1,621.9z"/>
		<path class="st5" d="M1107,105.7c0,0,2,19.7,17.5,21c-15.5,1.4-17.5,21-17.5,21s-2-19.7-17.5-21C1105,125.4,1107,105.7,1107,105.7
			z"/>
		<path class="st5" d="M293.5,356.1c0,0,2.6,25.7,22.9,27.5c-20.3,1.8-22.9,27.5-22.9,27.5s-2.6-25.7-22.9-27.5
			C290.9,381.8,293.5,356.1,293.5,356.1z"/>
		<path class="st5" d="M118.8,801.8c0,0,3.8,37.7,33.6,40.3c-29.8,2.6-33.6,40.3-33.6,40.3s-3.8-37.7-33.6-40.3
			C115,839.5,118.8,801.8,118.8,801.8z"/>
		<path class="st5" d="M1028.5,459.3c0,0,3,29.3,26.1,31.3c-23.1,2-26.1,31.3-26.1,31.3s-3-29.3-26.1-31.3
			C1025.6,488.6,1028.5,459.3,1028.5,459.3z"/>
		<path class="st8" d="M1588.7,775.4c0,0,3,29.3,26.1,31.3c-23.1,2-26.1,31.3-26.1,31.3s-3-29.3-26.1-31.3
			C1585.7,804.7,1588.7,775.4,1588.7,775.4z"/>
		<path class="st8" d="M137.4,174.5c0,0,2.1,20.9,18.6,22.3c-16.5,1.4-18.6,22.3-18.6,22.3s-2.1-20.9-18.6-22.3
			C135.3,195.4,137.4,174.5,137.4,174.5z"/>
		<path class="st8" d="M357.1,690.2c0,0,3.4,33.4,29.8,35.7c-26.4,2.3-29.8,35.7-29.8,35.7s-3.4-33.4-29.8-35.7
			C353.7,723.6,357.1,690.2,357.1,690.2z"/>
		<path class="st4" d="M64.6,472.7c0,0,2.3,26.5,20.3,28.3c-18,1.8-20.3,28.3-20.3,28.3s-2.3-26.5-20.3-28.3
			C62.3,499.2,64.6,472.7,64.6,472.7z"/>
		<path class="st4" d="M495.7,48.9c0,0,2.3,26.6,20.4,28.4c-18.1,1.8-20.4,28.4-20.4,28.4s-2.3-26.6-20.4-28.4
			C493.4,75.5,495.7,48.9,495.7,48.9z"/>
		<g>
			<g>
				<path class="st3" d="M781.3,582.4l45.6,3.7L812.2,623l-23-1.8l-9.6,30.8c-2.3-1.1-4.1-1.9-4.4-2.1c-0.7-0.5-3.2-15.7-5.5-30.1
					L781.3,582.4z"/>
				<path class="st6" d="M807.3,921.7v16.1c0,1.3,1.1,2.4,2.4,2.4h37.5c2.7,0,3.8-3.6,1.5-5l-21.1-13.5
					C827.7,921.7,819.4,927.8,807.3,921.7z"/>
				<path class="st12" d="M733.6,240.2c-0.5,0.2-1.1-0.3-1-0.8c0.9-4.5,3.8-18.5,2.7-19c-1.3-0.6-4.2,11.9-5.5,12.1
					c-1.3,0.2,1.8-12,0.3-12.4c-1.5-0.4-3.9,10.7-4.6,10.8c-0.7,0,0.5-10.9-0.2-11.7c-0.7-0.8-3.4,10.8-4.3,11
					c-0.8,0.3-1.6-8.3-2.3-8.3c-0.7,0-1.2-0.2-5,19.6c0,0-0.2,7.3-1.5,9l2.9,5.8l8.9,0.3c0,0,19.2-17.4,19.1-18.5
					C742.9,237.1,742.1,236.8,733.6,240.2z"/>
				<path class="st12" d="M824.8,244.5c0.4,0.4,1.1,0.3,1.3-0.3c1.2-4.4,5.1-18.2,6.2-18.2c1.4,0.1-1.7,12.5-0.6,13.2
					c1.1,0.7,3.9-11.5,5.4-11.2c1.5,0.3-1.4,11.4-0.8,11.7c0.6,0.4,4.5-9.9,5.5-10.3c1-0.3-1.8,11.1-1.2,11.8
					c0.6,0.6,5.2-6.7,5.9-6.3c0.7,0.3,1.2,0.4-4.5,19.8c0,0-3.1,6.6-2.7,8.7l-5.2,3.9l-8-3.8c0,0-9.2-24.3-8.6-25.1
					C817.9,237.6,818.8,237.7,824.8,244.5z"/>
				<polygon class="st12" points="754.4,403.1 754.5,436.9 721.7,431.9 727.2,393.8 				"/>
				<path class="st13" d="M724.6,411.3l2.5-17.5l27.3,12.5l0,6.7C747.9,414.6,735.6,416,724.6,411.3z"/>
				<path class="st6" d="M695,919.9v17.6c0,1.5-1.2,2.6-2.6,2.6h-41.3c-3,0-4.1-3.9-1.6-5.5l23.2-14.8
					C672.6,919.9,681.7,926.6,695,919.9z"/>
				<g>
					<g>
						<g>
							<path class="st7" d="M657.3,620.3c0.1-3.8-9.7,7.3-9.6,4.3c3.9-62.6,126.2-10.1,126.2-10.1l29.9,21.9l33.7,290.2
								c0,0-18.3,5.3-30.3,1l-74.7-248.7l-9.2-3.5C723.3,675.4,682.5,646.9,657.3,620.3z"/>
						</g>
					</g>
				</g>
				<g>
					<g>
						<g>
							<path class="st9" d="M647.6,627.2c0,0.7-0.1,1.5-0.1,2.3C647.5,628.7,647.6,627.9,647.6,627.2z"/>
						</g>
						<g>
							<path class="st9" d="M647.5,629.5c0,0.8-0.1,1.6-0.1,2.4C647.4,631.1,647.5,630.3,647.5,629.5z"/>
						</g>
						<g>
							<path class="st9" d="M647.4,632.2c0,0.9,0,1.7-0.1,2.6C647.3,633.9,647.4,633.1,647.4,632.2z"/>
						</g>
						<g>
							<path class="st9" d="M647.7,624.6c0,0.7-0.1,1.4-0.1,2.1C647.6,626,647.7,625.3,647.7,624.6z"/>
						</g>
						<g>
							<path class="st7" d="M647.7,610.4c25.2,26.6,75.6,65,75.6,65l9.2,3.5l-9.2-3.5l-28.4,251.3c0,0-20.2,3.9-31.8-2.4
								C663.1,924.3,646.1,685.1,647.7,610.4z"/>
						</g>
						<g>
							<path class="st9" d="M837.5,926.7c0,0-7.9,2.3-16.7,2.6C829.6,929,837.5,926.7,837.5,926.7L837.5,926.7z"/>
						</g>
						<g>
							<path class="st9" d="M810.7,928.6c0.8,0.2,1.6,0.3,2.5,0.4C812.4,928.9,811.5,928.8,810.7,928.6z"/>
						</g>
						<g>
							<path class="st9" d="M820.8,929.3c-2.1,0.1-4.3,0.1-6.4-0.1C816.6,929.4,818.7,929.4,820.8,929.3z"/>
						</g>
					</g>
				</g>
				<path class="st14" d="M803.8,636.4l4.8,41.4c-12.7,4.9-43.8,10.2-67.2-41c-7.4-16.1-9.3-27.7-7.9-36.1
					c22.4,6,40.4,13.7,40.4,13.7L803.8,636.4z"/>
				<path class="st3" d="M691.5,467.4c1.4,0,22.6-48,22.6-48c18.1,12.7,42.7,3.9,42.7,3.9s99,181.2,32.6,209.5
					c-66.4,28.3-129-6.1-129-6.1s-14.1-36.7-14.1-38.1C646.3,587,690.1,467.4,691.5,467.4z"/>
				<path class="st2" d="M820.6,263.9c0,0,4.3,86-3.8,101.7c-26.7,52.3-59.9,57.6-59.9,57.6s-11.4,182.8-2,226.6
					c0,0,31.3,9.7,77.5-12c0,0-35.3-141.8-33.4-159.6c0,0,56.5-50.4,58.4-109.7c1.9-59.3-13.7-112.1-13.7-112.1L820.6,263.9z"/>
				<path class="st2" d="M668.2,643.3c0,0,3.5-68.1,19.1-132.6c15.5-64.5,26.8-91.4,26.8-91.4c-20.8-23-17.4-43.7-15.5-70.6
					c2.1-31.1,32.5-93.2,32.5-93.2L710.6,242c-98.2,118-43.8,211.9-43.8,211.9s-36.7,130-41.7,169.5
					C625.1,623.5,644.7,634.8,668.2,643.3z"/>
				<path class="st15" d="M798,478c-1.2-0.8-2.6-2.1-3.9-3.8c-4.2-5-6.3-10.7-7.8-17c0.9,2.7,3.3,10.5,8.4,16.5
					c2.3,2.6,3.5,3.5,4.6,4.2c-0.2,0.2-0.3,0.3-0.3,0.3c0,0.1,0,0.2,0,0.4c-1.3,0.3-3.6,0.4-7.5-1.8c-2.4-1.3-4.3-2.8-6.3-4.5
					c1.3,0.9,4,2.9,6.5,4.1C793.4,477.2,796,478.1,798,478z"/>
				<path class="st15" d="M667.6,453.5c1.7-1.1,3.1-2.6,4.5-4.1c4.2-4.9,6.5-10.7,8.4-16.5c-1.5,6.3-3.6,12-7.8,17
					c-1.4,1.6-2.7,2.9-3.9,3.8c0.9,0.1,2-0.1,2.8-0.3c1.2-0.3,2.4-0.8,3.5-1.3c2.4-1.1,4.7-2.8,6.5-4.1c-1.8,1.5-3.8,3.2-6.3,4.5
					c-1.1,0.6-2.3,1.1-3.6,1.5c-1.3,0.3-2.6,0.6-4,0.2l-0.8-0.2L667.6,453.5z"/>
				<polygon class="st7" points="707.2,334 705.3,357.2 708.9,359.6 715.7,331.3 				"/>
				
					<ellipse transform="matrix(0.9821 -0.1883 0.1883 0.9821 -54.4935 139.0577)" class="st16" cx="704.6" cy="356.3" rx="7.8" ry="9.7"/>
				<path class="st12" d="M706.2,376.3c-1.1-6.7-0.9-13.6-0.3-19.5c0.1-1.3,0.2-2.5,0.2-3.8c0.1-5.1,1.2-10.4,3.4-15.6
					c7.2-16.7,24.9-26.8,43-24.6c24.3,3,40.3,25.9,35.7,49.3c2.8-0.9,5.7-0.7,8,1c4.4,3.1,4.8,10.1,0.9,15.6
					c-3.9,5.5-10.6,7.4-15,4.3c-0.6-0.4-1.1-0.9-1.6-1.5c-6,19.5-25.4,31.6-44.9,27.4C720.8,405.6,708.6,393.3,706.2,376.3z"/>
				<path class="st17" d="M751.1,357.7c-1,2.4,0.8,5,3.4,5c1.4,0,2.8-0.9,3.3-2.3c1-2.4-0.8-5-3.4-5
					C753,355.5,751.6,356.4,751.1,357.7z"/>
				<path class="st17" d="M720.3,353.1c-1,2.4,0.8,5,3.4,5c1.4,0,2.8-0.9,3.3-2.3c1-2.4-0.8-5-3.4-5
					C722.2,350.9,720.8,351.8,720.3,353.1z"/>
				<path class="st16" d="M746.3,383c-1.9,1-4.1,1.7-5.8,2c-2,0.4-4.1,0.5-6.1,0.2c-2-0.3-3.9-1-5.7-2c-1.7-1-3.3-2.4-4.7-3.9
					c1.4,2,2.7,3.2,4.4,4.4c1.8,1.1,3.6,1.9,5.9,2.2c2.1,0.3,4.2,0.1,6.3-0.4C742.6,385,744.6,384.2,746.3,383z"/>
				<path class="st7" d="M748.2,350.4c1.9-0.3,3.7-0.6,5.4-0.6c1.7,0,3.4,0.2,5,0.6c1.6,0.5,3.2,1.1,4.6,2c2,1.1,3.4,2.5,4.4,3.2
					c-0.7-1.7-1.7-3.7-3.2-4.8c-1.4-1.4-3.3-2.4-5.2-2.9c-2-0.5-4-0.5-6-0.1C751.4,348.2,749.6,349.1,748.2,350.4z"/>
				<path class="st7" d="M733.8,348c-0.9-1.7-2.4-3.1-4-4.1c-1.7-1-3.7-1.7-5.7-1.8c-2-0.1-4.1,0.2-5.9,1.1
					c-1.7,0.6-3.4,2.2-4.5,3.5c1.3-0.3,2.9-1.1,5.2-1.6c1.7-0.4,3.4-0.5,5-0.4c1.7,0.1,3.3,0.5,5,1
					C730.5,346.3,732.1,347.1,733.8,348z"/>
				<path class="st16" d="M740.1,352.6c-1.7,1.6-3.2,3.3-4.7,5.1c-1.5,1.8-2.8,3.7-4.1,5.7c-0.7,1.2-1.6,2.8-1.8,4.2
					c-0.1,0.8-0.1,1.5,1.2,2.7c0.8,0.9,1.8,1.6,2.7,2.3c1,0.6,2,1.2,3,1.7c-1.8-1.5-3.5-3-4.9-4.7c-0.2-0.3-0.6-0.9-0.8-1.2
					c-0.1-0.3,0.1-0.8,0.2-1.3c0.4-1,0.9-2,1.5-3c1.1-2,2.4-3.8,3.7-5.8C737.5,356.5,738.8,354.6,740.1,352.6z"/>
				<path class="st7" d="M711.6,309.2c0,0-12.2-2.4,2.8-9.7c15-7.4,51.9-11.7,71.1,4.8c0,0,6.5-8.3,12.3-4.7
					c5.8,3.7-6.1,7.7-6.1,7.7s8.1,1.6,9.7,6.1c1.2,3.3-3.8,2.4-6.5,1.6c4.4,1.8,17.4,14.1,0.5,47.6c-3-1.4-22.3-29-22.3-29
					s-38.8,12.8-31.8,2.2c0,0-45.3,11.4-34.3-9.1C707.2,326.8,690.5,324.3,711.6,309.2z"/>
				<path class="st7" d="M795.5,362.7c0,0-2.9-2.2-7.4-0.6c-4.5,1.7-7.3,11.7-7.3,11.7s-14.7,12-7.5-40.3c7-51.4,16.7,8.6,16.7,8.6
					L795.5,362.7z"/>
			</g>
		</g>
		<g>
			<path class="st4" d="M816.9,201.8l-67-4.8c-3.4-0.2-5.9-3.2-5.7-6.6l0,0c0.2-3.4,3.2-5.9,6.6-5.7l67,4.8c3.4,0.2,5.9,3.2,5.7,6.6
				l0,0C823.2,199.5,820.3,202.1,816.9,201.8z"/>
			<polygon class="st4" points="797.6,0 821,57.4 881.6,70.7 834.2,110.7 840.4,172.4 787.7,139.7 730.9,164.6 745.7,104.4 
				704.4,58 766.3,53.5 			"/>
			<g>
				<g>
					<polygon class="st0" points="797.6,0 791.6,84.2 821,57.4 					"/>
					<polygon class="st0" points="881.6,70.7 791.6,84.2 834.2,110.7 					"/>
					<polygon class="st0" points="791.6,84.2 766.3,53.5 704.4,58 					"/>
					<polygon class="st0" points="730.9,164.6 791.6,84.2 745.7,104.4 					"/>
					<polygon class="st0" points="840.4,172.4 791.6,84.2 787.7,139.7 					"/>
				</g>
			</g>
			
				<rect x="731" y="200.7" transform="matrix(0.9975 7.106841e-002 -7.106841e-002 0.9975 17.5156 -55.025)" class="st18" width="102.1" height="35.9"/>
			
				<rect x="778.9" y="183.5" transform="matrix(7.104567e-002 -0.9975 0.9975 7.104567e-002 491.4341 996.8352)" class="st19" width="3.9" height="102.1"/>
			
				<rect x="781.3" y="150.7" transform="matrix(7.104748e-002 -0.9975 0.9975 7.104748e-002 526.4069 968.6268)" class="st19" width="3.9" height="102.1"/>
			<path class="st0" d="M833.3,206.1L733,198.9c-2.5-0.2-4.5-2.4-4.3-4.9l0,0c0.2-2.5,2.4-4.5,4.9-4.3l100.3,7.1
				c2.5,0.2,4.5,2.4,4.3,4.9l0,0C838.1,204.3,835.9,206.2,833.3,206.1z"/>
			<path class="st18" d="M833,248.6l-107-7.6c-0.7,0-1.2-0.6-1.1-1.3l0.5-6.7c0-0.7,0.6-1.2,1.3-1.1l107,7.6c0.7,0,1.2,0.6,1.1,1.3
				l-0.5,6.7C834.3,248.1,833.7,248.6,833,248.6z"/>
			<path class="st4" d="M800.4,228.4l-38.7-2.8c-4.8-0.3-8.4-4.5-8.1-9.3l0,0c0.3-4.8,4.5-8.4,9.3-8.1l38.7,2.8
				c4.8,0.3,8.4,4.5,8.1,9.3l0,0C809.4,225.1,805.2,228.8,800.4,228.4z"/>
			<path class="st20" d="M761.9,222.8c-3.4-0.2-6-3.4-5.3-6.9c0.6-2.9,3.4-4.9,6.4-4.7l38.2,2.7c3,0.2,5.5,2.5,5.7,5.5
				c0.2,3.6-2.8,6.4-6.2,6.1L761.9,222.8z"/>
			<path class="st4" d="M794.8,191.6l-21.5-1.5l0.1-2c0.6-8.1,1.5-25,14.3-48.4l0,0c9.7,26.8,7.8,41.8,7.3,49.9L794.8,191.6z"/>
		</g>
	</g>
</g>
</svg>
