<?xml version="1.0" encoding="utf-8"?>
<!-- Generator: Adobe Illustrator 19.0.0, SVG Export Plug-In . SVG Version: 6.00 Build 0)  -->
<svg version="1.1" id="Layer_1" xmlns="http://www.w3.org/2000/svg" xmlns:xlink="http://www.w3.org/1999/xlink" x="0px" y="0px"
	 viewBox="827.2 -238 2105.5 1427" style="enable-background:new 827.2 -238 2105.5 1427;" xml:space="preserve">
<style type="text/css">
	.st0{fill:#3F9896;}
	.st1{fill:#7FC6A6;}
	.st2{fill:#FF424D;}
	.st3{fill:#FD7583;}
	.st4{fill:#F7AB48;}
	.st5{fill:#FFFFFF;}
	.st6{fill:#4CB7D8;}
	.st7{fill:#DCF4FF;}
	.st8{fill:#21111D;}
	.st9{fill:#128CB2;}
	.st10{fill:#3AA1C9;}
	.st11{fill:#D4EEF4;}
	.st12{fill:#DEF8FC;}
	.st13{fill:#F99247;}
	.st14{fill:#F3FFFE;}
	.st15{fill:#FECC86;}
	.st16{fill:#FE9F73;}
	.st17{fill:#472A31;}
	.st18{fill:#D7E4F7;}
	.st19{fill:#683D46;}
	.st20{fill:#FFB357;}
	.st21{fill:#F9B59D;}
	.st22{fill:#E23E3D;}
	.st23{fill:#CC2323;}
	.st24{fill:#E2F2F1;}
	.st25{fill:#F07162;}
	.st26{fill:#49263E;}
	.st27{fill:#4C222E;}
	.st28{fill:#FBFDFC;}
	.st29{fill:#F9956E;}
	.st30{fill:#F78C63;}
	.st31{fill:#AAC9F8;}
	.st32{fill:#258D8C;}
	.st33{fill:#3A1F33;}
	.st34{fill:#FEBAC7;}
	.st35{fill:#33192C;}
	.st36{opacity:0.3;}
	.st37{opacity:0.5;}
	.st38{fill:#61A3C5;}
</style>
<g>
	<g>
		<g>
			<g>
				<g>
					<g>
						<path class="st0" d="M1023.9,174.6c0,0-57.9-95.7-196.7-70.9C827.1,103.8,920.6,242.4,1023.9,174.6z"/>
					</g>
				</g>
			</g>
		</g>
		<g>
			<g>
				<g>
					<g>
						<path class="st1" d="M1114.2,199.9c0,0-17.2-191.8-250.9-258.3C863.4-58.5,903.3,226.7,1114.2,199.9z"/>
					</g>
				</g>
			</g>
		</g>
	</g>
	<g>
		<g>
			<g>
				<g>
					<g>
						<g>
							<path class="st0" d="M2315.2,67.4l-2.6-0.3l0.2-1.3c0.6-4.8,1.4-9.7,2.3-14.4l0.2-1.3l2.6,0.5l-0.2,1.3
								c-0.9,4.7-1.6,9.6-2.3,14.3L2315.2,67.4z M2320.3,39l-2.6-0.6l0.3-1.3c1.1-4.8,2.4-9.5,3.8-14.1l0.4-1.3l2.5,0.8l-0.4,1.3
								c-1.4,4.5-2.7,9.2-3.8,14L2320.3,39z M2497.9,24L2497.9,24c-2.2,0-4.4-0.2-6.6-0.6l-1.3-0.2l0.5-2.6l1.3,0.2
								c2.1,0.4,4.1,0.6,6.1,0.6l0,0c2.6,0,5.2-0.3,7.7-1l1.3-0.3l0.7,2.5l-1.3,0.3C2503.6,23.7,2500.8,24,2497.9,24z M2478.4,18.9
								l-1.1-0.7c-4.1-2.8-7-6.9-8.8-12.3l-0.4-1.3l2.5-0.8l0.4,1.3c1.5,4.8,4.1,8.5,7.7,10.9l1.1,0.7L2478.4,18.9z M2518.5,16.7
								l-1.7-2l1-0.9c3.4-2.9,6.3-6.6,8.8-10.9l0.7-1.1l2.3,1.3l-0.7,1.1c-2.6,4.6-5.8,8.5-9.4,11.6L2518.5,16.7z M2328.6,11.3
								l-2.5-0.9l0.5-1.2c1.7-4.6,3.6-9.2,5.6-13.5l0.5-1.2l2.4,1.1l-0.5,1.2c-1.9,4.3-3.8,8.8-5.5,13.4L2328.6,11.3z M2469.5-7.6
								l-2.6-0.2l0.1-1.3c0.3-4.6,1.2-9.5,2.6-14.6l0.4-1.3l2.5,0.7l-0.4,1.3c-1.4,4.9-2.3,9.6-2.5,14L2469.5-7.6z M2534.2-8.2
								l-2.5-0.7l0.4-1.3c1.3-4.5,2-9.2,2.3-14l0.1-1.3l2.6,0.2L2537-24c-0.3,5-1.1,9.9-2.4,14.6L2534.2-8.2z M2340.4-15.1l-2.3-1.3
								l0.6-1.2c2.4-4.3,5-8.5,7.6-12.5l0.7-1.1l2.2,1.5l-0.7,1.1c-2.6,3.9-5.1,8-7.5,12.3L2340.4-15.1z M2476.7-35l-2.4-1.1
								l0.6-1.2c2.1-4.3,4.5-8.6,7.3-12.8l0.7-1.1l2.2,1.4l-0.7,1.1c-2.7,4.1-5.1,8.3-7.1,12.5L2476.7-35z M2533.9-37.1l-0.2-1.3
								c-0.3-1.9-0.6-3.7-1.1-5.5c-0.7-2.8-1.6-5.6-2.7-8.2l-0.5-1.2l2.4-1l0.5,1.2c1.2,2.7,2.1,5.6,2.8,8.6
								c0.4,1.9,0.8,3.8,1.1,5.7l0.2,1.3L2533.9-37.1z M2356.3-39.1l-2-1.7l0.8-1c3.1-3.8,6.5-7.4,9.9-10.8l0.9-0.9l1.8,1.9
								l-0.9,0.9c-3.4,3.3-6.6,6.9-9.7,10.6L2356.3-39.1z M2492.1-59.2l-2-1.7l0.9-1c3.1-3.7,6.5-7.3,10.1-10.6l1-0.9l1.8,1.9
								l-1,0.9c-3.5,3.3-6.8,6.8-9.9,10.4L2492.1-59.2z M2376.6-59.4l-1.6-2.1l1-0.8c3.9-3,7.9-5.8,12.1-8.3l1.1-0.7l1.4,2.3
								l-1.1,0.7c-4.1,2.5-8,5.2-11.8,8.2L2376.6-59.4z M2523.5-63.1l-0.8-1c-2.9-3.6-6.4-6.8-10.4-9.6l-1.1-0.8l1.5-2.1l1.1,0.8
								c4.1,3,7.8,6.4,10.9,10.1l0.8,1L2523.5-63.1z M2401-74.5l-1.1-2.4l1.2-0.5c4.4-2,9-3.9,13.6-5.4l1.2-0.4l0.9,2.5l-1.2,0.4
								c-4.5,1.6-9,3.4-13.4,5.4L2401-74.5z M2512.8-79.1l-1.6-2.1l1-0.8c3.8-2.9,7.9-5.7,12.1-8.3l1.1-0.7l1.4,2.2l-1.1,0.7
								c-4.1,2.5-8.1,5.3-11.9,8.1L2512.8-79.1z M2501.1-80.2l-1.2-0.5c-4.2-1.8-8.8-3.4-13.6-4.5l-1.3-0.3l0.6-2.6l1.3,0.3
								c4.9,1.2,9.6,2.8,14,4.7l1.2,0.5L2501.1-80.2z M2428.1-84.1l-0.6-2.6l1.3-0.3c4.8-1.1,9.6-2,14.4-2.7l1.3-0.2l0.3,2.6
								l-1.3,0.2c-4.7,0.6-9.5,1.5-14.2,2.6L2428.1-84.1z M2473.5-87.5l-1.3-0.1c-4.6-0.5-9.5-0.6-14.4-0.5h-1.3l-0.1-2.6h1.3
								c5-0.1,9.9,0.1,14.7,0.5l1.3,0.1L2473.5-87.5z M2537.1-94.4l-1.1-2.4l1.2-0.6c4.3-2,8.9-3.9,13.7-5.4l1.3-0.4l0.8,2.5
								l-1.3,0.4c-4.6,1.5-9.1,3.3-13.4,5.3L2537.1-94.4z M2666.8-97l-1.3-0.4c-4.6-1.3-9.3-2.5-14-3.5l-1.3-0.3l0.6-2.6l1.3,0.3
								c4.7,1.1,9.5,2.3,14.2,3.6l1.3,0.4L2666.8-97z M2638.7-103.5l-1.3-0.2c-4.8-0.8-9.6-1.5-14.3-2l-1.3-0.1l0.3-2.6l1.3,0.1
								c4.7,0.5,9.6,1.2,14.5,2l1.3,0.2L2638.7-103.5z M2564.3-103.6l-0.5-2.6l1.3-0.3c4.7-1,9.5-1.7,14.5-2.3l1.3-0.1l0.3,2.6
								l-1.3,0.1c-4.9,0.5-9.7,1.3-14.2,2.2L2564.3-103.6z M2610-106.8l-1.3-0.1c-4.9-0.2-9.7-0.3-14.4-0.2h-1.3l-0.1-2.6h1.3
								c4.8-0.1,9.7-0.1,14.6,0.2l1.3,0.1L2610-106.8z"/>
						</g>
					</g>
				</g>
			</g>
		</g>
		<g>
			<g>
				<g>
					<g>
						<path class="st2" d="M2711.5-52.4l15.1-13.3c0,0,65.9,1.5,66.8,1.2c1-0.3,36.6-12.7,36.6-12.7l-41.6-8l-69.9,0.8L2711.5-52.4z
							"/>
					</g>
				</g>
			</g>
			<g>
				<g>
					<g>
						<polygon class="st3" points="2707.4,-119.9 2830,-77.2 2718.5,-84.3 						"/>
					</g>
				</g>
			</g>
			<g>
				<g>
					<g>
						<polygon class="st3" points="2726.6,-65.7 2738.2,-27.8 2830,-77.2 						"/>
					</g>
				</g>
			</g>
		</g>
	</g>
	<g>
		<g>
			<g>
				<g>
					<path class="st1" d="M2162.1,107.5c-12.6-7-26-11.8-39.8-14.4l-7.9-33.8l-23.7,1.1l-23.7,1.1l-4.7,34.4
						c-13.5,3.8-26.4,9.8-38.3,18l-29.5-18.3l-16,17.5l-16,17.5l21,27.6c-7,12.6-11.8,26-14.4,39.8l-33.8,7.9l1.1,23.7l1.1,23.7
						l34.4,4.7c3.8,13.5,9.8,26.4,18,38.3l-18.3,29.5l17.5,16l17.5,16l27.6-21c12.6,7,26,11.8,39.8,14.4l7.9,33.8l23.7-1.1l23.7-1.1
						l4.7-34.4c13.5-3.8,26.4-9.8,38.3-18l29.5,18.3l16-17.5l16-17.5l-21-27.6c7-12.6,11.8-26,14.4-39.8l33.8-7.9l-1.1-23.7
						l-1.1-23.7l-34.4-4.7c-3.8-13.5-9.8-26.4-18-38.3l18.3-29.5l-17.5-16l-17.5-16L2162.1,107.5z M2164.1,282.1
						c-33.1,36.3-89.4,39-125.7,5.9c-36.3-33.1-39-89.4-5.9-125.7c33.1-36.3,89.4-39,125.7-5.9
						C2194.6,189.5,2197.2,245.8,2164.1,282.1z"/>
				</g>
			</g>
		</g>
	</g>
	<g>
		<g>
			<g>
				<g>
					<path class="st4" d="M1981.1-111.8c-7.5-5.1-15.8-8.8-24.3-11.2l-3.1-21.7l-15-0.6l-15-0.6l-4.8,21.4
						c-8.7,1.7-17.2,4.8-25.1,9.3l-17.6-13.1l-11,10.2l-11,10.2l11.7,18.5c-5.1,7.5-8.8,15.8-11.2,24.3L1833-62l-0.6,15l-0.6,15
						l21.4,4.8c1.7,8.7,4.8,17.2,9.3,25.1l-13.1,17.6l10.2,11l10.2,11l18.5-11.7c7.5,5.1,15.8,8.8,24.3,11.2l3.1,21.7l15,0.6l15,0.6
						l4.8-21.4c8.7-1.7,17.2-4.8,25.1-9.3l17.6,13.1l11-10.2l11-10.2l-11.7-18.5c5.1-7.5,8.8-15.8,11.2-24.3l21.7-3.1l0.6-15l0.6-15
						l-21.4-4.8c-1.7-8.7-4.8-17.2-9.3-25.1l13.1-17.6l-10.2-11l-10.2-11L1981.1-111.8z M1973-1.8c-22.8,21.1-58.4,19.7-79.4-3.1
						c-21.1-22.8-19.7-58.4,3.1-79.4c22.8-21.1,58.4-19.7,79.4,3.1C1997.1-58.5,1995.8-22.9,1973-1.8z"/>
				</g>
			</g>
		</g>
	</g>
	<g>
		<g>
			<g>
				<g>
					<path class="st5" d="M1181.2-134.5c34.5-1.8,152.8-6.8,233.8,5.2c10.5,1.6,17.2-11,9.9-18.8c-4.2-4.5-11.5-8.2-23.7-9.1
						c0,0,4.2-75.5-52.9-80.5c-65.4-5.7-66.2,68.5-66.2,68.5s-29.7-28.2-51.2,7.6c0,0-37.1-21.4-55.8,18.1
						C1173.1-139.2,1176.4-134.3,1181.2-134.5z"/>
				</g>
			</g>
		</g>
	</g>
	<g>
		<g>
			<g>
				<g>
					<path class="st5" d="M2924.1,462.6c-23.4-1.3-78.4-3.7-126.2,0.3c-19.8,1.7-36.8-14.1-36.4-34c0.2-8.1,3.1-17.6,10.6-28.3
						c29-41.2,79.4-1.9,79,19.1c0,0,10.2-31.5,41.2-26s20,51.3,20,51.3s10-2.1,16.9,2.6C2936,452.4,2932.3,463,2924.1,462.6z"/>
				</g>
			</g>
		</g>
	</g>
	<g>
		<g>
			<g>
				<path class="st6" d="M1114.1,1135.4V308.7c0-39.3,27.3-71.1,61-71.1h1373.7c33.7,0,61,31.8,61,71.1v826.7H1114.1z"/>
			</g>
		</g>
	</g>
	<g>
		<g>
			<g>
				<path class="st7" d="M1149.1,1090.9V343.7c0-53.6,14.9-58.8,33.2-58.8h1359.1c18.4,0,33.2,14.4,33.2,32.1v774L1149.1,1090.9
					L1149.1,1090.9z"/>
			</g>
		</g>
	</g>
	<g>
		<g>
			<g>
				<path class="st8" d="M1147.3,994.6l3.6-3.6V317c0-16.7,14.1-30.3,31.4-30.3v-3.6c-19.3,0-35,15.2-35,33.9V994.6z"/>
			</g>
		</g>
	</g>
	<g>
		<g>
			<g>
				<path class="st8" d="M2575.9,1090.9h-2.5v-774c0-17-14.3-30.8-32-30.8H1182.3v-2.5h1359.1c19,0,34.5,15,34.5,33.3V1090.9
					L2575.9,1090.9z"/>
			</g>
		</g>
	</g>
	<g>
		<g>
			<rect x="969.7" y="1135.4" class="st9" width="1726.2" height="47.5"/>
		</g>
	</g>
	<g>
		<g>
			<g>
				<polygon class="st5" points="1451.7,-55.2 1451.7,556.7 996,556.7 996,45.5 1094.1,-55.2 				"/>
			</g>
		</g>
		<g>
			<g>
				<polygon class="st10" points="996,45.7 1093.6,-55.2 1093.6,45.7 				"/>
			</g>
		</g>
		<g>
			<g>
				<path class="st10" d="M1138,20.9h198.8c2.9,0,5.2-2.3,5.2-5.2l0,0c0-2.9-2.3-5.2-5.2-5.2H1138c-2.9,0-5.2,2.3-5.2,5.2l0,0
					C1132.9,18.6,1135.2,20.9,1138,20.9z"/>
			</g>
		</g>
		<g>
			<g>
				<path class="st10" d="M1110.9,61h253c2.9,0,5.2-2.3,5.2-5.2l0,0c0-2.9-2.3-5.2-5.2-5.2h-253c-2.9,0-5.2,2.3-5.2,5.2l0,0
					C1105.8,58.6,1108.1,61,1110.9,61z"/>
			</g>
		</g>
		<g>
			<g>
				<path class="st10" d="M1043.8,156.5h366.6c2.9,0,5.2-2.3,5.2-5.2l0,0c0-2.9-2.3-5.2-5.2-5.2h-366.6c-2.9,0-5.2,2.3-5.2,5.2l0,0
					C1038.6,154.2,1040.9,156.5,1043.8,156.5z"/>
			</g>
		</g>
		<g>
			<g>
				<path class="st10" d="M1043.8,201.7h366.6c2.9,0,5.2-2.3,5.2-5.2l0,0c0-2.9-2.3-5.2-5.2-5.2h-366.6c-2.9,0-5.2,2.3-5.2,5.2l0,0
					C1038.6,199.4,1040.9,201.7,1043.8,201.7z"/>
			</g>
		</g>
		<g>
			<g>
				<path class="st10" d="M1043.8,246.8h366.6c2.9,0,5.2-2.3,5.2-5.2l0,0c0-2.9-2.3-5.2-5.2-5.2h-366.6c-2.9,0-5.2,2.3-5.2,5.2l0,0
					C1038.6,244.5,1040.9,246.8,1043.8,246.8z"/>
			</g>
		</g>
		<g>
			<g>
				<path class="st10" d="M1043.8,298.4h366.6c2.9,0,5.2-2.3,5.2-5.2l0,0c0-2.9-2.3-5.2-5.2-5.2h-366.6c-2.9,0-5.2,2.3-5.2,5.2l0,0
					C1038.6,296.1,1040.9,298.4,1043.8,298.4z"/>
			</g>
		</g>
		<g>
			<g>
				<path class="st10" d="M1043.8,343.6h366.6c2.9,0,5.2-2.3,5.2-5.2l0,0c0-2.9-2.3-5.2-5.2-5.2h-366.6c-2.9,0-5.2,2.3-5.2,5.2l0,0
					C1038.6,341.3,1040.9,343.6,1043.8,343.6z"/>
			</g>
		</g>
		<g>
			<g>
				<path class="st10" d="M1043.8,498.6h366.6c2.9,0,5.2-2.3,5.2-5.2l0,0c0-2.9-2.3-5.2-5.2-5.2h-366.6c-2.9,0-5.2,2.3-5.2,5.2l0,0
					C1038.6,496.3,1040.9,498.6,1043.8,498.6z"/>
			</g>
		</g>
		<g>
			<g>
				<path class="st10" d="M1043.8,461.7h366.6c2.9,0,5.2-2.3,5.2-5.2l0,0c0-2.9-2.3-5.2-5.2-5.2h-366.6c-2.9,0-5.2,2.3-5.2,5.2l0,0
					C1038.6,459.4,1040.9,461.7,1043.8,461.7z"/>
			</g>
		</g>
	</g>
	<g>
		<g>
			<rect x="1568.6" y="353.7" class="st5" width="819" height="638.6"/>
		</g>
	</g>
	<g>
		<g>
			<rect x="1705" y="388.9" class="st11" width="648.7" height="32.5"/>
		</g>
	</g>
	<g>
		<g>
			<rect x="1604.3" y="472.7" class="st11" width="749.4" height="113.2"/>
		</g>
	</g>
	<g>
		<g>
			<rect x="1604.3" y="582.2" class="st12" width="749.4" height="374"/>
		</g>
	</g>
	<g>
		<g>
			<circle class="st11" cx="1670.9" cy="405.2" r="16.3"/>
		</g>
	</g>
	<g>
		<g>
			<circle class="st11" cx="1620.6" cy="405.2" r="16.3"/>
		</g>
	</g>
	<g>
		<g>
			<rect x="1627.2" y="498.8" class="st5" width="585.3" height="11.2"/>
		</g>
	</g>
	<g>
		<g>
			<rect x="1627.2" y="534.9" class="st5" width="585.3" height="11.2"/>
		</g>
	</g>
	<g>
		<g>
			<path class="st11" d="M1864.5,621.2H2327c2.9,0,5.2-2.3,5.2-5.2l0,0c0-2.9-2.3-5.2-5.2-5.2h-462.5c-2.9,0-5.2,2.3-5.2,5.2l0,0
				C1859.3,618.9,1861.6,621.2,1864.5,621.2z"/>
		</g>
	</g>
	<g>
		<g>
			<path class="st11" d="M1864.5,652.6H2327c2.9,0,5.2-2.3,5.2-5.2l0,0c0-2.9-2.3-5.2-5.2-5.2h-462.5c-2.9,0-5.2,2.3-5.2,5.2l0,0
				C1859.3,650.3,1861.6,652.6,1864.5,652.6z"/>
		</g>
	</g>
	<g>
		<g>
			<path class="st11" d="M1864.5,684H2327c2.9,0,5.2-2.3,5.2-5.2l0,0c0-2.9-2.3-5.2-5.2-5.2h-462.5c-2.9,0-5.2,2.3-5.2,5.2l0,0
				C1859.3,681.7,1861.6,684,1864.5,684z"/>
		</g>
	</g>
	<g>
		<g>
			<path class="st11" d="M1864.5,746.7H2327c2.9,0,5.2-2.3,5.2-5.2l0,0c0-2.9-2.3-5.2-5.2-5.2h-462.5c-2.9,0-5.2,2.3-5.2,5.2l0,0
				C1859.3,744.4,1861.6,746.7,1864.5,746.7z"/>
		</g>
	</g>
	<g>
		<g>
			<path class="st11" d="M1864.5,778.1H2327c2.9,0,5.2-2.3,5.2-5.2l0,0c0-2.9-2.3-5.2-5.2-5.2h-462.5c-2.9,0-5.2,2.3-5.2,5.2l0,0
				C1859.3,775.8,1861.6,778.1,1864.5,778.1z"/>
		</g>
	</g>
	<g>
		<g>
			<path class="st11" d="M1864.5,809.5H2327c2.9,0,5.2-2.3,5.2-5.2l0,0c0-2.9-2.3-5.2-5.2-5.2h-462.5c-2.9,0-5.2,2.3-5.2,5.2l0,0
				C1859.3,807.1,1861.6,809.5,1864.5,809.5z"/>
		</g>
	</g>
	<g>
		<g>
			<path class="st11" d="M1864.5,872.2H2327c2.9,0,5.2-2.3,5.2-5.2l0,0c0-2.9-2.3-5.2-5.2-5.2h-462.5c-2.9,0-5.2,2.3-5.2,5.2l0,0
				C1859.3,869.9,1861.6,872.2,1864.5,872.2z"/>
		</g>
	</g>
	<g>
		<g>
			<path class="st11" d="M1864.5,903.6H2327c2.9,0,5.2-2.3,5.2-5.2l0,0c0-2.9-2.3-5.2-5.2-5.2h-462.5c-2.9,0-5.2,2.3-5.2,5.2l0,0
				C1859.3,901.3,1861.6,903.6,1864.5,903.6z"/>
		</g>
	</g>
	<g>
		<g>
			<rect x="1632.4" y="610.9" class="st11" width="197" height="176.7"/>
		</g>
	</g>
	<g>
		<g>
			<rect x="1632.4" y="833.9" class="st11" width="197" height="69.7"/>
		</g>
	</g>
	<g>
		<g>
			<polygon class="st11" points="1646.2,746.7 1679.7,691.3 1729.2,712.4 1762.3,642.3 1812.2,746.7 			"/>
		</g>
	</g>
	<g>
		<g>
			<circle class="st11" cx="1705" cy="658.5" r="15.1"/>
		</g>
	</g>
	<g>
		<rect x="1324.5" y="1089.7" class="st8" width="999.1" height="2.5"/>
	</g>
	<g>
		<g>
			<g>
				<g>
					<path class="st2" d="M2598.1,491.2l26.9-19.5l1.8-1.3l26.9-19.5L2896,741c6.8,8.2,5.3,20.4-3.3,26.6l-68.4,49.5
						c-8.6,6.2-20.7,3.9-26.3-5.2L2598.1,491.2z"/>
				</g>
			</g>
		</g>
		<g>
			<g>
				<g>
					<path class="st13" d="M2598.6,500.6l64.3-46.5c4.2-3.1,5.2-9,2.1-13.2l-22.6-31.2l-79.7,57.7l22.6,31.2
						C2588.4,502.7,2594.3,503.7,2598.6,500.6z"/>
				</g>
			</g>
		</g>
		<g>
			<g>
				<g>
					<path class="st8" d="M2615.6,490.3l43.4-31.4c7.7-5.5,9.4-16.3,3.8-23.9l-19-26.3l-2.6,1.9l19,26.3c4.5,6.2,3.1,14.9-3.1,19.4
						l-43.4,31.4L2615.6,490.3z"/>
				</g>
			</g>
		</g>
		<g>
			<g>
				<g>
					<circle class="st11" cx="2496.4" cy="290.5" r="179.8"/>
				</g>
			</g>
		</g>
		<g>
			<g>
				<g>
					
						<ellipse transform="matrix(0.9874 0.1584 -0.1584 0.9874 72.8736 -374.3963)" class="st14" cx="2385.2" cy="270" rx="32.2" ry="67.5"/>
				</g>
			</g>
		</g>
		<g>
			<g>
				<g>
					
						<rect x="2776.9" y="413.7" transform="matrix(0.7663 -0.6425 0.6425 0.7663 263.009 1925.7448)" class="st8" width="3.3" height="375.2"/>
				</g>
			</g>
		</g>
		<g>
			<g>
				<g>
					<path class="st8" d="M2521.9,136.9l0.9-3.1c-0.4-0.1-39.8-11.4-75.7,4.4l1.3,3C2483.2,125.9,2521.5,136.8,2521.9,136.9z"/>
				</g>
			</g>
		</g>
		<g>
			<g>
				<g>
					<path class="st8" d="M2525.4,159.2l0.9-3.1c-0.4-0.1-39.8-11.4-75.7,4.4l1.3,3C2486.7,148.2,2525,159.1,2525.4,159.2z"/>
				</g>
			</g>
		</g>
		<g>
			<g>
				<path class="st15" d="M2601.8,436.1c-80.4,58.2-192.8,40.2-251-40.3c-58.2-80.4-40.2-192.8,40.3-251
					c80.4-58.2,192.8-40.2,251,40.3C2700.3,265.5,2682.2,377.9,2601.8,436.1z M2665.2,168.3c-67.5-93.2-197.7-114.1-290.9-46.7
					c-93.2,67.5-114.1,197.7-46.7,290.9c67.5,93.2,197.7,114.1,290.9,46.7C2711.8,391.8,2732.7,261.6,2665.2,168.3z"/>
			</g>
		</g>
		<g>
			<g>
				<g>
					<path class="st8" d="M2619.5,460.6c93.8-67.9,114.9-199.4,47-293.2c-67.9-93.8-199.4-114.9-293.2-47
						c-44,31.8-73.6,78.7-83.4,132.1l3.2,0.6c9.7-52.5,38.8-98.7,82.1-130c92.3-66.8,221.8-46,288.6,46.3
						c66.8,92.3,46,221.8-46.3,288.6c-42.9,31-95.3,44.3-147.8,37.5l-0.4,3.2C2522.7,505.6,2576,492.1,2619.5,460.6z"/>
				</g>
			</g>
		</g>
	</g>
	<g>
		<g>
			<g>
				<g>
					<path class="st16" d="M1550.1,104l12.7,5.5l14.1,6.7c0,0,21.9,3.8,22.2,3.7l-1.8,3.3c27.1,3.3,112.6,6.9,126.7,8.4
						c8.5,0.9,16.6,11.5,21.7,19.7l-7,4.7c0,0-74.7-3.3-74.5-1.7c0,0.5,2.2,7.9,5.4,17.6c-46.1,3.1-110.7,2.8-122.7-16.2
						C1537,140,1546.6,117.6,1550.1,104z"/>
				</g>
			</g>
		</g>
		<g>
			<g>
				<g>
					<g>
						<g>
							<g>
								<g>
									<g>
										<g>
											<g>
												<g>
													<polygon class="st16" points="1840.2,439.2 1783.4,439.9 1782.6,386.9 1839.1,379.9 													"/>
												</g>
											</g>
										</g>
									</g>
								</g>
							</g>
						</g>
					</g>
				</g>
			</g>
		</g>
		<g>
			<g>
				<g>
					<g>
						<g>
							<g>
								<g>
									<g>
										<path class="st10" d="M1894.8,458.9l-115-14l2.8-22.9c0,0,9.7-10,21.8-2.8c0,0,17.2,15.8,36.2,1.7l40.4,23.3
											C1880.9,444.1,1895.8,451.1,1894.8,458.9z"/>
									</g>
								</g>
							</g>
						</g>
					</g>
				</g>
			</g>
			<g>
				<g>
					<g>
						<g>
							<g>
								<g>
									<g>
										<path class="st17" d="M1778.8,452.9l118.8,14.5c0.7,0.1,1.2-0.4,1.3-1l0.7-5.7c0.1-0.7-0.4-1.2-1-1.3l-118.8-14.5
											L1778.8,452.9z"/>
									</g>
								</g>
							</g>
						</g>
					</g>
				</g>
			</g>
			<g>
				<g>
					<g>
						<g>
							<g>
								<g>
									<g>
										<path class="st18" d="M1852.5,427.7c-4.6,5.5-13.8,16.6-19.7,23.6l-7.8-1c5.2-6.3,16.2-19.5,21.7-26L1852.5,427.7z"/>
									</g>
								</g>
							</g>
						</g>
					</g>
				</g>
			</g>
			<g>
				<g>
					<g>
						<g>
							<g>
								<g>
									<g>
										<path class="st18" d="M1845.4,452.8l-7.8-1c4.3-5.1,12.6-15.1,18.4-22.1l5.8,3.4C1856.9,439,1850.1,447.3,1845.4,452.8z"
											/>
									</g>
								</g>
							</g>
						</g>
					</g>
				</g>
			</g>
		</g>
		<g>
			<g>
				<g>
					<g>
						<g>
							<path class="st15" d="M1663.7,250c0,0-48.8,0.8-83.1-0.4c-11-0.4-20.8,0.4-26.6-0.9c-23.8-5.3-29.7-79.7-2.6-125.2
								c27.1-45.6,121.7,94.3,121.7,94.3L1663.7,250z"/>
						</g>
					</g>
				</g>
			</g>
		</g>
		<g>
			<g>
				<g>
					<g>
						<g>
							<g>
								<g>
									<g>
										<g>
											<g>
												<g>
													<polygon class="st16" points="1752.1,439.2 1695.4,439.9 1694.5,386.9 1751.1,379.9 													"/>
												</g>
											</g>
										</g>
									</g>
								</g>
							</g>
						</g>
					</g>
				</g>
			</g>
		</g>
		<g>
			<g>
				<g>
					<g>
						<g>
							<g>
								<g>
									<g>
										<path class="st6" d="M1802.7,464.6l-113.6-22.9l4.6-22.7c0,0,10.5-9.2,21.9-1.1c0,0,15.9,17.1,35.9,4.5l38.4,26.4
											C1789.9,448.9,1804.2,456.9,1802.7,464.6z"/>
									</g>
								</g>
							</g>
						</g>
					</g>
				</g>
			</g>
			<g>
				<g>
					<g>
						<g>
							<g>
								<g>
									<g>
										<path class="st19" d="M1687.5,449.6l117.3,23.7c0.6,0.1,1.3-0.3,1.4-0.9l1.1-5.6c0.1-0.6-0.3-1.3-0.9-1.4l-117.3-23.7
											L1687.5,449.6z"/>
									</g>
								</g>
							</g>
						</g>
					</g>
				</g>
			</g>
			<g>
				<g>
					<g>
						<g>
							<g>
								<g>
									<g>
										<path class="st18" d="M1762.9,430.3c-5,5.1-15,15.4-21.4,22l-7.7-1.6c5.7-5.9,17.7-18.1,23.6-24.2L1762.9,430.3z"/>
									</g>
								</g>
							</g>
						</g>
					</g>
				</g>
			</g>
			<g>
				<g>
					<g>
						<g>
							<g>
								<g>
									<g>
										<path class="st18" d="M1753.9,454.8l-7.7-1.6c4.6-4.8,13.7-14.1,20.1-20.6l5.6,3.8
											C1766.4,441.9,1758.9,449.6,1753.9,454.8z"/>
									</g>
								</g>
							</g>
						</g>
					</g>
				</g>
			</g>
		</g>
		<g>
			<g>
				<g>
					<g>
						<g>
							<g>
								<path class="st20" d="M1716.3,150.5c0,0,120,7.7,123.5,21.5c3.5,13.9,13.4,161.2,6,224c0,0-45.5,3.1-67.3-2.1l-5.3-153.2
									l-35.9-4.1l-82.3-99L1716.3,150.5z"/>
							</g>
						</g>
					</g>
				</g>
			</g>
		</g>
		<g>
			<g>
				<g>
					<g>
						<g>
							<g>
								<path class="st15" d="M1658.7,148.2c0,0,92.5,26.1,96,40s13.3,145.3,5.9,208.2c0,0-49,2.8-70.7-2.5l-5.9-144.6l-21.1,0.7
									l-51.2-90.1L1658.7,148.2z"/>
							</g>
						</g>
					</g>
				</g>
			</g>
		</g>
		<g>
			<g>
				<g>
					<g>
						<g>
							<g>
								<path class="st8" d="M1719.2,398c-21.6,0-29.3-3.3-29.7-3.4l-0.5-0.2l-5.7-145.4l8.9,4.2l-0.7,1.5l-6.5-3l5.5,141.6
									c2.3,0.8,13.6,4,40.1,2.8l0.1,1.7C1726.5,398,1722.7,398,1719.2,398z"/>
							</g>
						</g>
					</g>
				</g>
			</g>
		</g>
		<g>
			<g>
				<g>
					<g>
						<g>
							<g>
								<path class="st8" d="M1698.9,366.7c-2.3-8.9-3-95.8-3-99.5h1.7c0,0.9,0.7,90.3,2.9,99L1698.9,366.7z"/>
							</g>
						</g>
					</g>
				</g>
			</g>
		</g>
		<g>
			<g>
				<g>
					<g>
						<g>
							<g>
								<path class="st8" d="M1784.9,243.9c-11-3.5-26.1-4.1-26.2-4.1l0.1-1.7c0.2,0,15.5,0.5,26.7,4.2L1784.9,243.9z"/>
							</g>
						</g>
					</g>
				</g>
			</g>
		</g>
		<g>
			<g>
				<g>
					<g>
						<g>
							<g>
								<path class="st8" d="M1809.6,397.7c-18.5,0-31.2-3-31.4-3.1l-0.6-0.1l-5.4-154.9l6.8,5.5l-1,1.3l-4-3.2l5.2,150
									c2.8,0.6,15.2,3,32,2.9v1.7C1810.7,397.7,1810.1,397.7,1809.6,397.7z"/>
							</g>
						</g>
					</g>
				</g>
			</g>
		</g>
		<g>
			<g>
				<g>
					<g>
						<g>
							<g>
								<path class="st8" d="M1786.3,369.9c-2.3-13.5-0.1-104.5,0-108.4h1.7c0,0.9-2.3,94.8,0,108L1786.3,369.9z"/>
							</g>
						</g>
					</g>
				</g>
			</g>
		</g>
		<g>
			<g>
				<g>
					<g>
						<g>
							<path class="st8" d="M1626.9,251.6c-21.3,0-46.9-0.7-75.6-2.9l0.1-1.7c85.6,6.4,143,0.1,143.6,0l0.2,1.7
								C1694.9,248.7,1669.3,251.6,1626.9,251.6z"/>
						</g>
					</g>
				</g>
			</g>
		</g>
		<g>
			<g>
				<g>
					<g>
						<g>
							<g>
								<g>
									<path class="st3" d="M1656.2,101.5c1.7,0,68.1,28.6,68.1,28.6l-13.3,25.6l-37.3-8.2L1656.2,101.5z"/>
								</g>
							</g>
						</g>
					</g>
				</g>
			</g>
		</g>
		<g>
			<g>
				<g>
					<g>
						<g>
							<path class="st3" d="M1559.9-17.6c0,0-28.3-1-41.8,6.7c-20.1,11.4-13,76.7-13,76.7s17.1-9.3,18.1-12.4
								C1524.4,50.2,1559.9-17.6,1559.9-17.6z"/>
						</g>
					</g>
				</g>
			</g>
		</g>
		<g>
			<g>
				<g>
					<g>
						<g>
							<g>
								<g>
									<path class="st8" d="M1553.1,124.2L1553.1,124.2l20.9,4.8c0.4,0.1,0.8-0.2,0.9-0.6c0.1-0.4-0.2-0.8-0.6-0.9l-20.8-4.8
										c-0.4-0.1-0.8,0.2-0.9,0.6C1552.5,123.7,1552.7,124.1,1553.1,124.2z"/>
								</g>
							</g>
						</g>
					</g>
				</g>
			</g>
		</g>
		<g>
			<g>
				<g>
					<path class="st21" d="M1542.2,111.9l12.7,5.5l14.1,6.7c0,0,21.9,3.8,22.2,3.7l-1.8,3.3c27.1,3.3,112.6,6.9,126.7,8.4
						c8.5,0.9,16.6,11.5,21.7,19.7l-7,4.7c0,0-74.7-3.3-74.5-1.7c0,0.5,2.2,7.9,5.4,17.6c-46.1,3.1-110.7,2.8-122.7-16.2
						C1529.1,147.9,1538.7,125.5,1542.2,111.9z"/>
				</g>
			</g>
		</g>
		<g>
			<g>
				<g>
					<g>
						<g>
							<path class="st3" d="M1532.6-12.5c16.1-2.2,58.5-3.8,58.5-3.8s5.6,1.5,3.8,0.6c46.8,8.3,52,43,52,43l22.8,100.3l25.4,1.4
								c8.2,15.6,2.2,57.6,2.2,57.6l-123.2,13.9c0,0-26.6,4.4-49.1-24.5c-14.9-19.1-20-77.7-20-120.6
								C1505.1,55.5,1507.6-9,1532.6-12.5z"/>
						</g>
					</g>
				</g>
			</g>
		</g>
		<g>
			<g>
				<g>
					<g>
						<g>
							<polygon class="st22" points="1877.5,65.2 1760.3,65.2 1719.4,169.3 1836.6,169.3 							"/>
						</g>
					</g>
				</g>
				<g>
					<g>
						<g>
							<polygon class="st23" points="1719.4,169.3 1725.5,169.3 1766.4,65.2 1760.3,65.2 							"/>
						</g>
					</g>
				</g>
				<g>
					<g>
						<g>
							
								<ellipse transform="matrix(-0.3217 0.9468 -0.9468 -0.3217 2497.3669 -1557.3002)" class="st24" cx="1806.5" cy="115.9" rx="9.1" ry="5.9"/>
						</g>
					</g>
				</g>
			</g>
			<g>
				<g>
					<g>
						<path class="st23" d="M1680.6,160.9h43.8v8.4h-43.8c-2.3,0-4.2-1.9-4.2-4.2l0,0C1676.4,162.8,1678.3,160.9,1680.6,160.9z"/>
					</g>
				</g>
			</g>
			<g>
				<g>
					<g>
						<rect x="1691.7" y="163.8" class="st22" width="27.7" height="1.3"/>
					</g>
				</g>
			</g>
		</g>
		<g>
			<g>
				<g>
					<g>
						<g>
							<g>
								<g>
									<path class="st8" d="M1574,129.4c0.1,0.1,0.3,0.1,0.5,0c0.4-0.1,0.7-0.5,0.6-0.9c-0.1-0.5-13-55.3-18.5-89.7
										c-0.1-0.4-0.5-0.7-0.9-0.6s-0.7,0.5-0.6,0.9c5.5,34.5,18.4,89.3,18.5,89.8C1573.6,129.1,1573.7,129.3,1574,129.4z"/>
								</g>
							</g>
						</g>
					</g>
				</g>
			</g>
		</g>
		<g>
			<g>
				<g>
					<g>
						<g>
							<g>
								<g>
									<path class="st8" d="M1653.6,128.5c0.2,0.1,0.3,0.1,0.5,0c0.4-0.1,0.6-0.6,0.5-1c-0.2-0.6-19.3-61.2-23.3-82.1
										c-0.1-0.4-0.5-0.7-0.9-0.6s-0.7,0.5-0.6,0.9c4,21,23.1,81.7,23.3,82.3C1653.2,128.2,1653.4,128.4,1653.6,128.5z"/>
								</g>
							</g>
						</g>
					</g>
				</g>
			</g>
		</g>
		<g>
			<g>
				<g>
					<g>
						<g>
							<g>
								<g>
									<path class="st8" d="M1576,13.1c0.6,0.1,1.2,0.1,1.8,0.2c0.4,0,0.7-0.2,0.7-0.6s-0.2-0.7-0.6-0.7
										c-26.8-1.9-31.8-21.5-31.8-21.7c-0.1-0.3-0.4-0.6-0.7-0.5c-0.3,0.1-0.6,0.4-0.5,0.7C1544.9-9.3,1549.8,10.4,1576,13.1z"/>
								</g>
							</g>
						</g>
					</g>
				</g>
			</g>
		</g>
		<g>
			<g>
				<g>
					<g>
						<g>
							<g>
								<g>
									<path class="st8" d="M1659.1,114c0.3,0.1,0.8,0,0.9-0.3l5.2-8.9l-0.1-0.3l-17.6-77.2c-0.1-0.7-1.6-9.7-9.3-19.6
										c-7.2-9.3-21.3-21.1-47.8-24.7c-0.4-0.1-0.8,0.2-0.9,0.7c-0.1,0.4,0.2,0.8,0.7,0.9c26,3.5,39.8,15,46.8,24
										c7.6,9.8,9,18.9,9,19v0.1l17.5,77l-4.9,8.4c-0.2,0.4-0.1,0.8,0.3,1.1C1659,114,1659.1,114,1659.1,114z"/>
								</g>
							</g>
						</g>
					</g>
				</g>
			</g>
		</g>
		<g>
			<g>
				<g>
					<g>
						<g>
							<g>
								<g>
									<path class="st8" d="M1686.6,114.3c0.4,0.1,0.8,0,1-0.4c0.2-0.4,0-0.9-0.4-1l-22.5-9c-0.4-0.1-0.9,0-1,0.4
										c-0.2,0.4,0,0.9,0.4,1L1686.6,114.3L1686.6,114.3z"/>
								</g>
							</g>
						</g>
					</g>
				</g>
			</g>
		</g>
		<g>
			<g>
				<g>
					<g>
						<g>
							<path class="st3" d="M1695.1,129c0,0,8.1,19.2,2.2,57.6l-29.7-15.9l8.8-28.7L1695.1,129z"/>
						</g>
					</g>
				</g>
			</g>
		</g>
		<g>
			<g>
				<g>
					<g>
						<g>
							<g>
								<g>
									<path class="st8" d="M1547.1,130.1c0.1,0,0.2,0.1,0.3,0c1.1,0,111.2-3.3,147.2-0.4c0.9,2.4,4.9,14.6,3.8,36.9
										c0,0.4,0.3,0.8,0.7,0.8s0.8-0.3,0.8-0.7c1.3-25.3-3.9-37.5-4.1-38l-0.2-0.4h-0.5c-35.6-3-146.7,0.3-147.8,0.3
										c-0.4,0-0.8,0.4-0.8,0.8C1546.6,129.7,1546.8,130,1547.1,130.1z"/>
								</g>
							</g>
						</g>
					</g>
				</g>
			</g>
		</g>
		<g>
			<g>
				<g>
					<g>
						<g>
							<g>
								<g>
									<g>
										<g>
											<g>
												<path class="st16" d="M1597.4-74.6l0.9,33.8c0,0,0.7,10.9-8.7,12.5l2.2,14.5c0.8,5.4-2.3,10.6-7.4,12.4
													c-2.5,0.9-5.5,1.5-9,1.6c-10.9,0.3-17-7.7-18-11.8c-1-4.1,1.2-23.6,1.2-23.6l-0.6-9.6l0.3-37.1L1597.4-74.6z"/>
											</g>
										</g>
									</g>
								</g>
							</g>
						</g>
					</g>
				</g>
			</g>
			<g>
				<g>
					<g>
						<g>
							<g>
								<g>
									<g>
										<g>
											<g>
												<path class="st25" d="M1567.2-36.9c0,0,1.1,18.2,23.9,19.3l-1.6-10.7C1589.6-28.3,1574.9-24.9,1567.2-36.9z"/>
											</g>
										</g>
									</g>
								</g>
							</g>
						</g>
					</g>
				</g>
			</g>
			<g>
				<g>
					<g>
						<g>
							<g>
								<g>
									<g>
										<g>
											<g>
												<path class="st26" d="M1571.6-56.2c-0.1,0-0.2,0-0.3-0.1c-0.2-0.2-0.2-0.5,0-0.6c0.1-0.1,6.1-6.6,11.9-2.2
													c0.2,0.2,0.2,0.4,0.1,0.6c-0.2,0.2-0.4,0.2-0.6,0.1c-5.2-3.9-10.5,1.8-10.7,2.1C1571.9-56.2,1571.7-56.2,1571.6-56.2z"
													/>
											</g>
										</g>
									</g>
								</g>
							</g>
						</g>
					</g>
				</g>
			</g>
			<g>
				<g>
					<g>
						<g>
							<g>
								<g>
									<g>
										<path class="st27" d="M1555.9-60.5l9.8,1.8l1.8,1.8c0,0-1.3-16.4-3.2-19.6C1562.4-79.7,1555.9-60.5,1555.9-60.5z"/>
									</g>
								</g>
							</g>
						</g>
					</g>
				</g>
			</g>
			<g>
				<g>
					<g>
						<g>
							<g>
								<g>
									<g>
										<g>
											<g>
												<path class="st26" d="M1590.2-59.4c-0.1,0-0.3,0-0.3-0.1c-0.2-0.2-0.2-0.5,0-0.6c0.2-0.2,4.4-4,7.2-1.7
													c0.2,0.2,0.2,0.4,0.1,0.6c-0.2,0.2-0.4,0.2-0.6,0.1c-2.2-1.8-6,1.6-6,1.7C1590.4-59.4,1590.3-59.4,1590.2-59.4z"/>
											</g>
										</g>
									</g>
								</g>
							</g>
						</g>
					</g>
				</g>
			</g>
			<g>
				<g>
					<g>
						<g>
							<g>
								<g>
									<g>
										<g>
											<g>
												<circle cx="1579.5" cy="-54.5" r="1.4"/>
											</g>
										</g>
									</g>
								</g>
							</g>
						</g>
					</g>
				</g>
			</g>
			<g>
				<g>
					<g>
						<g>
							<g>
								<g>
									<g>
										<g>
											<g>
												<circle cx="1593.9" cy="-56.3" r="1.4"/>
											</g>
										</g>
									</g>
								</g>
							</g>
						</g>
					</g>
				</g>
			</g>
			<g>
				<g>
					<g>
						<g>
							<g>
								<g>
									<g>
										<g>
											<g>
												<circle class="st16" cx="1561.4" cy="-54.5" r="8.2"/>
											</g>
										</g>
									</g>
								</g>
							</g>
						</g>
					</g>
				</g>
			</g>
			<g>
				<g>
					<g>
						<g>
							<g>
								<g>
									<g>
										<g>
											<g>
												<path class="st25" d="M1560.1-50c-1.7,0-2.9-1.2-3.3-2.5c-0.5-1.5,0-3,1.2-3.8c1.8-1.2,3.4-0.5,4.3,0
													c-0.4-0.9-0.9-1.6-1.7-2c-1.6-0.8-3.6-0.1-3.6-0.1c-0.1,0-0.2,0-0.3-0.1c0-0.1,0-0.2,0.1-0.3c0.1,0,2.2-0.8,4,0.2
													c1,0.5,1.8,1.5,2.2,2.9l0.2,0.8l-0.6-0.6c-0.1-0.1-2.1-1.9-4.3-0.4c-1.2,0.8-1.3,2.3-1,3.2c0.3,1,1.3,2.2,2.8,2.1l0,0
													c0.1,0,0.2,0.1,0.2,0.2C1560.4-50.1,1560.3-50,1560.1-50L1560.1-50z"/>
											</g>
										</g>
									</g>
								</g>
							</g>
						</g>
					</g>
				</g>
			</g>
			<g>
				<g>
					<g>
						<g>
							<g>
								<g>
									<g>
										<g>
											<g>
												<path class="st25" d="M1585.9-45.5c-0.1,0-0.2-0.1-0.2-0.1c0-0.1,0-0.2,0.1-0.3l4.5-1.6l-1.7-10.7
													c0-0.1,0.1-0.2,0.2-0.3c0.1,0,0.2,0.1,0.3,0.2l1.8,11L1585.9-45.5L1585.9-45.5z"/>
											</g>
										</g>
									</g>
								</g>
							</g>
						</g>
					</g>
				</g>
			</g>
			<g>
				<g>
					<g>
						<g>
							<g>
								<g>
									<g>
										<g>
											<g>
												<path class="st28" d="M1582.5-41c0.1,0,9-0.5,9-0.5s-1,3.7-4.3,3.9C1583.9-37.4,1582.5-41,1582.5-41z"/>
											</g>
										</g>
									</g>
								</g>
							</g>
						</g>
					</g>
				</g>
			</g>
			<g>
				<g>
					<g>
						<g>
							<g>
								<g>
									<g>
										<path class="st27" d="M1555.9-60.5c0,0-3.2-15.8,1.5-21.9c4.7-6,32.4-17.1,35.8-14.3c3.5,2.9,0.2,6.6,0.2,6.6
											s11.1-3.9,13.9,6s-21.2,14.7-35.7,10.5C1571.6-73.6,1562.2-70.6,1555.9-60.5z"/>
									</g>
								</g>
							</g>
						</g>
					</g>
				</g>
			</g>
		</g>
		<g>
			<g>
				<g>
					<g>
						<g>
							<g>
								<g>
									<path class="st8" d="M1552.7,198.3c1.8,0.7,3.5,1.2,5.1,1.6c9.5,2.5,16.2,1.5,16.5,1.4c0.4-0.1,0.7-0.5,0.6-0.9
										c-0.1-0.4-0.5-0.7-0.9-0.6c-0.1,0-6.7,1-15.9-1.4c-8.5-2.3-21-8.1-32.5-22.8c-14.4-18.5-19.7-75.3-19.8-118.4
										c0-0.4-0.4-0.8-0.8-0.8s-0.8,0.4-0.8,0.8c0.1,43.3,5.5,100.6,20.1,119.4C1534,188.9,1544.4,195.1,1552.7,198.3z"/>
								</g>
							</g>
						</g>
					</g>
				</g>
			</g>
		</g>
	</g>
	<g>
		<g>
			<g>
				<g>
					<g>
						<g>
							<g>
								<g>
									<g>
										<path class="st29" d="M1796.4,1036c-0.6-0.5-14.2-11.4-15.3-11.9c-10,6.8-8.7,25-19.7,32.4c7.2,1.5,12.2,2.5,14.2,2.8
											l6.1,13.6l0.8,3.6c0.4,1.7,2.4,2.9,4.4,2.7c2-0.2,3.4-1.7,3-3.4l0.4,1.5c0.4,1.7,2.4,2.9,4.4,2.7l0,0c2-0.2,3.4-1.7,3-3.4
											c0.4,1.7,2.4,2.9,4.4,2.7s3.4-1.7,3-3.4l-0.4-1.5c0.4,1.7,2.4,2.9,4.4,2.7l0,0c0.1,0,0.2,0,0.3,0l0,0l0,0
											c0.1,0,0.3,0,0.4-0.1c1.9-0.5,2.8-1.3,3-2.3c0.4-1.9-2.5-12.6-3.8-17.6C1807.3,1049.4,1803.8,1041.6,1796.4,1036z"/>
									</g>
								</g>
							</g>
						</g>
					</g>
				</g>
			</g>
		</g>
		<g>
			<g>
				<g>
					<g>
						<g>
							<g>
								<g>
									<g>
										<path class="st25" d="M1805.3,1076.2c0.1,0,0.1,0,0.2,0c0.3-0.1,0.4-0.4,0.3-0.7l-8.1-21.6c-0.1-0.3-0.4-0.4-0.7-0.3
											c-0.3,0.1-0.4,0.4-0.3,0.7l8.1,21.6C1804.9,1076,1805.1,1076.2,1805.3,1076.2z"/>
									</g>
								</g>
							</g>
						</g>
					</g>
				</g>
			</g>
		</g>
		<g>
			<g>
				<g>
					<g>
						<g>
							<g>
								<g>
									<g>
										<path class="st25" d="M1798,1077.9c0.1,0,0.1,0,0.2,0c0.3-0.1,0.4-0.4,0.3-0.7l-7.3-19.6c-0.1-0.3-0.4-0.4-0.7-0.3
											c-0.3,0.1-0.4,0.4-0.3,0.7l7.3,19.6C1797.5,1077.8,1797.7,1077.9,1798,1077.9z"/>
									</g>
								</g>
							</g>
						</g>
					</g>
				</g>
			</g>
		</g>
		<g>
			<g>
				<g>
					<g>
						<g>
							<g>
								<g>
									<path class="st29" d="M1766,1011.6c10.8,8.8,30.2,24.6,34.2,28.2c5.6,5-20.5,26.8-20.5,26.8s-30.2-16-46.9-27.4
										L1766,1011.6z"/>
								</g>
							</g>
						</g>
					</g>
				</g>
			</g>
		</g>
		<g>
			<g>
				<g>
					<g>
						<g>
							<g>
								<g>
									<g>
										<path class="st25" d="M1790.3,1077.5c0.1,0,0.1,0,0.2,0c0.3-0.1,0.4-0.4,0.3-0.7l-5.9-15.8c-0.1-0.3-0.4-0.4-0.7-0.3
											c-0.3,0.1-0.4,0.4-0.3,0.7l5.9,15.8C1789.9,1077.4,1790.1,1077.5,1790.3,1077.5z"/>
									</g>
								</g>
							</g>
						</g>
					</g>
				</g>
			</g>
		</g>
		<g>
			<g>
				<g>
					<g>
						<g>
							<g>
								<g>
									<path class="st8" d="M1875.3,1059.5c0.2,0,0.4-0.1,0.5-0.2l12-10.4c0.3-0.3,0.4-0.8,0.1-1.2c-0.3-0.3-0.8-0.4-1.2-0.1
										l-12,10.4c-0.3,0.3-0.4,0.8-0.1,1.2C1874.9,1059.4,1875.1,1059.5,1875.3,1059.5z"/>
								</g>
							</g>
						</g>
					</g>
				</g>
			</g>
		</g>
		<g>
			<g>
				<g>
					<g>
						<g>
							<g>
								<g>
									<g>
										<path class="st2" d="M1632.1,1079.1c0,0,9.6-29,111.5-23.6c116.5,6.2,195.8-14,216.4,23.6l-161.4,59.9L1632.1,1079.1z"/>
									</g>
								</g>
							</g>
						</g>
					</g>
				</g>
			</g>
			<g>
				<g>
					<g>
						<g>
							<g>
								<g>
									<g>
										<path class="st2" d="M1815.3,1130.7c0,0-92.4-55.7-124.8-64c-32.4-8.3-54.9,2.7-58.4,12.4c-3.5,9.8-6.8,36.1,14.7,51.6
											c9.3,6.7,115.9,38.4,144.1,45.8C1790.9,1176.5,1817.1,1165.5,1815.3,1130.7z"/>
									</g>
								</g>
							</g>
						</g>
					</g>
				</g>
			</g>
			<g>
				<g>
					<g>
						<g>
							<g>
								<g>
									<g>
										<path class="st8" d="M1795.7,1120c0.3,0,0.6-0.1,0.7-0.4c0.2-0.4,0.1-0.9-0.3-1.1c-88.5-52.9-117.5-55.5-118.7-55.6
											c-0.5,0-0.8,0.3-0.9,0.8c0,0.5,0.3,0.8,0.8,0.9l0,0c0.3,0,30,2.8,118,55.4C1795.4,1119.9,1795.6,1120,1795.7,1120z"/>
									</g>
								</g>
							</g>
						</g>
					</g>
				</g>
			</g>
			<g>
				<g>
					<g>
						<g>
							<g>
								<g>
									<g>
										<path class="st16" d="M1772.1,1185.5l41.8-21.3l-20.1-39.5l-34.1,17.4l0,0c0,0-56.4-0.5-59.1,2.2
											C1698,1146.9,1759,1192.2,1772.1,1185.5z"/>
									</g>
								</g>
							</g>
						</g>
					</g>
				</g>
			</g>
			<g>
				<g>
					<g>
						<g>
							<g>
								<g>
									<g>
										<path class="st17" d="M1786.5,1178.2c-12-13.2-18.5-32.4-20.6-39.2l-6.2,3.2c0,0-56.4-0.5-59.1,2.2
											c-2.7,2.6,58.4,47.9,71.5,41.2L1786.5,1178.2z"/>
									</g>
								</g>
							</g>
						</g>
					</g>
				</g>
			</g>
			<g>
				<g>
					<g>
						<g>
							<g>
								<g>
									<g>
										<path class="st2" d="M1776.7,1130.7c0,0,92.4-55.7,124.8-64s54.9,2.7,58.4,12.4c3.5,9.8,6.8,36.1-14.7,51.6
											c-9.3,6.7-123.4,40.4-151.6,47.8C1793.6,1178.5,1775,1165.5,1776.7,1130.7z"/>
									</g>
								</g>
							</g>
						</g>
					</g>
				</g>
			</g>
			<g>
				<g>
					<g>
						<g>
							<g>
								<g>
									<g>
										<path class="st8" d="M1793.6,1179.3c0.3,0,0.5-0.1,0.7-0.4c0.2-0.4,0.1-0.9-0.2-1.1c-15.6-10.3-16.5-42.4-16.5-46.7
											c6.5-3.8,86.8-50.3,118.8-62.3c0.4-0.2,0.6-0.6,0.5-1.1c-0.2-0.4-0.6-0.6-1.1-0.5c-33.3,12.5-118.6,62.2-119.4,62.7
											l-0.4,0.2v0.5c0,1.5-0.1,37.1,17.3,48.5C1793.3,1179.3,1793.5,1179.3,1793.6,1179.3z"/>
									</g>
								</g>
							</g>
						</g>
					</g>
				</g>
			</g>
			<g>
				<g>
					<g>
						<g>
							<g>
								<g>
									<g>
										<g>
											<path class="st8" d="M1641.6,1078.2c0.3,0,0.5-0.1,0.7-0.3c0.1-0.1,3.3-4.3,13.9-4.1c0.5,0,0.8-0.4,0.8-0.8
												c0-0.5-0.4-0.8-0.8-0.8c-11.6-0.1-15.1,4.6-15.2,4.8c-0.3,0.4-0.2,0.9,0.2,1.1
												C1641.3,1078.2,1641.5,1078.2,1641.6,1078.2z"/>
										</g>
									</g>
								</g>
							</g>
						</g>
					</g>
				</g>
				<g>
					<g>
						<g>
							<g>
								<g>
									<g>
										<g>
											<path class="st8" d="M1646.9,1082.3c0.2,0,0.4-0.1,0.6-0.2c0.1-0.1,3.9-3.7,14.3-2.1c0.4,0.1,0.9-0.2,0.9-0.7
												c0.1-0.4-0.2-0.9-0.7-0.9c-11.4-1.8-15.6,2.4-15.8,2.6c-0.3,0.3-0.3,0.8,0,1.2
												C1646.5,1082.2,1646.7,1082.3,1646.9,1082.3z"/>
										</g>
									</g>
								</g>
							</g>
						</g>
					</g>
				</g>
			</g>
		</g>
		<g>
			<g>
				<g>
					<g>
						<g>
							<g>
								<path class="st26" d="M1817.5,838.7c0,0-4.9,43.7-11.4,44.1s4.5,51.6,21.8,26.5c6.1-8.8,5.8-66.2-8.7-78.5
									C1804.7,818.5,1817.5,838.7,1817.5,838.7z"/>
							</g>
						</g>
					</g>
				</g>
			</g>
			<g>
				<g>
					<g>
						<g>
							<g>
								<g>
									<path class="st16" d="M1819.8,827.7c0,0,6,41.3,0.6,48.6c0,0-2.6,3.9-9.1,4.1l0.5,24.2l-29.2-3.3l-1-69
										c0,0,8.3-17.1,8.3-16.3C1790,816.7,1819.8,827.7,1819.8,827.7z"/>
								</g>
							</g>
						</g>
					</g>
				</g>
			</g>
			<g>
				<g>
					<g>
						<g>
							<g>
								<g>
									<path class="st25" d="M1810.9,862.1c-0.1,0-0.2-0.1-0.2-0.2s0-0.3,0.1-0.3c1.2-0.4,1.9-2.5,2.1-3.2
										c-1.7-1.3-2.8-2.9-3.2-4.9c-0.6-3.3,0.8-6.3,0.9-6.4c0.1-0.1,0.2-0.1,0.3-0.1c0.1,0.1,0.1,0.2,0,0.4c0,0-1.4,2.9-0.8,6
										c0.4,1.9,1.4,3.5,3.1,4.7l0.2,0.1l-0.1,0.2C1813.4,858.6,1812.6,861.6,1810.9,862.1C1811,862.1,1811,862.1,1810.9,862.1z"
										/>
								</g>
							</g>
						</g>
					</g>
				</g>
			</g>
			<g>
				<g>
					<g>
						<g>
							<g>
								<g>
									<path class="st25" d="M1811.5,888.7l-0.1-8.2c0,0-14-0.6-22.6-5.9C1788.8,874.5,1800.5,885.5,1811.5,888.7z"/>
								</g>
							</g>
						</g>
					</g>
				</g>
			</g>
			<g>
				<g>
					<g>
						<g>
							<g>
								<g>
									<path class="st26" d="M1791.7,848.5c-0.1,0-0.3,0-0.4-0.1c-0.2-0.2-0.2-0.5,0-0.7c0.1-0.1,6.7-7.1,13-2.2
										c0.2,0.2,0.3,0.5,0.1,0.7c-0.2,0.2-0.5,0.3-0.7,0.1c-5.5-4.3-11.3,1.8-11.6,2.1C1791.9,848.4,1791.8,848.5,1791.7,848.5z"
										/>
								</g>
							</g>
						</g>
					</g>
				</g>
			</g>
			<g>
				<g>
					<g>
						<g>
							<g>
								<g>
									<path class="st26" d="M1813.4,847.1c-0.1,0-0.3-0.1-0.4-0.2c-0.2-0.2-0.2-0.6,0-0.7c0.2-0.2,4.8-4.3,7.8-1.7
										c0.2,0.2,0.3,0.5,0.1,0.7c-0.2,0.2-0.5,0.3-0.7,0.1c-2.3-1.9-6.4,1.7-6.5,1.7S1813.5,847.1,1813.4,847.1z"/>
								</g>
							</g>
						</g>
					</g>
				</g>
			</g>
			<g>
				<g>
					<g>
						<g>
							<g>
								<g>
									<circle cx="1800.8" cy="851.3" r="1.5"/>
								</g>
							</g>
						</g>
					</g>
				</g>
			</g>
			<g>
				<g>
					<g>
						<g>
							<g>
								<g>
									<circle cx="1818" cy="851.1" r="1.5"/>
								</g>
							</g>
						</g>
					</g>
				</g>
			</g>
			<g>
				<g>
					<g>
						<g>
							<g>
								<g>
									<path class="st28" d="M1803.7,864.6c0.2,0,10.4,1.1,10.4,1.1s-1.8,4-5.6,3.6C1804.7,868.9,1803.7,864.6,1803.7,864.6z"/>
								</g>
							</g>
						</g>
					</g>
				</g>
			</g>
			<g>
				<g>
					<g>
						<g>
							<g>
								<path class="st16" d="M1807.2,828.5l-7.1-9.8c0,0,11.4,7.1,10.4,7.4C1809.6,826.4,1807.2,828.5,1807.2,828.5z"/>
							</g>
						</g>
					</g>
				</g>
			</g>
			<g>
				<g>
					<g>
						<g>
							<g>
								<path class="st26" d="M1785.9,823.9c0,0,2,15.4,38.9,18.5c0,0,8.6-22.8-18.2-30.4c-26.8-7.6-29.2,12.9-28.7,12.7
									C1778.5,824.5,1785.9,823.9,1785.9,823.9z"/>
							</g>
						</g>
					</g>
				</g>
			</g>
			<g>
				<g>
					<g>
						<g>
							<g>
								<path class="st26" d="M1791.5,832.5c0,0-6.8,10.1-10,17.4c0,0,12.3,64.5-12.5,60.8l-4.4-0.1c-21.9-0.3-6.8-47.8-6.4-73
									c0.2-15.8,19.4-31.8,31.9-22.2C1802.5,825.1,1791.5,832.5,1791.5,832.5z"/>
							</g>
						</g>
					</g>
				</g>
			</g>
			<g>
				<g>
					<g>
						<g>
							<g>
								<g>
									<g>
										<circle class="st16" cx="1779.6" cy="857.9" r="8.2"/>
									</g>
								</g>
							</g>
						</g>
					</g>
				</g>
				<g>
					<g>
						<g>
							<g>
								<g>
									<g>
										<path class="st25" d="M1779.1,863c-1.7,0-2.9-1.3-3.3-2.5c-0.5-1.5,0-3,1.3-3.8c1.8-1.1,3.4-0.5,4.3,0
											c-0.4-0.9-0.9-1.5-1.6-1.9c-1.6-0.9-3.6-0.2-3.6-0.2c-0.1,0-0.3,0-0.3-0.2c0-0.1,0-0.3,0.2-0.3c0.1,0,2.2-0.8,4,0.2
											c1.1,0.6,1.8,1.6,2.2,3l0.2,0.9l-0.7-0.7c-0.1-0.1-2.1-1.9-4.3-0.5c-1.3,0.8-1.3,2.2-1,3.2c0.3,1,1.2,2.2,2.8,2.2
											c0.1,0,0.3,0.1,0.3,0.3C1779.4,862.9,1779.3,863,1779.1,863L1779.1,863z"/>
									</g>
								</g>
							</g>
						</g>
					</g>
				</g>
			</g>
			<g>
				<g>
					<g>
						<g>
							<path class="st26" d="M1821.5,820.7c0,0,12.8,13.5,9.8,52.3l-8.8-38.3L1821.5,820.7z"/>
						</g>
					</g>
				</g>
			</g>
		</g>
		<g>
			<g>
				<g>
					<g>
						<path class="st1" d="M1812.9,972.8l-17.8-74.6h-48.4c-5.1,0-12.2,3.4-12.5,3.5c-19.4,10.3-72.9,69.2-70.2,106.3
							c2.4,33.7,50.9,27,99.2,34.8l10.7-44.7l-17.5-4.7L1812.9,972.8z"/>
					</g>
				</g>
			</g>
			<g>
				<g>
					<g>
						<path class="st1" d="M1796.9,983.9v-85.6h48.4c5.1,0,12.2,3.4,12.5,3.5c19.4,10.3,79.6,71.1,76.9,108.2
							c-2.4,33.7-59.1,32.3-85.7,40.5l-14.8-53.4l1.3-2.7L1796.9,983.9z"/>
					</g>
				</g>
			</g>
			<g>
				<g>
					<g>
						<g>
							<g>
								<g>
									<path class="st1" d="M1875.3,995.5l-0.6,93.4c0,0-84.5,15.4-159.8-4.6c-1.8-0.5,3.5-77.2,3.5-77.2s0-14.9,7.8-19.5
										c7.8-4.6,71.8-33,73.4-33C1801.3,954.7,1875.3,995.5,1875.3,995.5z"/>
								</g>
							</g>
						</g>
					</g>
				</g>
			</g>
			<g>
				<g>
					<g>
						<g>
							<g>
								<g>
									<path class="st8" d="M1794.3,924.2c0.5,0,0.9-0.4,0.9-0.9s-0.4-0.9-0.9-1c-27.8-1.7-36.8-20.8-36.9-21
										c-0.2-0.5-0.8-0.7-1.2-0.4c-0.5,0.2-0.7,0.8-0.4,1.2C1755.9,902.4,1765.4,922.4,1794.3,924.2L1794.3,924.2z"/>
								</g>
							</g>
						</g>
					</g>
				</g>
			</g>
			<g>
				<g>
					<g>
						<g>
							<g>
								<g>
									<path class="st16" d="M1824.9,898.2h-61.2c0,0,11.1,19.2,32.2,19.1C1805.6,917.3,1816,913.7,1824.9,898.2z"/>
								</g>
							</g>
						</g>
					</g>
				</g>
			</g>
			<g>
				<g>
					<g>
						<g>
							<g>
								<g>
									<g>
										<path class="st30" d="M1787.2,1021.7c-3.9-3.9-0.3-8.9-0.3-8.9c-1.4-6,0.1-8.6,0.1-8.6s16.3,4.8,25.6,8.3
											c5.2-0.8,7.1-3.3,7.1-3.3l0.1,0.2c0.1-4.5,0.2-10.2,0.2-10.8c0-1.1,1.7-2.8,4.4,0.6c2.7,3.4,7.9,12.6,7.9,12.6l13.5-7.9
											l11,38c0,0-32.8,4.6-37.9,5c-5,0.4-22.6-3.8-27.9-8.1c-5.2-4.3-4.1-8.2-4.1-8.2
											C1783.3,1025.9,1787.2,1021.7,1787.2,1021.7z"/>
									</g>
								</g>
							</g>
						</g>
					</g>
				</g>
				<g>
					<g>
						<g>
							<g>
								<g>
									<g>
										<path class="st3" d="M1822.8,996.5v11.8c0,0-3.5,5.1-10.1,4.2l-5.1-1.9l4-17.1L1822.8,996.5z"/>
									</g>
								</g>
							</g>
						</g>
					</g>
				</g>
				<g>
					<g>
						<g>
							<g>
								<g>
									<g>
										<g>
											<path class="st25" d="M1798,1018.6c0.3,0,0.5-0.2,0.6-0.4c0.1-0.3-0.1-0.7-0.4-0.8c-4.5-1.5-10.9-5.1-11-5.2
												c-0.3-0.2-0.7-0.1-0.8,0.2c-0.2,0.3-0.1,0.7,0.2,0.8c0.3,0.2,6.6,3.8,11.2,5.3C1797.9,1018.6,1798,1018.6,1798,1018.6z"
												/>
										</g>
									</g>
								</g>
							</g>
						</g>
					</g>
				</g>
				<g>
					<g>
						<g>
							<g>
								<g>
									<g>
										<g>
											<path class="st25" d="M1798,1026.3c0.3,0,0.5-0.2,0.6-0.5s-0.2-0.6-0.5-0.7c-5.6-1-10.6-3.9-10.6-3.9
												c-0.3-0.2-0.7-0.1-0.8,0.2c-0.2,0.3-0.1,0.7,0.2,0.8C1787.1,1022.3,1792.1,1025.2,1798,1026.3
												C1798,1026.3,1798,1026.3,1798,1026.3z"/>
										</g>
									</g>
								</g>
							</g>
						</g>
					</g>
				</g>
				<g>
					<g>
						<g>
							<g>
								<g>
									<g>
										<g>
											<path class="st25" d="M1796.7,1035.1c0.3,0,0.5-0.2,0.6-0.5s-0.1-0.7-0.5-0.7c-4.8-1-9.2-3.8-9.3-3.9
												c-0.3-0.2-0.7-0.1-0.8,0.2c-0.2,0.3-0.1,0.7,0.2,0.8C1787.1,1031.1,1791.5,1033.9,1796.7,1035.1
												C1796.6,1035.1,1796.6,1035.1,1796.7,1035.1z"/>
										</g>
									</g>
								</g>
							</g>
						</g>
					</g>
				</g>
			</g>
			<g>
				<g>
					<g>
						<g>
							<path class="st6" d="M1836.3,1004.5l18.6-4.6c0,0,10.5,26,10.5,26.9s-5.3,23.8-5.9,23.7c-0.7-0.1-6.6-6.3-6.6-6.3
								L1836.3,1004.5z"/>
						</g>
					</g>
				</g>
			</g>
			<g>
				<g>
					<g>
						<g>
							<path class="st8" d="M1870.5,987.5l9.2-1.5c0.6-0.1,1-0.7,0.9-1.3c-0.1-0.6-0.7-1-1.3-0.9l-7.8,1.2l-17.3-26.6
								c-0.3-0.5-1-0.7-1.5-0.3c-0.5,0.3-0.7,1-0.3,1.5L1870.5,987.5z"/>
						</g>
					</g>
				</g>
			</g>
			<g>
				<g>
					<g>
						<g>
							<g>
								<g>
									<g>
										<path class="st8" d="M1867.1,922.6c-0.3,0-0.6-0.1-0.7-0.4c-6.9-9.9-12.8-9.9-12.7-9.9l0,0c-0.5,0-0.9-0.4-0.9-0.9
											s0.4-0.9,0.9-0.9l0,0c0.3,0,6.9,0.1,14.3,10.7c0.3,0.4,0.2,1-0.2,1.3C1867.4,922.5,1867.3,922.6,1867.1,922.6z"/>
									</g>
								</g>
							</g>
						</g>
					</g>
				</g>
				<g>
					<g>
						<g>
							<g>
								<g>
									<g>
										<path class="st8" d="M1865.1,931.9c-0.3,0-0.7-0.2-0.8-0.5c-5.3-10.6-11.1-11.7-11.2-11.7c-0.5-0.1-0.8-0.5-0.8-1
											c0.1-0.5,0.5-0.8,1-0.8c0.3,0,6.8,1.1,12.5,12.7c0.2,0.5,0,1-0.4,1.2C1865.4,931.8,1865.2,931.9,1865.1,931.9z"/>
									</g>
								</g>
							</g>
						</g>
					</g>
				</g>
			</g>
			<g>
				<g>
					<g>
						<g>
							<g>
								<g>
									<g>
										<g>
											<path class="st25" d="M1813.7,1006.1c-0.3,0.1-0.5-0.1-0.7-0.3c-0.2-0.3-0.1-0.7,0.2-0.8c4.1-2.3,9.6-7.3,9.7-7.3
												c0.3-0.2,0.6-0.2,0.9,0c0.2,0.3,0.2,0.6,0,0.9c-0.2,0.2-5.7,5.1-9.9,7.5C1813.8,1006.1,1813.7,1006.1,1813.7,1006.1z"/>
										</g>
									</g>
								</g>
							</g>
						</g>
					</g>
				</g>
				<g>
					<g>
						<g>
							<g>
								<g>
									<g>
										<g>
											<path class="st25" d="M1815.2,1013.7c-0.3,0.1-0.6-0.1-0.7-0.4s0-0.7,0.3-0.8c5.3-2.2,9.5-6,9.6-6c0.3-0.2,0.6-0.2,0.9,0
												c0.2,0.2,0.2,0.6,0,0.9c-0.2,0.2-4.4,4-9.9,6.3C1815.3,1013.6,1815.3,1013.6,1815.2,1013.7z"/>
										</g>
									</g>
								</g>
							</g>
						</g>
					</g>
				</g>
				<g>
					<g>
						<g>
							<g>
								<g>
									<g>
										<g>
											<path class="st25" d="M1818.4,1022c-0.3,0.1-0.6-0.1-0.7-0.3c-0.1-0.3,0-0.7,0.3-0.8c4.5-2,8.2-5.7,8.3-5.7
												c0.2-0.2,0.6-0.2,0.9,0c0.2,0.2,0.2,0.6,0,0.9c-0.2,0.2-3.9,3.8-8.6,5.9C1818.5,1022,1818.4,1022,1818.4,1022z"/>
										</g>
									</g>
								</g>
							</g>
						</g>
					</g>
				</g>
			</g>
			<g>
				<g>
					<g>
						<g>
							<path class="st8" d="M1735.2,986.9l-9.3,0.5c-0.6,0-1.1-0.4-1.2-1.1c0-0.6,0.4-1.1,1.1-1.2l7.8-0.4l11.4-29.6
								c0.2-0.6,0.9-0.9,1.4-0.6c0.6,0.2,0.9,0.9,0.6,1.4L1735.2,986.9z"/>
						</g>
					</g>
				</g>
			</g>
			<g>
				<g>
					<g>
						<path class="st6" d="M1774,998.2l-9.6,45.9c0,0-19.7-16-19.7-17.8c0-1.7,6.2-23.1,6.9-23.5
							C1752.3,1002.4,1774,998.2,1774,998.2z"/>
					</g>
				</g>
			</g>
			<g>
				<g>
					<g>
						<g>
							<path class="st8" d="M1765.1,1045.3l-1-0.1c-0.2,0-23.2-1.5-49.7-12.6c-0.6-0.2-0.8-0.9-0.6-1.4c0.2-0.6,0.9-0.8,1.4-0.6
								c23.1,9.7,43.4,12,48,12.4l8.2-43.2L1734,987c-0.6-0.2-0.9-0.8-0.7-1.4c0.2-0.6,0.8-0.9,1.4-0.7l39.2,13.4L1765.1,1045.3z"/>
						</g>
					</g>
				</g>
			</g>
			<g>
				<g>
					<g>
						<g>
							<path class="st8" d="M1841.2,1045.3l1-0.1c0.2,0,23.2-1.5,49.7-12.6c0.6-0.2,0.8-0.9,0.6-1.4c-0.2-0.6-0.9-0.8-1.4-0.6
								c-23.1,9.7-43.4,12-48,12.4l-8.2-43.2l37.4-12.8c0.6-0.2,0.9-0.8,0.7-1.4c-0.2-0.6-0.8-0.9-1.4-0.7l-39.2,13.4L1841.2,1045.3
								z"/>
						</g>
					</g>
				</g>
			</g>
		</g>
		<g>
			<g>
				<path class="st26" d="M1712.5,1094.7h176.1c3.5,0,6.3-2.8,6.3-6.3v-98.3c0-3.5-2.8-6.3-6.3-6.3h-176.1c-3.5,0-6.3,2.8-6.3,6.3
					v98.3C1706.2,1091.9,1709.1,1094.7,1712.5,1094.7z"/>
			</g>
		</g>
		<g>
			<g>
				<circle class="st5" cx="1798.6" cy="1029.9" r="7.5"/>
			</g>
		</g>
	</g>
	<g>
		<g>
			<g>
				<g>
					<path class="st5" d="M2781.1,1083.8c0,0-20.6,51.9-3.3,91.1l-396.3,3.3l-36.6-3.3l-32.2-20v-30.6l9-25.3l29.3-15.3h430.1
						V1083.8z"/>
				</g>
			</g>
		</g>
		<g>
			<g>
				<g>
					<g>
						<path class="st2" d="M2362.8,1183.3H2791c2.8,0,5-2.3,5-5c0-2.8-2.3-5.1-5-5.1h-428.2c-25.8,0-46.9-19.5-46.9-43.5
							s21-43.5,46.9-43.5H2791c2.8,0,5-2.3,5-5c0-2.8-2.3-5-5-5h-428.2c-31.4,0-57,24-57,53.6
							C2305.9,1159.3,2331.4,1183.3,2362.8,1183.3z"/>
					</g>
				</g>
			</g>
		</g>
		<g>
			<g>
				<g>
					<path class="st31" d="M2775.2,1130.9h-210.1c-0.6,0-1.1-0.5-1.1-1.1s0.5-1.1,1.1-1.1h210.1c0.6,0,1.1,0.5,1.1,1.1
						S2775.9,1130.9,2775.2,1130.9z"/>
				</g>
			</g>
		</g>
		<g>
			<g>
				<g>
					<path class="st31" d="M2535.5,1130.9h-204.2c-0.6,0-1.1-0.5-1.1-1.1s0.5-1.1,1.1-1.1h204.2c0.6,0,1.1,0.5,1.1,1.1
						S2536.1,1130.9,2535.5,1130.9z"/>
				</g>
			</g>
		</g>
		<g>
			<g>
				<g>
					<path class="st31" d="M2441.6,1151h-104.8c-0.6,0-1.1-0.5-1.1-1.1s0.5-1.1,1.1-1.1h104.8c0.6,0,1.1,0.5,1.1,1.1
						S2442.2,1151,2441.6,1151z"/>
				</g>
			</g>
		</g>
		<g>
			<g>
				<g>
					<path class="st31" d="M2775.2,1151H2457c-0.6,0-1.1-0.5-1.1-1.1s0.5-1.1,1.1-1.1h318.3c0.6,0,1.1,0.5,1.1,1.1
						S2775.9,1151,2775.2,1151z"/>
				</g>
			</g>
		</g>
		<g>
			<g>
				<g>
					<path class="st5" d="M2383.7,983.8c0,0,19.1,48.1,3.1,84.6l367.8,3.1l33.9-3.1l29.9-18.5v-28.4l-8.3-23.5l-27.2-14.2H2383.7z"
						/>
				</g>
			</g>
		</g>
		<g>
			<g>
				<g>
					<g>
						<path class="st32" d="M2771.8,1076.1h-397.4c-2.6,0-4.7-2.1-4.7-4.7s2.1-4.7,4.7-4.7h397.4c24,0,43.5-18.1,43.5-40.4
							s-19.5-40.4-43.5-40.4h-397.4c-2.6,0-4.7-2.1-4.7-4.7s2.1-4.7,4.7-4.7h397.4c29.2,0,52.9,22.3,52.9,49.7
							C2824.7,1053.8,2801,1076.1,2771.8,1076.1z"/>
					</g>
				</g>
			</g>
		</g>
		<g>
			<g>
				<g>
					<path class="st31" d="M2584.1,1027.5h-195c-0.6,0-1.1-0.5-1.1-1.1s0.5-1.1,1.1-1.1h195c0.6,0,1.1,0.5,1.1,1.1
						S2584.7,1027.5,2584.1,1027.5z"/>
				</g>
			</g>
		</g>
		<g>
			<g>
				<g>
					<path class="st31" d="M2801,1027.5h-189.5c-0.6,0-1.1-0.5-1.1-1.1s0.5-1.1,1.1-1.1H2801c0.6,0,1.1,0.5,1.1,1.1
						S2801.6,1027.5,2801,1027.5z"/>
				</g>
			</g>
		</g>
		<g>
			<g>
				<g>
					<path class="st31" d="M2795.9,1046.2h-97.2c-0.6,0-1.1-0.5-1.1-1.1s0.5-1.1,1.1-1.1h97.2c0.6,0,1.1,0.5,1.1,1.1
						S2796.5,1046.2,2795.9,1046.2z"/>
				</g>
			</g>
		</g>
		<g>
			<g>
				<g>
					<path class="st31" d="M2795.9,1008.8H2389c-0.6,0-1.1-0.5-1.1-1.1s0.5-1.1,1.1-1.1h406.9c0.6,0,1.1,0.5,1.1,1.1
						C2797.1,1008.3,2796.5,1008.8,2795.9,1008.8z"/>
				</g>
			</g>
		</g>
		<g>
			<g>
				<g>
					<g>
						<path class="st8" d="M2791,1184.5h-428.2c-32,0-58.1-24.5-58.1-54.7s26.1-54.7,58.1-54.7H2791c3.4,0,6.2,2.8,6.2,6.2
							c0,3.4-2.8,6.2-6.2,6.2c-0.6,0-1.1-0.5-1.1-1.1s0.5-1.1,1.1-1.1c2.2,0,3.9-1.8,3.9-3.9s-1.8-3.9-3.9-3.9h-428.2
							c-30.8,0-55.9,23.5-55.9,52.5c0,28.9,25.1,52.5,55.9,52.5H2791c2.2,0,3.9-1.8,3.9-3.9s-1.8-3.9-3.9-3.9
							c-0.6,0-1.1-0.5-1.1-1.1s0.5-1.1,1.1-1.1c3.4,0,6.2,2.8,6.2,6.2C2797.2,1181.7,2794.4,1184.5,2791,1184.5z"/>
					</g>
				</g>
			</g>
		</g>
		<g>
			<g>
				<g>
					<g>
						<path class="st8" d="M2771.8,1077.3h-397.4c-3.2,0-5.8-2.6-5.8-5.8s2.6-5.8,5.8-5.8c0.6,0,1.1,0.5,1.1,1.1s-0.5,1.1-1.1,1.1
							c-2,0-3.6,1.6-3.6,3.6s1.6,3.6,3.6,3.6h397.4c28.5,0,51.8-21.8,51.8-48.6c0-26.8-23.2-48.6-51.8-48.6h-397.4
							c-2,0-3.6,1.6-3.6,3.6s1.6,3.6,3.6,3.6c0.6,0,1.1,0.5,1.1,1.1s-0.5,1.1-1.1,1.1c-3.2,0-5.8-2.6-5.8-5.8c0-3.2,2.6-5.8,5.8-5.8
							h397.4c29.8,0,54,22.8,54,50.9C2825.8,1054.4,2801.6,1077.3,2771.8,1077.3z"/>
					</g>
				</g>
			</g>
		</g>
		<g>
			<g>
				<g>
					<path class="st1" d="M2723.2,1109.6c0,0,13.5,33.6,5.7,58.3l-11-16.9c0,0-7.5,9-12.1,16.9c0,0-8.4-55.2-24.6-58.3H2723.2z"/>
				</g>
			</g>
		</g>
		<g>
			<g>
				<g>
					<path class="st6" d="M2621.6,1045.1c0,0-13.5,33.6-5.7,58.3l11-16.9c0,0,7.5,9,12.1,16.9c0,0,8.4-55.2,24.6-58.3H2621.6z"/>
				</g>
			</g>
		</g>
		<g>
			<g>
				<g>
					<path class="st31" d="M2775.2,1110.7h-438.4c-0.6,0-1.1-0.5-1.1-1.1s0.5-1.1,1.1-1.1h438.4c0.6,0,1.1,0.5,1.1,1.1
						C2776.4,1110.2,2775.9,1110.7,2775.2,1110.7z"/>
				</g>
			</g>
		</g>
		<g>
			<g>
				<g>
					<path class="st31" d="M2684.5,1046.2h-295.4c-0.6,0-1.1-0.5-1.1-1.1s0.5-1.1,1.1-1.1h295.4c0.6,0,1.1,0.5,1.1,1.1
						S2685.1,1046.2,2684.5,1046.2z"/>
				</g>
			</g>
		</g>
	</g>
	<g>
		<g>
			<g>
				<g>
					<g>
						<g>
							<g>
								<polygon class="st16" points="2452.8,1139 2472.1,1149.9 2495.3,1127.1 2495.9,1123.4 2490.2,1082 2445.2,1090.4 								
									"/>
							</g>
						</g>
					</g>
				</g>
			</g>
			<g>
				<g>
					<g>
						<g>
							<path class="st33" d="M2485.8,1151.1l-62.1,8.5c-0.6,0-1,0-1.4-0.1c-6.1-1-4.7-5-4.7-5l27.2-22.5l0.2-2.8
								c0.3-4.5,5.5-6.7,9.9-4.3l11.4,6.2c0,0,26.9,0.4,29.5-7.6l2.4,19.5C2498.3,1143,2501.2,1148.9,2485.8,1151.1z"/>
						</g>
					</g>
				</g>
			</g>
		</g>
		<g>
			<g>
				<g>
					<g>
						<g>
							<g>
								<polygon class="st16" points="2372.5,1141.7 2391.9,1152.6 2415,1129.8 2415.6,1126.1 2410,1084.7 2364.9,1093.1 								
									"/>
							</g>
						</g>
					</g>
				</g>
			</g>
			<g>
				<g>
					<g>
						<g>
							<path class="st33" d="M2405.6,1153.8l-62.1,8.5c-0.6,0-1,0-1.4-0.1c-6.1-1-4.7-5-4.7-5l27.2-22.5l0.2-2.8
								c0.3-4.5,5.5-6.7,9.9-4.3l11.4,6.2c0,0,26.9,0.4,29.5-7.6l2.4,19.5C2418.1,1145.6,2420.9,1151.6,2405.6,1153.8z"/>
						</g>
					</g>
				</g>
			</g>
		</g>
		<g>
			<g>
				<g>
					<g>
						<g>
							<path class="st26" d="M2524.8,976.2c0,0,77.5,3.6,99-1.1c21.5-4.8,26.8-71.9,2.4-113.1c-24.4-41.1-109.9,85.2-109.9,85.2
								L2524.8,976.2z"/>
						</g>
					</g>
				</g>
			</g>
			<g>
				<g>
					<g>
						<g>
							<g>
								<path class="st33" d="M2476.9,876.4c0,0-107.9,16.8-111,29.3c-3.1,12.5-12.1,145.5-5.4,202.3c0,0,41.1,2.8,60.8-1.9l5.6-130
									l33.1,0.6l72.9-102.1L2476.9,876.4z"/>
							</g>
						</g>
					</g>
				</g>
			</g>
			<g>
				<g>
					<g>
						<g>
							<g>
								<path class="st26" d="M2529.4,884.2c0,0-83.5,23.6-86.7,36.1c-3.1,12.5-12,131.2-5.3,187.9c0,0,44.2,2.5,63.9-2.2l5.3-130.5
									l19.1,0.7l46.2-81.3L2529.4,884.2z"/>
							</g>
						</g>
					</g>
				</g>
			</g>
			<g>
				<g>
					<g>
						<path class="st34" d="M2581.2,725.1c0,0,36.9,0.6,45.5,5.7c8.6,5.1,47.9,69.8,56.4,97.3c0,0-22.2,19.4-50.8,20.2l-6.9-13
							l3.9,26.5l-74.9,22.2c-25.4,7.5-52.6,6.7-77.4-2.5l-7.8-2.9c0,0,0.1-126.1,22.6-139.4C2511.9,727.4,2555.4,721.2,2581.2,725.1
							z"/>
					</g>
				</g>
			</g>
			<g>
				<g>
					<g>
						<g>
							<g>
								<path class="st16" d="M2534.8,663.1v35.7c0,0-0.5,12.1,10.1,13.6l-2,16.1c-0.7,6,2.8,11.7,8.6,13.5c2.8,0.9,6.2,1.5,10,1.5
									c12.1,0,18.6-9,19.6-13.6c1-4.5-2-26.1-2-26.1l0.4-10.6l-1.4-41.2L2534.8,663.1z"/>
							</g>
						</g>
					</g>
				</g>
			</g>
			<g>
				<g>
					<g>
						<g>
							<g>
								<path class="st8" d="M2563.9,681c0.1,0,0.3,0,0.3-0.1c0.2-0.2,0.2-0.5,0-0.7c-0.1-0.1-7-7.1-13.3-2.1
									c-0.2,0.2-0.3,0.5-0.1,0.7c0.2,0.2,0.5,0.3,0.7,0.1c5.6-4.5,11.7,1.7,11.9,2C2563.6,680.9,2563.7,681,2563.9,681z"/>
							</g>
						</g>
					</g>
				</g>
			</g>
			<g>
				<g>
					<g>
						<g>
							<g>
								<path class="st8" d="M2543.2,678c0.1,0,0.3-0.1,0.4-0.2c0.2-0.2,0.2-0.5-0.1-0.7c-0.2-0.2-5-4.3-8-1.7
									c-0.2,0.2-0.2,0.5-0.1,0.7c0.2,0.2,0.5,0.2,0.7,0.1c2.4-2,6.7,1.6,6.7,1.7C2542.9,677.9,2543,678,2543.2,678z"/>
							</g>
						</g>
					</g>
				</g>
			</g>
			<g>
				<g>
					<g>
						<g>
							<g>
								<circle cx="2555.2" cy="683" r="1.5"/>
							</g>
						</g>
					</g>
				</g>
			</g>
			<g>
				<g>
					<g>
						<g>
							<g>
								<circle cx="2539.2" cy="681.5" r="1.5"/>
							</g>
						</g>
					</g>
				</g>
			</g>
			<g>
				<g>
					<g>
						<g>
							<g>
								<path class="st8" d="M2576.6,654l-8.4,11.9c0,0-25.5,9.9-38.6-1.8c-13.1-11.7-9-17.4-5.2-23.2c1.9-2.9,10.9-8.8,22-3.9
									c6,2.7,10.5-5.3,17.5-1.3s15.3,11,14.4,13.7C2577.4,652.2,2576.6,654,2576.6,654z"/>
							</g>
						</g>
					</g>
				</g>
			</g>
			<g>
				<g>
					<g>
						<g>
							<g>
								<path class="st8" d="M2576.1,649c0,0,11.6-0.6,14.8,10.6s-1.1,17-1.2,20.3c-0.1,3.3,2.1,25.8-13.6,24.1l-4.3-37.1l5.5-14.8
									L2576.1,649z"/>
							</g>
						</g>
					</g>
				</g>
			</g>
			<g>
				<g>
					<g>
						<g>
							<g>
								<circle class="st16" cx="2575.2" cy="682.5" r="9"/>
							</g>
						</g>
					</g>
				</g>
			</g>
			<g>
				<g>
					<g>
						<g>
							<g>
								<path class="st25" d="M2575.9,688c1.9,0,3.1-1.4,3.5-2.8c0.5-1.7-0.1-3.3-1.4-4.1c-2-1.2-3.8-0.4-4.8,0.2
									c0.4-1,1-1.8,1.8-2.2c1.8-1,4-0.3,4-0.3c0.1,0,0.3,0,0.3-0.2c0-0.1,0-0.3-0.2-0.3c-0.1,0-2.4-0.8-4.4,0.3
									c-1.1,0.6-1.9,1.7-2.3,3.3l-0.2,0.9l0.6-0.6c0.1-0.1,2.2-2.2,4.8-0.6c1.4,0.9,1.5,2.5,1.2,3.6s-1.3,2.5-3.1,2.5
									c0,0,0,0-0.1,0c-0.1,0-0.2,0.1-0.3,0.2C2575.6,687.9,2575.7,688,2575.9,688C2575.8,688,2575.9,688,2575.9,688z"/>
							</g>
						</g>
					</g>
				</g>
			</g>
			<g>
				<g>
					<g>
						<g>
							<g>
								<path class="st25" d="M2569.3,702.1c0,0-0.7,20.2-25.9,22.1l1.5-11.9C2544.8,712.4,2561.2,715.7,2569.3,702.1z"/>
							</g>
						</g>
					</g>
				</g>
			</g>
			<g>
				<g>
					<g>
						<g>
							<g>
								<path class="st8" d="M2626.4,836.9c31.2-4.9,49.7-23.5,49.9-23.7l-1.1-1.1c-0.2,0.2-18.3,18.5-49,23.3L2626.4,836.9z"/>
							</g>
						</g>
					</g>
				</g>
			</g>
			<g>
				<g>
					<g>
						<g>
							<g>
								<path class="st8" d="M2474.7,1109.8c19.5,0,26.5-2.9,26.8-3.1l0.4-0.2l5.1-131.3l-8.1,3.8l0.6,1.4l5.8-2.7l-5,127.8
									c-2.1,0.7-12.2,3.7-36.2,2.5l-0.1,1.5C2468.1,1109.7,2471.5,1109.8,2474.7,1109.8z"/>
							</g>
						</g>
					</g>
				</g>
			</g>
			<g>
				<g>
					<g>
						<g>
							<g>
								<path class="st8" d="M2493,1081.5c2.1-8,2.7-86.5,2.7-89.8h-1.5c0,0.8-0.6,81.6-2.7,89.4L2493,1081.5z"/>
							</g>
						</g>
					</g>
				</g>
			</g>
			<g>
				<g>
					<g>
						<g>
							<g>
								<path class="st8" d="M2393.1,1110.3c16.7,0,28.9-2.9,28.9-2.9l4.8-131.3l-6.2,4.3l0.9,1.2l3.6-2.9l-4.7,127.6
									c-2.6,0.6-13.7,2.8-28.9,2.6v1.5C2392.1,1110.3,2392.6,1110.3,2393.1,1110.3z"/>
							</g>
						</g>
					</g>
				</g>
			</g>
			<g>
				<g>
					<g>
						<g>
							<g>
								<path class="st8" d="M2414.1,1084.4c2.1-12.1,0.1-94.3,0-97.8h-1.5c0,0.9,2.1,85.6,0,97.6L2414.1,1084.4z"/>
							</g>
						</g>
					</g>
				</g>
			</g>
			<g>
				<g>
					<g>
						<g>
							<g>
								<path class="st16" d="M2488.6,890.7l8.5-13.3l0,0c4.7-7.6,12.3-17.6,20.2-18.5c12.9-1.4,91.6-4.7,116.6-7.8l-1.7-3
									c0.3,0.1,20.4-3.4,20.4-3.4l13-6.1l11.7-5c3.2,12.5,12,33.1,3,47.5c-16.7,26.5-144.7,13.5-156.1,10l-10.5,11.3l-2.1,3.3
									c-1,1.6-3.1,2-4.6,1c-1.6-1-2-3.1-1-4.6l-0.9,1.4c-1,1.6-3.1,2-4.6,1l0,0c-1.6-1-2-3.1-1-4.6c-1,1.6-3.1,2-4.6,1
									s-2-3.1-1-4.6l0.9-1.4c-1,1.6-3.1,2-4.6,1l0,0c-0.1,0-0.1-0.1-0.2-0.1l0,0c0,0-0.1,0-0.1-0.1l0,0l0,0
									c-0.2-0.2-0.4-0.4-0.5-0.6C2487.4,892.7,2488.6,890.7,2488.6,890.7z"/>
							</g>
						</g>
					</g>
				</g>
			</g>
			<g>
				<g>
					<g>
						<g>
							<g>
								<path class="st8" d="M2631.9,849.3h0.5c25.4-0.6,51-20.1,51.2-20.3l0.5-0.4l-16.1-35.7l-1.4,0.6l15.6,34.6
									c-3.6,2.6-26.5,18.9-49.4,19.7l-6.9-14.1l-1.4,0.7L2631.9,849.3z"/>
							</g>
						</g>
					</g>
				</g>
			</g>
			<g>
				<g>
					<g>
						<g>
							<g>
								<path class="st25" d="M2642.9,863.6c0.1,0,0.3,0,0.4-0.1c0.2-0.2,0.3-0.5,0.1-0.7l-9.2-11.8c-0.2-0.2-0.5-0.3-0.7-0.1
									c-0.2,0.2-0.3,0.5-0.1,0.7l9.2,11.8C2642.7,863.5,2642.8,863.5,2642.9,863.6z"/>
							</g>
						</g>
					</g>
				</g>
			</g>
			<g>
				<g>
					<g>
						<g>
							<g>
								<path class="st25" d="M2493.3,896.7c0.2,0,0.4,0,0.5-0.2l12-16.5c0.2-0.2,0.1-0.5-0.1-0.7s-0.5-0.1-0.7,0.1l-12,16.5
									c-0.2,0.2-0.1,0.5,0.1,0.7C2493.2,896.6,2493.2,896.7,2493.3,896.7z"/>
							</g>
						</g>
					</g>
				</g>
			</g>
			<g>
				<g>
					<g>
						<g>
							<g>
								<path class="st25" d="M2498.6,901.5c0.2,0,0.4,0,0.5-0.2l11.4-17c0.2-0.2,0.1-0.5-0.1-0.7s-0.5-0.1-0.7,0.1l-11.4,17
									c-0.2,0.2-0.1,0.5,0.1,0.7C2498.4,901.4,2498.5,901.5,2498.6,901.5z"/>
							</g>
						</g>
					</g>
				</g>
			</g>
			<g>
				<g>
					<g>
						<g>
							<g>
								<path class="st25" d="M2504.9,904.6c0.2,0,0.4,0,0.5-0.2l9.5-14.4c0.2-0.2,0.1-0.5-0.1-0.7s-0.5-0.1-0.7,0.1l-9.5,14.4
									c-0.2,0.2-0.1,0.5,0.1,0.7C2504.8,904.5,2504.9,904.5,2504.9,904.6z"/>
							</g>
						</g>
					</g>
				</g>
			</g>
			<g>
				<g>
					<g>
						<g>
							<path class="st8" d="M2558,977.6c-38.2,0-61.3-2.6-61.7-2.6l0.2-1.5c0.5,0.1,52.3,5.8,129.6,0l0.1,1.5
								C2600.3,976.9,2577.2,977.6,2558,977.6z"/>
						</g>
					</g>
				</g>
			</g>
			<g>
				<g>
					<g>
						<g>
							
								<rect x="2503.4" y="775.4" transform="matrix(-0.9995 -3.157233e-002 3.157233e-002 -0.9995 4981.5513 1693.5553)" class="st8" width="1.5" height="64.1"/>
						</g>
					</g>
				</g>
			</g>
			<g>
				<g>
					<g>
						<g>
							
								<rect x="2579.7" y="814" transform="matrix(-0.3984 -0.9172 0.9172 -0.3984 2912.7004 3539.9604)" class="st8" width="75.1" height="1.5"/>
						</g>
					</g>
				</g>
			</g>
			<g>
				<g>
					<g>
						<g>
							
								<rect x="2615.8" y="840.8" transform="matrix(-0.1595 -0.9872 0.9872 -0.1595 2214.3459 3568.3933)" class="st8" width="20.9" height="1.5"/>
						</g>
					</g>
				</g>
			</g>
			<g>
				<g>
					<g>
						<g>
							<g>
								<path class="st25" d="M2548.4,693.2c0.1,0,0.2-0.1,0.2-0.2s0-0.3-0.2-0.3l-5-1.7l1.6-11.9c0-0.1-0.1-0.3-0.2-0.3
									c-0.1,0-0.3,0.1-0.3,0.2l-1.6,12.3L2548.4,693.2C2548.3,693.2,2548.4,693.2,2548.4,693.2z"/>
							</g>
						</g>
					</g>
				</g>
			</g>
			<g>
				<g>
					<g>
						<g>
							<g>
								<path class="st28" d="M2552.3,698.1c-0.2,0-10-0.3-10-0.3s1.2,4.1,4.9,4.1C2550.9,702,2552.3,698.1,2552.3,698.1z"/>
							</g>
						</g>
					</g>
				</g>
			</g>
		</g>
		<g>
			<g>
				<g>
					<g>
						<g>
							<polygon class="st15" points="2342.7,792.8 2462.5,792.8 2504.2,899.2 2384.5,899.2 							"/>
						</g>
					</g>
				</g>
				<g>
					<g>
						<g>
							<polygon class="st20" points="2504.2,899.2 2498,899.2 2456.2,792.8 2462.5,792.8 							"/>
						</g>
					</g>
				</g>
				<g>
					<g>
						<g>
							
								<ellipse transform="matrix(-0.3217 -0.9468 0.9468 -0.3217 2392.5876 3403.0881)" class="st24" cx="2415.2" cy="844.6" rx="9.3" ry="6"/>
						</g>
					</g>
				</g>
			</g>
			<g>
				<g>
					<g>
						<path class="st20" d="M2543.8,890.6h-44.7v8.6h44.7c2.4,0,4.3-1.9,4.3-4.3l0,0C2548.1,892.5,2546.2,890.6,2543.8,890.6z"/>
					</g>
				</g>
			</g>
			<g>
				<g>
					<g>
						<rect x="2504.2" y="893.6" class="st15" width="28.3" height="1.3"/>
					</g>
				</g>
			</g>
		</g>
		<g>
			<g>
				<rect x="2487.4" y="899.2" class="st26" width="52.7" height="18.8"/>
			</g>
		</g>
	</g>
	<g>
		<g>
			<rect x="872.3" y="1182.9" class="st8" width="1973.5" height="6.1"/>
		</g>
	</g>
	<g>
		<g>
			<g>
				<g>
					<g>
						<g>
							<g>
								<g>
									<g>
										<g>
											<polygon class="st16" points="1191.2,1167.7 1142.8,1168.4 1142.1,1122.7 1190.3,1116.7 											"/>
										</g>
									</g>
								</g>
							</g>
						</g>
					</g>
				</g>
			</g>
		</g>
		<g>
			<g>
				<g>
					<g>
						<g>
							<g>
								<path class="st35" d="M1240.9,1175.9h-98.8V1156c0,0,7.2-9.5,18.1-4.7c0,0,16.2,11.7,30.8-2.3l36.6,15.7
									C1227.6,1164.8,1240.9,1169.2,1240.9,1175.9z"/>
							</g>
						</g>
					</g>
				</g>
			</g>
			<g>
				<g>
					<g>
						<g>
							<g>
								<path class="st17" d="M1142.1,1182.9h101.1c1.1,0,2-0.9,2-2v-3c0-1.1-0.9-2-2-2h-101.1V1182.9z"/>
							</g>
						</g>
					</g>
				</g>
			</g>
			<g>
				<g>
					<g>
						<g>
							<g>
								<path class="st18" d="M1201.9,1153.7c-3.3,5.2-10,15.6-14.2,22.2h-6.7c3.8-5.9,11.7-18.3,15.7-24.5L1201.9,1153.7z"/>
							</g>
						</g>
					</g>
				</g>
			</g>
			<g>
				<g>
					<g>
						<g>
							<g>
								<path class="st18" d="M1198.5,1175.9h-6.7c3.1-4.8,9.1-14.2,13.3-20.8l5.3,2.3C1206.8,1162.9,1201.8,1170.7,1198.5,1175.9z"
									/>
							</g>
						</g>
					</g>
				</g>
			</g>
		</g>
		<g>
			<g>
				<g>
					<g>
						<g>
							<g>
								<g>
									<g>
										<g>
											<polygon class="st16" points="1107.9,1167.7 1059.5,1168.4 1058.8,1122.7 1107,1116.7 											"/>
										</g>
									</g>
								</g>
							</g>
						</g>
					</g>
				</g>
			</g>
		</g>
		<g>
			<g>
				<g>
					<g>
						<g>
							<g>
								<g>
									<path class="st35" d="M1113.1,772.8c1.6,47.1,8.6,231.4,23.2,352c1,7.9,7.7,13.9,15.7,13.9c8.9,0,21.2-1.1,34.9-5.3
										c6.6-2,11.2-8,11.3-14.9l6-366.9c0-0.9,0-1.8-0.2-2.7l-0.3-1.8c-1.5-10-11.9-16-21.3-12.4l-59.1,22.7
										C1116.9,759.9,1112.8,766,1113.1,772.8z"/>
								</g>
							</g>
						</g>
					</g>
				</g>
			</g>
		</g>
		<g>
			<g>
				<g>
					<g>
						<g>
							<g>
								<g>
									<path class="st26" d="M1048.1,763.3c0,0-4,226.6,6.5,366.4c0.5,6.6,5.7,11.8,12.4,12.3c9.4,0.7,23.6,0.6,39.7-3.7
										c5.5-1.4,9.4-6.2,9.9-11.8l28-325l17.3-90.2L1048.1,763.3z"/>
								</g>
							</g>
						</g>
					</g>
				</g>
			</g>
		</g>
		<g>
			<g>
				<g>
					<g>
						<g>
							<g>
								<g>
									<path class="st8" d="M1055.4,1140.5L1055.4,1140.5L1055.4,1140.5z"/>
								</g>
							</g>
						</g>
					</g>
				</g>
			</g>
		</g>
		<g>
			<g>
				<g>
					<g>
						<g>
							<path class="st20" d="M1030.1,691.2c1,9.1,6.4,143.4,21.5,154.4c15.1,11.1,159.2,0.4,162.6-12.7S1198,679.5,1198,679.5
								L1030.1,691.2z"/>
						</g>
					</g>
				</g>
			</g>
		</g>
		<g>
			<g>
				<g>
					<g>
						<g>
							<g>
								<g>
									<g>
										<path class="st20" d="M1192.9,627.9c1.9,0,79.1,36.4,79.1,36.4l-16.8,29.6l-43.6-11.1L1192.9,627.9z"/>
									</g>
								</g>
							</g>
						</g>
					</g>
				</g>
			</g>
		</g>
		<g>
			<g>
				<g>
					<g>
						<g>
							<g>
								<path class="st20" d="M1084.3,483.8c0,0-33.2-2.3-49.4,6.2c-24.2,12.6-18.3,89.8-18.3,89.8s20.5-10.3,21.9-13.9
									C1039.7,562.2,1084.3,483.8,1084.3,483.8z"/>
							</g>
						</g>
					</g>
				</g>
			</g>
		</g>
		<g>
			<g>
				<g>
					<g>
						<g>
							<g>
								<path class="st20" d="M1051.8,488.7c19-2,69-2.1,69-2.1s6.6,2,4.5,0.9c54.8,11.6,59.5,52.7,59.5,52.7l22.9,119l29.9,2.6
									c9.1,18.7,0.3,68,0.3,68l-145.5,11.4c0,0-31.5,4.1-56.9-30.8c-16.8-23.1-20.4-92.3-18.7-142.8
									C1016.7,567.6,1022.3,491.8,1051.8,488.7z"/>
							</g>
						</g>
					</g>
				</g>
			</g>
		</g>
		<g>
			<g>
				<g>
					<g>
						<g>
							<g>
								<g>
									<g>
										<path class="st8" d="M1094.9,657.4c0.2,0.1,0.3,0.1,0.5,0.1c0.5-0.1,0.8-0.6,0.7-1.1c-0.1-0.7-13.1-65.6-18.2-106.3
											c-0.1-0.5-0.5-0.9-1-0.8c-0.5,0.1-0.9,0.5-0.8,1c5.1,40.8,18,105.8,18.2,106.5C1094.4,657,1094.6,657.3,1094.9,657.4z"/>
									</g>
								</g>
							</g>
						</g>
					</g>
				</g>
			</g>
		</g>
		<g>
			<g>
				<g>
					<g>
						<g>
							<g>
								<g>
									<g>
										<path class="st8" d="M1184.7,658.9c-0.1,0.1-0.3,0.2-0.6,0.2c-0.5,0-0.9-0.4-1-0.9c0-0.8-4.4-75.5-8.7-100.2
											c-0.1-0.5,0.2-1,0.7-1.1s1,0.2,1.1,0.7c4.4,24.8,8.7,99.7,8.8,100.4C1185,658.5,1184.9,658.7,1184.7,658.9z"/>
									</g>
								</g>
							</g>
						</g>
					</g>
				</g>
			</g>
		</g>
		<g>
			<g>
				<g>
					<g>
						<g>
							<g>
								<g>
									<g>
										<path class="st8" d="M1195.7,642.7c0.4,0.2,0.9,0,1.1-0.4l6.5-10.3l-0.1-0.4l-17.5-91.5c-0.1-0.8-1.5-11.5-10.1-23.5
											c-8-11.2-24.2-25.7-55.3-31c-0.5-0.1-1,0.3-1.1,0.8c-0.1,0.5,0.3,1,0.8,1.1c30.5,5.1,46.2,19.2,54.1,30.1
											c8.5,11.8,9.8,22.6,9.9,22.7v0.1l17.6,91.3l-6.1,9.7C1195.2,641.8,1195.4,642.4,1195.7,642.7
											C1195.6,642.7,1195.7,642.7,1195.7,642.7z"/>
									</g>
								</g>
							</g>
						</g>
					</g>
				</g>
			</g>
		</g>
		<g>
			<g>
				<g>
					<g>
						<g>
							<g>
								<g>
									<g>
										<path class="st8" d="M1070.5,650.5L1070.5,650.5l24.4,6.4c0.5,0.1,1-0.2,1.1-0.7s-0.2-1-0.7-1.1l-24.3-6.4
											c-0.5-0.1-1,0.2-1.1,0.7C1069.8,649.8,1070.1,650.3,1070.5,650.5z"/>
									</g>
								</g>
							</g>
						</g>
					</g>
				</g>
			</g>
		</g>
		<g>
			<g>
				<g>
					<g>
						<g>
							<g>
								<g>
									<g>
										<path class="st8" d="M1228.1,644.2c0.5,0.2,1,0,1.2-0.5c0.2-0.5,0-1-0.5-1.2l-26.1-11.5c-0.5-0.2-1,0-1.2,0.5
											c-0.2,0.5,0,1,0.5,1.2L1228.1,644.2L1228.1,644.2z"/>
									</g>
								</g>
							</g>
						</g>
					</g>
				</g>
			</g>
		</g>
		<g>
			<g>
				<g>
					<g>
						<g>
							<g>
								<g>
									<g>
										<g>
											<g>
												<path class="st1" d="M1336.3,730.9l-85.8-5.6c-4.1-0.3-7.5-3.9-7-7.4l17.1-126.3c0.3-2.6,2.7-4.2,5.6-4l85.8,5.5
													c4.1,0.3,7.5,3.9,7,7.4l-17.1,126.3C1341.6,729.4,1339.2,731,1336.3,730.9z"/>
											</g>
										</g>
									</g>
								</g>
							</g>
						</g>
					</g>
				</g>
			</g>
			<g>
				<g>
					<g>
						<g>
							<g>
								<g>
									<g>
										<g>
											<g>
												<g>
													<g>
														<path class="st16" d="M1294.7,704.4c0.1-2.4-2-4.4-4.3-4.6l-14.6-1c-0.5,0-0.8-0.3-1-0.8l0,0c-0.2-0.7,0.3-1.3,1-1.3
															l21.6-1.4c2.5-0.2,4-2.3,3.3-4.7l0,0c-0.6-2.4-3.2-4.2-5.7-4.1l-22,1.5c-0.5,0-1-0.3-1.1-0.8l-0.1-0.4
															c-0.2-0.6,0.2-1.2,0.8-1.3l23.6-6.3c2.3-0.6,3.9-3,3.3-5.3c-0.6-2.4-3-3.9-5.4-3.3l-23.8,6.4
															c-0.6,0.2-1.2-0.2-1.3-0.8l-0.3-1.1c-0.1-0.5,0.1-1.1,0.6-1.3l21.1-8.7c2.2-0.9,3.5-3.5,2.6-5.7
															c-0.9-2.3-3.5-3.5-5.8-2.5c0,0-32.5,11.5-37.8,12.9l9.8-4.6c7.2,6.7-0.9-2.5-6.8-3.6c-6.5-1.3-23.8,14.7-23.8,14.7
															c-0.8,1.4,0,4.5,1.3,6.8c4.8,25.6,5.8,29.5,7.7,36.3l26.7-8.1c7.7-2.3,15.8-3.3,23.8-2.7l2,0.1
															C1292.5,708.8,1294.6,706.9,1294.7,704.4z"/>
													</g>
												</g>
											</g>
										</g>
									</g>
								</g>
							</g>
						</g>
					</g>
				</g>
			</g>
			<g>
				<g>
					<g>
						<g>
							<g>
								<g>
									<g>
										<g>
											<g>
												<path class="st5" d="M1314.1,636.4c0,4.7-3.7,8.6-8.2,8.7c-4.5,0.2-8.1-3.5-8.1-8.1c0-4.7,3.7-8.6,8.2-8.7
													C1310.5,628.1,1314.1,631.7,1314.1,636.4z"/>
											</g>
										</g>
									</g>
								</g>
							</g>
						</g>
					</g>
				</g>
			</g>
			<g>
				<g>
					<g>
						<g>
							<g>
								<g>
									<g>
										<polygon class="st1" points="1252.7,659.8 1251.5,669.2 1261.5,665.8 1261.3,659 										"/>
									</g>
								</g>
							</g>
						</g>
					</g>
				</g>
			</g>
			<g>
				<g>
					<g>
						<g>
							<g>
								<g>
									<path class="st8" d="M1352,592.2l-85.8-5.6c-3.4-0.2-6.1,1.8-6.5,4.8l-10.3,78.6l2.1-0.7l10-77.5c0.3-2.1,2.2-3.5,4.7-3.3
										l85.8,5.6c0.5,0,0.9-0.4,0.9-0.9C1352.9,592.6,1352.5,592.2,1352,592.2z"/>
								</g>
							</g>
						</g>
					</g>
				</g>
			</g>
		</g>
		<g>
			<g>
				<g>
					<g>
						<g>
							<g>
								<path class="st20" d="M1237.5,661.8c0,0,8.8,22.9,0.3,68l-8.5-32.4l-14.3-21.1L1237.5,661.8z"/>
							</g>
						</g>
					</g>
				</g>
			</g>
		</g>
		<g>
			<g>
				<g>
					<g>
						<g>
							<g>
								<g>
									<g>
										<path class="st8" d="M1063.2,657.1c0.1,0,0.2,0.1,0.3,0.1c1.3,0,131,0.5,173.3,5.5c0.9,2.8,5.2,17.4,3,43.6
											c0,0.5,0.3,0.9,0.8,1c0.5,0,0.9-0.3,1-0.8c2.5-29.8-3.1-44.3-3.3-44.9l-0.2-0.5l-0.5-0.1c-41.8-5-172.7-5.6-174-5.6
											c-0.5,0-0.9,0.4-0.9,0.9C1062.7,656.7,1062.9,657,1063.2,657.1z"/>
									</g>
								</g>
							</g>
						</g>
					</g>
				</g>
			</g>
		</g>
		<g>
			<g>
				<g>
					<g>
						<g>
							<path class="st8" d="M1116.1,738.1c53,0,117.8-6.8,121.8-7.3c0.6-0.1,1-0.6,0.9-1.2c-0.1-0.6-0.6-1-1.2-0.9
								c-1.4,0.2-144.9,15.3-180.9,1.2c-35.6-14-38.1-92.4-38.1-93.2c0-0.6-0.5-1.1-1.1-1c-0.6,0-1.1,0.5-1,1.1
								c0.1,3.3,2.5,80.7,39.5,95.1C1067.8,736.5,1090.6,738.1,1116.1,738.1z"/>
						</g>
					</g>
				</g>
			</g>
		</g>
		<g>
			<g>
				<g>
					<g>
						<g>
							<g>
								<g>
									<path class="st8" d="M1085.4,402c0,0-12.6,6.5-6.3,31.9l4.8-2.5l-1.6-13.5L1085.4,402z"/>
								</g>
							</g>
						</g>
					</g>
				</g>
			</g>
			<g>
				<g>
					<g>
						<g>
							<g>
								<g>
									<g>
										<g>
											<g>
												<path class="st16" d="M1129.5,417.8V455c0,0,0.5,12.6-10.4,14.2l2,16.8c0.8,6.2-2.9,12.2-8.9,14.1
													c-2.9,0.9-6.4,1.6-10.3,1.6c-12.5,0-19.3-9.4-20.3-14.2c-1-4.7,2.1-27.3,2.1-27.3l-0.4-11.1l1.4-42.9L1129.5,417.8z"/>
											</g>
										</g>
									</g>
								</g>
							</g>
						</g>
					</g>
				</g>
			</g>
			<g>
				<g>
					<g>
						<g>
							<g>
								<g>
									<g>
										<g>
											<g>
												<path class="st8" d="M1099.3,436.4c-0.1,0-0.3,0-0.4-0.1c-0.2-0.2-0.2-0.5,0-0.7c0.1-0.1,7.2-7.4,13.8-2.1
													c0.2,0.2,0.3,0.5,0.1,0.7c-0.2,0.2-0.5,0.3-0.7,0.1c-5.8-4.7-12.1,1.8-12.4,2.1C1099.6,436.3,1099.4,436.4,1099.3,436.4
													z"/>
											</g>
										</g>
									</g>
								</g>
							</g>
						</g>
					</g>
				</g>
			</g>
			<g>
				<g>
					<g>
						<g>
							<g>
								<g>
									<g>
										<g>
											<g>
												<path class="st8" d="M1120.8,433.2c-0.1,0-0.3-0.1-0.4-0.2c-0.2-0.2-0.2-0.5,0.1-0.7c0.2-0.2,5.2-4.5,8.3-1.7
													c0.2,0.2,0.2,0.5,0.1,0.7c-0.2,0.2-0.5,0.2-0.7,0.1c-2.5-2.1-6.9,1.7-7,1.7C1121,433.2,1120.9,433.2,1120.8,433.2z"/>
											</g>
										</g>
									</g>
								</g>
							</g>
						</g>
					</g>
				</g>
			</g>
			<g>
				<g>
					<g>
						<g>
							<g>
								<g>
									<g>
										<g>
											<g>
												<ellipse cx="1108.3" cy="438.5" rx="1.6" ry="1.6"/>
											</g>
										</g>
									</g>
								</g>
							</g>
						</g>
					</g>
				</g>
			</g>
			<g>
				<g>
					<g>
						<g>
							<g>
								<g>
									<g>
										<g>
											<g>
												<ellipse cx="1124.9" cy="436.9" rx="1.6" ry="1.6"/>
											</g>
										</g>
									</g>
								</g>
							</g>
						</g>
					</g>
				</g>
			</g>
			<g>
				<g>
					<g>
						<g>
							<g>
								<g>
									<g>
										<g>
											<g>
												<ellipse class="st16" cx="1082.2" cy="439" rx="9.4" ry="9.4"/>
											</g>
										</g>
									</g>
								</g>
							</g>
						</g>
					</g>
				</g>
			</g>
			<g>
				<g>
					<g>
						<g>
							<g>
								<g>
									<g>
										<g>
											<g>
												<path class="st25" d="M1081.5,444.8c-1.9,0-3.2-1.5-3.7-2.9c-0.5-1.7,0.1-3.4,1.5-4.3c2.1-1.3,4-0.5,4.9,0.2
													c-0.4-1.1-1-1.9-1.9-2.3c-1.8-1-4.1-0.3-4.2-0.3s-0.3,0-0.3-0.2c0-0.1,0-0.3,0.2-0.3c0.1,0,2.5-0.8,4.6,0.3
													c1.2,0.7,2,1.8,2.4,3.4l0.2,0.9l-0.7-0.7c-0.1-0.1-2.3-2.3-5-0.6c-1.5,0.9-1.6,2.6-1.3,3.7c0.3,1.2,1.4,2.6,3.2,2.6
													c0,0,0,0,0.1,0s0.3,0.1,0.3,0.3C1081.8,444.7,1081.7,444.8,1081.5,444.8C1081.6,444.8,1081.5,444.8,1081.5,444.8z"/>
											</g>
										</g>
									</g>
								</g>
							</g>
						</g>
					</g>
				</g>
			</g>
			<g>
				<g>
					<g>
						<g>
							<g>
								<g>
									<g>
										<g>
											<path class="st8" d="M1131.3,449.1c0,0,3.4,25.2-13.2,26.1c-23.8,1.3-26.1-12.4-27.5-23.6l-0.2-23.1l0.8-6.7l0,0
												c1.7,1.9,2.7,4.3,2.9,6.9c0.5,5.5,1.7,20.4,3.1,21.1C1099,450.7,1127.6,446.6,1131.3,449.1z"/>
										</g>
									</g>
								</g>
							</g>
						</g>
					</g>
				</g>
			</g>
			<g>
				<g>
					<g>
						<g>
							<g>
								<g>
									<g>
										<g>
											<g>
												<path class="st25" d="M1115.3,449.1c-0.1,0-0.2-0.1-0.2-0.2c0-0.1,0-0.3,0.2-0.3l5.2-1.7l-1.6-12.4
													c0-0.1,0.1-0.3,0.2-0.3s0.3,0.1,0.3,0.2l1.7,12.8L1115.3,449.1C1115.4,449.1,1115.4,449.1,1115.3,449.1z"/>
											</g>
										</g>
									</g>
								</g>
							</g>
						</g>
					</g>
				</g>
			</g>
			<g>
				<g>
					<g>
						<g>
							<g>
								<g>
									<g>
										<g>
											<g>
												<path class="st28" d="M1111.3,454.2c0.2,0,10.3-0.3,10.3-0.3s-1.3,4.2-5,4.3C1112.8,458.4,1111.3,454.2,1111.3,454.2z"
													/>
											</g>
										</g>
									</g>
								</g>
							</g>
						</g>
					</g>
				</g>
			</g>
			<g>
				<g>
					<g>
						<g>
							<g>
								<g>
									<path class="st8" d="M1091,422.3l-4.7-4.3l-4.9,11.7c0,0,6,1,6.1,7.3s-3.3,16,7.6,30.1c10.8,14-0.9-21-1-22.2
										C1094.1,443.6,1091,422.3,1091,422.3z"/>
								</g>
							</g>
						</g>
					</g>
				</g>
			</g>
			<g>
				<g>
					<g>
						<g>
							<g>
								<g>
									<path class="st8" d="M1085.4,402c5-5,22.4-7.8,34.9-0.3l0,0c14.1,6.9,9.7,21,9.2,21.4l-0.2-0.1c0.1,0.3,0.1,0.7,0.2,1
										c0,0-0.6-0.9-1.9-2.3l-5.6-4.3c-3.1-1.8-7.3-3.3-12.7-3.6c-5.4-0.4-10.1-0.1-13.9,1.1c-1,3.2-1.8,9.5-0.7,22
										c1.8,19-6.5-4.1-9.5-12.9c-0.6,1.7-1.1,3.5-1.4,5.6C1083.9,429.7,1075.3,412,1085.4,402z"/>
								</g>
							</g>
						</g>
					</g>
				</g>
			</g>
			<g>
				<g>
					<g>
						<g>
							<g>
								<g>
									<path class="st16" d="M1129.5,428.2c0,0,0.4-7.6,0-9.3s-17.4-6.5-26.7-5.2c-9.3,1.3,8.7,11.5,8.9,11.5
										S1129.5,428.2,1129.5,428.2z"/>
								</g>
							</g>
						</g>
					</g>
				</g>
			</g>
			<g>
				<g>
					<g>
						<g>
							<g>
								<g>
									<polygon class="st16" points="1097.2,415.7 1088.2,407.3 1096.7,419.5 									"/>
								</g>
							</g>
						</g>
					</g>
				</g>
			</g>
			<g>
				<g>
					<g>
						<g>
							<g>
								<g>
									<path class="st8" d="M1097.2,399.2c0,0,1.8-18-8.2-14.1s-11.8,12.2-2.7,17.7C1095.4,408.3,1097.2,399.2,1097.2,399.2z"/>
								</g>
							</g>
						</g>
					</g>
				</g>
			</g>
		</g>
		<g>
			<g>
				<g>
					<g>
						<g>
							<path class="st20" d="M1060.1,522.4l17.7-29.7l31.2,9.4l12.6-13.4c0,0,2.7,12.4,2.6,13.4c-0.1,1-14.2,15.7-16.1,15.6
								C1106.4,517.5,1060.1,522.4,1060.1,522.4z"/>
						</g>
					</g>
				</g>
			</g>
		</g>
		<g>
			<g>
				<g>
					<g>
						<g>
							<path class="st8" d="M1062.7,849.8c0.6,0,1-0.4,1.1-1c0-0.6-0.4-1.1-1-1.1c-15-1.1-17-13.8-20.4-34.9
								c-0.6-3.8-1.2-7.7-2-11.9c-5.1-28-7.3-95.8-7.3-96.5c0-0.6-0.5-1-1.1-1l0,0c-0.6,0-1.1,0.5-1,1.1c0,0.7,2.3,68.6,7.3,96.8
								c0.8,4.2,1.4,8.1,2,11.9C1043.7,834.5,1046,848.7,1062.7,849.8C1062.6,849.8,1062.6,849.8,1062.7,849.8z"/>
						</g>
					</g>
				</g>
			</g>
		</g>
		<g>
			<g>
				<g>
					<g>
						<g>
							<path class="st3" d="M1119.8,475.2l1.3,10.5c0,0-7.7,11.6-13,15.3c-10.5-7.3-26.7-17.4-26.7-17.4l0.9-13.3
								c-19.4-2.2-41.5,10-36.5,16.3c5.1,6.3,31.4,8.2,38.3,10.5c6.9,2.3,24.5,7.6,24.5,7.6c4.6-3.4,17-18,17-18l12.6,3.5
								C1138.6,477.4,1119.8,475.2,1119.8,475.2z"/>
						</g>
					</g>
				</g>
			</g>
		</g>
		<g>
			<g>
				<g>
					<g>
						<g>
							<g>
								<path class="st26" d="M1157.6,1175.9h-98.8V1156c0,0,7.2-9.5,18.1-4.7c0,0,16.2,11.7,30.8-2.3l36.6,15.7
									C1144.3,1164.8,1157.6,1169.2,1157.6,1175.9z"/>
							</g>
						</g>
					</g>
				</g>
			</g>
			<g>
				<g>
					<g>
						<g>
							<g>
								<path class="st19" d="M1058.8,1182.9h101.1c1.1,0,2-0.9,2-2v-3c0-1.1-0.9-2-2-2h-101.1V1182.9z"/>
							</g>
						</g>
					</g>
				</g>
			</g>
			<g>
				<g>
					<g>
						<g>
							<g>
								<path class="st18" d="M1118.6,1153.7c-3.3,5.2-10,15.6-14.2,22.2h-6.7c3.8-5.9,11.7-18.3,15.7-24.5L1118.6,1153.7z"/>
							</g>
						</g>
					</g>
				</g>
			</g>
			<g>
				<g>
					<g>
						<g>
							<g>
								<path class="st18" d="M1115.2,1175.9h-6.7c3.1-4.8,9.1-14.2,13.3-20.8l5.3,2.3C1123.5,1162.9,1118.5,1170.7,1115.2,1175.9z"
									/>
							</g>
						</g>
					</g>
				</g>
			</g>
		</g>
		<g>
			<g>
				<g>
					<path d="M1108.7,505.4c0.2,0,0.4-0.1,0.5-0.2l21.9-22.3c0.3-0.3,0.3-0.7,0-1c-0.3-0.3-0.7-0.3-1,0l-21.9,22.3
						c-0.3,0.3-0.3,0.7,0,1C1108.4,505.4,1108.6,505.4,1108.7,505.4z"/>
				</g>
			</g>
		</g>
	</g>
	<g>
		<g>
			<g>
				<g>
					<g>
						<g>
							<path class="st15" d="M1683.1,692.6c0-59.2-48-107.1-107.1-107.1c-59.2,0-107.1,48-107.1,107.1c0,29.3,11.8,55.9,30.9,75.3
								l0,0c0,0,32.4,34.7,43.4,72.4c0,0,18.7,6.4,32.8,6.7c14.1-0.4,32.8-6.7,32.8-6.7c10.9-37.8,43.4-72.4,43.4-72.4l0,0
								C1671.3,748.5,1683.1,721.9,1683.1,692.6z"/>
						</g>
					</g>
				</g>
				<path class="st6" d="M1540.2,831.7v28.6c0,12.9,8,24,19.2,28.5c1.1,8.1,8.1,14.3,16.5,14.3s15.3-6.2,16.5-14.3
					c11.3-4.6,19.2-15.6,19.2-28.5v-28.6H1540.2z"/>
				<g class="st36">
					<g>
						<path class="st15" d="M1683.1,692.6c0-21.9-6.6-42.3-17.9-59.3c-31.3,77.2-81.3,129.1-153.3,149.2
							c9.1,11.9,21.1,29.8,28.3,49.2h71.4l0,0c12.8-34.3,40.5-63.9,40.5-63.9l0,0C1671.3,748.5,1683.1,721.9,1683.1,692.6z"/>
					</g>
				</g>
			</g>
			<g>
				<g>
					<g>
						<path class="st13" d="M1593.5,832.2l-3.1-0.8c0.1-0.4,10.1-37.1,17-74.7c12-65.3,5.1-79.1-0.1-81.6c-5.3-2.5-9.5-2-12.4,1.3
							c-0.2,0.2-0.4,0.5-0.6,0.8c7.5,4.4,9.3,11.2,9.7,13.9c1.2,7.6-2.2,15.1-7.6,16.9c-1.3,0.4-3.8,0.6-5.9-2.6
							c-3.4-5.2-4.5-18.1-0.7-26.8c-3.7-1.5-8.2-2.3-13.3-2.3h-3.1c-5.1,0-9.6,0.8-13.3,2.3c3.8,8.6,2.8,21.6-0.7,26.8
							c-2.2,3.3-4.6,3.1-5.9,2.6c-5.4-1.7-8.7-9.3-7.6-16.9c0.4-2.7,2.2-9.5,9.7-13.9c-0.2-0.3-0.4-0.5-0.6-0.8
							c-2.9-3.4-7.1-3.8-12.4-1.3c-5.2,2.4-12.1,16.3-0.1,81.6c6.9,37.6,16.9,74.3,17,74.7l-3.1,0.8c-0.1-0.4-10.1-37.2-17.1-75
							c-9.6-52.1-9-79.9,1.9-85c8.4-4,13.4-1,16.2,2.1c0.4,0.4,0.7,0.9,1.1,1.4c3.7-1.6,8.6-2.6,14.9-2.6h3.1c6.3,0,11.1,1,14.9,2.6
							c0.3-0.5,0.7-1,1.1-1.4c2.7-3.2,7.7-6.1,16.2-2.1c10.8,5.1,11.4,32.9,1.9,85C1603.6,794.9,1593.6,831.8,1593.5,832.2z
							 M1557.3,680c-4.5,2.6-7.4,6.6-8.2,11.6c-1,6.6,1.9,12.2,5.4,13.3c0.3,0.1,1.2,0.4,2.3-1.4
							C1559.8,699.1,1560.6,687.4,1557.3,680z M1592.7,680c-3.3,7.5-2.5,19.2,0.5,23.6c1.2,1.7,2,1.5,2.3,1.4
							c3.4-1.1,6.4-6.7,5.4-13.3C1600.1,686.6,1597.2,682.6,1592.7,680z"/>
					</g>
				</g>
			</g>
			<g>
				<g>
					<g>
						<path class="st8" d="M1539.7,832.5c-0.9-2.4-1.2-3.3-2.1-5.3l-0.5-1.1c-13.4-31.2-37.7-57.5-38-57.7l-0.1-0.1
							c-20-20.3-31-47.2-31-75.7c0-59.5,48.4-107.9,107.9-107.9c36.5,0,70.3,18.3,90.3,48.9l-1.3,0.9c-19.7-30.2-53-48.2-89-48.2
							c-58.6,0-106.3,47.7-106.3,106.3c0,28.1,10.9,54.7,30.7,74.7l1,1h-0.1c4.7,5.2,25.4,29.2,37.3,57.2l0.5,1.1
							c0.9,2,1.3,2.9,2.1,5.4L1539.7,832.5z"/>
					</g>
				</g>
			</g>
			<g>
				<g>
					<g>
						<path class="st8" d="M1501.2,643.1l-1.5-0.4c0.1-0.3,8-26.6,34.6-36.5l0.6,1.5C1508.9,617.2,1501.2,642.9,1501.2,643.1z"/>
					</g>
				</g>
			</g>
			<g>
				<g>
					<g>
						<path class="st8" d="M1506.1,652.6l-1.5-0.4c0.1-0.3,8-26.6,34.6-36.5l0.6,1.5C1513.9,626.8,1506.1,652.4,1506.1,652.6z"/>
					</g>
				</g>
			</g>
			<g>
				<g>
					<g>
						<path class="st8" d="M1579.8,891.9h-7.8c-18,0-32.6-14.6-32.6-32.6v-28.4h72.2v1.6H1541v26.8c0,17.1,13.9,31,31,31h7.8
							c8.2,0,15.9-3.2,21.8-8.9l1.1,1.1C1596.6,888.6,1588.4,891.9,1579.8,891.9z"/>
					</g>
				</g>
			</g>
			<g>
				<g>
					<g>
						<path class="st8" d="M1576.4,904c-15.5,0-17.7-15-17.7-15.2l1.6-0.2c0.1,0.6,2.1,14.1,16.7,13.8v1.6
							C1576.8,904,1576.6,904,1576.4,904z"/>
					</g>
				</g>
			</g>
			<g>
				<g>
					<g>
						<path class="st8" d="M1649.4,752.5l-0.9-1.3c14.1-10.5,16.4-28,16.4-28.2l1.6,0.2C1666.4,723.4,1664.1,741.6,1649.4,752.5z"/>
					</g>
				</g>
			</g>
			<g>
				<g>
					<g>
						<path class="st8" d="M1646.3,744.9l-0.9-1.3c10.3-7.6,11.9-20.4,11.9-20.5l1.6,0.2C1658.8,723.8,1657.1,736.8,1646.3,744.9z"
							/>
					</g>
				</g>
			</g>
			<g>
				<g>
					<g>
						<path class="st8" d="M1536.9,846v-1.6c0.6,0,60.8-0.8,79.9-7.9l0.6,1.5C1598,845.2,1539.4,846,1536.9,846z"/>
					</g>
				</g>
			</g>
			<g>
				<g>
					<g>
						<path class="st8" d="M1537,859.4v-1.6c0.7,0,66-1.3,78.2-7.8l0.8,1.4C1603.3,858.1,1539.7,859.4,1537,859.4z"/>
					</g>
				</g>
			</g>
			<g>
				<g>
					<g>
						<path class="st8" d="M1540.2,873.2v-1.6c0.6,0,59.2-0.6,74.9-8.7l0.7,1.4C1599.8,872.6,1542.7,873.2,1540.2,873.2z"/>
					</g>
				</g>
			</g>
		</g>
		<g>
			<g>
				<g>
					<g>
						<path class="st15" d="M1441.5,675.7c-0.1,0-0.1,0-0.2,0l-37.9-3.2c-1.3-0.1-2.3-1.3-2.2-2.6c0.1-1.3,1.3-2.3,2.6-2.2l37.9,3.2
							c1.3,0.1,2.3,1.3,2.2,2.6S1442.8,675.7,1441.5,675.7z"/>
					</g>
				</g>
			</g>
		</g>
		<g>
			<g>
				<g>
					<g>
						<path class="st15" d="M1461.1,615.3c-0.5,0-0.9-0.1-1.3-0.4l-31.4-21.5c-1.1-0.7-1.4-2.2-0.6-3.3c0.7-1.1,2.2-1.4,3.3-0.6
							l31.4,21.5c1.1,0.7,1.4,2.2,0.6,3.3C1462.7,615,1461.9,615.3,1461.1,615.3z"/>
					</g>
				</g>
			</g>
		</g>
		<g>
			<g>
				<g>
					<g>
						<path class="st15" d="M1517.9,572c-0.9,0-1.8-0.6-2.2-1.5l-14.3-35.2c-0.5-1.2,0.1-2.6,1.3-3.1c1.2-0.5,2.6,0.1,3.1,1.3
							l14.3,35.2c0.5,1.2-0.1,2.6-1.3,3.1C1518.5,571.9,1518.2,572,1517.9,572z"/>
					</g>
				</g>
			</g>
		</g>
		<g>
			<g>
				<g>
					<g>
						<path class="st15" d="M1708.5,682.6c-1.2,0-2.3-1-2.4-2.2c-0.1-1.3,0.9-2.4,2.2-2.5l38-2.5c1.3-0.1,2.4,0.9,2.5,2.2
							c0.1,1.3-0.9,2.4-2.2,2.5L1708.5,682.6L1708.5,682.6z"/>
					</g>
				</g>
			</g>
		</g>
		<g>
			<g>
				<g>
					<g>
						<path class="st15" d="M1690,621.8c-0.8,0-1.5-0.4-2-1.1c-0.7-1.1-0.4-2.6,0.7-3.3l31.8-20.9c1.1-0.7,2.6-0.4,3.3,0.7
							c0.7,1.1,0.4,2.6-0.7,3.3l-31.8,20.9C1690.9,621.7,1690.5,621.8,1690,621.8z"/>
					</g>
				</g>
			</g>
		</g>
		<g>
			<g>
				<g>
					<g>
						<path class="st15" d="M1641.4,571.9c-0.3,0-0.6-0.1-0.9-0.2c-1.2-0.5-1.8-1.9-1.3-3.1l15-35c0.5-1.2,1.9-1.8,3.1-1.3
							c1.2,0.5,1.8,1.9,1.3,3.1l-15,35C1643.2,571.3,1642.4,571.9,1641.4,571.9z"/>
					</g>
				</g>
			</g>
		</g>
		<g>
			<g>
				<g>
					<g>
						<path class="st15" d="M1580.3,553.4L1580.3,553.4c-1.4,0-2.4-1.1-2.4-2.4l0.6-38c0-1.3,1.1-2.3,2.4-2.3l0,0
							c1.3,0,2.4,1.1,2.3,2.4l-0.6,38C1582.7,552.3,1581.6,553.4,1580.3,553.4z"/>
					</g>
				</g>
			</g>
		</g>
		<g class="st37">
			<g>
				<g>
					
						<ellipse transform="matrix(0.5417 -0.8406 0.8406 0.5417 218.3002 1653.8541)" class="st14" cx="1625.8" cy="626.7" rx="12.5" ry="26.2"/>
				</g>
			</g>
		</g>
	</g>
	<g>
		<g>
			<g>
				<g>
					<g>
						<path class="st5" d="M1614.7-105.6h181.7c4.5,0,8.2-3.7,8.2-8.2v-105.7c0-4.5-3.7-8.2-8.2-8.2h-181.7c-4.5,0-8.2,3.7-8.2,8.2
							v105.8C1606.5-109.2,1610.2-105.6,1614.7-105.6z"/>
					</g>
				</g>
			</g>
		</g>
		<g>
			<g>
				<g>
					<g>
						<g>
							<path class="st38" d="M1625.1-205.4h165.1c1.1,0,2.1-0.9,2.1-2.1s-0.9-2.1-2.1-2.1h-165.1c-1.1,0-2.1,0.9-2.1,2.1
								S1624-205.4,1625.1-205.4z"/>
						</g>
					</g>
				</g>
			</g>
		</g>
		<g>
			<g>
				<g>
					<g>
						<g>
							<path class="st38" d="M1625.1-181.9h165.1c1.1,0,2.1-0.9,2.1-2.1c0-1.1-0.9-2.1-2.1-2.1h-165.1c-1.1,0-2.1,0.9-2.1,2.1
								C1623.1-182.9,1624-181.9,1625.1-181.9z"/>
						</g>
					</g>
				</g>
			</g>
		</g>
		<g>
			<g>
				<g>
					<g>
						<g>
							<path class="st38" d="M1683-158.4h107.3c1.1,0,2.1-0.9,2.1-2.1c0-1.1-0.9-2.1-2.1-2.1H1683c-1.1,0-2.1,0.9-2.1,2.1
								C1680.9-159.4,1681.8-158.4,1683-158.4z"/>
						</g>
					</g>
				</g>
			</g>
		</g>
		<g>
			<g>
				<g>
					<g>
						<g>
							<path class="st38" d="M1623.9-158.4h42.8c1.1,0,2.1-0.9,2.1-2.1c0-1.1-0.9-2.1-2.1-2.1h-42.8c-1.1,0-2.1,0.9-2.1,2.1
								C1621.8-159.4,1622.8-158.4,1623.9-158.4z"/>
						</g>
					</g>
				</g>
			</g>
		</g>
		<g>
			<g>
				<g>
					<g>
						<g>
							<path class="st38" d="M1722.8-134.9h67.4c1.1,0,2.1-0.9,2.1-2.1s-0.9-2.1-2.1-2.1h-67.4c-1.1,0-2.1,0.9-2.1,2.1
								S1721.7-134.9,1722.8-134.9z"/>
						</g>
					</g>
				</g>
			</g>
		</g>
		<g>
			<g>
				<g>
					<g>
						<g>
							<path class="st38" d="M1623.9-134.9h83.8c1.1,0,2.1-0.9,2.1-2.1s-0.9-2.1-2.1-2.1h-83.8c-1.1,0-2.1,0.9-2.1,2.1
								S1622.8-134.9,1623.9-134.9z"/>
						</g>
					</g>
				</g>
			</g>
		</g>
		<g>
			<g>
				<g>
					<g>
						<path class="st5" d="M1667.1-111c-0.2,0.8-32.1,42.3-32.3,41.1c-0.2-1.2,3.7-44.6,3.7-44.6L1667.1-111z"/>
					</g>
				</g>
			</g>
		</g>
	</g>
	<g>
		<rect x="1271.9" y="1134.1" class="st8" width="318.7" height="2.5"/>
	</g>
	<g class="st36">
		<g>
			<g>
				<path class="st6" d="M1323,983.7c9.1,6.3,19,10.9,29.3,13.9l3.5,26.3l18.2,0.9l18.2,0.9l6.1-25.9c10.6-1.9,20.9-5.6,30.5-10.9
					l21.1,16.1l13.5-12.2l13.5-12.2l-14-22.6c6.3-9.1,10.9-19,13.9-29.3l26.3-3.5l0.9-18.2l0.9-18.2l-25.9-6.1
					c-1.9-10.6-5.6-20.9-10.9-30.5l16.1-21.1l-12.2-13.5l-12.2-13.5l-22.6,14c-9.1-6.3-19-10.9-29.3-13.9l-3.5-26.3l-18.2-0.9
					l-18.2-0.9l-6.1,25.9c-10.6,1.9-20.9,5.6-30.5,10.9l-21.1-16.1l-13.5,12.2l-13.5,12.2l14,22.6c-6.3,9.1-10.9,19-13.9,29.3
					l-26.3,3.5l-0.9,18.2l-0.9,18.2l25.9,6.1c1.9,10.6,5.6,20.9,10.9,30.5l-16.1,21.1l12.2,13.5l12.2,13.5L1323,983.7z
					 M1334.2,850.4c27.9-25.3,71-23.2,96.3,4.7c25.3,27.9,23.2,71-4.7,96.3s-71,23.2-96.3-4.7
					C1304.2,918.8,1306.3,875.7,1334.2,850.4z"/>
			</g>
		</g>
	</g>
</g>
</svg>
