<?xml version="1.0" encoding="utf-8"?>
<!-- Generator: Adobe Illustrator 19.0.0, SVG Export Plug-In . SVG Version: 6.00 Build 0)  -->
<svg version="1.1" id="Слой_1" xmlns="http://www.w3.org/2000/svg" xmlns:xlink="http://www.w3.org/1999/xlink" x="0px" y="0px"
	 viewBox="0 0 2666.6 1042.1" style="enable-background:new 0 0 2666.6 1042.1;" xml:space="preserve">
<style type="text/css">
	.st0{fill:#BBD070;}
	.st1{fill:#97A43C;}
	.st2{fill:#48753A;}
	.st3{fill:url(#SVGID_1_);}
	.st4{fill:url(#SVGID_2_);}
	.st5{fill:#FF9F55;}
	.st6{fill:#EFF7FE;}
	.st7{fill:url(#SVGID_3_);}
	.st8{fill:#5284FC;}
	.st9{fill:url(#SVGID_4_);}
	.st10{fill:url(#SVGID_5_);}
	.st11{fill:#F08533;}
	.st12{fill:#FAE6DE;}
	.st13{fill:url(#SVGID_6_);}
	.st14{fill:#495DA1;}
	.st15{fill:#DECCC5;}
	.st16{fill:#EEA886;}
	.st17{fill:#FFFFFF;}
	.st18{fill:#E8E8E8;}
	.st19{fill:#C1DBD1;}
	.st20{fill:#152B3D;}
	.st21{fill:#323657;}
	.st22{fill:#254380;}
	.st23{fill:#353A3D;}
	.st24{fill:#E55353;}
	.st25{fill:#FFBB55;}
	.st26{fill:#4373CF;}
	.st27{fill:#213A70;}
	.st28{fill:#FFCA55;}
	.st29{fill:#3A3F47;}
	.st30{fill:#A77860;}
	.st31{fill:#C9A043;}
	.st32{fill:#444C94;}
	.st33{fill:#303669;}
	.st34{fill:#518AFA;}
	.st35{fill:#DE9673;}
	.st36{fill:#2F4563;}
	.st37{fill:#1E2D40;}
	.st38{fill:#EEA987;}
	.st39{fill:#23344A;}
	.st40{fill:#464240;}
	.st41{fill:#6E6760;}
	.st42{fill:#292929;}
	.st43{fill:#434975;}
	.st44{fill:#FFC955;}
	.st45{fill:#1D3B54;}
	.st46{fill:#CFA345;}
	.st47{fill:#DAEEF7;}
	.st48{fill:#E03268;}
	.st49{fill:#FFC0BB;}
	.st50{opacity:0.6;fill:#FC8D84;enable-background:new    ;}
	.st51{fill:#07085B;}
	.st52{fill:#06BFAD;}
	.st53{fill:#050645;}
	.st54{fill:#55769F;}
	.st55{fill:#F99893;}
	.st56{fill:#333333;}
	.st57{fill:#FEB546;}
	.st58{fill:#F4A640;}
	.st59{fill:#6F747A;}
	.st60{fill:#CDD6E0;}
	.st61{fill:#D9D9D9;}
</style>
<g>
	<g>
		<g>
			<g>
				<g>
					<g>
						<g>
							<path class="st0" d="M2368.3,425.9c0,0-278.8-119.8-386.5,42.6c-107.7,162.4,43.2,152.3,43.2,152.3s8.4,75.1,150.8-102.6
								C2242.9,434.4,2368.3,425.9,2368.3,425.9z"/>
						</g>
					</g>
				</g>
				<g>
					<g>
						<g>
							<path class="st1" d="M2259.9,109.5c0,0-187.7-58.2-311.2,179.8c-123.5,238-234.6,256.8-234.6,256.8
								S2138.5,622.4,2259.9,109.5z"/>
						</g>
					</g>
				</g>
				<g>
					<g>
						<g>
							<path class="st2" d="M1792.1,559.9c16.4,79.1,197.6-73.5,215.4-210.3c17.8-136.8-17.7-237.2,18.3-325
								C2025.8,24.6,1711.2,170.3,1792.1,559.9z"/>
						</g>
					</g>
				</g>
			</g>
		</g>
		<linearGradient id="SVGID_1_" gradientUnits="userSpaceOnUse" x1="627.1075" y1="542.3725" x2="2666.5684" y2="542.3725">
			<stop  offset="0" style="stop-color:#40D5E6"/>
			<stop  offset="1" style="stop-color:#5577FF"/>
		</linearGradient>
		<path class="st3" d="M2260.3,400.7c-68.6,0-133.2,17-189.9,47.1c-110.6-150.6-288.9-248.4-490.1-248.4
			c-240.2,0-447.8,139.4-546.5,341.6c-35.6-15.6-75-24.3-116.3-24.3c-160.4,0-290.4,130-290.4,290.3c0,27.2,3.7,53.5,10.7,78.4
			h339.8h219.5h664.5h321.3h476c5-25.4,7.6-51.6,7.6-78.4C2666.6,582.6,2484.7,400.7,2260.3,400.7z"/>
		<g>
			<linearGradient id="SVGID_2_" gradientUnits="userSpaceOnUse" x1="275.7784" y1="983.9264" x2="275.7784" y2="831.2574">
				<stop  offset="0" style="stop-color:#FF9F55"/>
				<stop  offset="1" style="stop-color:#FFD255"/>
			</linearGradient>
			<path class="st4" d="M515.6,996.6H75.2c-21.7,0-39.3-17.6-39.3-39.3v-63.8c0-21.7,17.6-39.3,39.3-39.3h440.4V996.6z"/>
			<path class="st5" d="M562.1,868.9v113h9.4v14.7H325.3c-21.7,0-39.3-17.6-39.3-39.3v-63.8c0-21.7,17.6-39.3,39.3-39.3h246.3v14.7
				H562.1z"/>
			<path class="st6" d="M562.1,981.9h-208c-21.7,0-39.3-17.6-39.3-39.3v-34.5c0-21.7,17.6-39.3,39.3-39.3h208V981.9z"/>
			<linearGradient id="SVGID_3_" gradientUnits="userSpaceOnUse" x1="247.3907" y1="639.6974" x2="247.3907" y2="851.0383">
				<stop  offset="0" style="stop-color:#40D5E6"/>
				<stop  offset="1" style="stop-color:#5577FF"/>
			</linearGradient>
			<path class="st7" d="M494.8,854.2H49.4C22.1,854.2,0,832.1,0,804.8V738c0-27.3,22.1-49.4,49.4-49.4h445.4V854.2z"/>
			<path class="st8" d="M599.3,705.7v131.5h8.1v17H430.9c-27.3,0-49.4-22.1-49.4-49.4V738c0-27.3,22.1-49.4,49.4-49.4h176.6v17
				H599.3z"/>
			<path class="st6" d="M599.3,837.2H455.7c-27.3,0-49.4-22.1-49.4-49.4v-32.7c0-27.3,22.1-49.4,49.4-49.4h143.6V837.2z"/>
		</g>
		<g>
			
				<linearGradient id="SVGID_4_" gradientUnits="userSpaceOnUse" x1="-9741.8096" y1="712.655" x2="-10044.6299" y2="712.655" gradientTransform="matrix(-1 0 0 1 -7746.4839 0)">
				<stop  offset="0" style="stop-color:#FF9F55"/>
				<stop  offset="1" style="stop-color:#FFD255"/>
			</linearGradient>
			<path class="st9" d="M1890.5,788.8h429.7c15.5,0,28.1-12.6,28.1-28.1v-96.1c0-15.5-12.6-28.1-28.1-28.1h-429.7V788.8z"/>
			
				<linearGradient id="SVGID_5_" gradientUnits="userSpaceOnUse" x1="-9599.5576" y1="964.8391" x2="-9899.4443" y2="964.8391" gradientTransform="matrix(-1 0 0 1 -7746.4839 0)">
				<stop  offset="0" style="stop-color:#FF9F55"/>
				<stop  offset="1" style="stop-color:#FFD255"/>
			</linearGradient>
			<path class="st10" d="M1754.9,1016.9h523.7c11.1,0,20.2-9,20.2-20.2v-63.9c0-11.1-9-20.2-20.2-20.2h-523.7V1016.9z"/>
			<path class="st11" d="M1699.1,924.1v81.4h-13.8v11.4H1931c7.7,0,13.9-6.2,13.9-13.9v-76.3c0-7.7-6.3-13.9-13.9-13.9h-245.7v11.4
				H1699.1z"/>
			<path class="st12" d="M1699.1,1005.6h219.9c7.4,0,13.4-6,13.4-13.4v-54.6c0-7.4-6-13.4-13.4-13.4h-219.9V1005.6z"/>
			<path class="st11" d="M1817.2,652.2v120.9h-7.5v15.7h311.4c16,0,29-13,29-29v-94.2c0-16-13-29-29-29h-311.4v15.7H1817.2z"/>
			<path class="st12" d="M1817.2,773.1h287.9c16,0,29-13,29-29v-62.9c0-16-13-29-29-29h-287.9V773.1z"/>
			<linearGradient id="SVGID_6_" gradientUnits="userSpaceOnUse" x1="2212.1689" y1="807.008" x2="2212.1689" y2="930.0776">
				<stop  offset="0" style="stop-color:#609FF0"/>
				<stop  offset="1" style="stop-color:#5A3F9E"/>
			</linearGradient>
			<path class="st13" d="M1983.3,912.7h421.9c19.8,0,35.9-16.1,35.9-35.9v-52.2c0-19.8-16.1-35.9-35.9-35.9h-421.9V912.7z"/>
			<path class="st14" d="M1910,801.6V900h-7.5v12.8H2207c19.8,0,35.9-16.1,35.9-35.9v-52.2c0-19.8-16.1-35.9-35.9-35.9h-304.5v12.8
				H1910z"/>
			<path class="st12" d="M1910,900h282.1c19.8,0,35.9-16.1,35.9-35.9v-26.7c0-19.8-16.1-35.9-35.9-35.9H1910V900z"/>
			<rect x="1959.8" y="832.9" class="st15" width="120.8" height="3.1"/>
			<rect x="2008.2" y="842.4" class="st15" width="129" height="3.1"/>
			<rect x="1728.2" y="945.2" class="st15" width="120.8" height="3.1"/>
			<rect x="1776.6" y="954.6" class="st15" width="129" height="3.1"/>
			<rect x="1865.2" y="963.3" class="st15" width="53.4" height="3.1"/>
			<rect x="1958.5" y="734" class="st15" width="129" height="3.1"/>
			<rect x="1947.8" y="742.6" class="st15" width="53.4" height="3.1"/>
			<path class="st16" d="M1967,754.5c0-1.6,1.7-3.9,4.3-1.9c2.6,2.1-0.6,9.5-2.7,8.9C1966.4,760.8,1967,756.1,1967,754.5z"/>
		</g>
		<path class="st17" d="M1628.8,853.6H773.4c-31.5,0-57.1-25.6-57.1-57.1v-557c0-31.5,25.6-57.1,57.1-57.1h855.4
			c31.5,0,57.1,25.6,57.1,57.1v557C1685.9,828,1660.3,853.6,1628.8,853.6z"/>
		<rect x="1197.1" y="174.9" class="st18" width="7.9" height="686.5"/>
		<g>
			<rect x="781.7" y="253.1" class="st19" width="356.3" height="13.5"/>
			<rect x="781.7" y="302.5" class="st19" width="356.3" height="13.5"/>
			<rect x="781.7" y="351.9" class="st19" width="356.3" height="13.5"/>
			<rect x="781.7" y="401.2" class="st19" width="356.3" height="13.5"/>
			<rect x="781.7" y="450.6" class="st19" width="356.3" height="13.5"/>
			<rect x="781.7" y="500" class="st19" width="356.3" height="13.5"/>
			<rect x="781.7" y="549.3" class="st19" width="356.3" height="13.5"/>
			<rect x="781.7" y="598.7" class="st19" width="356.3" height="13.5"/>
			<rect x="781.7" y="648" class="st19" width="356.3" height="13.5"/>
			<rect x="781.7" y="697.4" class="st19" width="356.3" height="13.5"/>
			<rect x="781.7" y="746.8" class="st19" width="356.3" height="13.5"/>
		</g>
		<g>
			<rect x="1262.1" y="253.1" class="st19" width="356.3" height="13.5"/>
			<rect x="1262.1" y="302.5" class="st19" width="356.3" height="13.5"/>
			<rect x="1262.1" y="351.9" class="st19" width="356.3" height="13.5"/>
			<rect x="1262.1" y="401.2" class="st19" width="356.3" height="13.5"/>
			<rect x="1262.1" y="450.6" class="st19" width="356.3" height="13.5"/>
			<rect x="1262.1" y="500" class="st19" width="356.3" height="13.5"/>
			<rect x="1262.1" y="549.3" class="st19" width="356.3" height="13.5"/>
			<rect x="1262.1" y="598.7" class="st19" width="356.3" height="13.5"/>
			<rect x="1262.1" y="648" class="st19" width="356.3" height="13.5"/>
			<rect x="1262.1" y="697.4" class="st19" width="356.3" height="13.5"/>
			<rect x="1262.1" y="746.8" class="st19" width="356.3" height="13.5"/>
		</g>
		<g>
			<g>
				<g>
					<path class="st16" d="M923,370.4c0,0,5.4-9.5-3.2-34.9c-8.3-24.6-37.1-22.3-46.2-6.6c-9.1,15.7-6,25.5,7.4,43.3
						C894.5,390,917.5,378.6,923,370.4z"/>
				</g>
			</g>
			<g>
				<g>
					<path class="st16" d="M856.3,807.3c0,0-1.4,10.4-1.6,12c-0.2,1.6-15.8-0.9-15.8-0.9l-1.3-12.4
						C837.6,806,854.3,805.9,856.3,807.3z"/>
				</g>
			</g>
			<g>
				<g>
					<path class="st20" d="M854.8,818c0,0,5,6.3,9.8,9c4.8,2.7,12.3,3.8,15.2,6.7c2,2,7.5,10.9-12.5,10.7
						c-19.9-0.2-29.5,1.2-31.6-2.1c-2.1-3.4,3.1-24.9,3.1-24.9S843.6,818.7,854.8,818z"/>
				</g>
			</g>
			<g>
				<g>
					<path class="st16" d="M964.6,807.3c0,0-1.4,10.4-1.6,12c-0.2,1.6-15.8-0.9-15.8-0.9l-1.3-12.4
						C945.9,806,962.7,805.9,964.6,807.3z"/>
				</g>
			</g>
			<g>
				<g>
					<path class="st20" d="M963.2,818c0,0,5,6.3,9.8,9c4.8,2.7,22.4,5,25.3,7.8c2,2,5.5,10.3-22.6,9.5c-19.9-0.5-29.5,1.2-31.6-2.1
						c-2.1-3.4,3.1-24.9,3.1-24.9S953.3,818.4,963.2,818z"/>
				</g>
			</g>
			<g>
				<g>
					<path class="st21" d="M861.5,547.7c0,0-8,24.9-7,46.4c1.1,21.5-4.1,45-6.3,67.4c-2.4,25-12.1,84.3-12.4,97.6
						c-0.4,13.4,1.5,56.1,1.5,56.1l19.4,0.5c0,0,16.3-103.6,20.5-114.1c4.2-10.6,25.2-85.9,25.9-94.3
						C903.9,598.8,861.5,547.7,861.5,547.7z"/>
				</g>
			</g>
			<g>
				<g>
					<path class="st21" d="M942.1,545.1c0,0,11.8,65.9,13.2,79.1c1.4,13.1,2.3,63.6,3.1,71.9c0.7,8.2,4.7,107.5,8.5,119.8h-21.7
						c0,0-22.2-72.2-22.2-106.4c0-34.2-14.7-74.3-24.2-96.8c-9.5-22.5-31.3-23.1-37.1-64.9C861.5,547.7,934.2,531.8,942.1,545.1z"/>
				</g>
			</g>
			<g>
				<g>
					<path class="st16" d="M915.2,377.2c0,0-2.4,7.1,0,12.2c2.4,5.1-31.2,2-31.2,2s1.5-10.5-2.9-19.1
						C876.7,363.6,915.2,377.2,915.2,377.2z"/>
				</g>
			</g>
			<g>
				<g>
					<path class="st21" d="M860,553.1c0,0,12.1,12.4,83.2-1.9l-1.1-6.1l-80.8,3L860,553.1z"/>
				</g>
			</g>
			<g>
				<g>
					<path class="st16" d="M920.3,391c0,0,12.4,1.3,16,1.9c3.6,0.7,27.5-4.3,32.4-4.8c4.9-0.5,25.8-14.8,26.5-16.5
						c0.7-1.7,12.7-32.2,13.4-38.8c0.7-6.6,11.7-3.2,10.8,1.4c-1.8,8.5-4.1,29.2-5.3,35.1c-1.3,6.5-5,21.1-7,22.9
						c-2,1.8-20.9,16.1-39.3,22.2c-18.4,6.1-32.3,15.1-32.3,15.1h-90.9c0,0-35.4-50.5-36.1-58.1c-0.8-7.6,24.7-58.2,29.8-64.6
						c5.1-6.3,12.4,2.1,12.4,2.1s-15.2,44.6-17.2,51c-2,6.3,17.7,34.2,23.1,34.3c5.4,0.1,19.3-1.7,25.5-1.9c6.2-0.3,12.7-3,12.7-3
						L920.3,391z"/>
				</g>
			</g>
			<g>
				<g>
					<path class="st22" d="M959.5,424.7c0,0-11.1,7.4-12.1,20.1c-1,12.7-5.1,32.7-7.1,39.6c-2,6.9,1.8,56.6,2.3,60.1
						c0.5,3.6-70.3,12-81.2,3.6c0,0-3-46.4-4.3-59.6c-1.3-13.2-7.4-45.2-9.4-49.5c-2-4.3-26.6-38.8-27.7-43.4
						c0,0,12.7-20.3,21.9-20.6c0,0,14.5,17,19.2,17.8c4.7,0.8,33.7-4.6,33.7-4.6c0,0,3.2,4.3,20-0.8c0,0,20,2.3,23.3,2.7
						c3.9,0.5,31.4-3.4,31.4-3.4s11,18.6,9.1,28L959.5,424.7z"/>
				</g>
			</g>
			<g>
				<g>
					<path class="st16" d="M1007.9,336.8c0,0,2.5-11.8-0.5-15.1c-1.7-1.9-5.8-7-6.2-7.8c-0.4-0.7-4.8-3.3-4.8-4.5
						c0-1.2,4.3-2.7,8,0.7c3.7,3.5,6.1,4.2,7.6,3.8c1.5-0.4,3.6-12.8,3.8-15.9c0.2-3.1,1.4-11.2,3.3-10.7c1.9,0.6,1.8,4.1,1.8,4.1
						s2.2-6.2,3.7-5c1.5,1.2,1.3,4.2,1.3,4.2s2.8-3.5,3.6-0.9c0.7,2.5,0,4.8,0,4.8s2.9-1.6,3.1,2.3c0.2,3.9-0.8,15.4-2.9,19.5
						c-2.1,4.1-9.8,14.9-10.7,19.1C1018.3,339.8,1007.9,336.8,1007.9,336.8z"/>
				</g>
			</g>
			<g>
				<g>
					<path class="st16" d="M848.1,316.1c0,0,8.5-14.2,11.3-15.5c2.9-1.3,6.9-2,10.5-4.5c3.6-2.5,8.2-4.7,8-5.5
						c-0.3-0.8-4.4-0.5-8.9,1.4c-4.5,1.9-6.5,1-6.9,0c-0.4-1,2.4-8.2,3.7-9.9c1.4-1.7,11-11.4,9.4-12.8c-1.6-1.4-7.9,3.9-8.9,5
						c0,0,5-10.5,3-11c-1.9-0.5-5.6,3.2-5.6,3.2s0.4-9-9.2,5.6c0,0,2-4.8-0.9-3.2c-3,1.6-5.8,10.7-6.8,15.2
						c-0.9,4.6-5.2,19.1-8.8,22.6S848.1,316.1,848.1,316.1z"/>
				</g>
			</g>
			<g>
				<g>
					<path class="st23" d="M881.1,372.3c0,0,4.5,0.4,13.9-2.9c9.5-3.3,10.2-19.8,12.2-17.9c4.2,4,8.1,1.2,9.7-1.1c0,0-4.6-6.1-2.5-9
						c2.1-2.9,5.6-5.1,5.6-5.1s-6.7-32.1-37-17.5C847.6,335.9,881.1,372.3,881.1,372.3z"/>
				</g>
			</g>
			<g>
				<g>
					<path class="st22" d="M915.2,389.3l-1.1-4.6c0,0-19.4-0.4-29.9,1.1l-1.1,5.5C883.1,391.4,896.6,397.5,915.2,389.3z"/>
				</g>
			</g>
			<g>
				<g>
					<path class="st16" d="M910.4,347.4c-1.8-2.9-8.3-4.9-9,3.4c-0.6,6.4,11.6,13.4,11.7,7.4C913.2,352.3,911.6,349.4,910.4,347.4z"
						/>
				</g>
			</g>
			<g>
				<g>
					<path class="st24" d="M1008.4,334.1c0,0,7,0.2,10.4,3.2c0,0,0.2,1.9-0.6,3.5c0,0-6.1-2.8-10.7-3.4
						C1007.5,337.5,1007.6,334.9,1008.4,334.1z"/>
				</g>
			</g>
			<g>
				<g>
					<circle class="st23" cx="1013.8" cy="337" r="3"/>
				</g>
			</g>
			<g>
				<polygon class="st25" points="817.9,847.4 1007.7,847.4 947.9,1031 953.5,1032.8 1015.8,841.5 813.7,841.5 752,1031 
					757.6,1032.8 				"/>
			</g>
			<g>
				<polygon class="st25" points="882.5,1031 822.7,847.4 1012.4,847.4 1072.8,1032.8 1078.4,1031 1016.7,841.5 814.6,841.5 
					876.9,1032.8 				"/>
			</g>
			<g>
				<rect x="800.3" y="899.3" class="st25" width="232.2" height="5.9"/>
			</g>
			<g>
				<rect x="776.4" y="963.1" class="st25" width="277.8" height="5.9"/>
			</g>
		</g>
		<g>
			<g>
				<path class="st26" d="M1618,755.7c-0.1,156.2-4.4,186.8-43.7,221.8c-15.4,13.7-43.6,42.2-125.1,56.4
					c-24.5,4.3-53.7,7.2-88.9,8.1c-14.3,0.4-27.5-0.2-39.6-1.5c-10.1-1.1-19.4-2.7-28-4.9c-89.6-22.5-96.3-99.2-57.1-163.8
					c10.4-17.1,22.2-32.8,34.7-47.5c19.2-22.6,39.8-42.7,58.4-61.5c17.2-17.3,32.7-33.5,44-49.4c4.8-6.7,8.8-13.4,11.8-20.1
					c0.7-1.6,1.5-3.2,2.2-4.7c2.4-5.1,4.9-10,7.4-14.6c4.7-8.8,9.5-16.8,14.1-24c3.7-5.7,7.3-10.9,10.6-15.5
					c11.4-15.8,19.9-24.7,19.9-24.7s1.1-0.5,3-1.3c1-0.4,2.3-1,3.9-1.5c0.6-0.2,1.3-0.5,2-0.7c0.7-0.2,1.4-0.5,2.2-0.8
					c0.7-0.2,1.4-0.5,2.1-0.7c0.9-0.3,1.8-0.6,2.7-0.9c0.6-0.2,1.1-0.4,1.7-0.5c0.3-0.1,0.7-0.2,1-0.3c0.1,0,0.3-0.1,0.4-0.1
					c11.6-3.6,27.6-7.3,45-7.9C1554.2,593,1618.1,618.4,1618,755.7z"/>
			</g>
			<g>
				<path class="st27" d="M1409.6,990.8c0,0,1.3,10.5,3,15.1c1.7,4.6,10.9,15.3,7,25.5c-4.2,11.1-22.7,0.4-30.2-3
					c-7.5-3.4-5.8-9.5-6.6-17.1s-4.5-7.7-3.1-13c1.4-5.3,9.6-15.4,9.6-15.4L1409.6,990.8z"/>
			</g>
			<g>
				<g>
					<path class="st16" d="M1392.8,977.5c0,0-4.7,6.6-4.6,6.8c0.1,0.2,20.3,12.4,21.7,8.5c1.1-3.2,1.6-7.7,1.6-7.7L1392.8,977.5z"/>
				</g>
			</g>
			<g>
				<path class="st27" d="M1324.5,998.3c0,0-6.1,5.4-11.7,13.7c-5.5,8.3-20.1,8.7-20.8,20c-0.6,11.3,19.9,11.6,30.7,8
					c10.8-3.7,12.4-14.7,18.9-17.5c6.5-2.8,9.9-5,9.4-10.4c-0.5-5.4-4.1-14.1-4.1-14.1s-4,1.3-6.4,1.6
					C1338.2,999.7,1330.2,999.8,1324.5,998.3z"/>
			</g>
			<g>
				<path class="st28" d="M1398.4,692.4c0,0-4.1,24.6-7.5,40.8c0,0,0,0,0,0c-1.4,6.6-2.6,11.8-3.3,13.4c-1,2.1-8.7,10.4-18.2,20.2
					c-16.6,17.1-38.6,38.7-38.6,38.7l-8.6-16.3c0,0,19.5-22.9,32.8-38.2c6.1-7.1,10.9-12.5,11.8-13.3c2.8-2.5,6-26.9,10.5-47
					c4.5-20.1,13.6-31.2,13.6-31.2L1398.4,692.4z"/>
			</g>
			<g>
				<path class="st16" d="M1369.4,766.8c-16.6,17.1-38.6,38.7-38.6,38.7l-8.6-16.3c0,0,19.5-22.9,32.8-38.2
					C1359,753,1366.5,757.7,1369.4,766.8z"/>
			</g>
			<g>
				<path class="st16" d="M1325.5,990.7l-1,7.5c0,0,10.7,3.8,22.5-0.3l0.2-6.7L1325.5,990.7z"/>
			</g>
			<g>
				<path class="st28" d="M1477.2,802.2c0.6,2.2-113.2,0-113.2,0s31.5-22.9,33.5-29c2-6.1-8-42.8-9.3-54.8c-1-9.6-3.7-52.3,2.6-58.9
					c6.6-6.8,30.3-14,30.3-14l34.6,1.3c0,0,5.7,1.2,9.8,3.1c4.1,1.9,27.4,10.2,31.2,21.9c3.8,11.7-23.3,49.1-23.3,49.1
					s-0.1,1.7-0.1,4.4v0c-0.1,3.7-0.3,9.3-0.4,15.3c-0.2,7.9-0.3,16.5-0.3,22.8C1472.6,778.3,1476.6,800,1477.2,802.2z"/>
			</g>
			<g>
				<path class="st18" d="M1477.2,802.2c0,0,15.5,22.7,15.7,38.3c0.2,15.5-27.5,67.5-31.7,74.9c-12.6,22.4-47.1,70.6-47.1,70.6
					s-6-0.2-24.5-7.4c0,0,23-63.7,25.9-70.3c12.4-28,19.2-47.9,15.1-52.7c-4.2-4.8-15.5-9.6-18.8-12.5c-3.3-2.8-60.4,10.8-66.4,12.3
					c-15.5,4-8.4,31-5,43.1c5.7,20.2,10.8,93.3,10.8,93.3s-11,4.7-29.5,0.7c0,0-36.3-131.9-37.5-145c-1.2-13.1-1.7-34.7,87.7-51.2
					L1477.2,802.2z"/>
			</g>
			<g>
				<path class="st16" d="M1430.6,570.3c0,0-30-6.8-23.2,31c6.9,37.8,14.1,40.8,32.2,32.9c18.1-7.8,16.5-32,17.4-43.9
					C1458,578.5,1440.2,570.7,1430.6,570.3z"/>
			</g>
			<g>
				<path class="st16" d="M1422.7,655.2c0,0,13.3,14.1,34.3,1.3c0,0-4.7-30.5-2.2-45.4c2.5-14.9-27.4,23.1-27.4,23.1
					c0.4,0.2,0.7,1.6,0.7,3.6c0.1,1.7,0,3.9-0.3,6.1C1427.1,648.7,1425.6,653.9,1422.7,655.2z"/>
			</g>
			<g>
				<path class="st29" d="M1455.6,609.8c0,0-0.8-11.9-5.1-12.3c-4.3-0.4-5,4.4-5,4.4l-4.4,0.8c0,0,1.4-10.4-3-12.3
					c-4.3-1.8-28.1,5.7-31.6,2.7c-3.5-3.1-1.8-24.2,4.5-27.1c6.3-2.9,23.7-9.4,36.5-0.8c0,0,9.9-1.1,11.4,6.9
					C1460.3,580.2,1458.3,603.8,1455.6,609.8z"/>
			</g>
			<g>
				<path class="st30" d="M1427.8,643.8c21.7-6.7,23.3-19.7,23.3-19.9c-7.1,12.3-23,13.9-23,13.9
					C1428.1,639.4,1428,641.6,1427.8,643.8z"/>
			</g>
			<g>
				<path class="st16" d="M1465.9,650c0,0-15.9,31.6-41.5,29.6c-25.6-2-4.4-33.8-3.2-34.1C1422.4,645.1,1447.5,638.9,1465.9,650z"/>
			</g>
			<g>
				<path class="st28" d="M1351,800.6c0,0,78.6,9.7,126.2,1.6l-91-11.4C1386.2,790.8,1385.7,793.1,1351,800.6z"/>
			</g>
			<g>
				<path class="st16" d="M1409.8,787.2l-5.9,3c0,0,1.3,9.3,4.5,12.1l6.6-1.7C1415,800.6,1413.7,790.4,1409.8,787.2z"/>
			</g>
			<g>
				<path class="st28" d="M1500.7,768.2c-1.2,1.4-16.6,7.6-34.1,14.3l0,0c-23.8,9.2-50.7,17.9-50.7,17.9l-6.1-13.1
					c0,0,28.2-15.3,47.2-26c9-5.1,15.9-9.1,16.9-10.1c3.1-2.9,3.9-7.6,1.6-15.7c-2.3-8.2-7.4-45.6-8-50c-0.6-4.4,1.5-16,12.4-16.6
					s16.5,2.5,16.5,2.5s2.7,1.1,4.8,27.7C1503.2,725.5,1503.5,765,1500.7,768.2z"/>
			</g>
			<g>
				<path class="st31" d="M1473.3,725.3L1473.3,725.3c-0.1,3.7-0.3,9.3-0.4,15.3c-10.7-26.1-4.5-47-4.4-47.4
					C1467.4,700.4,1473.2,724.9,1473.3,725.3z"/>
			</g>
			<g>
				<path class="st31" d="M1391,733.2C1391,733.2,1391,733.2,1391,733.2c-1.4,6.6-2.6,11.8-3.3,13.4c-3.6-17.6-0.4-40.2-0.4-40.2
					C1387.8,717.2,1391,733.2,1391,733.2z"/>
			</g>
			<g>
				<path class="st16" d="M1466.6,782.5L1466.6,782.5c-23.8,9.2-51.6,18.2-51.6,18.2l-5.3-13.4c0,0,28.2-15.3,47.2-26
					C1457,761.2,1463.9,764.5,1466.6,782.5z"/>
			</g>
			<g>
				<polygon class="st32" points="1408.1,801.4 1296.4,799.8 1352.8,828.4 				"/>
			</g>
			<g>
				<polygon class="st33" points="1352.8,828.4 1408.1,807 1408.1,801.4 1348.4,822.9 				"/>
			</g>
			<g>
				<g>
					<path class="st16" d="M1405.2,790.4c0,0-7-1.1-11.8-2.2c-3.7-0.9-13,0.3-15.4,2.7c-2.4,2.4-9.9,19.1-11.3,20.1
						c-1.4,1,0.7,3.4,3.2,2.2c0,0,2.3,7.3,7.9,4.6c5.7-2.7,9.5-8.7,12.5-9.8c3-1.1,20.2-6.4,20.2-6.4S1409.6,788.6,1405.2,790.4z"/>
				</g>
			</g>
			<g>
				<g>
					<path class="st16" d="M1379.7,789.8c0,0-4.5,2.2-5.7,3.1c-1.2,1-5.9,4.5-7.1,5.3c-1.1,0.8,1.7,3.2,10.2-0.5
						C1385.7,794.1,1379.7,789.8,1379.7,789.8z"/>
				</g>
			</g>
			<g>
				<polygon class="st33" points="1352.8,828.4 1319.6,737.7 1212.5,739.4 1244.1,823 				"/>
			</g>
			<g>
				
					<ellipse transform="matrix(0.8944 -0.4473 0.4473 0.8944 -214.8479 653.9273)" class="st34" cx="1277.2" cy="781.9" rx="9.1" ry="13.2"/>
			</g>
			<g>
				<path class="st16" d="M1445.6,596.9c0.4-3.3,7-4.6,7.5,0.4c0.5,5-3,13.8-5.5,12.9C1445.1,609.3,1445,601.5,1445.6,596.9z"/>
			</g>
			<g>
				<ellipse class="st28" cx="1449.2" cy="602.1" rx="8.6" ry="12.3"/>
			</g>
			<g>
				<g>
					<path class="st28" d="M1452.4,594.6l-3.8-0.6c0-0.2,2.9-19-4.3-27.2c-2.3-2.6-7.1-5.9-11.1-5.8l4.4,0c5.2-0.1,8,1.6,9.7,3.3
						C1456.2,573.3,1452.5,593.8,1452.4,594.6z"/>
				</g>
			</g>
			<g>
				<path class="st28" d="M1430.1,627.8l-0.8-1.5c14.5-7.2,19-21.8,19.1-22l1.6,0.5C1449.8,605.4,1445.3,620.2,1430.1,627.8z"/>
			</g>
			<g>
				<circle class="st28" cx="1429.7" cy="627" r="2.9"/>
			</g>
		</g>
		<g>
			<path class="st35" d="M679.8,686c0,0,12.9,0.8,16.5,2.8c3.6,2,28.1-5.7,28.5-7.5c0.5-1.8,0-2.7,0-2.7h-48L679.8,686z"/>
			<g>
				<path class="st35" d="M621.8,629c0,0-4.1,32.4,0,36.6c15.8,16.2,74.1,14.9,74.1,14.9l0,6.6c0,0-88.7,11.1-97-6.1
					c-9.9-20.7-6.1-54.4-6.1-54.4L621.8,629z"/>
			</g>
			<g>
				<polygon class="st36" points="592.5,970.4 597.8,964.4 588.3,954.4 580.2,960.1 				"/>
			</g>
			<g>
				<path class="st37" d="M580.2,960.1c0,0,10.9,8.2,13.9,8.5c3,0.3,4.4,1.7,4.1,6.3c-0.4,4.6,4.4,24,7.7,24.3
					c3.3,0.3,14.6,0.4,16.7,7.8c2.1,7.5-35.9,5.9-38.3-0.2c-2.4-6.1-18.7-35.8-16.8-38.2C569.5,966.2,574.7,960.8,580.2,960.1z"/>
			</g>
			<g>
				<path class="st21" d="M649.9,728.2c0,0,71,123.6,42.2,149.2c-11.3,10-22.2,19.1-37.8,32.5c-8.3,7.1-18.3,15.4-30.2,27.8
					l-0.5,0.5c-8.5,8.8-15.5,16.3-17.6,18.6c-0.1,0.1-0.1,0.1-0.2,0.2l-0.2,0.3l-7.9,7.5L586,954.6c0,0,13.1-18.2,20.5-32.1
					c10.4-19.6,27.9-42.6,35.9-49c13.8-11,17.6-13.2,17.6-23.7c0-11.3-65-74.3-65-74.3s-9.4-39.5,13.1-49.8
					C630.1,715.5,649.9,728.2,649.9,728.2z"/>
			</g>
			<path class="st38" d="M595.8,989.5c0,0-0.4-5.7,0.5-9.3c1-3.6-14.7-1.6-14.7-1.6s-2,15.2-1.4,18.7
				C580.8,1000.8,595.8,989.5,595.8,989.5z"/>
			<g>
				<path class="st21" d="M598.7,980.2l-21.1,3.8c0,0-1.5-26.9-1.2-47.6c0.3-22.2-0.8-39.6,6-57.3c6.3-16.5,4.9-22.8,5.4-34.1
					c0.6-11.3-5.4-69.3-5.4-69.3s-7.2-26,9.5-44.3c16.3-17.9,58.3-0.1,58.3-0.1s-8.8,79.3-29.8,128.3c-6,13.9-2.7,22.3-10.3,43.8
					C610,903.5,598.5,950.3,598.7,980.2z"/>
			</g>
			<g>
				<path class="st38" d="M617.1,574.7c-1.1,1.9-1.9,4.3-2.5,6.8c-0.6,2.4-0.9,4.9-1.2,7.2c-0.5,5.1-0.4,9.2-0.4,9.2
					s-28.2-6.1-23.5-12.7c4.6-6.6,1.9-26.5,1.9-26.5S620.7,568.5,617.1,574.7z"/>
			</g>
			<g>
				<path class="st16" d="M632.9,520.4c0,0,7.2,6.3,4,24.3c0,0,1.6,14.4,3.8,16.9c2.2,2.5-5.9,3.4-6.8,5.2
					c-0.9,1.8-2.5,10.2-8.1,15.3c-5.6,5.1-33.6-10.3-35-18.9c-1.4-8.7-20.7-45.8,9.9-47.5C631.5,514,632.9,520.4,632.9,520.4z"/>
			</g>
			<g>
				<path class="st28" d="M652.2,653.5c-0.6,1.8,1.6,29.5,1.4,31.9c-1.1,13.1,2.3,33.1,3.6,40.2c0.3,1.7,0.5,2.6,0.5,2.6
					c-30.4,14.9-72.7,13.6-72.7,13.6c0.2-1.2,6.1-15.4,6.2-16.5c2.5-17.8,6.2-26,5.2-38.1l0,0c-0.6-6.8-2.3-13.9-5.9-22.7
					c-10.3-25.4-9.8-42.2-8.1-56.2c1.7-13.9,5.9-21.9,5.9-21.9l25.7,2.8c5.5,6,10.3,9.3,25.8,23
					C656.4,626.8,659.2,631.3,652.2,653.5z"/>
			</g>
			<g>
				<path class="st39" d="M579.3,993.4c0,0,14.9-4.2,15.3-4.6c0.4-0.4,0.5-1.3,2.6-0.5c2,0.8,2.9,3.9,4.9,4.9c2,1,14.3,4.6,21,7.9
					c2.4,1.2,12.7,5.1,14.2,8.4c1.5,3.3,1,8.2-16.6,7c-17.6-1.2-36.9,1.3-40.8-0.6C575.9,1013.9,578.2,998.5,579.3,993.4z"/>
			</g>
			<g>
				<path class="st40" d="M637.7,538.2c0,0,3.4-37.4-32.9-30.8c-36.3,6.7-17.6,47.6-12.7,60.9c0,0-0.6-20.7,16.9-21.4
					C626.5,546.4,630.1,542.3,637.7,538.2z"/>
			</g>
			<g>
				<path class="st38" d="M606.2,541.8c-2.2-3.8-9.7-1.8-8.8,4c0.9,5.8,6.9,11.6,8.9,8.8C608.2,551.8,609.4,547.4,606.2,541.8z"/>
			</g>
			<g>
				<path class="st38" d="M607,615.3c0,0-3,32.1,1.1,36.3c15.8,16.2,77.9,16.5,77.9,16.5l3,9.3c0,0-92.4,6.3-100.6-10.9
					c-9.9-20.7-6.1-54.4-6.1-54.4L607,615.3z"/>
			</g>
			<path class="st40" d="M593.3,516.7c0,0-14-13.4-23.9,1.8c-9.9,15.2,11.8,36.4,20.6,23.8C598.9,529.7,593.3,516.7,593.3,516.7z"/>
			<path class="st30" d="M614.6,581.4c-0.6,2.4-0.9,4.9-1.2,7.2c-9.4-4.3-16.3-17.3-16.3-17.3C603.9,577.2,614.6,581.4,614.6,581.4
				C614.6,581.4,614.6,581.4,614.6,581.4z"/>
			<rect x="660.1" y="677.5" class="st41" width="88.1" height="4.9"/>
			
				<rect x="721.8" y="639.5" transform="matrix(0.4505 -0.8928 0.8928 0.4505 -152.2918 1036.559)" class="st41" width="88.1" height="4.9"/>
			<path class="st38" d="M673.1,668.2c0,0,12.9-1,16.5-3.6c3.6-2.6,28.1,7.2,28.5,9.5c0.5,2.3,0,3.4,0,3.4h-48L673.1,668.2z"/>
			<polygon class="st28" points="588.4,586.4 590.2,581.5 614.9,586.4 614.9,590.8 			"/>
			<g>
				<path class="st38" d="M607,615.8c0,0,2.6-18.6-10.3-20.2s-14.4,16.7-14.4,16.7L607,615.8z"/>
			</g>
		</g>
		<g>
			<g>
				<g>
					<path class="st42" d="M1918.4,821.9c0,0-0.6,8.2-2.5,11.4s-8.1,22-10.7,26.8c-2.7,4.8-13.3,8.2-12.8,16.7
						c0.5,8.4,20,9.8,25.5,5.7c5.4-4,23-29.4,25.1-33c2-3.7,2.8-16.2-0.9-19.7c-3.7-3.5-7.7-10.9-7.6-12.6
						C1934.5,815.4,1920.5,818.4,1918.4,821.9z"/>
				</g>
			</g>
			<g>
				<g>
					<path class="st43" d="M1941.1,570.7c0,0-35.2,46.4-41.3,60.1c-6.1,13.7-16.5,33.3-16.5,39.7s5.4,32.3,8.1,37.2
						c2.7,4.9,21.2,88.5,22.2,93.9c1,5.4,4.8,20.3,4.8,20.3l16-4.8c0,0,1.7-74-1.2-88.7c-2.9-14.7-11.5-36-10.2-42.7
						c1.3-6.7,22.9-25.3,37.7-35.3c14.8-10,32.4-25.6,33.4-41.8c1-16.2-7.2-34.4-7.2-34.4S1970.2,562.3,1941.1,570.7z"/>
				</g>
			</g>
			<g>
				<g>
					<path class="st43" d="M1901.6,566.6c0,0-10.1,14.9-15.2,18.6c-5.1,3.7-40.2,37.2-50.3,53.6c-10.1,16.4-13.6,18.9-11.5,26
						c2.1,7.1,5.1,26.2,7.4,31.1c2.3,4.9,31.7,121.8,31.7,121.8s12.1,3.1,15.6-2.3c0,0-6.9-50.7-5.1-69c1.8-18.4-1.8-45.1-9.5-58.6
						c-7.7-13.5-2.3-22.5,6.5-28.6c8.8-6.1,57.7-33.8,57.7-33.8S1988.3,543.3,1901.6,566.6z"/>
				</g>
			</g>
			<g>
				<g>
					<path class="st42" d="M1864.2,817.1c0,0-0.3,2.9-1.1,3.3c-0.9,0.4-14.8,20.9-17.4,23.9c-2.7,2.9-19.3,7.7-19.6,9.7
						s2.3,13,15.9,13.2c13.6,0.2,25-11.5,30.6-15.9c5.6-4.4,21.7-9.2,15.3-20.1c-6.4-10.9-8.4-15.8-8.4-15.8L1864.2,817.1z"/>
				</g>
			</g>
			<g>
				<g>
					<path class="st43" d="M1939.9,827.3c0,0-4.3,6.8-7.1,16.4c-2.8,9.5-13.6,21.9-21.1,21.5c-7.5-0.4-6.2-5.8-6.2-5.8
						s7.9-21.7,11.2-28.7c0.6-1.2,1.3-6.6,1.7-8.8c0.2-1.2,11.1-5.6,16-4.8C1934.4,817.1,1938.8,825.8,1939.9,827.3z"/>
				</g>
			</g>
			<g>
				<g>
					<path class="st43" d="M1845,844.8c0,0,2.5,6.6,8.8,5.4s13.4-8.3,17.1-12.3c3.7-4,14.2-11.5,14.2-11.5l-5.7-11.1l-15.2,0.9
						L1845,844.8z"/>
				</g>
			</g>
			<g>
				<g>
					<path class="st44" d="M1901.9,565.4c0,0-10.9,14.3-14.4,17.1c-3.5,2.8-34.5,28-53.4,59.5c0,0,60.7-2.1,94.6,35.3
						c0,0,32.8-27.2,36.4-29.9c3.6-2.7,27.2-16.6,29.1-38.8c1.9-22.2-7.2-34.4-7.2-34.4S1920.5,558.9,1901.9,565.4z"/>
				</g>
			</g>
			<g>
				<g>
					<path class="st44" d="M1894.2,501.1c8,13.5,9.4,61.3,7.3,65.9c0,0,46.1,14.2,86,8.5c0,0-2-4.3-4-10c-0.8-2.3-1.7-4.8-2.6-7.4
						c-2.8-8.1-6-16.8-7.7-20.8c-3.5-8.4-2.3-22.4,0.5-27.3c2.8-4.9,19.2-41.3,19.2-41.3s8.8-25.9-6.3-34
						c-15.2-8.1-29.3-10.8-29.3-10.8l-26.7-1.8c0,0-5.8,1.1-13.7,1.8c-7.8,0.7-15.9,2-17.6,15c-1.6,13-3.3,19.8-4.9,23.2
						C1892.9,465.4,1885.1,485.8,1894.2,501.1z"/>
				</g>
			</g>
			<g>
				<g>
					<path class="st44" d="M1976.9,430.1c0,0,15.7,2.2,22.6,14.2c6.9,12.1,6.4,28.3,8,34.8c1.5,6.5,10.8,66.9,9.1,72.2
						c-1.7,5.2-8.3,14-18.2,13c-9.9-1.1-50-22-50-22s5.4-15.7,5.4-18.9l38.6,13.5c0,0-9.3-63.2-10.4-70.2
						C1980.7,459.7,1973.1,436.3,1976.9,430.1z"/>
				</g>
			</g>
			<g>
				<g>
					<path class="st44" d="M1909.9,425c0,0-12,2.4-18.7,12.3c-4.7,6.9-5.1,22.2-5.7,25.1c-0.7,2.9-9.6,35.5-9.6,35.5l24.9,16.7
						L1909.9,425z"/>
				</g>
			</g>
			<g>
				<g>
					<polygon class="st45" points="1898.5,487.9 1985.9,462 1989.4,464.9 1996.7,533.6 1898.5,570.5 					"/>
				</g>
			</g>
			<g>
				<g>
					<path class="st45" d="M1908,377.3c0,0,8.3,40,2.4,51.1c0,0,18.1-6.6,21.6-14C1935.6,407,1908,377.3,1908,377.3z"/>
				</g>
			</g>
			<g>
				<g>
					<g>
						<path class="st16" d="M1928,407.8c0,0,0.4,4,0.9,9.3c0.2,1.8,0.3,3.8,0.5,5.8c0.5,6.5,0.9,13.5,0.6,17.1
							c0,0,12.9,13.8,27.6-16.1c0,0-6.2-12.3-1.5-29.1C1960.6,378,1928,407.8,1928,407.8z"/>
					</g>
				</g>
			</g>
			<g>
				<g>
					<path class="st16" d="M1928.2,328.5c0,0-22.8,2.2-23.8,31.4c-1,29.2,11.4,53.2,15.6,56.8c4.2,3.6,26.6-2.3,30.3-17.9
						c3.7-15.6,10.3-27.4,7.8-40.1C1955.5,346.1,1956.1,324.5,1928.2,328.5z"/>
				</g>
			</g>
			<g>
				<g>
					<path class="st45" d="M1904.7,370.9c0,0-10-35,19.4-45.2c29.4-10.2,42.4,10.5,46.7,23.2c4.3,12.7,5,50,5,50s-18,21.3-29.5,27.7
						c0,0,5.7-40.5-1.1-68.2c0,0-24,7.2-40.7,4.9C1904.4,363.4,1904.5,369.4,1904.7,370.9z"/>
				</g>
			</g>
			<g>
				<g>
					<path class="st30" d="M1928.8,417.1c0.2,1.8,0.3,3.8,0.5,5.8c13.2-7,16.2-15.2,16.2-15.2
						C1936.7,416.4,1928.8,417.1,1928.8,417.1z"/>
				</g>
			</g>
			<g>
				<g>
					<path class="st46" d="M1894.3,462.6c0,0-14,23.8-10.9,39.3c3.1,15.5,13.7,6.4,13.7,6.4S1883,490.7,1894.3,462.6z"/>
				</g>
			</g>
			<g>
				<g>
					<polygon class="st45" points="1892.9,570.5 1836.1,521.2 1820.3,440.4 1889.1,488 					"/>
				</g>
			</g>
			<g>
				<g>
					<polygon class="st45" points="1898.5,570.5 1892.9,570.5 1889.1,488 1898.5,487.9 					"/>
				</g>
			</g>
			<g>
				<g>
					<path class="st16" d="M1953.3,526c0,0-7.4-2.6-8.1-3.2c-0.8-0.5-1.8-8.3-5.5-11.2c-3.6-3-8.4-6.1-9.3-7.5
						c-0.9-1.4-3,2.7,0.3,6.2c3.2,3.5,3.3,6.3-4.7,4.5c-4.4-1-18.8-9.7-18.7-6.4c0.1,1.9,14.3,9.7,14.3,9.7s-15.7-7.2-16.7-6.5
						c-1.9,1.5,13.7,9.4,14.4,9.7c0,0-13.9-5.3-14.5-4.1c-0.8,1.5,13.2,7.1,13,7.3c0,0-11.1-4.1-11.4-3.1c-0.4,1.4,9,5.8,11,6.4
						c1.9,0.6,22.1,7.8,25.5,8.2c3.4,0.4,6.3,4,6.3,4L1953.3,526z"/>
				</g>
			</g>
			<g>
				<g>
					<path class="st44" d="M1950.6,523.1c0,0-4.5,10.3-5.2,17.8c0,0,25.1,13.1,41.4,19.6l12.6-27.4l-2.7,0.5l-4.2,1.6
						C1992.4,535.2,1960,525.8,1950.6,523.1z"/>
				</g>
			</g>
			<g>
				<g>
					<path class="st43" d="M1862.6,813.2c0,0-1.1,10.2-2.8,11.1C1858.2,825.2,1876.6,820.8,1862.6,813.2z"/>
				</g>
			</g>
			<g>
				<path class="st46" d="M1963.2,549.8c0.4,0.3,13.7,10.8,20.4,15.6c-0.8-2.3-1.7-4.8-2.6-7.4L1963.2,549.8z"/>
			</g>
			<g>
				<polygon class="st45" points="1836.1,521.2 1814.7,442.9 1820.3,440.4 				"/>
			</g>
			<g>
				<g>
					<g>
						<path class="st16" d="M1835.4,518.7c0,0-2-3.5-3.7-7.9c-1.7-4.4-6.6-21-5.6-21.7c1-0.7,13.7,2.1,15.5,4.7c1.8,2.6-3,2.3-3,2.3
							s6.7,2.4,5.7,4.3c-1,1.8-5,0.3-5,0.3s5.3,2.4,4,3.9c-1.3,1.5-3.9,0.8-3.9,0.8s4.8,1.8,3.7,3.6s-9.3,1.5-8.6,3.4
							C1835.3,514.1,1835.4,518.7,1835.4,518.7z"/>
					</g>
				</g>
			</g>
		</g>
	</g>
</g>
<g>
	<g>
		<g>
			<g>
				<path class="st47" d="M371.9,425.1l33.3,2.7l-10.7,26.9l-16.8-1.3l-7,22.5c-1.7-0.8-3-1.4-3.2-1.5c-0.5-0.4-2.3-11.5-4-22
					L371.9,425.1z"/>
				<path class="st48" d="M390.9,672.7v11.8c0,0.9,0.8,1.8,1.8,1.8H420c2,0,2.8-2.6,1.1-3.6l-15.4-9.9
					C405.8,672.7,399.7,677.2,390.9,672.7z"/>
				<path class="st49" d="M337.1,175.3c-0.4,0.1-0.8-0.2-0.7-0.6c0.7-3.3,2.8-13.5,2-13.9c-0.9-0.4-3.1,8.7-4,8.8
					c-0.9,0.1,1.3-8.8,0.2-9.1c-1.1-0.3-2.8,7.8-3.4,7.9c-0.5,0,0.4-8-0.1-8.5c-0.5-0.6-2.5,7.9-3.1,8c-0.6,0.2-1.2-6.1-1.7-6.1
					c-0.5,0-0.9-0.1-3.6,14.3c0,0-0.1,5.3-1.1,6.6l2.1,4.2l6.5,0.2c0,0,14-12.7,13.9-13.5C343.9,173.1,343.3,172.8,337.1,175.3z"/>
				<path class="st49" d="M403.7,178.5c0.3,0.3,0.8,0.2,0.9-0.2c0.9-3.2,3.7-13.3,4.5-13.3c1,0.1-1.2,9.1-0.4,9.6
					c0.8,0.5,2.8-8.4,3.9-8.2c1.1,0.2-1,8.3-0.6,8.5c0.4,0.3,3.3-7.2,4-7.5c0.7-0.2-1.3,8.1-0.9,8.6c0.4,0.4,3.8-4.9,4.3-4.6
					c0.5,0.2,0.9,0.3-3.3,14.5c0,0-2.3,4.8-2,6.4l-3.8,2.8l-5.8-2.8c0,0-6.7-17.7-6.3-18.3C398.7,173.4,399.3,173.5,403.7,178.5z"/>
				<polygon class="st49" points="352.3,294.2 352.4,318.9 328.4,315.2 332.5,287.4 				"/>
				<path class="st50" d="M330.6,300.2l1.8-12.8l19.9,9.1v4.9C347.6,302.6,338.6,303.6,330.6,300.2z"/>
				<path class="st48" d="M308.9,671.4v12.8c0,1.1-0.9,1.9-1.9,1.9h-30.1c-2.2,0-3-2.8-1.2-4l16.9-10.8
					C292.6,671.4,299.2,676.3,308.9,671.4z"/>
				<g>
					<g>
						<g>
							<path class="st51" d="M281.4,452.8c0.1-2.8-7.1,5.3-7,3.1c2.8-45.7,92.1-7.4,92.1-7.4l21.8,16L413,676.3
								c0,0-13.4,3.9-22.1,0.7l-54.5-181.5l-6.7-2.6C329.6,493,299.8,472.2,281.4,452.8z"/>
						</g>
					</g>
				</g>
				<g>
					<g>
						<g>
							<path class="st52" d="M274.4,457.8c0,0.5-0.1,1.1-0.1,1.7C274.3,458.9,274.4,458.3,274.4,457.8z"/>
						</g>
						<g>
							<path class="st52" d="M274.3,459.5c0,0.6-0.1,1.2-0.1,1.8C274.2,460.6,274.3,460.1,274.3,459.5z"/>
						</g>
						<g>
							<path class="st52" d="M274.2,461.4c0,0.7,0,1.2-0.1,1.9C274.1,462.7,274.2,462.1,274.2,461.4z"/>
						</g>
						<g>
							<path class="st52" d="M274.4,455.9c0,0.5-0.1,1-0.1,1.5C274.4,456.9,274.4,456.4,274.4,455.9z"/>
						</g>
						<g>
							<path class="st51" d="M274.4,445.5c18.4,19.4,55.2,47.4,55.2,47.4l6.7,2.6l-6.7-2.6l-20.7,183.4c0,0-14.7,2.8-23.2-1.8
								C285.7,674.6,273.3,500.1,274.4,445.5z"/>
						</g>
						<g>
							<path class="st52" d="M413,676.4c0,0-5.8,1.7-12.2,1.9C407.2,678.1,413,676.4,413,676.4L413,676.4z"/>
						</g>
						<g>
							<path class="st52" d="M393.4,677.8c0.6,0.1,1.2,0.2,1.8,0.3C394.6,678,394,677.9,393.4,677.8z"/>
						</g>
						<g>
							<path class="st52" d="M400.8,678.3c-1.5,0.1-3.1,0.1-4.7-0.1C397.7,678.4,399.2,678.4,400.8,678.3z"/>
						</g>
					</g>
				</g>
				<path class="st53" d="M388.4,464.5l3.5,30.2c-9.3,3.6-32,7.4-49-29.9c-5.4-11.8-6.8-20.2-5.8-26.3c16.3,4.4,29.5,10,29.5,10
					L388.4,464.5z"/>
				<path class="st47" d="M306.4,341.2c1,0,16.5-35,16.5-35c13.2,9.3,31.2,2.8,31.2,2.8s72.3,132.3,23.8,152.9
					c-48.5,20.7-94.2-4.5-94.2-4.5s-10.3-26.8-10.3-27.8C273.4,428.5,305.4,341.2,306.4,341.2z"/>
				<path class="st54" d="M400.6,192.6c0,0,3.1,62.8-2.8,74.2c-19.5,38.2-43.7,42-43.7,42s-8.3,133.4-1.5,165.4
					c0,0,22.8,7.1,56.6-8.8c0,0-25.8-103.5-24.4-116.5c0,0,41.2-36.8,42.6-80.1s-10-81.8-10-81.8L400.6,192.6z"/>
				<path class="st54" d="M289.4,469.5c0,0,2.6-49.7,13.9-96.8c11.3-47.1,19.6-66.7,19.6-66.7c-15.2-16.8-12.7-31.9-11.3-51.5
					c1.5-22.7,23.7-68,23.7-68l-15-9.9c-71.7,86.1-32,154.7-32,154.7s-26.8,94.9-30.4,123.7C257.9,455.1,272.2,463.3,289.4,469.5z"
					/>
				<path class="st17" d="M384.1,348.9c-0.9-0.6-1.9-1.5-2.8-2.8c-3.1-3.6-4.6-7.8-5.7-12.4c0.7,2,2.4,7.7,6.1,12
					c1.7,1.9,2.6,2.6,3.4,3.1c-0.1,0.1-0.2,0.2-0.2,0.2c0,0.1,0,0.1,0,0.3c-0.9,0.2-2.6,0.3-5.5-1.3c-1.8-0.9-3.1-2-4.6-3.3
					c0.9,0.7,2.9,2.1,4.7,3C380.8,348.3,382.7,349,384.1,348.9z"/>
				<path class="st17" d="M288.9,331c1.2-0.8,2.3-1.9,3.3-3c3.1-3.6,4.7-7.8,6.1-12c-1.1,4.6-2.6,8.8-5.7,12.4c-1,1.2-2,2.1-2.8,2.8
					c0.7,0.1,1.5-0.1,2-0.2c0.9-0.2,1.8-0.6,2.6-0.9c1.8-0.8,3.4-2,4.7-3c-1.3,1.1-2.8,2.3-4.6,3.3c-0.8,0.4-1.7,0.8-2.6,1.1
					c-0.9,0.2-1.9,0.4-2.9,0.1l-0.6-0.1L288.9,331z"/>
				<polygon class="st51" points="317.9,243.8 316.5,260.7 319.1,262.5 324.1,241.8 				"/>
				
					<ellipse transform="matrix(-0.1883 -0.9821 0.9821 -0.1883 120.0236 619.329)" class="st55" cx="315.9" cy="260.1" rx="7.1" ry="5.7"/>
				<path class="st49" d="M317.1,274.7c-0.8-4.9-0.7-9.9-0.2-14.2c0.1-0.9,0.1-1.8,0.1-2.8c0.1-3.7,0.9-7.6,2.5-11.4
					c5.3-12.2,18.2-19.6,31.4-18c17.7,2.2,29.4,18.9,26.1,36c2-0.7,4.2-0.5,5.8,0.7c3.2,2.3,3.5,7.4,0.7,11.4
					c-2.8,4-7.7,5.4-10.9,3.1c-0.4-0.3-0.8-0.7-1.2-1.1c-4.4,14.2-18.5,23.1-32.8,20C327.8,296,318.9,287.1,317.1,274.7z"/>
				<path class="st56" d="M349.9,261.1c-0.7,1.8,0.6,3.6,2.5,3.6c1,0,2-0.7,2.4-1.7c0.7-1.8-0.6-3.6-2.5-3.6
					C351.3,259.5,350.3,260.1,349.9,261.1z"/>
				<path class="st56" d="M327.4,257.7c-0.7,1.8,0.6,3.6,2.5,3.6c1,0,2-0.7,2.4-1.7c0.7-1.8-0.6-3.6-2.5-3.6
					C328.8,256.1,327.8,256.8,327.4,257.7z"/>
				<path class="st55" d="M346.4,279.6c-1.4,0.7-3,1.2-4.2,1.5c-1.5,0.3-3,0.4-4.5,0.1s-2.8-0.7-4.2-1.5c-1.2-0.7-2.4-1.8-3.4-2.8
					c1,1.5,2,2.3,3.2,3.2c1.3,0.8,2.6,1.4,4.3,1.6c1.5,0.2,3.1,0.1,4.6-0.3C343.7,281,345.2,280.4,346.4,279.6z"/>
				<path class="st51" d="M347.8,255.8c1.4-0.2,2.7-0.4,3.9-0.4c1.2,0,2.5,0.1,3.6,0.4c1.2,0.4,2.3,0.8,3.4,1.5
					c1.5,0.8,2.5,1.8,3.2,2.3c-0.5-1.2-1.2-2.7-2.3-3.5c-1-1-2.4-1.8-3.8-2.1c-1.5-0.4-2.9-0.4-4.4-0.1
					C350.1,254.2,348.8,254.8,347.8,255.8z"/>
				<path class="st51" d="M337.3,254c-0.7-1.2-1.8-2.3-2.9-3c-1.2-0.7-2.7-1.2-4.2-1.3c-1.5-0.1-3,0.1-4.3,0.8
					c-1.2,0.4-2.5,1.6-3.3,2.6c0.9-0.2,2.1-0.8,3.8-1.2c1.2-0.3,2.5-0.4,3.6-0.3c1.2,0.1,2.4,0.4,3.6,0.7
					C334.9,252.8,336,253.3,337.3,254z"/>
				<path class="st55" d="M341.9,257.4c-1.2,1.2-2.3,2.4-3.4,3.7s-2,2.7-3,4.2c-0.5,0.9-1.2,2-1.3,3.1c-0.1,0.6-0.1,1.1,0.9,2
					c0.6,0.7,1.3,1.2,2,1.7c0.7,0.4,1.5,0.9,2.2,1.2c-1.3-1.1-2.6-2.2-3.6-3.4c-0.1-0.2-0.4-0.7-0.6-0.9c-0.1-0.2,0.1-0.6,0.1-0.9
					c0.3-0.7,0.7-1.5,1.1-2.2c0.8-1.5,1.8-2.8,2.7-4.2C340,260.2,340.9,258.8,341.9,257.4z"/>
				<path class="st51" d="M321.1,225.7c0,0-8.9-1.8,2-7.1c10.9-5.4,37.9-8.5,51.9,3.5c0,0,4.7-6.1,9-3.4c4.2,2.7-4.5,5.6-4.5,5.6
					s5.9,1.2,7.1,4.5c0.9,2.4-2.8,1.8-4.7,1.2c3.2,1.3,12.7,10.3,0.4,34.7c-2.2-1-16.3-21.2-16.3-21.2s-28.3,9.3-23.2,1.6
					c0,0-33.1,8.3-25-6.6C317.9,238.5,305.7,236.7,321.1,225.7z"/>
				<path class="st51" d="M382.3,264.7c0,0-2.1-1.6-5.4-0.4c-3.3,1.2-5.3,8.5-5.3,8.5s-10.7,8.8-5.5-29.4
					c5.1-37.5,12.2,6.3,12.2,6.3L382.3,264.7z"/>
			</g>
		</g>
		<g>
			<path class="st57" d="M397.9,147.3l-48.9-3.5c-2.5-0.1-4.3-2.3-4.2-4.8l0,0c0.1-2.5,2.3-4.3,4.8-4.2l48.9,3.5
				c2.5,0.1,4.3,2.3,4.2,4.8l0,0C402.5,145.6,400.4,147.5,397.9,147.3z"/>
			<polygon class="st57" points="383.8,0 400.9,41.9 445.1,51.6 410.5,80.8 415.1,125.8 376.6,102 335.2,120.1 346,76.2 315.8,42.3 
				361,39 			"/>
			<g>
				<g>
					<polygon class="st58" points="383.8,0 379.5,61.5 400.9,41.9 					"/>
					<polygon class="st58" points="445.1,51.6 379.5,61.5 410.5,80.8 					"/>
					<polygon class="st58" points="379.5,61.5 361,39 315.8,42.3 					"/>
					<polygon class="st58" points="335.2,120.1 379.5,61.5 346,76.2 					"/>
					<polygon class="st58" points="415.1,125.8 379.5,61.5 376.6,102 					"/>
				</g>
			</g>
			
				<rect x="335.2" y="146.5" transform="matrix(-0.9975 -7.106639e-002 7.106639e-002 -0.9975 732.7183 345.2645)" class="st59" width="74.5" height="26.2"/>
			
				<rect x="370.2" y="134" transform="matrix(-7.104376e-002 0.9975 -0.9975 -7.104376e-002 568.8312 -187.2876)" class="st60" width="2.8" height="74.5"/>
			
				<rect x="372" y="109.9" transform="matrix(-7.104556e-002 0.9975 -0.9975 -7.104556e-002 546.7524 -214.7991)" class="st60" width="2.8" height="74.5"/>
			<path class="st58" d="M409.9,150.4l-73.2-5.3c-1.8-0.1-3.3-1.8-3.1-3.6l0,0c0.1-1.8,1.8-3.3,3.6-3.1l73.2,5.2
				c1.8,0.1,3.3,1.8,3.1,3.6l0,0C413.4,149.1,411.8,150.5,409.9,150.4z"/>
			<path class="st59" d="M409.7,181.5l-78.1-5.5c-0.5,0-0.9-0.4-0.8-0.9l0.4-4.9c0-0.5,0.4-0.9,0.9-0.8l78.1,5.5
				c0.5,0,0.9,0.4,0.8,0.9l-0.4,4.9C410.6,181.1,410.2,181.5,409.7,181.5z"/>
			<path class="st57" d="M385.9,166.7l-28.2-2c-3.5-0.2-6.1-3.3-5.9-6.8l0,0c0.2-3.5,3.3-6.1,6.8-5.9l28.2,2
				c3.5,0.2,6.1,3.3,5.9,6.8l0,0C392.4,164.3,389.4,167,385.9,166.7z"/>
			<path class="st61" d="M357.8,162.6c-2.5-0.1-4.4-2.5-3.9-5c0.4-2.1,2.5-3.6,4.7-3.4l27.9,2c2.2,0.1,4,1.8,4.2,4
				c0.1,2.6-2,4.7-4.5,4.5L357.8,162.6z"/>
			<path class="st57" d="M381.8,139.8l-15.7-1.1l0.1-1.5c0.4-5.9,1.1-18.2,10.4-35.3l0,0c7.1,19.6,5.7,30.5,5.3,36.4L381.8,139.8z"
				/>
		</g>
	</g>
</g>
</svg>
